<?xml version="1.0" encoding="UTF-8"?>
<svg id="_レイヤー_2" data-name="レイヤー 2" xmlns="http://www.w3.org/2000/svg" viewBox="0 0 121.29 224.1">
  <defs>
    <style>
      .cls-1 {
        fill: #ad4023;
      }

      .cls-2 {
        fill: #5a5f70;
      }

      .cls-3 {
        fill: #1f0e09;
      }

      .cls-4 {
        fill: #433a52;
      }

      .cls-5 {
        fill: #2f1c15;
      }

      .cls-6 {
        fill: #949aad;
      }

      .cls-7 {
        fill: #bd7b3e;
      }

      .cls-8 {
        fill: #e1613f;
      }

      .cls-9 {
        fill: #483a35;
      }

      .cls-10 {
        fill: #e8edef;
      }

      .cls-11 {
        fill: #fff;
      }

      .cls-12 {
        fill: #e0a978;
      }

      .cls-13 {
        fill: #d4d1cf;
      }

      .cls-14 {
        fill: #cacdde;
      }

      .cls-15 {
        fill: #382a25;
      }

      .cls-16 {
        fill: #d8dee0;
      }

      .cls-17 {
        fill: #983723;
      }

      .cls-18 {
        fill: #625b70;
      }

      .cls-19 {
        fill: #f19170;
      }
    </style>
  </defs>
  <g id="_イラスト" data-name="イラスト">
    <g>
      <path class="cls-13" d="M113.01,19.85c-2.17-3.16-6.73-7.06-10.22-9.15-6.63-3.96-14.23-6.29-21.69-8.1-4.47-1.09-9.01-2.02-13.58-2.6v173.43l48.54,50.67s4.87-30.16,4.87-70.98c0-28.71,1.81-93.24-2.65-119.26-.95-5.54-2.16-9.47-5.27-14.01Z"/>
      <g>
        <path class="cls-7" d="M96.5,97.45l-10.68-9.97c-3.57-2.93-5.64-7.31-5.64-11.92l-1.06-52.31c0-2.83,4.23-3.58,6.57-1.98l10.76,7.34c4.21,2.87,6.73,7.64,6.73,12.74v52.94c0,2.97-4.38,5.05-6.68,3.16Z"/>
        <path class="cls-12" d="M95.83,97.01l-11.61-9.53c-3.57-2.93-5.64-7.31-5.64-11.92V24.17c0-2.83,3.17-4.5,5.5-2.91l10.76,7.34c4.21,2.87,6.73,7.64,6.73,12.74v52.94c0,2.97-3.46,4.61-5.75,2.72Z"/>
        <path class="cls-11" d="M95.91,95.11l-10.02-8.29c-3.61-2.97-5.7-7.39-5.7-12.07V24.31c0-1.58,1.77-2.51,3.07-1.62l10.66,7.29c3.19,2.17,5.79,7.11,5.79,10.96v52.37c0,2.7-1.71,3.51-3.79,1.79Z"/>
      </g>
      <g>
        <g>
          <g>
            <polygon class="cls-19" points="8.33 187.43 6.85 196.97 9.41 201.67 13.02 198.44 15.85 187.71 8.33 187.43"/>
            <path class="cls-9" d="M20.34,204.78c-.03.22-.07.43-.12.61-.08.3-.16.54-.21.63-.11.2-.76.18-.94.19-1.04.07-2.08.05-3.11.04-1.34-.02-2.58-.1-3.87-.5-1.29-.4-2.58-.8-3.86-1.24-.49-.16-.98-.33-1.47-.52-.07-.03-.57-.18-.57-.29v-.79c0-.12,0-.24,0-.35,0-.24,0-.49.02-.73,0-.17.02-.34.04-.5.14-1.46.35-2.91.6-4.35,0,0,3.6.51,4.34.21.19-.07.4-.16.62-.26.19-.1.37-.19.57-.27.55-.27,1.11-.49,1.46-.44.05,0,.11.03.18.07.55.26.74.97.94,1.66.06.2.12.4.19.59.1.25.21.48.37.65.06.07.13.14.22.23.12.12.27.27.44.43,1.18,1.08,3.2,2.8,3.82,3.22.41.29.43,1.05.33,1.73Z"/>
            <path class="cls-3" d="M20.34,204.78c-.03.22-.07.43-.12.61-4.88.1-9.92-.18-14.02-2.84,0-.24,0-.49.02-.73,4.09,2.8,9.19,3.06,14.12,2.96Z"/>
            <path class="cls-11" d="M15.16,198.52c-.64.37-1.24.81-1.8,1.32-.29.27-.72-.16-.43-.43.63-.58,1.3-1.07,2.03-1.49.06.2.12.4.19.59Z"/>
            <path class="cls-11" d="M16.19,199.83c-.51.3-.97.66-1.38,1.12-.26.29-.75-.07-.49-.36.42-.48.91-.87,1.43-1.19.12.12.27.27.44.43Z"/>
          </g>
          <g>
            <polygon class="cls-19" points="33.04 184.18 33.05 193.72 35.61 198.41 39.22 195.19 40.56 184.45 33.04 184.18"/>
            <path class="cls-9" d="M33.04,193.72s-.07,4.43,0,6.29c.01.26.02.47.02.61,0,.08,0,.13,0,.16.01.47.4.35,1.3.49.9.15,12.35.46,12.89.47.19,0,.3-.25.36-.6.03-.18.04-.39.05-.6.02-.56-.03-1.13-.07-1.3-.12-.59-1.7-1.27-2.19-1.52-.5-.25-1-.57-1.49-.91-.17-.12-.34-.25-.51-.37-.26-.2-.51-.4-.76-.6-.15-.12-.29-.23-.43-.35-.02-.02-.05-.04-.07-.06-.29-.24-.56-.54-.84-.84-.14-.15-.27-.31-.42-.46-.42-.47-.87-.92-1.39-1.22-.07-.03-.13-.06-.18-.07-.36-.05-.91.18-1.46.44-.19.09-.38.18-.57.28-.22.1-.43.2-.61.27-.74.29-3.64-.12-3.64-.12Z"/>
            <path class="cls-11" d="M40.74,197.36c.57-.62,1.21-1.13,1.92-1.51-.15-.12-.29-.23-.43-.35-.02-.02-.05-.04-.07-.06-.67.39-1.29.89-1.83,1.47-.27.29.15.74.41.45Z"/>
            <path class="cls-11" d="M39.38,196.12c.57-.62,1.22-1.13,1.94-1.52-.14-.15-.27-.31-.42-.46-.71.4-1.36.92-1.93,1.54-.27.29.15.74.41.45Z"/>
            <path class="cls-3" d="M33.04,200c.01.26.02.47.02.61,2.26.05,4.78.12,7.05.21,2.48.09,5.03.06,7.52.33.03-.18.04-.39.05-.6-2.49-.27-5.06-.24-7.54-.33-2.28-.09-4.82-.16-7.09-.21Z"/>
          </g>
          <path class="cls-18" d="M31.67,104.31s8.31,28.24,9.9,39c1.59,10.76,2.81,46.9,1.99,47.77-.81.87-15.64.36-16.86-.75-1.22-1.12-.51-13.71,0-16.55.51-2.84-1.22-7.72-1.22-9.54s-6.7-51.68-6.7-51.68l1.22-6.9,11.67-1.33Z"/>
          <path class="cls-19" d="M43.39,82.11c.46.49,7.88,14.06,10.61,17.77,2.73,3.71,3.61,5.27,3.61,5.27l-4.78,2.34s-13.51-13.77-16.08-17.87c-2.57-4.1-.17-7.52-.17-7.52h6.8Z"/>
          <path class="cls-18" d="M5,102.26s-1.45-.72-.22-3.46c1.23-2.74,2.5-3.13,2.71-2.57.21.56.63,2.43.35,3.06-.28.63-2.84,2.97-2.84,2.97Z"/>
          <g>
            <path class="cls-16" d="M54.91,130.72h4.07v7.73c0,1.04-.84,1.88-1.88,1.88h-.31c-1.04,0-1.88-.84-1.88-1.88v-7.73h0Z"/>
            <path class="cls-10" d="M42.38,99.75s23.08-.41,23.49,0,8.94,9.65,9.14,10.56c.2.91.91,12.49,0,12.79-.91.3-19.5,1.32-27.92,0-8.43-1.32-14.12-7.92-15.08-11.98-.96-4.06-.66-8.53-.66-8.53l11.03-2.84Z"/>
            <path class="cls-10" d="M51.57,121.75h11.02v9.63c0,.76-.62,1.38-1.38,1.38h-8.25c-.76,0-1.38-.62-1.38-1.38v-9.63h0Z"/>
            <path class="cls-14" d="M62.06,123.53h-3.92c-.39,0-.39.61,0,.61h3.92c.39,0,.39-.61,0-.61Z"/>
            <path class="cls-14" d="M58.65,132.73h-3.37c-.39,0-.39.61,0,.61h3.37c.39,0,.39-.61,0-.61Z"/>
            <path class="cls-14" d="M68.7,104.14c.45.72.22,1.3-.51,1.3s-1.69-.58-2.14-1.3c-.45-.72-.22-1.3.51-1.3s1.69.58,2.14,1.3Z"/>
            <path class="cls-6" d="M68.69,109.09c.11.28-2.78.51-6.56.68-.2,0-.4.02-.61.02-6.42.26-14.98.36-16.04.27-1.72-.15-4.36-8.89-4.36-8.89,0,0,20.4-.66,21.11-.25.71.4,6.14,7.41,6.45,8.17Z"/>
            <path class="cls-2" d="M62.13,101.36v8.41c-.2,0-.4.02-.61.02v-8.43c0-.4.61-.4.61,0Z"/>
            <path class="cls-6" d="M33.6,105.21s.89,3.68,5.98,4.87c5.09,1.19,2.67-3.89,2.67-3.89l-8.65-.99Z"/>
            <path class="cls-14" d="M49.41,112.3c-5.6,0-10.39-.24-12.12-.97-5.13-2.15-6.05-5.93-6.09-6.09-.04-.16.06-.31.22-.35.16-.03.32.06.35.22,0,.04.91,3.66,5.75,5.68,4.93,2.06,36.87,0,37.2-.02.15,0,.3.11.31.27.01.16-.11.3-.27.31-.87.06-14.6.94-25.34.94Z"/>
          </g>
          <path class="cls-8" d="M48.93,87.32c-.27-1.24-.8-2.42-1.35-3.61-1.04-2.26-2.08-4.51-3.13-6.77-2.01-4.34-4.02-8.69-6.03-13.04.22-.45.47-.89.74-1.32.21-.34-.32-.64-.53-.31-.21.33-.4.67-.57,1.01-.21-.1-.52.15-.4.43.03.06.05.12.09.18-.82,1.74-1.32,3.61-1.81,5.49-.73,2.74-1.86,5.25-2.8,7.92-1.76,5,.25,10.17,2.61,14.66.66,1.26,1.39,2.47,2.2,3.64.44.64.91,1.4,1.63,1.74,1,.49,2.18.11,3.27-.47.69-.37,1.34-.82,1.89-1.18.12-.08.23-.16.34-.23,1.06-.69,2.07-1.45,3.03-2.27.8-.7,1.99-1.55,2.38-2.59.53-1.43-.46-2.52-1.57-3.29Z"/>
          <path class="cls-1" d="M42.68,92.16c-1.16-1.85-1.99-3.84-2.9-5.81-.23-.66-.45-1.33-.68-1.99-.07-.18-.24-.24-.39-.19-.2-.37-.4-.74-.62-1.1-.2-.34-.73-.03-.52.31.78,1.3,1.35,2.69,1.94,4.08.89,2.62,1.79,5.24,2.7,7.85.2.57.39,1.1.65,1.57.69-.37,1.34-.82,1.89-1.18-.61-1.23-1.35-2.38-2.07-3.54Z"/>
          <path class="cls-8" d="M41.57,70.81s-1.31,8.94-2.75,12.39c-2.05,4.92-4.34,9.77-6.8,14.5-1.04,2-2.11,3.98-3.3,5.9-.62.99-1.31,2.33-2.31,3.02-2.9,1.97-20.92-6.09-20.92-6.09,0,0-2.32-.67-1.49-4.2.82-3.53,4.01-6.06,5.24-11.8.16-.77,2.75-7.5,3.05-8.36,0-.01.01-.02.02-.05,1.13-3.28,3.12-7.06,5.18-10.19,1.44-2.19,2.93-4.06,4.19-5.2,3.53-3.2,9.37-4.67,9.37-4.67,0,0,3.2,3.47,6.79,7.38,2.16,2.36,3.73,7.38,3.73,7.38Z"/>
          <path class="cls-18" d="M36.58,75.07s1.21-.33,1.14-.63c-.07-.3-1.5-9.58-3.65-11.52-1.74-1.56-.56-2.32-.56-2.32l1.39.8s2.42,3.93,3.36,7.29c.99,3.52,1.34,7.17,1.33,10.82,0,1.6,0,3.19-.05,4.79-.01.55-.32,1.86-.08,2.36l-2.4-5.16-.35-3.82-.12-2.59Z"/>
          <path class="cls-18" d="M38.25,83.18l-2.34-3.33s-.63-3.71-2.53-8.05c-1.9-4.34-4.57-6.85-10.58-5.86-5.73.94-10.09,9.38-10.48,10.17.75-2.17,1.87-4.55,3.14-6.82,2.38-4.25,7.3-6.47,12.02-5.26.67.17,1.36.4,2.07.69,7.16,2.97,8.71,18.47,8.71,18.47Z"/>
          <path class="cls-18" d="M31.61,100.81c-.04.48-.07,1.04-.1,1.6-.01.21-.02.43-.04.64-.09,1.46-.16,2.8-.16,2.8,0,0-2.05,1.08-4.97,2.15-2.8,1.04-6.42,2.06-9.78,2.1-2.83.03-5.34.27-7.33.34-.21,0-.41.01-.62.01-2.46.04-4.03-.27-4.31-1.8-.12-.65-.13-1.42-.06-2.23,0-.07.02-.15.02-.23.11-1.15.35-2.35.59-3.34.05-.21.1-.4.15-.59.27-1.03.5-1.74.5-1.74,0,0,1.52.27,3.66.51.2.02.41.04.62.06,2.08.21,4.62.35,6.85.18.54-.04,1.05-.16,1.55-.35.38-.14.76-.32,1.11-.53,3.37-2,5.53-6.84,5.95-9.13.53-2.86,2.82-3.02,2.82-3.02l3.55,3.02s.13,7.65,0,9.55Z"/>
          <path class="cls-4" d="M32.73,102.74c-.42.11-.84.21-1.26.31-8.76,2.05-17.89,1.99-26.62-.21.05-.21.1-.4.15-.59,8.69,2.18,17.78,2.24,26.51.16.34-.08.68-.16,1.02-.25.38-.1.58.48.2.58Z"/>
          <path class="cls-4" d="M30.57,100.13c-4.09.85-8.25,1.11-12.39.79.38-.14.76-.32,1.11-.53,3.72.2,7.44-.09,11.12-.85.38-.08.55.51.16.59Z"/>
          <g>
            <g>
              <g>
                <path class="cls-19" d="M36.19,59.78l-.28-.43-.15-.25-.81-1.27-.41-.65-.77-1.17-.07-.1-.17-1.1.56-2.69.06-.33-2.49,2.41-.73.67-.38.33-1.99,1.79-.06.07-.81.77c-.15.13-.28.28-.41.43-.26,1.29,0,2.71.67,3.83,1.18,1.99,2.84,2.31,4.73,2.76.06-.03.12-.06.18-.09.22-.13.44-.28.65-.47l.05-.05.63-.52.08-.07.09-.07.15-.13.43-.36.37-.31.08-.07.29-.24.11-.09.08-.07v-.02s.04-.04.04-.04l.91-1.23.08-.07-.75-1.16Z"/>
                <path class="cls-11" d="M33.24,65.18c.23-.55.62-.99,1.09-1.33-1.15.11-3.27.09-4.9-1.13-2.36-1.78-1.24-5.32-1.24-5.32l-2.3,2.11c.12,1.37.37,2.88,1.11,4.08,1.25.55,2.51,1.08,3.82,1.39.8.19,1.6.25,2.38.42,0-.07.02-.14.05-.22Z"/>
                <path class="cls-19" d="M50.56,52.76c-.15.27-.23.59-.37.87-.33.66-.68,1.34-1.16,1.91-.38.45-.89.77-1.34,1.13-.76.62-1.31,1.47-1.93,2.21-.69.82-1.4,1.63-2.11,2.43-.02.02-.04.05-.08.09-.02.02-.04.05-.06.07-.05.05-.1.11-.16.17-.07.09-.15.16-.22.25,0,0,0,0,0,0l-.2.22c-.07.08-.15.16-.22.25-.01,0-.01.01-.02.02-.23.24-.45.49-.67.73-.88.94-1.89,1.49-3.19,1.15-1.24-.34-2.32-1.26-3.11-2.25-.12-.15-.7-.88-.82-1.04-.06-.09-.12-.16-.16-.26-1.36-2.16-2.75-4.82-2.19-6.76.72-2.56,3.85-9.13,6.63-11.05,2.79-1.93,9.36,1.29,10.92,4.52,1.55,3.22.48,5.32.48,5.32Z"/>
                <path class="cls-17" d="M35.82,62.37l-.11.09-.29.24c-.54-1.3-1.15-2.58-.83-4.03.07-.32.57-.25.5.06-.28,1.3.24,2.47.73,3.63Z"/>
                <path class="cls-19" d="M46.95,57.05c.03.61.03,1.23.02,1.84-.02.67-.04,1.4-.37,2-.4.71-1.22.93-1.96.61-.18-.08-1.52-.89-1.4-1l3.71-3.44Z"/>
                <path class="cls-15" d="M48.22,54.25c-.17-.18-.38-.32-.59-.44-.65-.36-1.31-.33-1.84.22-.06.07-.13.15-.14.24-.02.2.19.32.36.42.46.25.87.58,1.21.99.16.19.36.42.6.36.09-.02.16-.08.22-.13.48-.42.68-1.02.26-1.56-.02-.03-.05-.06-.08-.09Z"/>
                <path class="cls-15" d="M34.45,42.43c2.15-1.9,5.09-2.89,7.92-2.18,2.12.53,4.11,1.57,5.78,2.99,1.43,1.22,3.31,3.28,3.08,5.34-.19,1.64.61,2.38-.13,3.9-.49-.67-.19.74-.74.13-1.32-1.51-3.37-2.76-4.29-2.41-.92.35-1.69.99-2.43,1.63-.07.06-.15.12-.23.16-.66-1.28-2.15-2.42-3.58-1.55-.8.48-1.6,1.78-1.84,2.89-.12.54-.61.92-1.16.93-.42.01-.8.03-.96.1-1.6.69-3.33,1.04-5.07.86-.14-.01-.23-.02-.23-.02.17-3.93.2-8.5,2.83-11.68.32-.39.67-.75,1.05-1.09Z"/>
                <path class="cls-5" d="M46.66,57.16c.2-.27.34-.66.08-.94-.56-.62-1.57.41-1.45,1.05.03.18.13.28.25.33.06.05.14.08.22.1.36.07.71-.28.9-.54Z"/>
              </g>
              <path class="cls-17" d="M35.92,62.28v.02s-.2.16-.2.16l-.38.32-.37.31-.42.36-.16.13-.09.08-.08.07-.05-.15c-.42-1.36.63-3.2.63-3.2l1.12,1.91Z"/>
            </g>
            <path class="cls-15" d="M53.13,49.79c-.04-.11-.12-.21-.16-.32-.14-.34-.21-.55-.23-.92-.05-.74-.18-1.65-.91-2.05-.42-.23-1.03-.26-1.51-.07-.13-.16-.44-.13-.43.12,0,.05,0,.1,0,.15-.08.07-.14.16-.2.25-.1.18.04.37.19.4-.01,1.23-.08,2.42-.19,3.66-.07.74.06,1.58.76,1.99.5.29,1.06.18,1.47-.21.39-.37.51-.84.52-1.34.25-.14.46-.35.61-.64.15-.32.19-.69.08-1.02Z"/>
            <path class="cls-17" d="M41.07,51.8c-.59.07-1.12.31-1.53.74-.27.28.16.71.43.43.3-.31.67-.51,1.1-.56.39-.04.39-.65,0-.61Z"/>
            <path class="cls-17" d="M43.34,61.65c-.07.09-.15.16-.22.25,0,0,0,0,0,0l-.2.22c-.41-.68-.7-1.43-.84-2.22-.07-.38.52-.55.59-.16.12.68.35,1.32.68,1.91Z"/>
            <path class="cls-15" d="M52.48,48.04c-.18-.26-.37-.5-.56-.72.06-.03.11-.09.13-.19.18-.86.14-1.7-.23-2.51-.54-1.16-1.7-1.52-2.37-2.53-.81-1.23-1.74-3.06-3.33-2.56-.77-.87-1.64-1.74-2.82-1.98-.52-.1-1-.06-1.49.09-.72.22-1.08.3-1.85.33-1.61.06-4.86,1.45-4.66,3.51.09.97,1.1,1.15,1.91,1.21,1.71.13,3.43-.15,5.15-.01,2.1.17,3.91.81,5.53,2.15.51.42.97.75,1.55,1.08,1.12.63,1.78,1.39,2.51,2.44.22.32.75.02.53-.31Z"/>
            <path class="cls-5" d="M44.15,45.21c-.98.17-1.95-.04-2.71-.69-.5-.43-.65-1.14-1.11-1.54-1.11-.97-2.43.57-3.3-1.5-.15-.36-.74-.2-.59.16.3.7.72,1.26,1.44,1.57.31.13.59.16.91.22.16,0,.32,0,.47-.03.51-.02.82.19.93.62,1.23,1.25,2.22,2.11,4.11,1.77.39-.07.22-.66-.16-.59Z"/>
            <path class="cls-5" d="M47.66,48.44c-.83.22-1.64-.1-2.22-.71-.2-.21-.35-.51-.62-.64-.3-.14-.66-.09-.97-.13-.93-.13-1.61-.59-2.11-1.39-.21-.33-.74-.03-.53.31.36.57.8,1.03,1.4,1.35.64.34,1.55.2,2.12.61.56.4.79.9,1.51,1.16.54.19,1.03.19,1.58.04.38-.1.22-.69-.16-.59Z"/>
          </g>
          <path class="cls-19" d="M53.92,117.81s1.77,1.39,2,2.91c.23,1.52,1.69,3.03,1.69,3.03,0,0-.74.81-2.87.81s-3.46.34-4.15-.61c-.69-.95-1.45-3.81-1.45-3.81l.16-1.71,4.63-.63Z"/>
          <path class="cls-18" d="M25.69,168.47c-3.2,9.16-8.01,24.4-8.47,25.01-.46.61-9.81,1.22-13.14,0-.43-.16-.82-.3-1.18-.44-.21-.07-.4-.15-.57-.23-1.85-.73-2.33-1.18-2.33-2.38,0-1.52,3.55-19.35,5.79-22.19,2.24-2.85,2.69-4.22,2.39-7.57-.3-3.35,1.22-6.7,2.28-10.2,1.07-3.5-3.61-19.95-5.28-30.31-1.68-10.36-1.22-11.09-.92-13.96.08-.79,1.78-1.05,4.2-1.01.2,0,.41,0,.62.01,6.49.23,17.22,2.3,17.22,2.3,0,0,2.18,28.8,2.99,38.55.82,9.75-.4,13.26-3.6,22.42Z"/>
          <path class="cls-18" d="M4.85,102.85s-1.89,3-2.15,6.66c-.52,7.26,4.92,22.87,4.92,22.87l-1.78-27.18-.99-2.35Z"/>
          <path class="cls-19" d="M39.7,94.77c.46.49,7.88,14.06,10.61,17.77,2.73,3.71,3.61,5.27,3.61,5.27l-4.78,2.34s-13.51-13.77-16.08-17.87c-2.57-4.1-.17-7.52-.17-7.52h6.8Z"/>
          <path class="cls-8" d="M43.56,97.53c-.11-.62-.43-1.13-.87-1.46-.02-.56-.12-1.14-.36-1.76-2.12-5.48-7.73-20.23-8.26-20.8-4.55,1.34-8.75,4.28-11.35,8.62-1.35,2.25-1.33,4.98-1.06,7.51.32,3.08,1.32,5.21,3.17,7.67,2.24,2.99,4.51,8.8,8.78,7.9.62.43,1.31.69,1.99.47,1.92-.63,4.04-2.19,5.53-3.53,1.23-1.11,2.75-2.8,2.44-4.61Z"/>
          <path class="cls-1" d="M23.12,94.66c-1.07-.39-2.23-.81-3.04-1.64-.81-.83-1.02-1.95-1.56-2.94-.96-1.76-3.58-2.15-4.08-4.11-.1-.38-.68-.22-.59.16.22.88.75,1.49,1.49,2.01.51.36,1.09.63,1.58,1.02.85.68,1.16,1.47,1.59,2.44.9,2.06,2.4,2.9,4.44,3.65.37.14.53-.45.16-.59Z"/>
          <path class="cls-1" d="M41.69,97c-2.02,3.35-5.16,5.77-8.92,6.86-.37.11-.24.7.14.59,3.91-1.14,7.19-3.64,9.29-7.13.2-.34-.31-.66-.52-.33Z"/>
          <path class="cls-1" d="M47.19,88.82c-.85,1.82-2.14,3.34-3.82,4.46-.32.22-.02.74.31.53,1.76-1.17,3.14-2.76,4.04-4.67.17-.35-.36-.66-.53-.31Z"/>
          <path class="cls-4" d="M15.46,190.98c-4.88,1.86-9.93.54-14.59-1.33-.36-.15-.52.44-.16.59,4.75,1.91,9.93,3.22,14.91,1.33.36-.14.21-.73-.16-.59Z"/>
          <path class="cls-4" d="M29.98,140.99c-.5-4.99-1.36-9.93-1.97-14.91-.61-4.98-.77-9.99-1.33-14.98-.04-.39-.65-.39-.61,0,.54,4.79.68,9.61,1.25,14.39.57,4.78,1.39,9.53,1.92,14.32,1,8.98.92,18.45-3.49,26.59-.19.34.34.65.53.31,4.26-7.87,4.58-17,3.7-25.72Z"/>
          <path class="cls-4" d="M14.27,152.14c-.32.99-.72,2.21-1.14,4.42l-.02.09c-1.05,5.56-1.68,8.92-4.67,14.91-2.41,4.83-4.75,17.11-5.54,21.47-.21-.07-.4-.15-.57-.23.8-4.5,3.11-16.6,5.56-21.52,2.95-5.92,3.58-9.24,4.62-14.76v-.09c.44-2.25.85-3.5,1.18-4.5.48-1.47.8-2.44.77-5.5-.04-3.58-2.06-14.52-3.68-23.31-.72-3.92-1.41-7.63-1.84-10.25-.14-.86-.25-1.67-.34-2.44-.22-2.09-.24-3.84-.15-5.27.12-1.98.44-3.35.69-4.15.2.02.41.04.62.06-.23.74-.56,2.1-.69,4.11-.09,1.41-.09,3.16.14,5.25.08.74.18,1.52.32,2.35.43,2.62,1.11,6.32,1.84,10.24,1.71,9.27,3.65,19.78,3.69,23.41.04,3.16-.29,4.17-.8,5.69Z"/>
        </g>
        <g>
          <path class="cls-6" d="M82.88,102.94c0,1.43-.36,2.59-.79,2.59s-.79-1.16-.79-2.59.36-2.59.79-2.59.79,1.16.79,2.59Z"/>
          <path class="cls-6" d="M81.78,103.24h-8.33c-.17,0-.3-.14-.3-.3s.14-.3.3-.3h8.33c.17,0,.3.14.3.3s-.14.3-.3.3Z"/>
          <path class="cls-2" d="M81.89,102.06c-.38-.09-.54.5-.16.59-.11-.03.01.1.02.19,0,.09,0,.22-.09.27-.34.19-.04.72.31.53.29-.16.41-.52.39-.84-.02-.27-.18-.67-.47-.74Z"/>
        </g>
        <g>
          <ellipse class="cls-6" cx="90.74" cy="112.05" rx=".79" ry="2.59"/>
          <path class="cls-6" d="M90.43,112.35h-8.33c-.17,0-.3-.14-.3-.3s.14-.3.3-.3h8.33c.17,0,.3.14.3.3s-.14.3-.3.3Z"/>
          <path class="cls-2" d="M90.54,111.17c-.38-.09-.54.5-.16.59-.11-.03.01.1.02.19,0,.09,0,.22-.09.27-.34.19-.04.72.31.53.29-.16.41-.52.39-.84-.02-.27-.18-.67-.47-.74Z"/>
        </g>
        <g>
          <path class="cls-6" d="M86.06,135.45c-.04,1.74.63,3.17,1.49,3.18.86.02,1.59-1.38,1.63-3.12.04-1.74-.63-3.17-1.49-3.18s-1.59,1.38-1.63,3.12Z"/>
          <path class="cls-18" d="M84.35,136.73l2.64.08c.88.02.97-1.19.88-1.82-.02-.15-.05-.3-.13-.43-.14-.24-.41-.41-.69-.42l-2.62-.08c-.26,0-.43.03-.65.2-.45.36-.44.95-.43,1.48.02.56.42.97.99.98Z"/>
          <path class="cls-5" d="M83.6,135.35c-.01.55.19.99.46,1,.26,0,.49-.43.5-.98.01-.55-.19-.99-.46-1-.26,0-.49.43-.5.98Z"/>
        </g>
        <g>
          <path class="cls-6" d="M77.41,130.68c-.04,1.74.63,3.17,1.49,3.18.86.02,1.59-1.38,1.63-3.12.04-1.74-.63-3.17-1.49-3.18-.86-.02-1.59,1.38-1.63,3.12Z"/>
          <path class="cls-18" d="M75.7,131.96l2.64.08c.88.02.97-1.19.88-1.82-.02-.15-.05-.3-.13-.43-.14-.24-.41-.41-.69-.42l-2.62-.08c-.26,0-.43.03-.65.2-.45.36-.44.95-.43,1.48.02.56.42.97.99.98Z"/>
          <path class="cls-5" d="M74.95,130.58c-.01.55.19.99.46,1,.26,0,.49-.43.5-.98.01-.55-.19-.99-.46-1-.26,0-.49.43-.5.98Z"/>
        </g>
      </g>
    </g>
  </g>
</svg>