<?xml version="1.0" encoding="UTF-8"?>
<svg id="_レイヤー_2" data-name="レイヤー 2" xmlns="http://www.w3.org/2000/svg" viewBox="0 0 113.7 110.67">
  <defs>
    <style>
      .cls-1 {
        fill: #fff;
      }

      .cls-2 {
        fill: #2d2745;
      }

      .cls-3 {
        fill: #8f9bce;
      }
    </style>
  </defs>
  <g id="_イラスト" data-name="イラスト">
    <g>
      <rect class="cls-3" x="2.92" y="24.86" width="107.87" height="60.96" rx="8.56" ry="8.56" transform="translate(-22.44 52.78) rotate(-42.38)"/>
      <path class="cls-2" d="M84.83,29.17c-2.95,2.69-11.8,10.77-14.75,13.46-3.73,3.4-7.46,6.81-11.19,10.21-4.01,3.66-8.03,7.32-12.04,10.98-3.79,3.46-7.58,6.92-11.38,10.38-3.06,2.79-6.12,5.59-9.19,8.38-.3.28-.6.55-.91.83-.34.31.17.82.51.51,2.95-2.69,5.9-5.38,8.84-8.07,3.73-3.4,7.46-6.81,11.19-10.21,4.01-3.66,8.03-7.32,12.04-10.98,3.79-3.46,7.58-6.92,11.38-10.38,3.06-2.79,12.03-10.98,15.09-13.77.3-.28.6-.55.91-.83.34-.31-.17-.82-.51-.51h0Z"/>
      <g>
        <circle class="cls-1" cx="74.09" cy="22" r="8.34" transform="translate(-2.81 29.68) rotate(-22.24)"/>
        <circle class="cls-1" cx="72.24" cy="20.48" r="8.34"/>
        <path class="cls-2" d="M78.7,15.8c1.5,2.11,1.91,4.8,1.08,7.26-.89,2.63-3.17,4.63-5.88,5.22-1.59.34-3.29.18-4.79-.45-.18-.08-.38-.05-.49.13-.09.15-.05.42.13.49,2.97,1.26,6.39.83,8.93-1.19,2.21-1.76,3.43-4.57,3.23-7.39-.11-1.59-.66-3.13-1.59-4.43-.27-.38-.89-.02-.62.36h0Z"/>
        <path class="cls-2" d="M76.61,21.57c-3.57-1.23-7.16-2.43-10.73-3.66-.44-.15-.63.55-.19.7,3.57,1.23,7.16,2.43,10.73,3.66.44.15.63-.55.19-.7h0Z"/>
      </g>
      <g>
        <circle class="cls-1" cx="59.46" cy="72.53" r="8.34" transform="translate(-31.73 50.58) rotate(-37.12)"/>
        <circle class="cls-1" cx="57.61" cy="71.01" r="8.34"/>
        <path class="cls-2" d="M64.07,66.34c1.5,2.11,1.91,4.8,1.08,7.26-.89,2.63-3.17,4.63-5.88,5.22-1.59.34-3.29.18-4.79-.45-.18-.08-.38-.05-.49.13-.09.15-.05.42.13.49,2.97,1.26,6.39.83,8.93-1.19,2.21-1.76,3.43-4.57,3.23-7.39-.11-1.59-.66-3.13-1.59-4.43-.27-.38-.89-.02-.62.36h0Z"/>
        <path class="cls-2" d="M61.98,72.11c-3.57-1.23-7.16-2.43-10.73-3.66-.44-.15-.63.55-.19.7,3.57,1.23,7.16,2.43,10.73,3.66.44.15.63-.55.19-.7h0Z"/>
      </g>
      <g>
        <circle class="cls-1" cx="57.64" cy="37" r="8.34" transform="translate(14.24 89.99) rotate(-83.38)"/>
        <circle class="cls-1" cx="55.79" cy="35.48" r="8.34" transform="translate(-2.15 3.64) rotate(-3.66)"/>
        <path class="cls-2" d="M62.26,30.81c1.5,2.11,1.91,4.8,1.08,7.26-.89,2.63-3.17,4.63-5.88,5.22-1.59.34-3.29.18-4.79-.45-.18-.08-.38-.05-.49.13-.09.15-.05.42.13.49,2.97,1.26,6.39.83,8.93-1.19,2.21-1.76,3.43-4.57,3.23-7.39-.11-1.59-.66-3.13-1.59-4.43-.27-.38-.89-.02-.62.36h0Z"/>
        <path class="cls-2" d="M60.1,34.14c-3.69.81-7.38,1.65-11.07,2.46-.45.1-.26.8.19.7,3.69-.81,7.38-1.65,11.07-2.46.45-.1.26-.8-.19-.7h0Z"/>
      </g>
      <g>
        <circle class="cls-1" cx="41.19" cy="51.99" r="8.34"/>
        <circle class="cls-1" cx="39.34" cy="50.47" r="8.34" transform="translate(-22.48 67.01) rotate(-67.04)"/>
        <path class="cls-2" d="M45.81,45.8c1.5,2.11,1.91,4.8,1.08,7.26-.89,2.63-3.17,4.63-5.88,5.22-1.59.34-3.29.18-4.79-.45-.18-.08-.38-.05-.49.13-.09.15-.05.42.13.49,2.97,1.26,6.39.83,8.93-1.19,2.21-1.76,3.43-4.57,3.23-7.39-.11-1.59-.66-3.13-1.59-4.43-.27-.38-.89-.02-.62.36h0Z"/>
        <path class="cls-2" d="M36.62,54.13c2.51-2.83,4.99-5.67,7.5-8.5.31-.35-.2-.86-.51-.51-2.51,2.83-4.99,5.67-7.5,8.5-.31.35.2.86.51.51h0Z"/>
      </g>
      <g>
        <circle class="cls-1" cx="92.17" cy="41.9" r="8.34" transform="translate(6.19 95.36) rotate(-56.32)"/>
        <circle class="cls-1" cx="90.32" cy="40.38" r="8.34" transform="translate(-8.61 39.32) rotate(-23.48)"/>
        <path class="cls-2" d="M96.79,35.7c1.5,2.11,1.91,4.8,1.08,7.26-.89,2.63-3.17,4.63-5.88,5.22-1.59.34-3.29.18-4.79-.45-.18-.08-.38-.05-.49.13-.09.15-.05.42.13.49,2.97,1.26,6.39.83,8.93-1.19,2.21-1.76,3.43-4.57,3.23-7.38-.11-1.59-.66-3.13-1.59-4.43-.27-.38-.89-.02-.62.36h0Z"/>
        <path class="cls-2" d="M93.39,37.05c-2.79,2.55-5.56,5.12-8.35,7.67-.34.31.17.82.51.51,2.79-2.55,5.56-5.12,8.35-7.67.34-.31-.17-.82-.51-.51h0Z"/>
      </g>
      <g>
        <circle class="cls-1" cx="42.16" cy="87.43" r="8.34" transform="translate(-52.11 64.3) rotate(-50.47)"/>
        <circle class="cls-1" cx="40.31" cy="85.91" r="8.34" transform="translate(-48.94 53.66) rotate(-45)"/>
        <path class="cls-2" d="M46.77,81.23c1.5,2.11,1.91,4.8,1.08,7.26-.89,2.63-3.17,4.63-5.88,5.22-1.59.34-3.29.18-4.79-.45-.18-.08-.38-.05-.49.13-.09.15-.05.42.13.49,2.97,1.26,6.39.83,8.93-1.19,2.21-1.76,3.43-4.57,3.23-7.38-.11-1.59-.66-3.13-1.59-4.43-.27-.38-.89-.02-.62.36h0Z"/>
        <path class="cls-2" d="M43.37,82.58c-2.79,2.55-5.56,5.12-8.35,7.67-.34.31.17.82.51.51,2.79-2.55,5.56-5.12,8.35-7.67.34-.31-.17-.82-.51-.51h0Z"/>
      </g>
      <g>
        <circle class="cls-1" cx="75.73" cy="56.9" r="8.34"/>
        <circle class="cls-1" cx="73.88" cy="55.38" r="8.34" transform="translate(17.99 128.88) rotate(-89.61)"/>
        <path class="cls-2" d="M80.34,50.71c1.5,2.11,1.91,4.8,1.08,7.26-.89,2.63-3.17,4.63-5.88,5.22-1.59.34-3.29.18-4.79-.45-.18-.08-.38-.05-.49.13-.09.15-.05.42.13.49,2.97,1.26,6.39.83,8.93-1.19,2.21-1.76,3.43-4.57,3.23-7.39-.11-1.59-.66-3.13-1.59-4.43-.27-.38-.89-.02-.62.36h0Z"/>
        <path class="cls-2" d="M78.39,55.31c-3.77-.26-7.54-.49-11.31-.75-.46-.03-.46.69,0,.72,3.77.26,7.54.49,11.31.75.46.03.46-.69,0-.72h0Z"/>
      </g>
      <g>
        <circle class="cls-1" cx="24.95" cy="66.64" r="8.34"/>
        <circle class="cls-1" cx="23.1" cy="65.12" r="8.34" transform="translate(-8.42 3.63) rotate(-7.61)"/>
        <path class="cls-2" d="M29.56,60.45c1.5,2.11,1.91,4.8,1.08,7.26-.89,2.63-3.17,4.63-5.88,5.22-1.59.34-3.29.18-4.79-.45-.18-.08-.38-.05-.49.13-.09.15-.05.42.13.49,2.97,1.26,6.39.83,8.93-1.19,2.21-1.76,3.43-4.57,3.23-7.39-.11-1.59-.66-3.13-1.59-4.43-.27-.38-.89-.02-.62.36h0Z"/>
        <path class="cls-2" d="M27.61,65.05c-3.77-.26-7.54-.49-11.31-.75-.46-.03-.46.69,0,.72,3.77.26,7.54.49,11.31.75.46.03.46-.69,0-.72h0Z"/>
      </g>
    </g>
  </g>
</svg>