<?xml version="1.0" encoding="UTF-8"?>
<svg id="_レイヤー_2" data-name="レイヤー 2" xmlns="http://www.w3.org/2000/svg" viewBox="0 0 98.86 83.59">
  <defs>
    <style>
      .cls-1 {
        fill: #2d6966;
      }

      .cls-2 {
        fill: #f0cdb9;
      }

      .cls-3 {
        fill: #fff;
      }

      .cls-4 {
        fill: #b16040;
      }

      .cls-5 {
        fill: #7a2e24;
      }

      .cls-6 {
        fill: #330f18;
      }
    </style>
  </defs>
  <g id="_文字" data-name="文字">
    <g>
      <path class="cls-2" d="M52.25,83.59c-2.7,0-5.39-.07-8.04-.19-5.99-.28-12.01-.97-17.73-2.85-5.26-1.73-10.21-4.08-14.4-7.77-2.76-2.42-4.98-5.26-6-8.88-1.34-4.8-.27-9.15,2.58-13.13,3.3-4.61,7.9-7.55,12.94-9.89,6.37-2.95,13.11-4.59,20.04-5.5,4.33-.57,8.68-.88,13.05-.76,8.07.22,16.01,1.28,23.68,3.89,4.93,1.68,9.6,3.91,13.59,7.34,3.69,3.18,6.39,6.97,6.84,11.99.3,3.4-.67,6.51-2.49,9.35-2.68,4.17-6.48,7.08-10.78,9.4-10.1,5.45-21.83,6.95-33.28,6.98Z"/>
      <path class="cls-6" d="M86.13,46.37c3.53,1.89,6.08,5.31,7.03,9.2.87,3.59-.12,7.24-2.16,10.26-4.01,5.93-11.44,8.95-18.12,10.63-9.22,2.33-18.97,2.49-28.43,1.97-8.13-.44-16.1-1.38-23.32-5.38-4.12-2.28-7.78-5.31-9.78-9.66-2.18-4.74-1.34-9.6,2.25-13.38.66-.7-.39-1.76-1.06-1.06-3.04,3.2-4.56,7.23-3.68,11.62.81,4.04,3.27,7.67,6.39,10.28,3.49,2.93,7.7,5.08,12,6.53,4.09,1.39,8.54,1.84,12.82,2.22,10.41.91,21.19.93,31.44-1.3,7.36-1.6,15.39-4.67,20.13-10.83,2.52-3.27,3.89-7.45,3.13-11.56-.85-4.54-3.81-8.66-7.88-10.84-.85-.46-1.61.84-.76,1.29h0Z"/>
      <path class="cls-6" d="M39.31,63.46c-2.47,4.64-4.75,9.33-6.89,14.13-.39.87.9,1.64,1.29.76,2.14-4.8,4.42-9.49,6.89-14.13.45-.85-.84-1.61-1.29-.76h0Z"/>
      <path class="cls-6" d="M52.67,63.96c.18,5.14.27,10.21.88,15.33.11.95,1.61.96,1.5,0-.61-5.12-.7-10.18-.88-15.33-.03-.96-1.53-.97-1.5,0h0Z"/>
      <path class="cls-6" d="M66.52,62.99c2.08,4.99,4.78,9.52,7.97,13.87.57.77,1.87.02,1.29-.76-3.12-4.23-5.8-8.65-7.82-13.51-.37-.88-1.82-.49-1.45.4h0Z"/>
      <path class="cls-6" d="M72.34,55.75c.84.14,1.66.46,2.45.75,1.3.48,2.59,1,3.87,1.52,3.13,1.27,6.24,2.57,9.4,3.74,1.55.58,3.11,1.13,4.71,1.57.93.25,1.33-1.19.4-1.45-3.02-.82-5.95-2.01-8.85-3.17-2.9-1.16-5.77-2.39-8.69-3.49-.93-.35-1.9-.76-2.89-.92-.4-.06-.81.1-.92.52-.1.36.12.86.52.92h0Z"/>
      <path class="cls-6" d="M31.63,54.99c-3.03,2.13-6.04,4.32-9.2,6.27-3.16,1.95-6.48,3.59-9.85,5.12-.88.4-.12,1.69.76,1.29,3.37-1.53,6.7-3.17,9.85-5.12,3.16-1.95,6.16-4.14,9.2-6.27.78-.55.03-1.85-.76-1.29h0Z"/>
      <g>
        <path class="cls-1" d="M55.21,67.61c-5.19,0-10.34-.33-15.4-1.59-5.84-1.45-10.44-4.61-13.62-9.72-.89-1.42-1.94-2.43-3.51-3.08-5.78-2.4-10.73-6.1-15.5-10.07-2.67-2.23-4.96-4.82-6.1-8.13-1.77-5.11-1.49-10.09,1.86-14.56,2.15-2.87,5.18-4.34,8.71-4.79.95-.12,1.91-.22,2.87-.09.3.04.5-.05.65-.31,3.16-5.39,8.22-8.37,13.71-10.8C34.5,1.97,40.44.75,46.55.25c9.56-.78,18.9.24,28,3.29,5.12,1.72,9.91,4.12,13.82,7.89,3.56,3.43,5.35,7.64,4.3,12.69-.58,2.82-1.09,5.65-1.87,8.43-1.06,3.78-2.8,7.29-4.33,10.89-1.75,4.13-3.8,8.15-6.28,11.86-4.23,6.32-9.93,10.61-17.8,11.54-2.4.28-4.76.84-7.2.78ZM12.22,24.16c-2.54,0-4.01,1.15-4.55,3.4-.72,3.01.2,5.61,2.16,7.84,1.2,1.36,2.47,2.69,3.91,3.8,1.5,1.15,2.71,2.65,4.37,3.61.16.09.34.28.51.15.2-.15,0-.35-.07-.52-.97-2.43-1.73-4.92-2.47-7.42-.88-2.98-1.2-6.06-1.54-9.12-.13-1.12-.74-1.45-1.62-1.67-.3-.07-.62-.06-.7-.07Z"/>
        <path class="cls-4" d="M54.64,31.4c-7.58-.07-15.7-1.02-23.44-4.08-2.69-1.06-5.24-2.41-7.33-4.46-3.78-3.71-3.57-8.25.51-11.64,2.87-2.39,6.23-3.8,9.78-4.71,13.79-3.56,27.49-3.25,41.04,1.25,3.3,1.09,6.38,2.67,8.86,5.2,3.29,3.35,3.27,7.45-.08,10.75-2.68,2.64-6.06,4.01-9.56,5.1-6.22,1.92-12.62,2.59-19.78,2.62Z"/>
        <path class="cls-5" d="M34.23,23.16s-.1.03-.12.06c-.09.17-.16.34-.24.51-.07.14-.22.27-.11.45.15-.08.3-.14.43-.24.11-.09.2-.21.27-.33.08-.14-.09-.45-.23-.46ZM34.93,28.19s-.09.11-.09.17c0,.1.07.2.17.19.28-.03.55-.16.77-.31.17-.12.18-.36.12-.6-.25.35-.5.64-.97.57ZM33.93,21.85c-.04.09.04.13.11.14.11,0,.25.03.28-.13.01-.08-.08-.1-.15-.11-.1,0-.2,0-.24.11ZM56.69,28.38c-.02-.11-.11-.15-.21-.18-.25-.06-.5-.19-.76-.04-.06.03-.14.05-.2.04-.12-.02-.22-.1-.24-.23-.02-.13.11-.13.2-.16.35-.08.7.09,1.07-.02.3-.09.35-.02.52.33.03.06.04.14.08.2.1.13.24.15.39.12.13-.02.22-.1.26-.22.12-.35-.09-.69-.43-.74-.38-.06-.76-.1-1.14-.17-.32-.06-.4-.15-.45-.47-.03-.17-.02-.34-.05-.5-.04-.2.21-.31.16-.54-.13.04-.24.08-.35.12-.19.07-.47-.11-.6.14-.16.31.21.38.32.57.17.29.17.47-.08.7-.07.06-.15.11-.23.18-.28.24-.28.24-.13.65.06.18.1.37.12.56.02.22-.14.36-.36.33-.29-.04-.67-.34-.62-.6.09-.47-.37-.71-.36-1.12,0-.11-.15-.18-.28-.18-.16,0-.26.11-.33.24-.06.13,0,.24.08.32.12.11.27.2.38.32.15.16.14.34,0,.52-.12.16-.28.15-.37-.05-.04-.08-.02-.2-.11-.25-.23-.12-.48-.21-.67-.4-.18-.18-.36-.37-.57-.58-.22.28-.41.52-.6.75-.15.18-.32.21-.5.11-.15-.08-.27-.2-.35-.35-.08-.16.05-.27.09-.4.03-.09.02-.19.06-.28.06-.17.21-.31.38-.27.45.11.91-.1,1.35.09.15.07.25,0,.29-.19.06-.23.18-.28.34-.16.24.19.48.29.8.23.17-.03.32.07.45.18.09.07.18.16.35.1.12-.12-.01-.32.08-.46.18-.29.02-.5-.13-.72-.18.08-.35.16-.55.07-.12-.05-.21-.13-.17-.27.04-.14.15-.18.28-.14.19.05.34.17.44.34.28-.08.36-.28.3-.53-.04-.17-.03-.32,0-.47-.09-.03-.19-.05-.27-.1-.12-.08-.23-.18-.22-.34.02-.17.16-.22.3-.27.14-.05.28-.08.4-.15.16-.09.22-.24.2-.43-.01-.12-.08-.18-.19-.13-.13.05-.26.11-.38.19-.44.28-.95.38-1.44.51-.14.04-.29.06-.4.14-.3.21-.58.3-.92.09-.18-.11-.36.05-.54.11-.18.06-.32.02-.41-.17-.12-.24-.07-.36.2-.34.26.02.52-.07.77.07.19.11.37-.01.52-.14.26-.22.5-.36.81-.06.11.11.28,0,.33-.15.07-.21-.02-.37-.12-.54-.11-.18-.27-.34-.29-.57,0-.06.03-.14.07-.19.06-.05.14-.03.19.03.23.24.47.47.69.72.1.11.2.22.36.15.14-.06.23-.17.23-.33,0-.21-.07-.44.19-.56.28-.13.44.1.64.21.21.11.26.27.09.46-.12.14-.19.29-.09.46.14.23.26.47.08.73-.16.24-.39.21-.64.21-.25,0-.23.18-.17.37.49-.15.99-.17,1.49-.13.09,0,.19.02.28.01.08,0,.13-.08.1-.15-.04-.08-.12-.14-.17-.23-.13-.23-.03-.45.21-.47.14-.01.29.03.43.01.22-.04.47-.35.43-.5-.05-.18-.39-.31-.62-.23-.15.05-.22.17-.25.32-.01.07-.05.15-.12.15-.22.02-.35-.14-.46-.3-.1-.15.03-.2.14-.26.12-.07.18-.18.11-.3-.25-.4-.23-.82-.14-1.25.16-.01.32-.02.48-.04.03,0,.07-.07.06-.1,0-.03-.05-.08-.09-.09-.22-.07-.34.07-.45.23-.12,0-.25.07-.34-.02-.12-.11-.09-.27-.02-.4.05-.1.15-.18.22-.28.09-.15,0-.3-.17-.28-.3.03-.58.12-.88-.06-.14-.09-.48.35-.42.55.02.06.09.13.15.14.11.02.24,0,.35.01.1,0,.19.04.21.15.03.12.01.28-.1.32-.33.11-.63.3-1.02.15-.29-.11-.38-.39-.59-.57-.14.18-.02.31,0,.45,0,.12.03.25-.11.3-.14.05-.21-.07-.29-.16-.07-.09-.2-.19-.14-.31.12-.24.02-.47.02-.7,0-.28.16-.45.42-.49.36-.06.38-.07.34-.33-.03-.19-.06-.38-.03-.57.02-.14-.05-.25-.2-.23-.33.05-.43-.15-.47-.41-.04-.28-.14-.54-.4-.64-.25-.1-.33-.25-.32-.48,0-.1,0-.19-.01-.29-.04-.19-.2-.29-.44-.28-.19,0-.33.09-.31.31.03.26-.16.45-.19.69-.02.16-.16.34,0,.47.17.14.3-.03.44-.12.06-.04.12-.09.19-.1.11-.03.18.03.21.14.05.2-.18.48.18.59-.03.06-.06.16-.11.17-.42.07-.85.36-1.26-.04-.2-.19-.41-.19-.65-.04-.12.08-.26-.06-.18-.19.27-.45.12-.76-.26-1.04-.37-.28-.43-.28-.7.15-.01.02-.02.05-.03.06-.05.05-.1.12-.16.13-.12.01-.14-.09-.17-.19-.13-.39-.15-.36-.54-.35-.27,0-.23.26-.4.33-.53.23-.67.45-.73,1.02-.07,0-.14,0-.21,0-.37.04-.53.23-.48.59.02.11.1.15.21.14.37-.03.5-.31.63-.59.13-.03.28-.05.24.14-.05.25-.16.5-.25.74-.1.27-.21.33-.49.3-.42-.04-.47-.09-.52-.57-.02-.21-.08-.37-.3-.43-.09-.02-.2-.03-.26.06-.03.05-.03.14-.01.2.06.15.15.3.21.45.03.1-.02.19-.13.22-.1.02-.2.01-.17-.13.03-.22-.08-.27-.24-.16-.16.1-.26.28-.49.15-.29-.17-.5-.02-.66.22-.08.12-.11.3-.26.32-.29.04-.35.2-.36.46,0,.13-.16.24-.31.26-.22.02-.17-.17-.21-.3-.02-.07-.05-.14-.08-.2-.11-.21-.26-.26-.47-.14-.08.05-.15.11-.23.17-.33.21-1.1.15-1.41-.11-.07-.06-.13-.16-.08-.25.05-.1.16-.09.25-.05.15.06.39.22.45.04.14-.44.39-.31.66-.2.04.02.11.03.14,0,.33-.19.63-.16.93.07.08.06.19.04.26-.04.37-.39.84-.6,1.34-.74.11-.03.22-.09.32-.15.12-.08.11-.3-.02-.36-.11-.05-.24-.04-.34-.09-.15-.06-.2-.21-.16-.36.02-.09.07-.2.14-.24.14-.08.19.07.28.15.07.06.16.17.22.16.39-.08.86.08,1.13-.42.1-.19.36-.36.56-.49.25-.16.63-.14.64-.57,0-.04.12-.09.18-.09.12,0,.24.02.35.04.1.01.26-.01.23-.09-.09-.34.39-.32.36-.62-.01-.1.08-.17.18-.19.14-.02.24.07.25.2.03.33.23.38.5.33.02,0,.05,0,.07,0,.23,0,.34.07.35.33.01.26.28.47.6.46.3-.01.15-.29.2-.45.03-.11.07-.22.1-.32-.12-.18-.39-.06-.44-.24-.13-.46-.42-.83-.6-1.26-.09-.22-.06-.47.1-.68,0-.27.28-.38.36-.6.01-.03,0-.1-.04-.12-.03-.03-.1-.05-.12-.03-.16.1-.3.24-.47.32-.17.09-.34.14-.54.03-.51-.28-.51-.27-.7.31,0,.02-.02.04-.03.07-.09.23-.11.42.19.51.13.04.17.16.12.29-.05.13-.16.18-.29.17-.21-.02-.43-.05-.43.24-.24-.4-.25-.5-.28-.58-.06-.15-.31-.19-.28-.38.03-.21.25-.19.39-.26.13-.07.26-.15.3-.29.08-.29.26-.49.51-.66.18-.12.15-.42-.05-.47-.25-.06-.38-.27-.6-.36-.09-.04-.2-.02-.21.12,0,.04.02.09.04.14.03.1.02.2-.1.22-.11.02-.17-.06-.23-.13-.11-.12,0-.36-.22-.42-.26.45-.29.44-.59.47-.42.03-.45-.35-.65-.61-.18.25-.18.5-.16.72.03.29-.04.49-.25.7-.18.17.03.53-.25.71-.1.06-.18.13-.17.28,0,.15-.13.19-.25.2-.12.01-.24,0-.36,0-.11,0-.27-.06-.28.12,0,.13.13.19.24.23.09.03.19.04.28.06.3.07.37.27.17.5-.12.14-.27.19-.45.19-.14,0-.21.1-.24.22l-.57-.29c-.06.09-.19.16-.16.29.03.15.17.13.29.14.17.01.32-.03.45-.14.12.04.2.11.27.22.2.32.21.32.53.13.1-.06.19-.25.35-.07-.04.15-.18.21-.28.32-.08.09-.06.17.06.21.28.11.1.27.03.39-.1.17-.23.13-.35,0-.08-.08-.17-.21-.27-.22-.37-.03-.49-.3-.6-.68-.2.29-.52.4-.38.77.02.06-.05.14-.12.15-.06,0-.16-.01-.19-.06-.13-.17-.25-.35-.37-.53-.12-.18-.26-.17-.43-.09-.36.15-.29.58-.52.81,0,0,.05.08.08.11.08.08.07.17.08.27.03.32-.08.42-.36.3-.43-.18-.82-.29-1.27,0-.36.23-.5.33-.49.75,0,.19.07.33.28.35.22.02.27-.1.28-.31.02-.36.04-.36.45-.27.02,0,.04.02.07.03.34-.15.64.01.93.14.12.05.16.17.13.3-.03.13-.05.29-.22.33-.16.04-.28-.06-.35-.18-.13-.23-.25-.46-.49-.58.03.54-.28.8-.74.99-.23.1-.43-.03-.61.02-.23.06-.23.41-.48.5-.09.03-.18.05-.28.07-.09.01-.2.04-.26-.05-.07-.11-.05-.23.01-.34.12-.21.3-.37.49-.52.11-.09.25-.14.36-.23.35-.29.28-.69-.16-.86-.11-.04-.22-.09-.34-.12-.14-.04-.29-.04-.4.07-.13.13.01.27.02.4,0,.04-.05.07-.08.12-.21-.04-.26-.26-.41-.37-.13-.09-.26-.12-.4-.06-.09.03-.14.18-.07.23.16.14.32.28.5.39.27.17.21.4.16.63,0,.03-.07.07-.11.07-.04,0-.11-.04-.11-.06,0-.31-.17-.46-.45-.54-.14-.04-.19-.2-.23-.34-.04-.15-.14-.25-.29-.29-.16-.33-.34-.65-.61-.95-.21.26-.44.43-.52.71.12.18.27.01.4.08.14.08.3.14.45.19.08.02.18-.01.27-.02,0,.29.02.58-.02.86-.04.3,0,.52.31.63.09.03.17.13.15.22-.04.18-.23.28-.29.47-.04.13-.21.06-.32.05-.07,0-.15.01-.17.09-.03.08,0,.17.07.18.33.06.55.29.73.56.26-.18.36-.46.65-.54.15.13.1.42.37.46.11.02.09.15,0,.22-.06.04-.13.06-.19.11-.08.07-.11.17-.05.26.03.05.12.09.18.08.3-.03.6-.08.88-.13.12.25.02.43,0,.61-.03.23-.12.26-.34.12-.13-.08-.24-.17-.38-.07-.27.19-.69.04-.9.38-.02.04-.14.05-.2.03-.26-.12-.64-.09-.68-.52,0-.12-.12-.13-.22-.09-.1.04-.19.12-.13.22.18.32.27.66.32,1.02.03.22.19.31.42.29.07,0,.14-.03.21-.04.5-.09.71.02.88.48.05.13.04.32.14.39.18.15.27-.12.42-.15.02,0,.05,0,.07,0,.41.13.62-.03.75-.42.08-.24.3-.27.53-.13.15.09.24.23.28.4.04.17.13.31.27.41.12.09.22.08.28-.07.02-.07.03-.14.05-.21.03-.1.09-.17.19-.18.11,0,.16.08.2.17.05.11.08.23.02.35-.08.18-.04.32.1.45.07.07.13.14.18.22.1.14.07.27-.07.37-.06.04-.13.05-.2.08-.39.21-.42.44-.1.76.05.05.11.08.17.12.34-.24.68-.45.95-.76.03-.03.14-.03.2,0,.07.03.09.11.06.18-.04.08-.11.16-.15.24-.09.2,0,.31.22.3.05,0,.1,0,.14-.02.29-.1.51-.03.66.25.14.26.39.24.63.2.12-.02.26-.06.22-.22-.03-.13-.15-.07-.24-.03-.12.06-.26.07-.32-.05-.15-.34-.42-.68-.29-1.07.16-.46,0-.73-.36-.97-.12-.08-.23-.17-.34-.26-.09-.07-.07-.17-.04-.26-.22-.04-.29-.23-.39-.39-.05-.09-.08-.18.03-.24.05-.02.15-.01.2.02.25.15.29.36.15.61.24-.03.45-.16.65-.28.25-.16.52-.2.81-.05-.06.17-.18.18-.29.21-.21.07-.21.2-.14.4.08.2.18.24.38.19.41-.1.76.03,1.02.35.04.04.05.14.03.2-.04.1-.16.12-.24.08-.16-.09-.31-.22-.47-.32-.09-.05-.19-.03-.27.04-.09.07-.09.17-.01.25.1.1.12.19,0,.3-.2.19-.11.4,0,.59.13.23.37.28.62.3.13,0,.26-.08.24-.21-.07-.46.29-.68.52-.97.11-.15.27-.2.45-.14.2.06.45.05.57.27.12.22.35.11.51.23-.06.15-.11.31-.18.46-.14.31-.28.62-.73.53-.13-.03-.23.07-.26.2-.05.21-.09.42-.11.63-.01.12.02.24-.05.35-.08.14-.34.23-.22.4.15.23.32-.05.49-.07.09,0,.19-.03.28-.04.01-.07.02-.14.04-.21.03-.1.11-.17.21-.14.06.02.12.08.14.14.03.11.03.23.05.35-.14-.05-.29-.1-.43-.14.02.15,0,.34.22.36.14.02.18-.11.22-.22.12.01.24.03.36.04.29.02.33-.01.29-.32-.03-.22-.06-.41.14-.59.19-.18.17-.21-.11-.39-.09-.06-.13-.12-.13-.23,0-.32.12-.6.27-.88.05-.09.08-.18.2-.14.12.04.21.11.24.25.02.13-.06.23-.1.34-.1.3.02.45.34.44.07,0,.14-.04.21-.06.08-.03.16,0,.17.07.02.24.34.28.35.51-.04.14-.16.18-.26.25-.24.15-.31.42-.42.65-.06.12.06.35.16.37.12.02.17-.07.21-.15.15-.35.53-.48.76-.75.11-.12.27-.1.39.01.19.19.39.35.63.46.08.04.16.12.19.21.09.31.38.49.51.78.13.28.39.34.67.19.12-.06.24-.16.33-.27.17-.19.37-.19.59-.13.21.06.41.11.57.28.08.08.2.13.3.17.14.05.28-.08.24-.24,0-.05-.04-.09-.06-.13-.08-.33-.05-.39.25-.44.33-.06.66-.12.99-.15.28-.02.51-.09.68-.33.08-.11.21-.19.33-.27.08-.06.15-.12.13-.23ZM53.01,25.83c.01-.08,0-.21.15-.17.04.01.08.12.08.18,0,.07-.04.14-.15.13-.06-.01-.09-.07-.08-.15ZM51.32,25.09c.11,0,.19.04.21.14.02.16-.06.26-.21.3-.14.03-.23-.04-.24-.17,0-.16.09-.25.24-.28ZM47.25,15.65c.1-.12.58-.05.59.1.02.21.18.29.23.28.02.42-.15.55-.31.68-.21-.06-.18-.22-.2-.35-.02-.15-.07-.27-.18-.37-.11-.09-.25-.18-.13-.34ZM45.88,15.97c.09-.2.18-.39.3-.56.11-.16.14-.29,0-.44-.11-.11-.06-.23.05-.3.12-.08.25-.13.38-.2.16-.09.15-.22-.02-.33-.08-.05-.18-.07-.25-.13-.11-.09-.11-.21-.03-.32.09-.13.29-.21.36-.09.19.31.57.53.49.97-.06.2.06.5-.19.57-.24.07-.31.13-.28.37.05.38.08.77-.37.97-.03.01.02.14,0,.2-.04.12-.15.12-.23.05-.26-.23-.32-.47-.19-.76ZM43.35,19.74c.04-.12.12-.2.25-.23.07-.02.14.01.16.14.01.11-.15.27-.33.24-.08-.01-.11-.08-.09-.16ZM42.84,19.22c.08,0,.14.05.14.13,0,.11-.06.17-.16.21-.09,0-.13-.06-.13-.13,0-.1.03-.19.15-.2ZM39.14,21.63c-.11-.05-.15-.22-.06-.3.13-.12.28-.18.44-.16.08.02.14.06.13.15-.02.26-.29.42-.51.31ZM40.32,24c-.11.11-.25.11-.51.09.03,0-.07,0-.15-.03-.05-.02-.1-.11-.1-.16.01-.2.23-.41.42-.41.21,0,.34.15.42.33.02.04-.02.14-.07.18ZM41.08,23.72c-.24-.36-.59-.61-.91-.9-.19-.17-.16-.52.06-.69.04-.04.15-.05.19-.02.08.06.25.08.2.24-.08.28.03.36.28.3.03,0,.06-.01.09-.02.47.54.23.7.37,1.02.03.08-.23.16-.29.07ZM40.94,21.72c0,.13-.02.25-.07.35-.12-.19-.05-.29.07-.36.38-.28.52.1.9.22-.48.17-.63-.19-.9-.22ZM42.57,23.6s-.07.03-.11.05c-.07-.03-.12-.07-.1-.15.02-.08.08-.1.15-.07.07.03.1.1.07.17ZM45.2,21.38c.05.02.09.09.13.13-.04.04-.08.1-.08.1-.05-.03-.11-.07-.14-.12-.03-.07,0-.14.09-.11ZM43.94,21.43c.14-.06.22.02.26.15.02.07.03.14.04.22-.02.05-.03.13-.08.17-.06.05-.14,0-.19-.04-.06-.07-.14-.14-.17-.22-.06-.13.02-.23.14-.28ZM45.36,24c-.04.12-.14.23-.26.19-.43-.14-.85-.05-1.28-.03-.17,0-.34-.01-.36-.25-.01-.19.07-.25.37-.3.04,0,.09-.02.15-.03-.05-.18-.11-.35-.15-.53-.02-.12,0-.24.09-.34.07-.08.15-.11.26-.08.08.02.13.09.1.16-.05.15-.04.27.05.41.11.16.2.33.44.29.09-.01.19,0,.28.01.3.05.4.22.31.51ZM46.04,24.94c-.08,0-.14-.05-.15-.13-.03-.22.13-.43.29-.4.11.02.15.11.17.21,0,.17-.14.32-.32.32ZM46.86,20.9s.06.04.1.07c-.05.12-.08.26-.15.37-.03.05-.13.02-.17-.04-.09-.16.04-.41.22-.4ZM46.62,22.85c-.04-.11-.05-.23-.08-.33.02-.11.02-.21.05-.29.02-.06.08-.12.14-.14.07-.03.13.02.17.09.09.14.18.27.26.42.09.16.03.37-.11.43-.14.06-.37-.02-.42-.17ZM47.5,25.69s-.1.05-.12.04c-.27-.19-.39-.47-.45-.78,0-.03.05-.07.08-.1.04.01.11,0,.13.04.17.24.46.44.36.8ZM47.81,23.85c-.18.15-.39.26-.33.56.02.07-.09.1-.17.08-.04,0-.11-.03-.12-.06-.11-.22,0-.41.11-.59.09-.15.22-.25.41-.2.07.02.12.06.13.15,0,.02-.01.05-.03.06ZM52.31,23.12c-.07,0-.14-.04-.14-.11,0-.14.07-.22.21-.22.07,0,.13.05.14.12.02.12-.07.21-.21.21ZM48.98,19.08c.02-.12.14-.18.25-.23.04-.02.11-.02.13,0,.13.13.25.27.27.46-.03.04-.04.09-.08.12-.1.08-.21.1-.32.02-.13-.09-.29-.19-.25-.38ZM49.25,26.38s-.07-.04-.1-.07c.02-.03.05-.08.07-.08.03,0,.07.04.1.07-.02.03-.05.08-.07.08ZM49.3,24.38c-.03.06-.09.11-.17.08-.04-.01-.08-.06-.09-.09-.02-.07-.02-.14-.02-.21.01-.1.06-.18.17-.18.11,0,.15.1.16.22-.02.05-.03.12-.06.18ZM48.76,21.32c-.12-.06-.16-.16-.17-.29,0-.14.08-.21.21-.23.15-.02.24-.13.35-.22.27-.24.28-.23.57.12.04-.06.08-.14.14-.16.23-.08.39-.15.25-.46-.09-.19.06-.37.26-.45.18-.08.35-.03.43.14.18.38.48.42.77.23.46-.29.85.08,1.28.05.07,0,.12.13.07.16-.41.31-.4.78-.48,1.21-.06.31-.1.33-.42.17-.27-.14-.53.03-.51.33.02.21.15.41.11.63-.01.06-.06.13-.12.17-.06.04-.14.02-.19-.04-.15-.16-.26-.34-.32-.55-.06-.22.06-.36.16-.52.14-.24.03-.7-.19-.92-.07-.08-.2-.11-.26-.04-.22.28-.57.2-.84.34,0,.07.03.17,0,.2-.33.28-.73.32-1.1.13ZM49.89,22.35c.01.1-.06.16-.16.18-.07.02-.16,0-.14-.1,0-.06.07-.12.13-.16.07-.04.14-.03.18.07ZM49.63,25.54c-.03-.16-.09-.32-.11-.48-.03-.17.01-.32.17-.44.42-.32.58-.31.88.1.07.09.12.2.22.38-.26.12-.45.2-.64.28.01.28.27.25.4.37.15.13.17.28.09.45-.07.15-.19.23-.34.14-.32-.18-.58-.41-.65-.8ZM52.43,29.49c-.08.07-.18.02-.27,0-.25-.1-.44-.29-.63-.47-.13-.12-.08-.26.1-.32.07-.02.14-.03.19-.05.15,0,.25.06.32.17.09.14.18.28.27.42.05.08.11.17.02.25ZM56.02,30.79c-.12,0-.36.25-.38.35.01.02.02.05.03.06.1.08.22.07.32,0,.13-.08.2-.19.12-.35-.02-.03-.07-.08-.1-.07ZM35.32,23.31s-.04.07-.06.11c.03.02.07.04.1.06.02-.04.05-.08.05-.12,0-.05-.05-.08-.09-.06ZM35.46,21.73c-.18-.22-.33-.44-.25-.76.02-.09-.12-.25-.22-.34-.11-.09-.21.05-.32.07-.07.02-.12.06-.32.15.35.14.52.24.42.57-.07.21.12.45.3.61.11.11.27.06.38-.05.08-.07.08-.17.01-.25ZM34.87,24.23c0,.08.05.13.13.13.08,0,.12-.05.13-.13,0-.08-.05-.13-.13-.13-.08,0-.13.05-.13.13ZM35.28,26.5c.07-.03.09-.11.05-.18-.07-.12-.18-.22-.23-.35-.11-.3-.3-.21-.56-.1.18.22.35.44.54.64.03.03.13.02.19,0ZM51.96,21.12c.09.07.17.07.24-.03.03-.08.02-.15-.05-.19-.09-.05-.19-.06-.26.03-.05.07,0,.14.06.18ZM55.34,30.07s-.06.07-.07.1c0,.02.05.05.08.07.02-.03.06-.07.07-.1,0-.02-.05-.05-.08-.08ZM34.18,20.45c.13-.04.12-.18.15-.3.04-.13.09-.27.14-.4,0-.14-.09-.23-.22-.24-.23-.02-.4.14-.53.3-.12.15.02.31.11.44.08.11.17.25.34.19ZM46.48,26.95c.17,0,.32-.17.28-.31-.03-.1-.11-.13-.22-.13-.16,0-.23.11-.23.27,0,.1.07.17.17.17ZM45.71,28.11c.13-.03.22-.1.19-.24-.03-.14-.15-.17-.27-.12-.08.03-.16.09-.23.15-.03.02-.05.08-.04.12,0,.08.08.1.16.11.06,0,.13,0,.19-.02ZM43.69,28.39c.02-.08-.04-.13-.11-.09-.05.02-.07.1-.1.15,0,.01.05.05.08.07.08,0,.12-.07.13-.13ZM40.62,28.55c-.07.01-.13.06-.09.14.01.03.08.05.12.05.07,0,.13-.02.14-.11-.03-.08-.09-.1-.16-.09ZM42.18,28.32c.26.18.55.19.79.03.22-.14.35-.43.24-.52-.17-.13-.35-.07-.52.03-.13.08-.2.28-.43.19-.06-.02-.17-.11-.21.03-.03.1.06.18.13.23ZM48.25,30.72c-.07.02-.13.07-.13.15,0,.11.09.16.2.16.11,0,.18-.06.15-.18-.03-.1-.11-.14-.22-.13ZM52.24,30.73c-.11-.04-.22-.07-.28-.08-.3,0-.44.08-.45.22-.01.16.08.27.2.35.14.1.27.06.39-.04.11-.09.23-.18.22-.35,0-.04-.04-.1-.08-.11ZM54.19,30.89c-.07.02-.1.09-.09.16.03.16.13.25.29.25.08,0,.13-.05.14-.13-.02-.17-.19-.32-.33-.28ZM50.64,29.87c-.06,0-.14.07-.15.12-.1.38-.33.62-.71.71-.04.01-.09.04-.12.08-.03.03-.06.08-.05.12,0,.04.04.1.08.11.3.06.6.11.91.15.13.02.23-.07.25-.2.03-.14.03-.28.05-.44-.01-.15-.02-.31-.05-.48-.02-.1-.08-.18-.19-.16ZM50.62,29.16s-.08-.04-.11-.05c-.02.03-.04.07-.06.1.04.02.08.05.11.05.02,0,.04-.06.06-.09ZM49.8,29.29s.07-.04.1-.06c-.02-.03-.05-.09-.07-.09-.04,0-.07.04-.1.06.02.03.05.09.07.08ZM42.29,9.8s.03.07.05.1c.03-.02.08-.04.09-.08,0-.03-.03-.07-.05-.1-.03.02-.08.04-.09.07ZM49.46,6.12s-.02-.1-.05-.11c-.07-.04-.14,0-.15.07,0,.03.02.1.05.11.07.04.13,0,.16-.07ZM51.16,11.64c-.28-.04-.46-.35-.76-.29-.16.03-.28.04-.37-.12-.07-.13-.15-.27-.08-.4.16-.3.01-.67.25-.96.1-.12.02-.26-.07-.39-.39-.56-.59-1.19-.6-1.88.25-.01.37.14.53.25.02.01.04.03.05.05.07.15-.08.27-.08.41,0,.05,0,.1,0,.14,0,.17.16.25.3.14.16-.13.3-.2.51-.18.24.02.31-.12.16-.31-.35-.45-.38-.91-.15-1.41.03-.06.05-.14.04-.2-.01-.06-.06-.14-.11-.17-.18-.12-.59.04-.66.25,0,.02.04.08.07.1.09.04.2.08.04.17-.06.03-.14.01-.21.01-.57-.03-.64.08-.84.61-.17.44-.2.83-.04,1.27.1.28.08.53-.23.74-.23.16-.4.41-.7.47-.13.03-.18.14-.23.26-.22-.12-.41-.09-.59.08-.11.1-.26.21-.38.12-.25-.17-.79-.14-.57-.7.03-.08-.05-.12-.11-.16-.29-.2-.32-.51-.32-.83,0-.19.03-.38.04-.57.02-.38-.11-.52-.49-.52-.32,0-.44.13-.37.44.03.14.09.27.12.41.11.45.04.52-.46.48-.07,0-.14-.01-.21,0-.04,0-.1.03-.12.07-.02.03-.02.11,0,.13.38.31.54.71.51,1.2,0,.05.08.11.14.14.07.03.14,0,.18-.07.09-.13.09-.34.3-.37.19-.02.28.16.43.23.21.1.44.19.65.31.27.15.57.27.66.61-.28.02-.49-.16-.72-.28-.4-.2-.65-.08-.82.35-.03.09-.05.19-.18.24-.25,0-.5-.26-.79-.1.23.68.25.7.87.56.07-.01.14-.03.21-.05-.05.15-.07.3.1.37.22.09.43.18.61.35.1.09.22.06.31-.05.05-.05.09-.11.13-.17.15-.25.05-.45-.22-.42-.32.03-.62-.02-.92-.08.04-.12.1-.25.22-.23.46.08.76-.3,1.16-.36.02,0,.04-.08.05-.12.42.07.52.02.56-.29.03-.24.01-.48.02-.72.19.04.37.1.56.12.17.02.34,0,.4-.21.02-.07.05-.14.1-.18.13-.12.29-.17.46-.07.14.08.19.21.16.36-.03.16-.08.32-.13.48-.06.16-.18.18-.34.06-.04-.03-.06-.08-.09-.11-.24-.18-.42-.17-.63.02-.16.16-.24.42.02.62.2.16.29.36.26.62-.02.23.04.46.23.63.17-.15,0-.36.16-.48.14-.56.25-.62.69-.35.02.01.04.03.06.04.17.2.43.15.65.24.24.09.07.45.27.62.08.06.16.12.25.08.05-.03.11-.1.12-.16.03-.24.04-.47.04-.71,0-.06-.04-.18-.07-.19ZM49.09,6.77s.05-.07.07-.11c0-.02,0-.05-.02-.06-.18-.18-.36-.36-.54-.54-.09-.08-.24-.02-.27.11-.13.47.3.65.76.6ZM45.73,4.6s-.03-.09-.06-.1c-.03-.01-.08.02-.12.03.02.04.03.09.06.1.03.01.08-.02.11-.03ZM44.68,7.13c-.02.11.05.18.15.21.16.05.33.13.48.11.41-.07.78-.06,1.17.13.2.1.42.01.51-.25.19.09.21.23.13.41-.04.1,0,.2.1.22.37.08.72-.3.58-.64-.12-.31-.28-.6-.21-.95.03-.16-.07-.27-.21-.33-.17-.08-.21-.22-.24-.4-.05-.33-.21-.37-.46-.16-.17.14-.2.28-.08.49.12.22.36.43.22.71-.14.28.05.44.16.64-.38-.07-.62-.24-.54-.67.02-.13-.04-.24-.16-.29-.23-.1-.26-.24-.15-.45.09-.17-.02-.27-.19-.29-.39-.03-.52.16-.37.53.03.06.08.12.11.18.17.38.03.65-.38.72-.15.03-.28,0-.42-.05-.1-.04-.19.02-.21.13ZM49.33,12.26c.06.04.12.02.16-.05.01-.08-.02-.14-.09-.16-.08-.01-.17.01-.26.02.06.06.11.14.18.19ZM52.31,5.53c.03-.05.05-.12.06-.18,0-.02-.06-.04-.09-.06-.09.06-.1.14-.07.23.02.05.08.06.11.01ZM53.01,5.4c.1-.01.17-.07.19-.18,0-.11-.07-.19-.17-.2-.16-.02-.2.1-.21.23,0,.11.08.17.19.16ZM50.91,9.05s-.04-.08-.07-.09c-.05-.03-.1,0-.1.05,0,.03.05.07.07.1.06.01.1,0,.1-.06ZM35.88,24.59c-.13-.07-.22.03-.31.1-.1.08-.15.19-.07.31.07.11.18.16.31.13.15-.04.13-.17.14-.29,0-.09.03-.21-.07-.26ZM50.46,10.68c-.01.23.09.31.35.32.15,0,.31,0,.3-.2,0-.19-.25-.38-.45-.37-.14,0-.19.12-.19.25ZM52.35,7.41c.06.29.31.4.56.5.11.04.29-.14.27-.29,0-.06-.04-.12-.11-.14-.28-.08-.31-.26-.25-.5.01-.04,0-.1-.01-.14-.02-.04-.05-.08-.09-.1-.04-.01-.11-.01-.13.02-.18.18-.28.4-.23.65ZM39.18,11.88c.07.06.14.03.17-.04.1-.22.24-.21.46-.18.67.07.75-.22.7-.68,0-.05-.03-.09-.06-.18-.2.03-.36.05-.52.07-.1,0-.23,0-.25.09-.08.28-.31.39-.51.54-.05.04-.05.17-.05.26,0,.04.03.09.07.12ZM35.85,15.2c.09,0,.19-.03.18-.15,0-.03-.07-.07-.1-.06-.06,0-.15.03-.17.08-.04.07.02.12.1.14ZM37.8,13.64c-.12.14-.16.34-.37.4-.24.07-.12.21-.02.3.24.21.39.16.51-.17.19-.53.37-.63.89-.5.14.03.26.12.41.08.07-.02.15-.06.14-.14-.01-.06-.07-.13-.13-.15-.18-.05-.37-.07-.55-.12-.36-.1-.65.01-.87.29ZM43.7,6.47s-.04-.06-.07-.09c-.04.01-.1.02-.11.05-.01.02,0,.1.03.11.07.04.14.02.15-.06ZM35.92,23.13c.07.05.17.09.26.09.06,0,.13-.05.17-.1.05-.06.03-.15-.03-.19-.22-.13-.46-.26-.69-.38-.04-.02-.09,0-.14,0-.02.01-.05.03-.05.04,0,.04,0,.12,0,.12.25.03.31.28.48.4ZM39.99,6.63s-.06-.04-.09-.06c-.02.04-.04.08-.05.11.03.02.07.04.1.06.02-.04.05-.08.05-.11ZM43.68,8.33c.23-.23.4-.19.57.05.04.06.1.1.17.13.16.09.4-.04.45-.23,0-.05,0-.12-.02-.13-.34-.15-.69-.31-1.04-.45-.09-.04-.19.01-.24.11-.05.11-.08.22-.1.34-.02.13.13.26.22.17ZM41.89,16.01c-.01-.1-.05-.19-.14-.23-.11-.04-.16.04-.23.12-.3.34-.34.35-.72.2.05-.22.35-.16.42-.36.05-.13.13-.33-.03-.38-.41-.1-.56-.24-.22-.6.03-.03,0-.14-.01-.21-.03-.17-.29-.31-.09-.51.16-.16.37,0,.55,0,.04,0,.08-.04.13-.06.03-.17-.13-.17-.22-.24-.06-.05-.09-.11-.07-.18.1-.31.53-.6.84-.57.14.02.25.19.2.32-.02.04-.05.08-.08.12-.05.06-.1.1-.14.16-.09.14-.07.27.06.38.13.11.34.08.44-.06.13-.19.17-.43.35-.62.22-.24.2-.4-.01-.62-.26-.28-.56-.46-.96-.26-.08.04-.18.06-.27.07-.22.02-.35-.14-.31-.37.04-.22.19-.38.29-.57.03-.07-.02-.14-.09-.16-.28-.06-.51.07-.56.31-.03.14-.04.3.01.42.13.31-.17.59-.1.82.12.4-.17.57-.33.79-.18.25-.35.5-.43.84-.44-.16-.89.03-1.28-.13-.32-.13-.5.03-.71.17-.08.05-.13.15-.09.25.03.1.13.14.23.14.24,0,.47-.04.7-.09.18-.04.38.25.64.14.06-.03.14-.02.21-.01.1,0,.2.04.19.16,0,.13-.08.23-.22.23-.07,0-.13-.05-.2-.07-.33-.07-.44.05-.37.36.07.31.16.59.46.77.19.12.33.33.51.52-.5.19-.47.6-.4,1.01.05.3.26.43.56.45.05-.26-.18-.41-.17-.67.26-.01.5-.08.54-.41,0-.06.08-.15.13-.15.46-.07.66-.53,1.08-.63-.03-.23-.05-.42-.07-.61ZM42.46,7.8s.05-.07.08-.11c0-.02,0-.05-.01-.07-.12-.18-.3-.29-.51-.32-.09-.02-.2.17-.15.27.09.18.39.3.6.23ZM40.89,26.85c-.04-.05-.11-.11-.17-.11-.25-.02-.56.28-.56.51,0,.1,0,.19.03.28.05.16.18.22.34.2.4-.06.6-.56.37-.88ZM42.53,8.69c-.03-.18-.19-.19-.33-.2-.15,0-.31.02-.3.21,0,.16.1.27.27.26.17,0,.38-.16.36-.28ZM38.27,10.38s.09-.03.11-.06c.03-.07,0-.14-.08-.15-.03,0-.09.03-.11.06-.03.07,0,.13.08.15ZM33.04,11.37c.02-.07-.02-.13-.09-.16-.08,0-.13.04-.13.11,0,.04.03.09.06.11.07.04.14.02.16-.06ZM32.9,19.02s-.01-.1-.04-.12c-.09-.05-.18-.03-.24.06-.01.02,0,.1.03.11.09.04.18.03.24-.05ZM32.56,19.36c-.08,0-.13.05-.13.13,0,.08.05.12.13.13.08,0,.13-.05.13-.13,0-.08-.05-.13-.13-.13ZM32.58,21.38c-.11,0-.17.05-.18.15,0,.04.03.09.06.11.1.04.18,0,.2-.1.02-.07-.01-.13-.09-.15ZM32.42,8.26c.1,0,.18-.03.19-.15-.02-.14-.12-.18-.24-.18-.1,0-.2.04-.19.15,0,.14.13.17.25.18ZM32.28,16.85c-.01-.06-.05-.13-.1-.16-.07-.04-.13.02-.16.09-.06.13-.11.26-.16.39-.06.15-.02.28.11.37.05.03.14.05.19.03.13-.05.12-.18.14-.29,0-.05,0-.09,0-.26,0,.02,0-.07-.01-.16ZM32.16,16.22c.08.02.11-.05.12-.13-.01-.11,0-.24-.16-.25-.07,0-.09.09-.09.16,0,.09.02.19.12.22ZM32.49,14.2c-.06-.12-.16-.18-.29-.13-.03.01-.07.08-.06.11.04.14.15.18.28.13.03-.01.04-.07.07-.11ZM33.3,9.25c.14.02.21-.08.23-.22-.01-.15-.05-.29-.23-.31-.14-.01-.21.09-.23.22-.01.16.05.29.22.31ZM33.38,17.96c0-.06-.01-.14-.05-.19-.04-.05-.12-.08-.18-.09-.16-.05-.31.04-.31.18,0,.16.11.18.22.19.09,0,.16,0,.23,0,.04,0,.1-.05.1-.08ZM33.52,12.55c0-.08-.06-.13-.14-.13-.08,0-.13.05-.14.13,0,.1.03.19.14.22.11-.03.14-.12.14-.22ZM33.03,19.52c-.04.06,0,.12.08.14.09.02.17.01.22-.09,0-.08-.06-.12-.12-.12-.06,0-.14.02-.17.07ZM36.09,8.55c.06-.04.12-.05.13-.08.01-.03,0-.09-.02-.13-.07-.1-.18-.14-.3-.13-.04,0-.1.03-.11.06-.02.03,0,.1.03.12.09.06.19.11.28.16ZM35.62,19.6c.14,0,.3.03.35-.15.04-.16-.08-.26-.18-.36-.2-.19-.35-.18-.52.06-.04.06-.07.12-.09.19-.04.14.03.23.16.26.07.02.14,0,.07,0,.17,0,.19,0,.21,0ZM35.8,14.03c-.02.09-.02.18.09.21.08.02.11-.05.13-.14,0-.07,0-.17-.13-.16-.03,0-.07.05-.08.09ZM40.87,29.58c-.08.01-.13.08-.1.15.05.11.15.1.24.06.07-.03.12-.07.12-.16-.07-.09-.17-.07-.26-.06ZM36.9,20.49c.08-.25.14-.51.2-.76.05-.22-.1-.3-.27-.35-.16-.05-.28,0-.35.15-.04.09-.07.18-.11.27-.15.3-.18.32-.49.26-.09-.02-.18-.05-.28-.08-.09-.02-.21-.06-.27.04-.09.15.06.2.16.26.07.04.12.09.07.16-.13.17-.07.26.12.27.26.02.52.03.64.04.38.07.51-.05.57-.25ZM34.66,17.46c.38.19.62.49.73.9.02.07.12.09.18.03.08-.08.14-.18.22-.28-.15-.34-.19-.69-.47-.96-.28-.27-.46-.27-.69.05-.06.09-.06.2.03.25ZM33.96,15.78c-.02-.09-.07-.17-.18-.16-.02,0-.06.07-.06.11,0,.09.02.21.14.21.08,0,.11-.08.1-.16ZM36.5,21.55c-.03-.12-.14-.2-.29-.2-.1,0-.19.05-.18.16.01.16.13.25.28.26.11,0,.16-.08.19-.22ZM34.6,16.66c.1-.02.19-.07.18-.18-.02-.15-.15-.18-.27-.16-.36.07-.73.15-1.11.23.16.26.3.49.44.71.16,0,.17-.12.19-.2.04-.25.19-.37.43-.38.05,0,.09-.01.14-.02ZM36.47,23.75c-.1,0-.19.02-.26.1-.07.09-.04.18.01.26.08.12.16.23.24.35.04.06.07.14.16.11.1-.03.16-.12.16-.22,0-.2-.26-.33-.18-.57,0,0-.08-.03-.12-.05ZM35.23,16.17c-.1.08-.07.17-.01.25.1.13.07.33.29.42.13-.19.11-.35.06-.51-.05-.14-.24-.23-.34-.16ZM34.7,15.05c.17.02.27-.05.3-.21,0-.08-.02-.16-.1-.16-.15,0-.27.09-.32.23-.03.07.04.13.12.14ZM33.37,22.26c-.08.02-.12.08-.09.15.01.03.07.07.1.06.08,0,.12-.07.09-.15-.01-.03-.07-.05-.11-.07ZM36.49,25.13c-.11.09-.23.16-.35.24-.08.06-.14.14-.08.23.03.05.11.07.18.11.23-.03.41-.1.51-.32.05-.11.11-.23.02-.33-.11-.13-.2,0-.28.07ZM31.74,21.19c.11,0,.16-.07.15-.18,0-.1-.06-.17-.17-.18-.11.03-.13.12-.11.22,0,.07.05.14.13.14ZM38.25,28.73c-.08-.01-.13.05-.14.12-.02.12,0,.23.13.27.11,0,.18-.05.19-.15.01-.12-.05-.23-.18-.24ZM36.42,27.89c-.12-.01-.27.16-.28.35-.01.14.1.23.29.22.15,0,.25-.08.25-.19,0-.16-.13-.37-.26-.38ZM37.62,25.53c.25-.05.32-.26.38-.46.03-.1,0-.19-.09-.24-.28-.13-.55.02-.56.32,0,.05,0,.12.02.19.03.12.11.22.25.19ZM41.16,25.95s-.07.05-.1.08c-.01.01,0,.05,0,.07.06.11.17.16.28.18.04,0,.1,0,.12-.03.02-.02,0-.09-.02-.12-.07-.09-.15-.17-.28-.18ZM41.31,27.74c-.17-.04-.36.08-.38.22,0,.11.08.17.17.18.16.03.28-.04.33-.19.04-.11-.02-.19-.12-.22ZM39.49,26.17c-.33.19-.67.23-1.03.18-.04,0-.1.01-.14.03-.04.02-.08.06-.09.1,0,.03.02.1.05.11.23.13.49.16.71.32.21.16.29.42.57.58-.03-.38.07-.69.24-.97.05-.08.06-.19,0-.27-.08-.1-.2-.15-.32-.09ZM38.16,27.19c-.35.16-.71.28-1.1.24-.06,0-.11.1-.07.17.13.21.55.41.74.3.32-.19.64-.3,1.01-.27.02,0,.05-.07.07-.11-.05-.19-.45-.42-.64-.33ZM39.51,28.04c-.08,0-.12.07-.12.13,0,.06.03.14.07.17.07.04.12-.02.14-.09.02-.09,0-.17-.1-.21ZM32.87,20.46c-.1-.01-.21,0-.25.09-.06.11.03.19.12.22.28.1.43.28.45.58,0,.07.04.14.09.19.05.04.13.06.19.06.07,0,.14-.06.14-.13-.03-.31-.07-.61-.1-.93-.21-.02-.42-.05-.63-.07ZM31.26,10.07c.07.04.12-.02.14-.1,0-.09-.03-.19-.15-.18-.03,0-.07.07-.06.1,0,.06.03.15.08.17ZM31.31,15.05c.02.55.06.57.52.31.08-.04.16-.1.16-.24-.17-.16-.35-.33-.62-.27-.08.08-.06.14-.06.21ZM31.74,18.24c0-.13-.06-.22-.15-.31-.08-.09-.18-.16-.31-.08-.04.02-.06.07-.07.12-.03.14.04.23.16.28.09.04.18.06.27.07.03,0,.06-.05.1-.08ZM31.43,19.84c0-.08-.08-.12-.14-.12-.11,0-.23,0-.34.03-.03,0-.07.07-.06.1,0,.03.04.08.08.1.06.02.13.03.18.04.07,0,.12,0,.16-.02.07-.02.14-.05.13-.13ZM31,19.2c.14,0,.28-.03.33-.2-.14-.11-.27-.02-.39.02-.02,0-.06.08-.04.11.02.03.07.07.11.07ZM30.54,16.4c.07.04.12-.02.14-.11,0-.09-.03-.18-.15-.17-.03,0-.07.07-.07.1,0,.06.03.15.08.17ZM30.21,16.64s-.05-.07-.07-.1c-.03.02-.08.05-.08.07,0,.04.04.07.06.1.03-.02.06-.05.09-.07ZM34.12,18.58s.04.07.06.1c.03-.02.08-.05.08-.07,0-.04-.04-.07-.06-.1-.03.02-.09.05-.09.07ZM30.68,17.75c-.01-.14-.08-.23-.22-.24-.22-.02-.47.12-.47.25,0,.04.03.1.06.13.11.1.23.17.38.16.17-.02.24-.14.25-.29ZM30.24,22.09s-.11.03-.11.05c-.02.16.11.18.22.22.04-.02.12-.03.12-.06.01-.15-.11-.19-.22-.22ZM30.85,20.64c-.21.02-.32.18-.42.33-.04.06-.03.14.03.19.06.05.14.05.19,0,.13-.13.29-.23.35-.39-.01-.11-.08-.14-.15-.13ZM65.69,30.32s-.07.06-.08.09c0,.03.03.1.06.1.08.02.12-.04.11-.12,0-.03-.06-.05-.09-.08ZM79.64,16.46c0,.08.05.13.13.13.08,0,.12-.05.13-.13,0-.08-.05-.13-.13-.13-.08,0-.13.05-.13.13ZM79.72,15.76s.09-.03.1-.06c.01-.02-.02-.09-.05-.1-.07-.03-.13,0-.14.08,0,.03.05.05.08.08ZM79.9,10.08s.05-.07.07-.1c-.01-.08-.06-.13-.13-.12-.03,0-.08.04-.09.07-.03.09.07.19.16.15ZM79.79,14.05c-.03.12.08.17.17.19.29.09.54.22.44.6,0,.02,0,.05.01.07.04.18.13.22.38.15.07-.02.13-.06.24-.1-.21-.35-.21-.37-.26-.7-.05-.34-.18-.46-.5-.45-.09,0-.19.03-.28.06-.09.03-.18.08-.2.18ZM80.29,17.37c-.06,0-.13.06-.16.11-.04.08-.04.18-.05.29.02.1.04.22.08.33.02.07.1.1.17.09.18-.02.38-.3.35-.46-.02-.15-.24-.36-.39-.36ZM81.09,12.16c.13-.16.12-.37-.03-.49-.02-.01-.04-.02-.06-.02-.02,0-.05,0-.07.02-.13.11-.14.36-.02.5.05.06.13.05.18,0ZM79.74,19.5c-.1-.01-.17.07-.2.17-.13.51-.01.98.24,1.51.29-.56.39-1.05.11-1.55-.03-.05-.1-.12-.16-.12ZM79.65,25.77s-.1.04-.1.06c0,.08.08.1.15.11.03-.02.1-.05.1-.07,0-.09-.07-.1-.14-.1ZM79.58,24.3c-.01-.11-.08-.17-.19-.13-.1.04-.13.13-.11.23.01.08.07.12.15.11.1-.03.16-.1.15-.21ZM80.2,18.49c-.08,0-.13.05-.13.13,0,.08.05.12.13.13.08,0,.13-.06.13-.13,0-.08-.05-.13-.13-.13ZM79.75,13.64c.08,0,.12-.04.14-.11.02-.07,0-.15-.06-.17-.08-.03-.12.03-.14.11-.02.07,0,.13.06.18ZM79.29,17.75s.03.1.06.1c.08.02.12-.04.11-.12,0-.03-.06-.05-.09-.08-.03.03-.07.06-.08.09ZM79.6,21.73c-.1,0-.2,0-.24.12-.03.1.14.2.33.19.08,0,.15-.05.15-.12,0-.16-.13-.17-.24-.19ZM75.28,10.9s.11.04.12.03c.17-.24.43-.28.68-.35.09-.02.16-.1.16-.21-.02-.04-.03-.09-.07-.12-.36-.34-.51-.31-.73.14-.06.13-.13.25-.19.39-.01.04,0,.1.03.13ZM75.7,9.36c.12,0,.16-.09.15-.2-.02-.08-.07-.14-.15-.13-.12,0-.16.09-.15.2.01.08.07.14.15.13ZM74.66,10.61c0,.06.03.16.07.17.12.04.15-.06.15-.16,0-.07-.03-.13-.1-.14-.08,0-.12.07-.11.13ZM76.23,17.26c.15-.06.29-.14.48-.24-.2-.23-.38-.23-.56-.22-.13,0-.23.17-.18.32.04.13.14.19.26.14ZM76.53,14.48s-.08-.04-.11-.05c-.02.03-.04.07-.06.1.04.02.08.05.11.05.02,0,.04-.06.06-.09ZM80.5,15.97c-.06,0-.13.02-.2.03-.02,0-.05.03-.05.04,0,.04,0,.11.02.12.27.15.53.3.8.44.06.03.16.02.19-.05.02-.06.02-.15-.01-.19-.18-.25-.44-.36-.74-.4ZM75.64,18.05c.2-.16.48-.07.69.15.06.07.08.18.2.18.26-.69.13-.89-.54-.83-.14.01-.28.06-.42.1-.11.03-.22.1-.34.12-.13.03-.25,0-.2-.18.02-.07.06-.14.06-.2,0-.06-.05-.14-.1-.17-.09-.06-.19-.01-.25.06-.1.11-.11.26-.12.4-.02.37.11.72.2,1.15.19-.44.55-.57.82-.79ZM78.13,18.9c-.07,0-.12.05-.14.12-.01.07.02.14.1.14.1.01.16-.05.17-.12,0-.11-.06-.15-.13-.15ZM78.04,24.66s.03.09.06.11c.07.03.13,0,.15-.08-.02-.04-.03-.09-.06-.11-.07-.03-.14,0-.15.08ZM76.54,24.7s-.07.1-.1.15c0,.01.05.05.09.09.04-.05.1-.09.11-.15.02-.08-.04-.13-.11-.09ZM77,23.64s.06.01.09.02c.1.01.2.02.26-.07.06-.09.01-.18-.03-.26-.26-.45-.39-.5-.83-.22-.19.12-.34.13-.51-.02-.05-.05-.12-.08-.19-.09-.14-.03-.24.05-.25.18-.04.3.15.48.37.64.16.11.3.11.45-.02.19-.17.41-.23.65-.15ZM83.14,14.42s-.07-.08-.1-.07c-.08,0-.12.06-.1.14,0,.03.06.08.1.08.08,0,.12-.06.1-.14ZM83.45,15.23c-.2.03-.33.18-.37.37-.01.05.05.14.09.16.25.12.49-.04.48-.3-.02-.13-.07-.25-.21-.23ZM83.35,12.41c.05.04.13.09.18.08.02,0,.03-.01.04-.02-.15-.14-.3-.28-.46-.42,0,.08.05.14.1.2.05.06.09.12.14.16ZM76.62,11.64c.1.21.29.09.44.1.18-.04.5.11.52-.08.02-.28-.33-.16-.51-.21-.25-.07-.5.07-.45.2ZM82.63,18.53c-.12.04-.16.16-.14.28.01.09.06.19.17.16.13-.04.14-.16.13-.28-.02-.09-.06-.19-.17-.16ZM82.33,21.36c-.14,0-.2.1-.18.23,0,.1.06.19.16.18.14,0,.19-.1.19-.23-.02-.1-.06-.19-.17-.19ZM82.24,23.41s-.07.06-.08.09c0,.03.03.1.06.1.08.02.12-.04.11-.12,0-.03-.06-.05-.09-.08ZM72.93,7.03s-.08-.02-.12-.04c.01.02.03.04.06.06.02,0,.04-.01.06-.02ZM77.3,27.57c-.41.11-.84.22-1.12.57-.01.02-.02.05-.03.08.43-.15.87-.31,1.29-.48.01-.09-.04-.19-.14-.17ZM64.75,5.2c.06,0,.09-.04.12-.08-.09-.02-.19-.03-.28-.05.02.08.07.14.16.12ZM46.63,29.93c.09-.06.15-.16.05-.23-.13-.1-.29-.18-.44-.22-.19-.05-.28.14-.42.23-.2.14-.36.1-.56-.1-.15-.16-.09-.3.04-.44.08-.09.16-.18.23-.27.05-.06.04-.14-.01-.19-.03-.03-.09-.04-.13-.04-.19-.02-.36.26-.53.09-.28-.3-.49-.15-.74.04-.26.19-.56.24-.88.21-.2-.02-.42.02-.45.25-.04.26-.16.37-.39.45-.17.06-.23.23-.31.38-.14.05-.21.13-.25.22.07.01.14.02.21.04-.01-.08,0-.17.04-.25.24.01.35.26.55.3.21.04.38-.19.61-.16.05,0,.09,0,.14,0-.04.1-.09.21-.11.31.12.02.25.04.37.05,0-.16-.12-.27-.26-.37.11-.14.08-.46.3-.42.34.06.29-.06.22-.29-.04-.13.07-.22.2-.24.11-.02.21.04.23.13.06.31.47.61.05.96-.02.02-.02.11,0,.13.05.04.13.1.18.08.15-.06.3-.15.44-.22.15-.08.32-.14.48-.05.26.15.39.11.42-.21.01-.11.13-.13.23-.11.17.02.33.07.48-.04ZM44.01,6.04c.12.12.26.11.39.02.14-.1.36-.12.43-.35-.19-.15-.33-.35-.58-.4.15-.21.32-.42.45-.64.03-.05.05-.09.05-.14-.18.02-.36.04-.54.06-.02.11-.06.21-.15.31-.19.22-.16.25.18.41-.07.1-.14.19-.21.28-.11.14-.17.29-.03.44ZM46.1,5.05c.06.02.15.04.19.02.08-.05.14-.13.19-.21.11-.17.16-.35.2-.52-.15.01-.3.03-.44.04-.03.19-.09.38-.19.56-.01.02.02.11.05.12ZM78.45,13.18c0,.12.16.2.27.15.11-.05.11-.14.07-.23-.04-.09-.09-.17-.21-.15-.1.05-.13.14-.13.23ZM78.6,17.32c0-.05-.05-.09-.09-.06-.03.02-.04.07-.06.11.03.02.07.04.1.06.02-.04.05-.08.05-.12ZM78.88,16.91s.02.1.05.11c.07.03.14,0,.16-.07.03-.07,0-.13-.06-.14-.1-.01-.15.04-.16.11ZM81.7,15.2c-.1-.07-.24-.06-.32.03-.11.12-.19.26-.27.41-.03.07.03.13.11.14.24.02.29-.2.42-.32.07-.07.24-.13.06-.26ZM78.99,18.81c-.09.03-.11.09-.08.16.01.03.08.06.11.05.08-.02.11-.08.07-.15-.02-.03-.07-.04-.11-.05ZM78.95,21.21c-.16-.01-.33.09-.33.2,0,.08.07.13.14.13.15,0,.3,0,.32-.19.01-.08-.06-.12-.14-.14ZM78.82,14.63c.08-.02.15-.05.14-.13-.02-.16-.29-.33-.43-.27-.1.04-.11.15-.07.24.07.14.21.18.35.17ZM78.58,23.35c-.08,0-.13.05-.13.13,0,.08.05.13.13.13.08,0,.13-.05.13-.13,0-.08-.05-.12-.13-.13ZM81.43,23.71s-.08.06-.08.1c0,.08.06.12.14.1.03-.03.08-.07.07-.1,0-.08-.06-.12-.14-.1ZM78.47,25.95s.03.09.06.11c.07.03.13,0,.15-.08-.02-.04-.03-.09-.06-.11-.07-.03-.14,0-.15.08ZM79.37,12.78c-.07-.19-.16-.38-.36-.48-.05-.02-.14,0-.19.04-.06.04-.06.13-.03.19.1.16.23.3.42.35.07.02.13,0,.15-.1ZM78.64,10.91c.05,0,.13,0,.19-.03.16-.05.23-.16.23-.32,0-.1-.02-.2-.11-.24-.13-.06-.22.04-.31.12-.08.06-.15.12-.22.19-.05.05-.11.12-.05.19.04.05.12.07.18.09.02,0,.05,0,.09,0ZM75.31,19.39c-.07-.03-.14,0-.15.08,0,.03.03.09.06.11.07.03.13,0,.15-.08-.02-.04-.03-.09-.06-.11ZM67.7,23.59c-.15-.02-.36-.17-.44.05-.06.17.21.15.28.27.06.1.13.2.21.28.05.05.14.03.19-.04.05-.08.07-.17.09-.22,0-.26-.16-.32-.33-.34ZM72.46,28.3c-.1-.04-.23.16-.2.31,0,.04.05.08.09.1.12.04.21-.1.19-.3-.03-.04-.04-.09-.08-.1ZM69.11,23.33c0-.16-.07-.27-.24-.27-.05,0-.14.04-.16.09-.05.12.13.31.28.32.08-.01.12-.06.12-.14ZM68.88,27.06s.01-.06,0-.07c-.2-.21-.44-.35-.72-.43-.01,0-.05.02-.05.04,0,.04-.02.11,0,.13.18.19.38.36.65.4.03,0,.07-.04.11-.07ZM67.66,27.08c-.06.01-.08.04-.07.1.03.14.04.27.09.4.02.07.11.08.18.05.11-.05.19-.14.16-.27-.03-.15-.26-.31-.36-.28ZM66.75,28.71s-.1-.04-.13-.02c-.08.04-.06.12-.01.17.06.07.13.13.21.19.05.03.09,0,.11-.05,0-.13-.07-.22-.17-.29ZM66.74,26.36c-.19-.03-.38,0-.57-.02-.03,0-.08-.06-.08-.1,0-.04.02-.09.06-.12.03-.03.09-.03.13-.03.18.01.41.11.48-.16.05-.2-.16-.27-.29-.36-.04-.03-.08-.05-.11-.09-.29-.41-.68-.33-1.3-.19.48.22.38.56.49.84.06.14-.09.31-.23.27-.28-.09-.54-.08-.82.02-.16.06-.32-.08-.47-.15-.15-.08-.3-.16-.45-.2-.25-.07-.5.02-.49.15.01.18.17.21.29.27.08.04.17.09.24.15.1.09.13.2.04.32-.06.07-.14.14-.18.22-.08.17-.06.33.09.46.12.11.26.09.4.03.35-.16.58-.4.88-.94.26.17.54.26.84.07.09-.06.24-.03.33.07.13.13.05.26-.01.39-.05.11-.12.21-.16.32-.05.12-.21.24-.08.39.11.14.28.2.45.17.14-.02.28-.07.41-.13.15-.07.21-.2.14-.36-.04-.09-.11-.16-.16-.23-.11-.16-.11-.31.06-.43.08-.06.17-.1.23-.16.15-.16.08-.42-.13-.45ZM69.44,21.45c-.14-.14-.17-.38-.41-.43-.18.39-.49.67-.74.98-.09-.08-.18-.16-.28-.22-.31-.2-.47-.16-.65.13-.04.06-.05.14-.08.2-.1.19-.33.28-.53.21-.13-.05-.16-.17-.23-.26-.05-.06-.11-.09-.17-.03-.03.03-.05.08-.05.13,0,.15.04.28.13.4.27.38.53.43.9.13.13-.1.24-.23.35-.36.17-.18.35-.33.61-.33-.08.2-.16.39-.23.59-.01.03.02.1.05.12.03.02.1.03.12,0,.19-.13.29-.39.58-.37.18.02.41.14.49-.12.07-.2-.21-.23-.28-.37,0-.02,0-.05,0-.07.06-.21.35-.15.43-.35ZM70.88,28.3c-.08-.01-.11.05-.1.12,0,.04.03.09.06.1.09.02.09-.06.1-.12-.02-.04-.03-.1-.06-.1ZM70.76,23.74c-.09-.06-.25.02-.27.14-.02.16.03.28.17.35.15.08.31.11.58.09-.17-.25-.29-.45-.49-.58ZM71.23,22.79s-.04-.1-.07-.11c-.15-.03-.21.08-.23.2-.01.07.02.15.1.15.14,0,.18-.12.2-.24ZM71.69,20.35s-.07-.07-.11-.07c-.04,0-.11.03-.12.06-.02.09-.03.19-.03.28,0,.16-.04.3-.22.31-.16,0-.26-.11-.3-.26-.05-.21-.06-.43-.28-.56-.13-.08-.07-.2-.03-.32.01-.03,0-.12-.02-.12-.06,0-.14-.02-.2.01-.18.09-.23.24-.14.42.1.19.23.37.34.55.1.17.1.34-.09.42-.45.18-.59.58-.81,1.03.44.05.67-.06.81-.42.13-.33.23-.33.55-.16.1.05.21.12.32.15.09.02.22-.03.23-.13.06-.4.22-.79.09-1.2ZM69.15,27.86c-.16-.05-.46.22-.42.37,0,.02.03.04.05.05.17.05.46-.2.42-.37,0-.02-.03-.04-.04-.05ZM60.67,27.72c-.28.04-.52-.05-.74-.2-.12-.08-.24-.12-.4-.09-.49.1-.49.09-.48-.43,0-.05,0-.09,0-.14-.02-.13-.17-.18-.28-.1-.17.12-.27.29-.2.49.08.22.19.44.31.64.12.2.3.32.54.19.18-.1.37-.04.58-.02.22,0,.46.04.69-.05.05-.02.11-.1.12-.15.01-.08-.07-.13-.14-.12ZM60.48,29.21c-.05,0-.08.05-.06.1.02.03.06.07.09.07.05,0,.07-.04.06-.1-.03-.03-.06-.07-.1-.07ZM59.84,30.59c-.1.02-.2.05-.19.16,0,.11.11.14.2.14.09,0,.2-.03.21-.13.01-.15-.12-.16-.23-.17ZM59.83,29.79s-.07-.07-.1-.07c-.12,0-.24.05-.25.19,0,.08.07.11.15.11.12-.03.22-.08.2-.23ZM59.07,28.56c-.07,0-.14.04-.15.12-.02.17.09.26.24.29.07.01.13-.04.15-.13,0-.15-.07-.27-.24-.28ZM64.1,29.28c-.14,0-.3.04-.3.21,0,.17.16.21.3.21.13,0,.21-.08.22-.22-.01-.13-.09-.21-.22-.21ZM51.49,7.89c.2.15.44.15.68.16-.14.13-.29.24-.41.38-.09.11-.04.22.08.3.13.08.27.13.39,0,.16-.17.33-.15.52-.11-.01.05-.03.09-.03.14-.03.21-.37.34-.25.55.16.27.37-.07.56-.04.09.01.18.05.27.08.1.03.19.01.27-.04.28-.19.55-.4.5-.8-.02-.18,0-.29.2-.39.3-.15.45-.48.63-.75.09-.13.04-.28-.06-.4-.12-.16-.24-.1-.36.02-.14.14-.32.05-.48.08-.25.04-.36.13-.3.37.05.19.05.31-.13.42-.09.05-.08.13-.08.24.02.37,0,.4-.27.43-.17.02-.33.02-.48.1.05-.44-.26-.51-.58-.58-.13-.49-.22-.58-.56-.55-.1,0-.19.05-.21.15-.03.1.02.18.1.24ZM65.32,28.77s-.08-.02-.13-.03c-.04.03-.09.04-.11.08-.11.2-.03.57.16.7.03.02.1.01.13,0,.16-.09.18-.26.06-.57-.02-.06-.06-.13-.11-.17ZM62.87,30.05c-.07-.04-.14,0-.16.08-.04.17-.16.34-.04.57.2-.12.33-.27.32-.5,0-.06-.06-.13-.12-.16ZM77.36,8.88s.12-.03.14-.08c.04-.07-.02-.12-.09-.14-.09-.02-.19-.01-.2.1-.01.08.06.1.15.12ZM62.93,28.05c-.19-.08-.38-.02-.52.11-.13.13-.21.3-.33.47.07.11.14.23.22.34.14.19.34.25.56.18.22-.07.23-.27.24-.46,0-.09,0-.19,0-.28-.01-.14-.02-.3-.17-.36ZM64.15,28.83s.07-.04.11-.06c-.02-.03-.05-.08-.07-.08-.04,0-.07.04-.11.06.02.03.05.09.07.09ZM75.69,22.27c.08.04.17.09.26,0,0-.09-.06-.12-.13-.15-.07-.03-.14-.04-.19.04-.01.02.02.09.05.11ZM76.11,12.44s.07-.05.1-.07c.02-.22-.22-.43-.47-.41-.02,0-.05.02-.06.03-.01.04-.03.1-.01.12.13.14.24.29.44.33ZM75.36,11.65s-.05-.06-.07-.09c-.04.02-.09.02-.11.05-.01.02.01.09.04.11.07.03.14.01.15-.07ZM75.14,15.85c0,.08.05.13.13.13.08,0,.12-.05.13-.13,0-.08-.05-.13-.13-.13-.08,0-.13.05-.13.12ZM75.21,22.02c.07.04.13,0,.16-.07-.02-.04-.02-.1-.05-.11-.07-.04-.14,0-.15.07,0,.03.02.1.05.11ZM76.23,18.87c.02-.06.02-.14,0-.2-.03-.07-.15-.09-.18-.04-.18.25-.49.22-.83.34.36.21.63.19.89.06.06-.03.11-.1.13-.16ZM75.87,20.96c0-.13-.03-.22-.13-.25-.1-.04-.18.03-.23.11-.02.04-.05.08-.06.12-.03.09-.06.19.04.25.12.07.23.02.31-.07.04-.05.06-.12.07-.16ZM76.9,14.94s-.08-.05-.11-.04c-.06,0-.08.06-.04.1.02.03.08.03.11.05.06-.02.08-.06.04-.1ZM75.67,12.98c.14.1.31.12.47.05.08-.03.1-.13.04-.17-.27-.15-.5-.42-.87-.42.03.28.2.41.36.54ZM77.12,20.77s.11-.03.11-.05c.01-.16-.11-.18-.22-.22-.04.02-.12.04-.12.06-.01.16.11.19.23.21ZM77.16,15.69c-.06-.07-.14-.11-.23-.06-.02,0-.02.1,0,.11.06.03.12.05.18.05.05,0,.07-.04.05-.1ZM76.69,9.12s-.07-.05-.1-.07c-.02.04-.05.08-.04.11,0,.03.06.05.1.07.02-.04.03-.07.05-.11ZM77.9,16.83c-.25-.03-.38-.17-.41-.41-.01-.09-.05-.2-.16-.2-.14,0-.2.1-.26.21-.07.14-.1.29.02.4.14.14.05.48.36.47.18,0,.19.09.2.21.01.11-.03.24.15.32.09-.28-.12-.63.18-.86.08-.06,0-.13-.07-.14ZM74.13,16.04c-.06,0-.15.04-.18.09-.14.23-.19.48-.19.75,0,.21.03.44-.1.63-.25.37,0,.63.17.9.06.1.25.07.29-.05.02-.04.04-.09.04-.13.06-.66-.05-1.33.14-1.95-.03-.13-.07-.23-.18-.23ZM74.45,12.1s.06-.08.05-.11c-.03-.08-.05-.2-.11-.22-.08-.04-.08.07-.07.12.02.08.03.18.14.21ZM75.33,20.28s0-.09-.05-.1c-.04,0-.08.03-.12.05.02.03.04.07.06.1.04-.02.09-.03.11-.06ZM74.95,8.72c.12-.26.25-.5.42-.73.06-.08-.02-.18-.13-.19-.07,0-.16,0-.2.04-.27.24-.39.58-.57.88-.04.06.04.12.12.14.16.03.31-.02.37-.15ZM72.8,21.63c-.13.05-.24.13-.36.2-.1.06-.24.12-.19.26.06.17.18.04.28.01.16-.04.32-.05.47-.09.05-.01.08-.1.1-.14,0-.16-.17-.3-.3-.25ZM72.95,25.1s.04.07.06.1c.03-.02.09-.05.08-.07,0-.04-.04-.07-.06-.1-.03.02-.08.05-.08.07ZM50.35,15.2s.05-.02.05-.04c.03-.24-.16-.28-.33-.34-.02,0-.04,0-.07-.01.11.36.18.44.35.39ZM74.85,26.36c.06.1.14.19.22.28.2.21.29.21.43-.03.07-.12.13-.25.22-.43-.29-.03-.51-.06-.72-.07-.13,0-.22.14-.15.24ZM77.65,19.01c0-.1-.06-.14-.13-.13-.06,0-.16.03-.17.07-.04.12.06.15.16.15.07,0,.13-.03.14-.08ZM77.81,19.53c-.11-.03-.17.06-.2.16-.04.15,0,.28.14.35.12,0,.18-.07.2-.16.04-.15.02-.29-.15-.34ZM72.42,24.41c-.17.02-.3.11-.39.25-.02.03-.02.1,0,.13.06.1.31.11.44,0,.1-.08.12-.19.06-.31-.02-.03-.07-.05-.11-.08ZM27.73,24.87c-.08-.03-.13.03-.14.1-.01.09,0,.19.11.2.08,0,.1-.07.1-.07.02-.14,0-.21-.07-.23ZM59.66,25.65c.09-.03.19,0,.28,0,.21-.03.3-.23.19-.43-.14-.24-.36-.36-.59-.51-.31-.2-.36-.38-.17-.72.1-.17.08-.24-.07-.33-.08-.05-.14-.13-.2-.2-.07-.09-.04-.19.07-.22.11-.02.24,0,.35-.02.1-.01.17-.09.19-.19.03-.1-.01-.19-.09-.25-.44-.35-.61-.33-.97.13-.01.02-.04.02-.17.11,0-.32,0-.56,0-.79,0-.09-.02-.19-.04-.28,0-.03-.07-.07-.1-.08-.04,0-.1.02-.12.05-.12.13-.14.3-.15.47-.02.31-.04.62-.07.93-.02.24.06.37.31.36.1,0,.2,0,.2.13,0,.12-.05.24-.16.3-.13.08-.28.03-.42.03-.33,0-.62.14-.8.4-.24.35-.42.74-.76,1.03-.08.07-.02.2.07.23.32.09.64.18.96.24.12.03.22-.02.22-.19,0-.41,0-.41.3-.5.09-.03.21-.02.27-.07.31-.24.54-.13.73.14.19.28.42.35.74.25ZM46.5,18.88c-.02.11.07.09.13.09.04,0,.12-.01.13-.03.02-.11-.07-.07-.12-.09-.05.01-.12.02-.13.04ZM37.19,12.6c.18.06.37.1.55.14.13.02.23-.03.3-.15.11-.22.19-.43.02-.67-.08-.11-.13-.24-.2-.36-.15.08-.02.43-.26.35-.42-.14-.41.21-.53.4-.07.12-.01.24.12.28ZM56.77,26.73s-.07.06-.08.09c0,.03.03.1.06.1.08.02.12-.04.1-.12,0-.03-.06-.05-.09-.08ZM57.85,29.43c.09-.14.25-.11.38-.17.03-.02.07-.07.07-.11,0-.04-.02-.11-.05-.12-.22-.09-.44-.17-.66-.25-.1-.04-.18,0-.26.07-.48.37-.47.56.07.87.08.05.15.12.27.09.14-.08.12-.25.19-.36ZM39.11,6.76s.03-.08.04-.12c-.03-.02-.07-.07-.1-.06-.03,0-.07.06-.07.09,0,.08.05.13.13.08ZM57.96,26.2c-.2.04-.18.26-.28.37-.03.03-.05.08-.06.12-.01.08.03.13.1.16.23.09.44-.05.4-.29-.02-.13,0-.28-.15-.37ZM36.88,9.01c.06,0,.14-.02.17-.07.04-.06,0-.12-.08-.14-.09-.02-.17-.01-.22.09,0,.08.06.12.12.12ZM39.15,12.32s-.08.1-.09.16c-.01.05.04.09.08.05.05-.04.07-.1.1-.14-.01-.07-.05-.11-.09-.08ZM40.61,10.29s.07-.06.07-.09c0-.05-.04-.07-.1-.06-.03.03-.07.06-.07.1,0,.05.05.08.1.05ZM39.97,12.35c.05,0,.07-.04.06-.1-.03-.03-.06-.07-.1-.08-.05,0-.08.04-.06.1.02.03.06.07.09.08ZM40.48,13.25c.02-.14-.01-.27-.17-.33-.08,0-.14.04-.16.11-.03.16.05.27.18.32.08.03.13-.03.14-.11ZM41.72,5.58s-.04-.08-.05-.12c-.03.02-.09.03-.1.06,0,.04.03.08.05.11.03-.02.07-.04.1-.06ZM40.33,9.2c.35-.03.57.11.75.41.09.15.45.1.57-.05.12-.17-.08-.24-.14-.35-.2-.32-.38-.65-.58-.97-.03-.05-.11-.08-.15-.11-.04.01-.07.01-.08.03-.17.28-.35.55-.5.84-.04.08.04.22.14.21ZM65.1,23.8c.07-.04.09-.11.07-.18-.01-.04-.05-.09-.09-.1-.11-.03-.23-.06-.35-.06-.21,0-.43.04-.64.05-.17,0-.26-.13-.17-.29.03-.06.08-.12.13-.17.13-.13.12-.25,0-.38-.11-.12-.17-.3-.4-.26-.2.24-.51.4-.6.76-.04.18-.2.16-.35.09-.32-.15-.37-.46-.43-.79-.35.04-.68.14-.95-.02-.32-.18-.69-.18-1-.36-.17-.1-.4-.12-.51.08-.12.2.05.36.18.49.03.03.07.06.11.09.23.16.28.38.24.63-.01.09-.04.19-.05.28-.01.2.13.29.33.24.17-.05.3-.15.37-.31.05-.11.08-.23.13-.33.12-.25.25-.31.44-.22.2.09.27.23.16.48-.1.22-.17.45-.18.69,0,.09,0,.21.06.27.21.24.52.22.8.22.22,0,.24-.2.28-.36.1-.38.34-.47.6-.13.03.04.07.07.1.1-.09.03-.19.04-.26.09-.21.14-.21.23-.03.37.06.04.11.08.17.12.08.06.17.11.26.05.1-.06.08-.16.04-.25-.05-.13-.12-.26-.18-.39.74.05.82.12.86.83,0,.02,0,.05,0,.07.05.18-.11.5.19.52.2,0,.2-.29.25-.47.04-.19.05-.38,0-.57-.05-.18-.15-.36-.11-.56.06-.28.34-.22.51-.33ZM62.21,24.2c-.02.08-.06.15-.14.11-.07-.03-.09-.11-.08-.18.01-.08.06-.15.14-.11.07.03.08.11.08.19ZM69.53,26.08c-.07,0-.14.05-.11.13.02.05.1.07.14.09.1-.02.18-.05.13-.13-.02-.05-.11-.08-.17-.09ZM71.71,25.6s-.07.08-.07.12c0,.16.14.27.29.23.07-.02.11-.08.11-.16-.03-.13-.22-.25-.33-.19ZM61.93,29.68s-.04-.08-.07-.12c-.09-.14-.19-.12-.28-.01-.07.09-.17.17-.16.34.1.03.21.06.32.09.16.04.38.16.46,0,.14-.25-.22-.15-.27-.29ZM61.29,31.04s.06.05.1.07c.02-.04.03-.07.05-.11-.03-.02-.07-.05-.1-.07-.01.04-.05.08-.04.11ZM73.18,20.96c-.05,0-.08.05-.06.1.02.03.06.05.09.08.05-.01.08-.05.06-.1-.02-.03-.06-.07-.09-.07ZM72.98,11.53c-.07.01-.14.06-.11.14.03.07.1.08.17.06.07-.02.12-.06.11-.13-.04-.1-.11-.09-.18-.08ZM60.34,26.87c.26,0,.44-.17.44-.45,0-.24-.14-.37-.42-.37-.34,0-.55.17-.53.43.02.22.24.39.51.4ZM39.66,13.13c.03-.07.01-.14-.06-.17-.02-.01-.09.02-.1.04-.04.06-.03.14.05.16.03.01.08-.02.11-.04ZM60.89,24.54c-.15.03-.26.12-.25.29,0,.08.07.11.15.11.14-.03.25-.2.2-.33-.01-.03-.07-.08-.11-.07ZM61.5,26.98s-.08-.03-.12-.04c-.07.02-.13.05-.13.13,0,.03.06.07.1.07.09,0,.19-.04.15-.16ZM58.74,25.83s-.07.04-.11.06c.02.04.04.09.07.1.11.04.22.07.32-.02-.05-.13-.18-.13-.28-.14ZM62.26,26.43c.05.09.05.26.21.23.13-.03.16-.15.19-.27.03-.16.06-.32.11-.53-.28-.01-.48-.16-.72-.35-.09.4.07.66.21.92ZM61.53,25.4c.01-.15-.12-.18-.25-.19-.11.03-.22.08-.22.22,0,.12.1.15.2.15.12,0,.26-.03.27-.17ZM55.78,18.5c.01-.11-.07-.17-.18-.16-.1.01-.17.07-.17.18,0,.08.06.12.14.12.1,0,.19-.04.21-.15ZM51.97,16.07c0-.12-.05-.17-.12-.17-.08,0-.13.05-.13.13,0,.08.05.13.13.13.08,0,.12-.05.13-.09ZM50.59,13.31s-.07.06-.07.1c0,.07.05.13.12.13.08,0,.12-.06.1-.13-.02-.07-.08-.1-.15-.1ZM48.38,12c.02-.16-.04-.28-.21-.32-.15-.03-.28.08-.27.25.01.14.06.28.09.42-.07.02-.14.03-.2.07-.07.03-.11.1-.05.17.03.03.09.04.13.04.17-.02.15-.14.12-.27.2-.04.36-.13.39-.36ZM49.98,13.09s.06.07.09.07c.08,0,.13-.05.08-.13-.01-.03-.08-.03-.12-.04-.02.03-.07.07-.06.1ZM45.21,13.05c-.08,0-.12.07-.13.15,0,.07,0,.14,0,.16,0,.17,0,.29.03.41,0,.03.07.07.1.07.04,0,.1-.02.12-.05.11-.2.08-.41.04-.63-.02-.07-.08-.12-.16-.11ZM46.71,8.09c-.15-.01-.27.11-.25.26.02.13.09.21.23.22.15.01.27-.11.26-.25-.02-.14-.1-.22-.23-.23ZM54.23,19.39s-.09,0-.13.02c-.13.07-.2.32-.14.52.06.17.15.3.22.3.6-.07,1.08-.06,1.53-.24.09-.03.2-.03.21-.15,0-.11-.09-.16-.16-.22-.12-.09-.23-.13-.4-.09-.39.1-.79.23-1.13-.13ZM51.56,10.26c.28-.15.48-.01.72.13.31.19.58.42.86.64.16.12.3.12.46.03.15-.09.26-.21.25-.43-.06-.23-.08-.49-.22-.72-.1-.17-.26-.19-.4-.04-.26.26-.26.26-.56.1-.23-.12-.46-.25-.7-.35-.24-.1-.54.02-.66.25-.05.1-.08.23,0,.34.06.09.17.11.26.06ZM57.71,15.92c.18-.21.41-.23.65-.17.19.04.38.06.57.02.21-.04.39.18.6.08.01-.11-.03-.16-.1-.2-.14-.09-.28-.19-.44-.24-.18-.07-.08-.37-.29-.35-.31.03-.16-.23-.26-.33-.03-.03-.08-.08-.1-.08-.29.08-.58.17-.88.26-.13.42-.62.59-.7,1.05-.18-.06-.3-.17-.2-.37.06-.13.16-.23.24-.35.05-.08.08-.17.03-.27-.07-.12-.18-.14-.3-.14-.26,0-.44.16-.6.34-.11.12-.21.25-.33.37-.02.02-.09,0-.12-.02-.03-.02-.06-.09-.05-.12.02-.06.06-.13.11-.18.06-.07.14-.14.09-.25-.06-.12-.18-.14-.3-.13-.12,0-.24,0-.36.02-.21.03-.3.13-.27.33.01.12.04.23.08.35.09.3.15.34.45.33q.61-.03.55.59c0,.07,0,.14,0,.21.34-.24.67-.48,1.01-.72.32.28.64.3.93-.04ZM55.28,9.39c-.16.05-.33.07-.49.11-.12.03-.23.1-.22.24,0,.15.15.17.26.21.23.08.44.04.57-.16.15-.22.35-.29.6-.34.27-.05.33-.17.33-.46,0-.02,0-.05,0-.07-.02-.1-.04-.2-.14-.23-.13-.04-.15.07-.19.16-.14.31-.41.45-.71.54ZM56.34,18.26c0-.18.04-.32.27-.32.24,0,.25-.16.19-.35-.04-.11-.08-.23-.19-.29-.27-.14-.51-.35-.84-.34,0-.1,0-.19,0-.29-.12-.04-.23-.04-.35,0-.45.13-.51.11-.6-.3-.04-.18-.04-.33-.27-.34-.15,0-.19-.12-.21-.25-.03-.14.06-.29-.03-.43-.22.06-.33.26-.47.41-.1.1-.21.2-.33.27-.13.07-.34.07-.38-.08-.16-.5-.48-.75-1-.76-.04,0-.1-.03-.12-.06-.19-.32-.58-.32-.83-.54-.07-.06-.16-.13-.26-.06-.08.06-.09.16-.09.26,0,.1.02.19.04.28.02.11,0,.26.14.29.11.03.14-.1.21-.16.22-.16.29-.15.41.12.08.18.17.28.37.25.07-.01.14-.03.21-.02.23.02.43.19.47.38.03.2-.1.31-.23.42-.07.06-.16.1-.25.14-.15.06-.4.03-.38.25.03.26.28.19.47.18.05,0,.09-.03.14-.02.37.02.63.17.73.53-.1.17-.37.01-.41.26.12.13.35.04.43.23.22.49.62.52,1.08.44-.02-.06-.04-.1-.05-.14-.09-.47-.05-.53.39-.6.24-.04.47-.11.63-.3.14-.17.34-.26.53-.36,0,.07.01.14,0,.21-.13.41,0,.71.36.93.08.05.15.11.23.16ZM54.46,16.95c-.06.12-.18.15-.31.13-.34-.05-.51-.43-.3-.7.02-.03.08-.04.12-.06.04.02.1.02.13.05.1.1.18.22.28.33.06.07.14.14.08.25ZM73.41,10.96s.07-.07.07-.11c0-.04-.03-.1-.06-.12-.19-.07-.37,0-.54.1.18.09.34.24.54.13ZM46.79,9.31s.06.04.09.06c.02-.04.04-.08.05-.11-.03-.02-.07-.04-.1-.06-.02.04-.05.08-.05.11ZM37.68,16.71s.09,0,.14-.01c.13,0,.32.1.38-.07.07-.21-.13-.28-.28-.35-.33-.15-.6-.1-.84.14-.12.12-.27.85-.2,1.01.04.09.1.17.21.18.09,0,.19,0,.26,0,.07.03.11.05.16.06.12.01.21-.12.16-.24-.05-.11-.13-.2-.19-.3-.1-.2-.01-.37.21-.42ZM43.23,5.78c.19-.3.18-.55.09-.8-.05-.13-.17-.15-.29-.08-.26.16-.28.32-.08.56.07.09.16.17.29.32ZM43.25,7.74s.06-.07.07-.11c.01-.07-.02-.15-.1-.15-.08,0-.1.07-.1.14.01.07.04.14.13.11ZM41.53,17.38s-.03.09.03.1c.04,0,.08-.02.12-.04.03-.05.02-.1-.03-.11-.04,0-.09.01-.12.04ZM38.39,18.01c.09.07.19.14.29.17.1.03.17-.04.19-.15.01-.15-.05-.27-.15-.37-.14-.14-.42-.13-.49.01-.09.17.06.25.16.33ZM44.53,13.54c.04-.13-.09-.14-.17-.16-.1,0-.22,0-.25.09-.04.13.08.15.18.16.09.01.21,0,.24-.09ZM47.5,9.02c0,.06.03.17.07.18.19.08.4.14.6.19.03,0,.09-.04.11-.08.02-.04.02-.1,0-.13-.16-.18-.35-.32-.57-.36-.12.03-.2.09-.21.19ZM38.47,15.94c.12-.12.22-.25.25-.42.02-.13-.15-.29-.28-.23-.08.04-.17.09-.22.16-.15.2-.28.19-.47.04-.27-.2-.29-.19-.61.21.34.08.62.13.89.21.15.05.29.19.45.04ZM43.24,9.51s-.1.04-.1.07c-.05.47-.18.97.36,1.28.08.05.15.13.18.21.05.1-.01.19-.13.2-.07,0-.13-.04-.2-.07-.17-.06-.22.03-.2.18.01.09.06.18.09.27-.06.03-.14.05-.18.1-.05.06-.04.14.04.17.02,0,.09-.03.1-.06.02-.06.02-.14.03-.21.33-.01.52.09.6.46.13.57.56.74,1.09.5.07-.03.09-.11.07-.18-.02-.04-.06-.09-.09-.1-.09-.02-.19,0-.28-.02-.3-.02-.31-.03-.31-.33q0-.81.83-.86c-.11-.28-.27-.51-.45-.73-.16-.18-.3-.17-.48,0-.03.03-.05.08-.08.12-.09.16-.2.18-.35.07-.22-.17-.39-.35-.39-.65,0-.12-.02-.24-.05-.35,0-.03-.06-.07-.1-.07ZM43.56,8.88s-.07.07-.07.11c0,.04.04.11.06.11.18,0,.37.03.61-.1-.24-.15-.41-.23-.6-.12ZM42.42,15.8c.3.07.59.19.78.47.07.1.21.1.33.11.24.03.36-.05.44-.32.03-.11-.01-.2-.11-.22-.21-.03-.43-.03-.64-.07-.25-.05-.33-.22-.23-.48.03-.08.09-.16.1-.18-.33-.63-.8-.75-1.39-.53-.11.04-.24-.05-.36.07.1.26.2.48.56.52.3.04.19.53.53.61ZM43.33,12.44s-.03-.09-.06-.1c-.02-.01-.09.02-.1.05-.03.07,0,.13.08.14.02,0,.05-.05.08-.08ZM43.84,13.8c.01-.12-.01-.24-.13-.3-.02-.01-.1.02-.11.05-.05.13,0,.23.12.29.03.01.08-.03.12-.04ZM44.04,14.22c-.08.29-.15.54-.23.84.48-.29.51-.39.23-.84ZM27.7,15.42s-.02-.1-.04-.12c-.13-.07-.26-.06-.36.07-.01.02.01.1.04.11.13.05.26.06.36-.06ZM28.08,9.75c.08.03.12-.04.14-.11.02-.07,0-.14-.06-.18-.09-.01-.13.04-.14.11-.02.07-.01.15.06.18ZM25.11,23.06c-.09-.02-.21-.01-.25.08-.04.13.09.14.17.15.16.02.32.02.58.04-.18-.23-.35-.24-.5-.28ZM24.36,21.13c0,.08.06.11.13.09.03,0,.04-.07.06-.1-.04-.02-.07-.06-.11-.06-.03,0-.09.05-.09.07ZM23.75,20.6c-.12,0-.23.04-.24.18,0,.11.09.15.19.15.12,0,.22-.05.25-.18-.02-.11-.1-.15-.2-.15ZM24.71,15.29c-.1,0-.19.05-.19.16,0,.11.09.16.19.16.1,0,.17-.05.19-.16-.01-.11-.08-.17-.19-.16ZM23.95,12.1c-.14-.03-.28-.05-.46.11.28.23.23.56.26.88.02.31.06.61.1.91,0,.03.06.07.1.08.04,0,.1-.01.12-.04.05-.05.1-.12.1-.18.02-.49.04-.99.04-1.48,0-.16-.1-.26-.26-.29ZM25.26,13.3c-.11,0-.18.07-.18.17,0,.28.25.47.52.43.07-.01.13-.06.13-.14-.01-.19-.26-.43-.46-.46ZM28.77,22.64c-.07.06-.12.14-.18.21-.06.08-.11.17,0,.23.09.05.18,0,.25-.06.09-.08.13-.19.12-.31-.02-.04-.04-.09-.07-.11-.03-.01-.09,0-.12.03ZM27.99,15.97c.07.04.14.01.16-.06.02-.07-.03-.12-.1-.15-.04.01-.1.02-.11.05-.04.07,0,.14.06.17ZM28.49,9.08s.09-.04.1-.07c.02-.08-.02-.13-.1-.14-.03.03-.09.04-.1.08-.03.08.02.14.1.14ZM27.97,14.08c-.01.08.06.12.12.14.11.02.22.08.36-.01-.07-.13-.19-.19-.32-.21-.07,0-.15,0-.16.08ZM28.62,23.55c0-.08-.05-.12-.13-.13-.08,0-.13.05-.13.13,0,.08.05.13.13.13.08,0,.13-.05.13-.13ZM28.64,24.2c-.1,0-.2.03-.22.14-.03.15.08.21.21.22.12.01.26,0,.26-.16,0-.14-.12-.18-.25-.2ZM22.85,12.81c.1-.02.14-.13.14-.23-.06.07-.12.15-.19.23.02,0,.03,0,.05,0ZM85.11,14.35c-.1-.03-.18.05-.19.15-.02.15.03.28.15.33.13.02.16-.05.17-.12.02-.14.05-.3-.13-.35ZM83.88,19.62s-.03.1-.02.11c.05.03.12.06.18.07.02,0,.04-.06.06-.09-.05-.09-.13-.13-.23-.08ZM74.2,14.28c-.17.12-.34.24-.5.38-.05.04-.09.13-.08.18.02.1.13.12.22.14.24,0,.6-.18.69-.39.05-.12.02-.23-.07-.32-.08-.08-.18-.04-.25.01ZM84.32,21.73c-.08,0-.12.04-.14.11-.02.07,0,.15.06.17.08.03.12-.04.14-.11.02-.07,0-.14-.06-.18ZM64.96,30.65s-.1,0-.12.03c-.04.04-.06.08-.1.13.1-.01.21-.03.31-.04,0,0,0-.02,0-.03-.03-.03-.05-.08-.09-.09ZM86.39,18.8c-.08,0-.14.04-.16.11-.02.08.02.13.11.14.04,0,.09-.01.13-.03,0-.07.01-.13.02-.2-.03-.01-.06-.02-.1-.02ZM45.31,30.5c-.12-.03-.32.12-.39.26.23.03.46.06.69.09-.02-.19-.14-.3-.3-.34ZM22.33,20.22s-.06.05-.09.08c.03.03.06.08.09.07.03,0,.06-.05.09-.08-.03-.03-.06-.08-.09-.07ZM31.58,22.44c-.01-.14,0-.29-.04-.42-.03-.12-.06-.33-.25-.26-.15.05-.14.23-.12.37.03.24.21.29.41.31.02.14.03.28.07.41.01.05.11.1.16.1.08,0,.11-.08.11-.16.02-.25-.14-.33-.34-.36ZM47.64,30.3c-.25-.16-.52-.03-.77-.01-.21.01-.23.22-.24.39-.01.14-.1.21-.22.24-.02,0-.03,0-.05.01.39.04.79.08,1.18.12-.01-.19.02-.38.17-.57.05-.05,0-.14-.07-.18ZM56.8,30.7c-.14,0-.22.09-.24.22-.02.18.1.38.23.45.05,0,.09,0,.14,0,.09-.04.17-.15.17-.25,0-.23-.13-.42-.3-.41ZM53.44,30.87c-.18.15-.35.31-.45.49.14,0,.29,0,.43.01.07-.1.17-.2.26-.29.02-.02,0-.15-.05-.18-.04-.04-.16-.06-.19-.03ZM57.68,31.34c.32-.01.64-.02.96-.03-.29-.09-.49-.35-.78-.55-.07.24-.12.41-.18.58ZM73.85,10.87s.08.04.12.07c.02,0,.05,0,.07-.02.16-.13.2-.31.18-.5-.01-.1-.1-.18-.2-.16-.15.03-.33-.19-.45,0-.1.17.12.28.17.43.02.06.06.13.11.18ZM28.18,12.31c.16.01.27-.08.32-.22.07-.2.1-.4-.11-.71-.05.34-.19.51-.38.65-.06.04-.07.13-.01.19.04.05.12.08.18.09ZM48.15,4.22c-.05,0-.1,0-.15.01.02,0,.04.02.06.02.04,0,.07-.01.09-.03ZM51.82,4.18c.07,0,.11-.05.12-.11-.07,0-.15,0-.22,0,0,.01,0,.02,0,.03.01.03.07.05.1.07ZM49.04,5.81c.33-.05.54-.28.74-.52.15-.18.32-.32.55-.21.22.11.53.18.4.56-.04.11.05.18.15.19.11.01.19-.05.22-.14.04-.11.06-.23.09-.35-.02-.07-.02-.16-.06-.2-.31-.22-.2-.56-.24-.86,0-.06-.01-.13-.02-.2-.33,0-.66.02-.99.04-.16.19-.28.41-.31.69-.02.2-.13.31-.35.21-.07-.03-.17-.02-.16.06.03.22-.11.35-.22.5-.02.03-.02.11,0,.13.05.04.12.09.18.08ZM35.27,10.88c.09.02.17.01.21-.08,0-.1-.06-.13-.12-.13-.06,0-.14.03-.17.07-.04.07.01.12.09.14ZM33.57,14.97c.12.06.24.19.34-.03.07-.15.17-.28.26-.42.43-.07.77-.34.93-.71.12-.26.26-.52.39-.78-.29-.13-.52-.24-.76-.34-.2-.09-.33-.03-.35.19-.02.18.06.39-.23.43-.02,0-.05.09-.04.12.02.07.09.1.16.11.12.03.26-.16.39.07-.37.18-.58.47-.51.9-.39-.12-.39-.12-.63.17-.1.12-.11.2.03.28ZM34.44,11.84s.04-.06.08-.1c-.05-.04-.1-.09-.15-.1-.08-.02-.12.05-.08.12.03.05.1.07.16.09ZM55.24,5.63c.15-.1.38-.05.58-.12.15-.05.21-.19.2-.34,0-.13-.08-.22-.22-.22-.17,0-.26-.06-.27-.24,0-.19-.03-.38-.13-.55-.01-.02-.02-.03-.04-.04-.06,0-.12,0-.18,0-.03.02-.07.04-.07.07-.07.39-.14.79-.18,1.18-.02.15.08.27.31.27ZM73.99,22.08c-.06-.1-.11-.21-.18-.31-.07-.09-.17-.1-.25-.03-.09.08-.17.17-.22.27-.11.22.12.56.37.55.24,0,.39-.27.27-.49ZM73.41,19.38c-.02.1.03.19.13.21.11.03.16-.05.18-.15,0-.1-.02-.19-.13-.21-.11-.02-.17.05-.19.15ZM73.73,23.03s-.12.05-.14.11c-.05.09,0,.18.07.25.1.1.21.19.36.14.03-.01.08-.08.07-.1-.06-.17-.1-.36-.36-.39ZM74.04,8.4c.22-.09.29-.36.14-.53-.14-.16-.3-.29-.55-.53-.09.4-.04.68.05.94.05.16.21.19.36.12ZM60.37,4.62c.07-.02.1-.07.11-.12-.14-.02-.27-.03-.41-.05.06.12.14.21.29.16ZM47.6,4.26c-.12,0-.23.02-.35.02.03.04.09.07.16.08.09,0,.16-.04.19-.11ZM26.87,15.15c.08,0,.12-.05.13-.1,0-.12-.05-.16-.13-.16-.08,0-.13.05-.13.13,0,.08.05.13.13.13ZM27.27,18.64c-.08-.04-.17-.06-.25-.09-.07.05-.15.07-.18.12-.05.11.04.17.12.21.08.05.17.07.27.03.04-.02.08-.05.1-.09.04-.07,0-.15-.06-.18ZM26.43,22.43c-.1-.01-.14.05-.13.12,0,.06.02.14.07.17.06.04.12,0,.14-.08.02-.09.01-.17-.07-.21ZM26.37,13.15c.11.02.18-.03.2-.15,0-.08-.06-.14-.13-.15-.11-.02-.19.03-.2.15,0,.08.05.13.13.15ZM27.65,16.19s-.06.05-.09.08c.03.03.06.08.09.07.03,0,.06-.05.09-.08-.03-.03-.06-.08-.09-.07ZM56.27,6.97c.1,0,.16-.06.15-.17-.02-.07-.08-.12-.14-.1-.05.02-.11.08-.13.14-.02.07.04.13.11.13ZM28.02,21.41s-.07.07-.06.1c0,.08.07.12.15.09.03-.01.05-.07.07-.11-.02-.08-.08-.12-.15-.09ZM29.68,21.37c-.16.04-.22.16-.17.32.03.11.09.22.23.21.14-.04.23-.26.17-.4-.04-.09-.12-.15-.22-.12ZM26.93,17.26c-.13-.29-.36-.32-.72-.23.17.21.27.33.38.46.08.1.14.3.31.16.12-.09.09-.27.03-.4ZM29.25,14.96s-.04.02-.05.04c-.02.06-.04.13-.05.18,0,.07,0,.12.02.16.03.06.07.13.12.15.08.02.12-.06.12-.13,0-.11-.02-.23-.04-.34,0-.02-.07-.04-.12-.05ZM29.61,19.24c0,.06.03.14.07.17.07.04.12-.01.14-.09.02-.09.01-.17-.09-.21-.08,0-.12.06-.12.13ZM29.72,13.84c-.03-.06-.04-.12-.07-.13-.11-.05-.23-.06-.33.02-.03.02-.05.09-.03.12.06.09.16.09.25.08.06-.01.12-.05.18-.08ZM28.68,17.71c0-.22-.1-.37-.31-.42-.25-.06-.51-.07-.89.04.31.27.46.56.76.68.23.08.44-.06.44-.3ZM59.38,4.82s.09.04.13.05q-.09.48.29.58c-.01.29-.17.44-.46.42-.19-.01-.38-.06-.57-.08-.07,0-.14.03-.15.11-.02.08.02.15.09.17.18.06.37.09.55.14.34.11.6.3.58.71,0,.07-.01.14,0,.21.03.16.13.26.29.27.16.01.27-.08.33-.22.05-.13.08-.27.11-.42.05-.25.04-.27-.28-.32-.12-.02-.19-.04-.18-.16,0-.12.04-.23.06-.35.06-.3-.1-.44-.38-.5,0-.24-.06-.45-.29-.58.01-.04.03-.09.04-.14.01-.1-.02-.19-.13-.21-.04,0-.1.02-.11.06-.05.1,0,.18.08.23ZM70.56,8.87c.06,0,.14-.02.17-.07.04-.06,0-.12-.08-.14-.09-.02-.17-.01-.22.09,0,.08.06.12.12.12ZM69.31,20.32c-.1.02-.19.08-.17.19.02.15.15.17.28.15.1-.02.17-.07.18-.19-.04-.14-.15-.17-.28-.15ZM70.52,13.37c0,.15.11.19.25.16.14-.04.27-.07.46-.13-.13-.22-.3-.24-.47-.24-.13,0-.24.07-.23.21ZM69.85,19.34c-.1.02-.18.08-.13.2.03.07.11.08.19.05.07-.02.12-.07.11-.15-.03-.08-.09-.11-.17-.1ZM69.65,18.6c-.04-.11-.06-.24-.22-.22-.02,0-.06.08-.05.11.02.11.06.24.21.22.02,0,.04-.07.06-.12ZM68.9,15.55c.11.33.07.65.06.97-.02.27.12.45.34.59.11.13.24.24.08.42-.1.11-.16.24-.04.38.14.16.32.22.51.11.18-.1.33-.26.57-.27.11,0,.12-.12.12-.22,0-.18-.07-.3-.23-.4-.34-.21-.66-.18-1-.02.3-.43-.02-.99.32-1.42.02-.02-.04-.13-.09-.18-.09-.08-.19-.15-.3-.2-.17-.08-.39.06-.33.23ZM70.85,14.61c.1,0,.17-.06.18-.17-.02-.11-.1-.16-.2-.15-.1,0-.18.06-.17.17,0,.11.09.16.19.15ZM69.89,13.95c-.42.02-.55.27-.28.6.14.18.19.36.24.57.01.05.09.12.14.13.07.02.12-.06.14-.13.05-.27.03-.56.16-.83.11-.23.01-.33-.26-.35-.05,0-.09,0-.14,0ZM70.93,19.17c.25.09.32-.13.43-.28.04-.06.06-.12.08-.16,0-.13-.06-.16-.13-.15-.23.03-.43.25-.44.48,0,.04.04.1.07.11ZM70.45,15.8c0,.29.1.39.34.33.16-.04.32-.08.49-.08.19,0,.4-.06.46-.26.07-.2-.17-.26-.26-.38-.07-.09-.14-.2-.28-.19-.19.03-.38.05-.55.12-.2.09-.2.3-.2.46ZM71.65,13.56c-.22.02-.33.23-.21.41.11.16.22.32.44.33.17.01.24-.13.3-.26.08-.16.25-.1.37-.18.13-.08.1-.2.03-.3-.06-.09-.14-.23-.26-.08-.13.16-.27.16-.46.1-.05,0-.12-.02-.19-.01ZM71.78,17.09s-.04-.13-.09-.15c-.05-.03-.14-.02-.19.01-.12.08-.22.17-.32.27-.09.09-.11.21-.02.31.1.12.24.14.38.06.18-.11.21-.29.25-.5ZM71.38,9.2c.06.03.12.05.19.05.01,0,.04-.06.05-.1-.06-.08-.15-.1-.24-.06-.05.02-.05.08,0,.11ZM71.54,11.52c-.03.08-.07.18-.06.26,0,.14.03.31.22.28.17-.03.17-.2.16-.34-.01-.12-.07-.22-.2-.26-.04.02-.11.03-.12.06ZM69.04,19.76c0-.06-.04-.14-.09-.17-.12-.07-.25-.13-.39-.17-.27-.08-.38.08-.46.28.1.15.24.09.35.12.14.03.27.1.4.11.09.01.19-.06.2-.17ZM72.32,9.74s.12-.03.14-.08c.04-.07-.01-.12-.09-.14-.09-.02-.19-.01-.21.09-.02.08.06.11.15.12ZM68.57,16.84c-.01-.09-.07-.13-.14-.13-.15,0-.29.04-.32.21-.02.11.08.16.18.16.16,0,.27-.07.28-.24ZM68.78,11.29c.11,0,.16-.07.18-.17,0-.1-.04-.19-.15-.2-.11,0-.16.08-.17.18,0,.1.04.19.15.2ZM67.73,21.36s.05,0,.07,0c.14-.03.31-.04.37-.17.12-.22.2-.45.28-.69.02-.07-.21-.24-.25-.19-.23.22-.47.44-.67.69-.11.13.03.35.2.36ZM67.71,15.94c-.05.09-.02.18.05.26.11.12.25.15.38.04.14-.12.37-.09.49-.3-.17-.07-.34-.16-.51-.21-.18-.05-.32.06-.4.21ZM68.65,13.89c.08,0,.12-.05.13-.13,0-.08-.05-.13-.13-.13-.08,0-.13.05-.13.13,0,.08.05.13.13.13ZM67.29,20.65c-.03-.26-.24-.08-.38-.1-.02,0-.04,0-.07,0q-.32-.27-.77-.1c.26.15.52.08.77.1.04.08.08.15.11.23-.25.29-.47.56-.8.69-.02,0-.05.09-.03.12.02.03.08.07.11.06.23-.06.46-.12.68-.2.13-.04.19-.15.17-.28-.01-.1-.05-.2-.09-.34.13-.03.31-.05.29-.2ZM65.36,24.89c.18,0,.4-.27.37-.43-.03-.03-.06-.08-.1-.09-.18-.04-.39.08-.44.25-.03.1.08.27.16.27ZM65.69,21.63c.11-.08.14-.19.13-.32-.02-.09-.03-.2-.15-.2-.06,0-.14.04-.18.09-.06.07-.1.16-.13.25-.03.07,0,.14.06.19.09.06.18.06.27,0ZM65.44,22.27c-.05-.24-.21-.34-.61-.38-.12-.01-.26-.03-.31.1-.06.15.07.21.18.26.08.04.17.07.31.12-.1.22-.18.37-.24.52-.04.09-.03.19.07.25.09.06.18.04.27,0,.25-.14.4-.55.33-.88ZM67.37,19.31c-.19-.18-.17.12-.27.16-.19.08-.3-.01-.44-.12-.26-.21-.28-.21-.45.08-.08.13-.14.17-.27.1-.09-.05-.19-.06-.24.05-.06.13.03.22.12.29.22.16.5.14.75.19.4.09.55,0,.75-.35.07-.13.15-.3.05-.4ZM66.6,23.57c.08-.02.15-.12.14-.23-.01-.11-.1-.15-.2-.17-.05,0-.09,0-.23-.02-.35-.06-.56.25-.76.54-.04.06-.04.15.02.19.05.04.15.07.19.04.26-.18.53-.3.83-.36ZM68.22,19.08c0-.37.02-.65,0-.92-.02-.19-.26-.19-.36-.32-.05-.07-.12-.18-.1-.25.08-.35-.23-.55-.3-.85-.02-.11-.15-.11-.22-.03-.18.21-.33.47-.16.71.37.51.51,1.17,1.14,1.66ZM55.58,6.85s-.05-.09-.08-.1c-.09-.02-.13.04-.14.12-.02.14-.07.28.08.43.13-.13.18-.27.14-.44ZM63.15,11.21s.03-.14,0-.19c-.07-.11-.15-.24-.32-.24-.02.04-.06.09-.05.12.05.1.12.2.19.29.04.06.13.08.17.02ZM61.08,18.89c-.13.1-.45.13-.32.36.1.18.27-.08.42-.11.28-.05.22-.26.19-.44.18.07.35.14.53.21.16.07.27.18.32.36.04.16,0,.35.19.44.17.08.3-.14.47-.09.02,0,.04.02.08.05-.02.15-.05.31-.04.47,0,.14.05.29.19.36.15.07.28-.01.38-.12.16-.17.3-.37.47-.54.09-.09.27-.09.3.03.09.4.53.42.72.72.08.12.26.12.4.08.06-.02.13-.07.15-.13.03-.07-.03-.15-.1-.16-.51-.08-.67-.56-1-.86-.19-.17-.06-.36,0-.53.07-.2.22-.23.4-.15.02.2-.06.44.24.5.09.02.19.03.25-.06.06-.09.02-.18-.05-.25-.12-.12-.28-.16-.44-.19.09-.41.09-.42-.3-.39-.2.02-.24-.09-.29-.24-.04-.14-.09-.29-.28-.25-.22.04-.33.23-.29.46.02.11-.02.23.09.33.13.11.12.25,0,.38-.09.1-.21.11-.33.07-.21-.06-.42-.1-.44-.39-.02-.19-.15-.22-.31-.15-.16.07-.3.04-.37-.1-.17-.33-.31-.68-.48-1.07.37-.02.66-.11.92-.27.09-.06.14-.14.1-.24-.04-.08-.09-.18-.17-.22-.07-.04-.18-.03-.27-.02-.37.04-.6.38-.94.49-.04.01-.09.13-.07.19.15.43-.04.85-.03,1.27-.1.06-.2.12-.3.19ZM63.09,7.67s.05-.06.07-.09c0-.08-.05-.14-.12-.14-.08,0-.12.06-.1.13.02.07.08.11.15.09ZM61.74,5.56c.02.14.11.21.24.21.14,0,.22-.1.19-.23-.03-.16-.1-.31-.16-.46-.01-.03-.07-.06-.11-.07-.08,0-.12.06-.13.13,0,.05,0,.09,0,.1-.01.18-.02.25-.02.32ZM63.06,15.64s-.07.12-.1.18c-.1.11-.16.24-.18.38-.03.27.19.36.35.49.15.12.35.08.46-.03.17-.15.31-.35.42-.55.06-.11-.02-.23-.13-.3-.1-.06-.18,0-.24.08-.07.09-.14.19-.22.28-.2.21-.33.17-.44-.14-.02-.06-.02-.14-.02-.21.07,0,.14,0,.21-.03.03-.01.07-.08.06-.1-.03-.08-.11-.09-.17-.04ZM64.73,13.58c.21.18.33.48.71.53,0-.08.03-.13.02-.17q-.08-.42.32-.59c.08-.04.2-.06.15-.18-.02-.04-.12-.07-.19-.07-.26,0-.51.11-.77-.02-.17-.09-.33.06-.42.19-.13.18.08.23.17.32ZM53.37,6.58s.05-.07.07-.11c-.02-.08-.02-.19-.15-.17-.03,0-.07.07-.07.1,0,.1.02.19.15.18ZM60.82,10.06c.07,0,.09-.08.1-.13,0-.09-.02-.16-.09-.17-.08-.02-.12.05-.13.12,0,.09,0,.19.12.18ZM67.31,10.49c.09,0,.2,0,.19-.07-.01-.1-.13-.1-.22-.11-.07,0-.15.02-.12.1.02.04.11.06.14.08ZM64.75,9.53s-.07.04-.1.06c.02.03.05.06.07.09.04-.02.07-.05.1-.07-.02-.03-.05-.08-.07-.08ZM54.9,8.33c.06.14.18.13.3.14.05,0,.09,0,.14,0s.09,0,.14,0c.11-.01.25,0,.29-.15.04-.15-.02-.28-.13-.38-.17-.14-.35-.1-.53-.02-.16.07-.25.28-.2.41ZM72.3,11.3s.06.06.09.08c.08,0,.13-.05.14-.12,0-.03-.03-.09-.06-.1-.08-.04-.19.05-.16.14ZM59.69,11.33c-.02-.07-.02-.14-.04-.21-.09-.28-.16-.3-.4-.17-.25.14-.41.28-.3.62.07.24.01.52.01.77.09-.03.17-.1.24-.21.21-.33.28-.37.52-.11.25.27.5.22.78.17.14-.02.21-.13.15-.26-.16-.4-.02-.63.37-.78.12-.05.06-.17-.02-.23-.12-.11-.25-.11-.38,0-.2.17-.4.34-.6.5-.14.11-.26.07-.33-.11ZM51.85,5.35c.08,0,.11-.06.12-.14,0-.11-.04-.2-.15-.21-.11-.01-.17.07-.16.18.01.1.07.17.18.17ZM72.05,23.06c.15.02.34-.16.31-.31,0-.03-.07-.08-.1-.07-.16.02-.25.12-.28.28,0,.03.04.07.07.11ZM72.74,18.26c.09-.2-.11-.29-.17-.43-.07-.15-.12-.31-.2-.46-.04-.08-.13-.14-.26-.13-.04.02-.11.05-.15.1-.24.34-.17.58.2.83.29.19.51.23.58.1ZM72.19,16.21c.02-.1-.03-.15-.1-.17-.03,0-.1.02-.11.05-.04.07,0,.14.07.17.07.03.13,0,.15-.05ZM70.25,12.11c.18-.02.18-.19.2-.33.01-.07.03-.14.03-.16.06-.28.03-.42-.14-.47-.13-.04-.22.05-.3.15-.06.08-.11.16-.15.24-.09.15-.05.27.06.39.08.09.17.2.3.18ZM72.62,14.88c-.15.11-.05.24-.01.36-.07,0-.14,0-.21,0-.13.02-.29-.04-.36.14,0,.02,0,.05.02.06.15.12.31.09.45-.02.05-.04.07-.12.11-.18.11-.08.24-.15.18-.31-.03-.07-.11-.09-.17-.05ZM72.44,12.83s.1.07.14.09c.1-.02.17-.05.13-.13-.02-.05-.11-.08-.17-.08-.07,0-.14.05-.1.13ZM69.77,12.56c.08.01.13-.03.15-.11-.01-.15-.12-.25-.21-.36-.1-.12-.23-.17-.38-.11-.11.05-.08.19.08.35.1.1.21.2.35.23ZM67.65,6.41c.09.03.17.02.22-.08,0-.08-.05-.13-.12-.13-.06,0-.14.02-.17.06-.05.06,0,.12.07.14ZM69.98,10.08s.07.06.1.07c.02,0,.05-.05.07-.08-.03-.02-.07-.05-.1-.07-.02.03-.05.06-.07.09ZM67.7,7.7c.12-.01.27-.04.25-.18-.02-.13-.17-.15-.28-.15-.11.02-.19.07-.17.19.01.11.1.16.21.15ZM66.61,15.65c-.11.09-.27.15-.25.32.04.24.16.44.38.57.02.01.05,0,.07,0,.04-.03.09-.05.11-.09.03-.09.07-.18.07-.27,0-.27.07-.47.42-.44.16.01.27-.12.26-.28,0-.21-.04-.52-.25-.54-.33-.02-.52-.19-.71-.4-.03-.03-.14-.01-.19.02-.09.05-.15.15-.1.24.07.12.19.21.28.32.23.28.22.32-.08.55ZM69.7,8.63c.02-.12.03-.24-.1-.31-.04.02-.1.04-.11.07-.05.12-.04.24.07.32.08.05.13-.01.15-.09ZM69.99,7.2c.08.02.12-.04.11-.12,0-.03-.06-.05-.09-.08-.03.03-.07.06-.08.09,0,.03.03.1.06.1ZM61.49,16.6c-.03.1.01.18.11.23.09,0,.13-.05.14-.12.01-.08-.02-.14-.09-.18-.07-.04-.14,0-.17.07ZM59.12,9.96c.13-.02.19-.12.18-.25,0-.08-.05-.13-.14-.12-.13.03-.19.12-.18.25,0,.08.05.14.14.12ZM59.6,8.66c.07.02.13-.03.13-.11,0-.1-.06-.16-.13-.16-.11.01-.16.07-.13.14.02.05.08.11.13.13ZM58.79,10.6c.08,0,.14-.04.15-.12.02-.14-.11-.3-.23-.3-.11.03-.16.11-.15.21,0,.14.1.21.24.21ZM60.14,13.96c-.09.05-.26,0-.26.18,0,.11.21.17.37.08.19-.1.36-.22.53-.35.03-.02.02-.08.03-.14-.06-.02-.13-.05-.19-.06-.22,0-.32.19-.48.28ZM57.2,6.87c-.03.07.03.12.11.13.09.01.19,0,.19-.11,0-.07-.07-.09-.17-.11-.03.02-.11.04-.13.09ZM58.24,7.59c-.07.02-.11.08-.09.16,0,.03.06.05.09.07.09,0,.13-.05.13-.13,0-.08-.06-.12-.14-.1ZM57.69,5.47c.09.04.19.07.27,0,.11-.09.09-.21.03-.33-.08-.16-.32-.25-.23-.48.02-.04.02-.06,0-.07.68,0,.69,0,1.03-.22-.38-.06-.71-.18-1.05.21,0,0-.02,0-.03,0-.3-.05-.59-.21-.96-.03.41.55.66.8.94.93ZM60.74,20.48s-.1.03-.11.06c-.07.15.02.37.19.46.03.02.1,0,.12-.02.12-.14,0-.45-.2-.5ZM59.65,15.18c-.05.06,0,.13.08.15.12.03.23,0,.29-.12-.02-.04-.03-.11-.05-.12-.12-.04-.24-.02-.31.09ZM58.11,13.62c.31.06.61.12.79.42.07.12.16.28.33.17.13-.08.14-.25.11-.39-.02-.11-.06-.25-.14-.32-.24-.2-.25-.44-.18-.71.04-.14-.04-.28-.1-.41-.18.02-.32.11-.4.27-.12.25-.3.42-.52.59-.21.16-.17.34.09.4ZM58.28,9.65c-.03.07,0,.13.08.14.03,0,.05-.05.08-.08-.02-.03-.03-.09-.06-.1-.02-.01-.09.02-.1.05ZM58.53,6.95c-.01-.08-.06-.13-.13-.12-.03,0-.08.04-.09.07-.03.09.07.19.16.15.03-.01.05-.07.07-.1ZM58,12.04c-.12-.02-.17.05-.19.15-.01.1.02.19.12.21.11.02.17-.05.19-.15.02-.1-.03-.17-.13-.21ZM58.57,5.2c.01.08.07.14.14.13.12,0,.16-.09.15-.13-.02-.16-.08-.21-.15-.21-.12,0-.16.09-.15.2ZM55.4,10.36c-.16,0-.33-.02-.46.11-.03.03-.07.09-.06.12.02.06.07.14.11.15.21.03.42.03.63.05.02.07.03.14.07.2.08.14.21.22.35.1.15-.14.05-.25-.08-.34-.06-.04-.12-.07-.19-.1-.06-.18-.18-.27-.36-.28ZM54.58,11.94s-.07.07-.07.11c0,.26-.01.51,0,.77,0,.1.07.18.16.21.04.01.1.02.14,0,.03-.01.08-.07.08-.09-.06-.32-.12-.64-.19-.96,0-.02-.07-.03-.11-.05ZM54.58,11.01c-.08,0-.13.05-.13.13,0,.08.05.13.13.13.08,0,.12-.05.13-.09,0-.12-.04-.17-.12-.17ZM56.21,14.14c.04-.08-.06-.09-.12-.07-.08.02-.18.03-.21.14.04.02.08.06.1.05.08-.03.2-.05.22-.11ZM56.38,13.59c.16-.03.37-.07.57-.11.12-.03.22-.12.21-.24-.02-.22-.16-.08-.26-.06-.2.04-.41.07-.61.12-.04.01-.09.1-.09.16,0,.07.06.12.18.13ZM57.14,10.98s.05-.08.08-.11c0-.02,0-.05-.01-.07-.1-.18-.41-.2-.55-.03-.05.06-.03.14.03.19.15.12.31.11.46.02ZM56.82,8.9c-.11.53-.38.93-.9,1.12,0,.21.15.31.3.37.28.12.57-.09.53-.4-.02-.19.01-.26.2-.27.23,0,.47-.03.69-.04.09-.21-.11-.37-.05-.57.06-.2.22-.3.35-.44.12-.13.06-.27-.05-.38-.13-.12-.27-.17-.46-.11-.35.12-.55.38-.62.71ZM57.65,11.23c-.06-.09-.17-.11-.25-.07-.25.14-.5.27-.73.44-.17.12-.21.31-.12.51.02.05.1.09.14.12.04,0,.07,0,.09-.02.29-.24.59-.47.87-.72.07-.06.06-.17,0-.26ZM57.24,5.71c-.07-.02-.13.05-.14.12-.03.17.06.29.22.28.06,0,.11-.06.16-.08,0-.19-.11-.27-.24-.32ZM57.51,13.71c-.05,0-.11.08-.13.14-.04.16-.06.32.02.48,0,.02.03.05.05.05.04,0,.1-.02.12-.04.04-.08.05-.17.06-.18,0-.15,0-.22,0-.29,0-.07-.04-.15-.11-.14ZM53.92,11.51s-.04-.06-.07-.09c-.04.01-.1.02-.11.05-.01.02,0,.1.03.11.07.04.14.02.15-.06ZM52.74,11.35c.04.18.05.37.12.54.04.11.17.15.3.12.1-.02.18-.07.21-.17.03-.1,0-.18-.06-.26-.14-.19-.35-.23-.56-.24-.11-.13-.21-.26-.32-.39-.07-.08-.14-.12-.25-.08-.57.22-.73.62-.38,1.11.16.22.08.33-.05.48-.07.09-.03.18.07.23.06.03.14.03.21.04.17.02.25.14.25.3,0,.13-.06.22-.18.28-.12.06-.29.02-.4.23.15.14.1.41.37.58.16-.13.37-.17.59-.14.24.03.43-.16.68-.22-.25.74-.25.85.02,1.35.08-.04.16-.09.25-.13.37-.21.78-.4.63-.96,0-.02.05-.09.08-.1.08-.02.12.05.16.1.24.26.31.26.45,0,.07-.12.12-.26.16-.4.02-.07-.04-.18-.1-.15-.38.15-.53-.16-.67-.38-.25-.4-.54-.61-1.04-.61-.2,0-.48-.01-.67-.18-.22-.2.03-.47-.1-.68-.01-.02-.02-.04-.02-.07-.04-.23.14-.19.27-.21ZM53.05,12.86c.24-.05.19.22.31.3.07.05.16.11.12.26-.15.01-.22-.05-.29-.11-.22-.21-.28-.42-.15-.45ZM55.37,12.88c0,.16.07.29.24.3.24.02.47-.07.69-.16.07-.03.11-.13.06-.18-.3-.36-.33-.95-.97-1.09,0,.12-.04.2-.01.25.14.24.21.48.02.73-.03.03-.03.09-.03.14ZM60.93,14.65s-.04-.12-.09-.15c-.08-.04-.14.03-.13.1,0,.06.04.14.08.17.08.05.12-.02.14-.13ZM63.28,17.77c-.08,0-.13.05-.13.13,0,.08.05.13.13.13.08,0,.12-.05.13-.13,0-.08-.05-.13-.13-.13ZM62.84,12.46c-.08.02-.12.08-.11.15.02.16.11.25.27.27.07,0,.14-.04.15-.11.02-.16-.15-.32-.31-.31ZM63.87,15.11s-.06.07-.06.11c0,.08.05.13.13.11.07-.02.1-.08.09-.15-.03-.07-.08-.11-.16-.07ZM62.98,14.19c.07-.1.03-.24-.04-.33-.15-.19-.34-.2-.61-.06.16.15.26.24.37.33.08.08.18.19.28.05ZM63.82,13.37c.03.14.05.28.08.41.02.08.09.12.16.1.06-.02.13-.08.14-.14.06-.3-.15-.35-.38-.37,0-.2.27-.24.28-.47-.1-.02-.19-.04-.28-.04-.24.01-.3.12-.2.31.04.08.13.13.2.19ZM62.47,10.58c.16,0,.27-.09.3-.25.01-.08-.04-.13-.13-.14-.14.03-.27.09-.3.25-.01.08.05.14.13.14ZM61.75,16.11c.18.2.33.19.42-.05.09-.22.16-.44.25-.71-.28-.04-.47.05-.64.17-.23.16-.24.36-.04.59ZM65.55,15.44c.1.11.3-.04.35-.24.04-.17-.02-.28-.21-.3-.12-.01-.24-.02-.36-.04-.3-.03-.69.22-.78.5-.03.08.05.13.13.13.07,0,.16.02.21-.02.21-.16.38-.33.65-.05ZM64.08,11.81c.11-.2-.11-.3-.12-.46,0-.07-.05-.13-.14-.13-.07,0-.19.2-.16.29.07.19.21.29.42.3ZM64.95,17.98c.1.11.15.24.17.38.04.24.2.22.38.19.2-.03.34-.16.48-.29.22.36.63.27.95.4.05.02.11-.09.1-.16-.04-.22-.17-.4-.35-.51-.2-.12-.29.09-.42.17-.08.05-.18.07-.26.1.03-.09.08-.21,0-.27-.23-.2-.48-.39-.79-.43-.14-.02-.3-.03-.38.12-.07.14.06.22.13.3ZM65.68,16.74c0-.06-.04-.13-.09-.25-.24.17-.22.37-.25.55-.01.08.03.2.09.25.19.17.42.31.69.33.05,0,.13-.06.15-.11.03-.07-.02-.16-.08-.16-.42,0-.51-.25-.51-.6ZM64.22,17c.1.12.03.22-.04.32-.05.07-.13.14-.06.27.23,0,.41-.17.62-.26.18-.08.19-.25.04-.4-.1-.1-.2-.2-.35-.22-.12-.02-.25-.03-.32.08-.07.11.05.16.11.22ZM64.19,7.94c.07.01.13-.03.14-.1,0-.1-.05-.16-.16-.17-.08.01-.12.06-.11.14,0,.07.06.12.13.13ZM57.69,17.38c.28,0,.49-.14.68-.35.26-.3.21-.51-.15-.65-.2-.08-.37-.08-.49.14-.05.1-.11.21-.16.3-.27-.02-.41-.31-.68-.25-.04,0-.1.03-.12.07-.02.03-.02.1,0,.13.22.21.53.32.71.59.04.07.13.03.2.02ZM57.04,21.91c-.23-.02-.47-.1-.69.04-.01.03-.03.06-.02.08.03.09.06.18.1.26.2.51.2.5.6.17.09-.08.2-.13.3-.2.26-.17.35-.44.43-.72.07-.26-.12-.43-.22-.64-.19-.39-.61-.59-.77-1-.05-.13-.21-.19-.37-.12-.13.05-.16.17-.17.29-.04.49.23.81.61,1.06.18.12.38.2.47.42.09.21-.02.39-.25.38ZM56.34,18.26c-.06.17-.01.29.15.35.36.15.66.11.99-.14-.25-.06-.48-.13-.71-.17-.14-.03-.29-.03-.43-.04ZM56.41,19.19c.24.23.49.45.79.6.31.16.45.36.66.7.13.2.23.4.29.64.06.22.26.26.46.14.13-.08.22-.17.27-.32.15-.44.08-.79-.34-1.05-.16-.1-.11-.21.1-.28.09-.03.18-.05.28-.08-.02-.37,0-.72.43-.86.02.12.05.27.17.3.2.05.42.11.63.04.13-.04.17-.44.06-.66-.03-.06-.09-.11-.13-.17q-.21-.34.04-.66c.2-.25.21-.28-.16-.34-.35-.06-.26-.35-.36-.57-.16.1-.32.2-.47.31-.15.11-.13.28,0,.36.3.17.28.4.23.68-.03.14-.02.29-.03.43-.34.04-.41-.26-.54-.47q-.45.34-.5.86c-.06.61-.28.78-.89.67-.26-.05-.53-.07-.63-.39-.02-.06-.1-.1-.16-.14-.16-.1-.44-.09-.45.02-.02.16.14.16.22.24ZM59.5,19.71c.05-.05.1-.1.15-.16.05.14.14.26.3.27.26.01.52,0,.78-.01.06,0,.14-.06.16-.12.03-.08-.05-.11-.12-.13-.37-.09-.75-.16-1.12,0-.05-.19-.17-.26-.35-.17-.12.06-.24.12-.37.17.2.44.27.46.57.16ZM67.42,13.16c-.03-.27-.05-.45-.08-.63-.01-.08-.08-.13-.15-.11-.06.02-.13.08-.14.13-.07.27.05.45.38.6ZM60.31,16.18c-.08,0-.15.17-.09.27.09.17.23.22.41.2.06,0,.14-.04.18-.08.05-.06,0-.13-.04-.18-.12-.11-.24-.22-.44-.21ZM61.62,13.05c.09,0,.19,0,.28-.02.08-.03.1-.12.03-.17-.07-.06-.17-.08-.21-.1-.16,0-.24.04-.24.16,0,.08.07.13.14.13ZM59.89,20.68s.04-.03.04-.06c.02-.06.05-.14.04-.2-.02-.11-.13-.13-.22-.13-.15,0-.29.03-.32.2-.03.12.01.25.11.31.16.11.25-.05.35-.14ZM62.8,21.12c-.18-.02-.28-.16-.36-.32-.07-.15-.14-.3-.23-.44-.03-.05-.12-.09-.18-.1-.12,0-.18.08-.17.18.02.25-.12.4-.27.56-.14.14-.19.32-.23.51-.05.24.01.41.23.54.31.19.34.23.62,0,.21-.16.38-.17.58-.04.1.06.19.14.3.2.1.05.19,0,.21-.1.02-.09,0-.19-.02-.34.07-.33-.03-.6-.48-.64ZM56.34,7.44c-.11-.02-.14.1-.16.18-.02.09-.04.18.07.23.12,0,.14-.09.16-.18.01-.09.05-.21-.07-.23ZM64.31,21.25c0-.08-.05-.13-.13-.13-.08,0-.13.05-.13.13,0,.08.05.12.13.13.08,0,.13-.05.13-.13ZM59.79,21.79c.09,0,.16-.01.23-.02.34-.04.48-.24.4-.57-.02-.07-.14-.14-.16-.11-.15.27-.45.31-.67.47-.06.04-.05.14.02.18.06.04.13.04.18.05ZM61.31,20.4c.04-.1,0-.17-.11-.21-.04.02-.1.03-.11.06-.03.1.01.18.11.21.03,0,.1-.03.11-.06Z"/>
        <path class="cls-3" d="M70.25,17.84c-3.08-3.01-6.87-4.02-11.06-3.87-.27,0-.61.25-.79-.06-.14-.25.16-.47.29-.69,1.53-2.53.73-4.85-2.05-5.86-.6-.22-1.25-.32-1.88-.46-2.82-.62-5.53-.37-7.89,1.38-5.11,3.79-7.7,9.04-8.5,15.25-.19,1.49.21,1.9,1.71,1.91.26,0,.53-.01.79.02,4.67.58,9.38.29,13.46.72,3.93-.05,7.24-.36,10.5-1.07,1.64-.36,3.28-.76,4.74-1.64,2.42-1.46,2.68-3.54.73-5.59-.02-.02-.03-.03-.05-.05ZM68.33,21.83c-2.28,1.16-4.79,1.53-7.28,1.89-3.6.51-7.2.5-10.82.2-2.03-.17-4.07-.16-6.11-.18-1.01-.01-2.01-.15-3-.29-.46-.06-.66-.26-.53-.71,1.26-4.49,2.92-8.76,6.71-11.79,1.73-1.38,3.77-1.98,5.96-2.04,2.5-.07,3.46,1.34,2.56,3.67-.14.35-.34.67-.63,1.21-.12-.77-.13-1.3-.29-1.79-.57-1.79-1.72-2.27-3.58-1.81-2.9.72-4.66,2.83-5.95,5.38-.89,1.75-1.6,3.14-1.74,5.06-.08,1.1.25,1.37,1.64,1.58,5.29.79,10.51.56,15.65-1,1.06-.32,2.09-.74,2.94-1.47,1.28-1.1,1.15-2.28-.33-3.09-.14-.08-.29-.16-.44-.25.15-.23.33-.1.45-.05,1.93.62,3.8,1.34,5.24,2.87,1.09,1.16.99,1.89-.43,2.61ZM70.09,12.02c-.99-.33-2.06-.45-3.09-.62-.37-.06-.78.06-.87.46-.08.38.35.39.59.5.76.35,1.56.62,2.29,1.02,2.51,1.37,4.14,3.35,4.53,6.31.29,2.17-.59,3.86-1.71,5.54-.13.19-.36.38-.18.64.14.2.39.14.6.15,1.8,0,4.92-2.66,5.22-4.5.34-2.14-.25-4.08-1.65-5.67-1.55-1.77-3.49-3.08-5.73-3.83ZM42.7,9.26c.48-.32.7-.78.41-1.3-.29-.53-.79-.56-1.32-.33-.26.11-.53.22-.79.34-3.98,1.67-6.83,5.64-6.82,9.65.04.62.18,1.36.45,2.05.24.62.6,1.24,1.37,1.15.8-.09.79-.81.91-1.43.56-2.86,1.18-5.68,3.2-7.96.76-.85,1.64-1.53,2.58-2.16ZM79.8,15.46c-.43-.35-.87-.42-1.3-.07-.44.36-.24.82,0,1.17,1.22,1.81,1.59,3.64.44,5.65-.37.65,0,1.06.75.97,1.44-.17,2.69-1.65,2.7-3.39-.16-1.71-1.14-3.15-2.59-4.34ZM31.81,12.49c-1.94.62-2.97,2.11-2.96,4.41-.06.57.08,1.27.39,1.94.16.36.45.55.85.55.4,0,.7-.2.84-.57.11-.29.17-.6.24-.9.31-1.48.65-2.95,1.6-4.19.25-.33.76-.63.44-1.09-.34-.5-.92-.3-1.39-.15Z"/>
        <path class="cls-6" d="M14.13,16.6c-.8,2.27-.95,4.59-.53,6.96.17.95,1.61.55,1.45-.4-.37-2.1-.17-4.15.53-6.16.32-.91-1.13-1.3-1.45-.4h0Z"/>
        <path class="cls-6" d="M16.95,14.3c-.99,4.17.27,8.47,2.93,11.78,2.87,3.57,7.09,5.69,11.41,6.98.93.28,1.32-1.17.4-1.45-7.32-2.19-15.34-8.25-13.29-16.91.22-.94-1.22-1.34-1.45-.4h0Z"/>
        <path class="cls-6" d="M89.98,17.69c1.65,8.87-10.16,11.99-16.5,13.92-7.79,2.37-15.68,2.98-23.79,2.8-.96-.02-.96,1.48,0,1.5,9.23.2,18.05-.74,26.82-3.7,6.8-2.3,16.59-5.89,14.91-14.92-.18-.95-1.62-.55-1.45.4h0Z"/>
        <path class="cls-6" d="M18.33,44.66c.35,2.22,1.5,4.2,3.25,5.61.74.6,1.81-.45,1.06-1.06-1.57-1.27-2.55-2.95-2.86-4.95-.15-.95-1.59-.55-1.45.4h0Z"/>
      </g>
    </g>
  </g>
</svg>