<?xml version="1.0" encoding="UTF-8"?>
<svg id="_レイヤー_2" data-name="レイヤー 2" xmlns="http://www.w3.org/2000/svg" viewBox="0 0 196.78 172.84">
  <defs>
    <style>
      .cls-1 {
        fill: #ca7550;
      }

      .cls-2 {
        fill: #202332;
      }

      .cls-3 {
        fill: #7f4938;
      }

      .cls-4 {
        fill: #fff;
      }

      .cls-5 {
        fill: #727280;
      }

      .cls-6 {
        fill: #616180;
      }

      .cls-7 {
        fill: #983723;
      }

      .cls-8 {
        fill: #b49283;
      }

      .cls-9 {
        fill: #eee5db;
      }

      .cls-10 {
        fill: #f19170;
      }
    </style>
  </defs>
  <g id="_文字" data-name="文字">
    <g>
      <g>
        <path class="cls-3" d="M196.78,69.61v5.7c0,.78-.6,1.41-1.34,1.41H63.88c-.74,0-1.34-.63-1.34-1.41v-5.7c0-.78.6-1.41,1.34-1.41h131.56c.74,0,1.34.63,1.34,1.41Z"/>
        <path class="cls-3" d="M137.57,69.35h4.04v101.69c0,.46-.37.83-.83.83h-2.38c-.46,0-.83-.37-.83-.83v-101.69h0Z"/>
        <path class="cls-3" d="M90.4,69.35v100.99c0,.46-.37.83-.83.83h-2.38c-.46,0-.83-.37-.83-.83v-100.99h4.04Z"/>
        <path class="cls-3" d="M123.12,69.35v100.99c0,.46-.37.83-.83.83h-2.38c-.46,0-.83-.37-.83-.83v-100.99h4.04Z"/>
        <path class="cls-3" d="M174.98,69.35v100.99c0,.46-.37.83-.83.83h-2.38c-.46,0-.83-.37-.83-.83v-100.99h4.04Z"/>
        <rect class="cls-2" x="86.35" y="76.72" width="4.04" height=".58"/>
        <rect class="cls-2" x="119.08" y="76.72" width="4.04" height=".58"/>
        <rect class="cls-2" x="137.57" y="76.72" width="4.04" height=".58"/>
        <rect class="cls-2" x="170.94" y="76.72" width="4.04" height=".58"/>
        <rect class="cls-2" x="101.14" y="68.2" width=".58" height="8.52"/>
      </g>
      <g>
        <path class="cls-10" d="M46.82,17.47c.55.67.23.09,1.69.48.15,1.92,1.02,3.76,2.51,4.77,2.77,1.89,7.1,2.81,8.78.52,1.66-2.26,2.08-5.97,2.33-7.16.24-1.13.45-2.17.63-3.07,0-.02,0-.05.01-.07.1-.49.18-.94.26-1.35,0-.02,0-.05.01-.07.25-1.28.39-2.17.42-2.55.03-.29.02-.59,0-.89-.16-1.53-1.01-3.24-2.68-4.23-1.97-1.16-6.18-2.34-8.43-2.03-4.36.6-5.94,2.08-7.48,6.47-.78,2.22,1.82,9.04,1.93,9.18Z"/>
        <path class="cls-10" d="M62.74,12.88c-.05-.39-.66-.37-.61.02.01.08.03.16.04.24-.9,1.51-1.22,3.21-.94,5.01.02.16.25.51.42.49.89-.08,1.98-.03,2.15-1.01.09-.5-.94-3.86-1.06-4.76Z"/>
        <path class="cls-10" d="M51.28,32.32c-2.97-.87-4.56-1.28-7.57-2.05,1.46-6.26,3.05-12.49,4.77-18.68,2.99.77,4.48,1.52,7.42,2.47-1.67,6.05-3.21,12.14-4.62,18.25Z"/>
        <path class="cls-2" d="M61.74,15.02c-.17.6-.53,1.03-.8.96s-.34-.63-.17-1.23c.17-.6.53-1.03.8-.96.27.08.34.63.17,1.23Z"/>
        <path class="cls-2" d="M62.36,14.22c-.13-.54-.38-.77-.85-.83-.48-.06-.92.03-1.42.27-.29.14-.13.4-.02.43.68.16,1.5-.05,2.03.43.05.04.12.04.2-.05.05-.06.07-.18.06-.25Z"/>
        <path class="cls-8" d="M60.8,8.48c.06-.16.11-.31.15-.48.31-1.12-.25-2.04-1.32-2.36-1.2-.35-2.39-.21-3.41-1.05-.51-.42-.9-.95-1.36-1.41-.68-.67-1.48-1.06-2.4-1.3-.43-.12-.85-.18-1.28-.23-.92.08-1.84.27-2.75.6-2.6.95-3.6,3.22-4.1,5.79-.47,2.39.3,4.98,1.9,9.37.05.14.11.44.18.74.03.48-.14.97-.18,1.45,0,.06.03.14.08.17.65.52,4.38.89,5.32-.5,1.22-1.81,1.48-4.16,3.23-5.54.47-.37,1.01-.58,1.62-.62.43-.03.86.08,1.28.03.68-.09,1.11-.57,1.41-1.16.41-.83.57-1.76.97-2.59.17-.35.4-.66.66-.91Z"/>
        <path class="cls-8" d="M61.24,12.15c.15.23.4.31.63.4.2.09.65.27.92.39.1-.49.18-.94.26-1.35,0-.02,0-.05.01-.07-.63-.29-1.2-.44-1.43-.36-.52.17-.57.71-.39.98Z"/>
        <path class="cls-10" d="M57.27,13.42c-.05-.67-.54-1.32-1.18-1.44-1.23-.23-2.18,1.56-2.16,3.05.03,1.53.98,2.96,2.15,2.29,1.16-.66,1.53-2.57,1.18-3.9Z"/>
        <path class="cls-7" d="M59.16,19.64c.55.5,1.23.74,1.94.92.07-.18.14-.36.2-.54-.62-.15-1.24-.35-1.72-.79-.28-.25-.69.16-.41.41Z"/>
        <path class="cls-8" d="M60.51,22.4c-.08-.41-.37-.71-.64-1.01-.7-.75-1.32-1.47-1.61-2.49-.25-.87-.05-2.19-1.28-2.26-1.5-.08-2.29,1.38-2.7,2.9-.03.03-.05.07-.06.12-.41,1.72-1.71,4.48.57,5.6,1.76.87,3.62.68,4.48,0,.62-.49,1.4-2.06,1.24-2.88Z"/>
        <path class="cls-7" d="M56.53,14.14c.1-.47-.13-.98-.4-1.35-.22-.3-.72-.01-.5.29.17.24.37.57.34.88-.03.23-.22.47-.28.7-.13.44-.1.9.03,1.33.11.35.67.2.56-.15-.11-.34-.14-.68-.03-1.03.07-.23.23-.43.28-.67Z"/>
        <path class="cls-7" d="M54.67,16.88c-.41-.3-.51-.86-.61-1.33-.07-.36-.63-.21-.56.15.13.65.31,1.28.87,1.68.3.22.59-.28.29-.5Z"/>
        <path class="cls-8" d="M58.69,1.49c-2.08-.39-3.65-1.71-5.86-1.45-2.13.25-3.46,1.76-5.3,2.62-1.82.85-2.47,2.45-2.91,4.32-.04.17.06.29.19.34.06.08.16.13.29.1,1.46-.33,2.31.97,3.5,1.46.93.39,1.94.34,2.9.13,1.68-.37,4.38-1.25,5.42-2.73.39-.56.24-.79.12-1.37-.08-.1-.16-.2-.25-.29-.05-1.02.42-1.32,1.43-.9.64.18,1.17.64,1.77.9.74.32,2.42.66,2.39-.63-.03-1.65-2.49-2.27-3.69-2.5Z"/>
        <path class="cls-9" d="M63.82,12.72c-.14.35-.28.74-.43,1.15-2.13-.92-4.26-1.89-6.44-2.68-1.6-.58-3.08-.68-4.38.55-.27.26.14.66.41.41,1.6-1.52,3.63-.49,5.37.21,1.63.66,3.23,1.35,4.84,2.05,0,0,0,0,0,0-.39,1.08-.78,2.24-1.08,3.16-.12.35.44.51.56.15.47-1.44,1.15-3.44,1.71-4.85.14-.35-.42-.5-.56-.15Z"/>
        <g>
          <path class="cls-2" d="M89.28,64.71h9.76l3.91-23.75c.05-.31.31-.53.62-.53h29.74c.39,0,.69.35.62.74l-4.35,26.5c-.05.3-.32.53-.62.53h-29.74s0,0,0,0h-9.94c-.45,0-.81-.36-.81-.81v-1.86c0-.45.36-.81.81-.81Z"/>
          <path class="cls-4" d="M105.12,42.4h26.02c.26,0,.46.23.42.49l-3.33,19.8c-.03.2-.21.35-.42.35h-26.02c-.26,0-.46-.23-.42-.49l3.33-19.8c.03-.2.21-.35.42-.35Z"/>
        </g>
        <path class="cls-10" d="M77.21,72.36c-4.95-.96-8.2-5.69-11.25-9.31-2.9-3.45-5.68-7-8.34-10.63,1.09-.77,2.17-1.54,3.27-2.3,1.16-.8,2.32-1.6,3.49-2.39.58-.39,1.17-.79,1.76-1.17,1.03-.68.75-.03,2.13,1,1.03.77,9.87,12.63,10.74,13.31,1.5,1.18,20.62.26,21.12.37,1.39.29,2.75,2.97,3.29,4.09-4.79,1.59-20.94,8.05-26.18,7.04Z"/>
        <path class="cls-9" d="M115.56,169.78c-1.94.37-6.55.51-12.22-.14-.9-.1-7.7-.42-11.29-.88-.4-.05-.58-.39-.69-.8-.24-.89-.04-2.19.05-3.18.01-.13.03-.25.03-.37,0-.09.01-.18.02-.27,0-.14.02-.27.03-.41.01-.18.03-.36.05-.54.14-1.6.37-3.18.77-4.73.95-3.66,2.61-5.14,3.2-8.88,2.92.09,5.84.03,8.75-.05.03,4.13.96,6.35,3.71,9.49,1.43,1.63,3.17,2.53,5.14,3.27,1.47.56,3.01,1.17,4.09,2.41.14.16.26.32.37.49.04.07.09.14.13.21.06.1.11.21.16.32,0,.02.02.04.02.06.09.21.17.41.22.61.02.06.03.11.04.17.34,1.57-.58,2.84-2.57,3.22Z"/>
        <path class="cls-2" d="M112.45,167.07c-.58-2.23-2.09-3.64-3.83-4.87.35-.42.76-.79,1.23-1.07.32-.19.03-.69-.29-.5-.54.33-1.02.75-1.42,1.24-2.05-1.39-4.31-2.61-5.71-4.63-.21-.3-.71-.02-.5.29,2.65,3.85,8.68,4.84,9.95,9.69.09.36.65.21.56-.15Z"/>
        <path class="cls-2" d="M118.13,166.56c-.97.76-3.65.75-4.39.8-3.16.19-6.41.01-9.55-.29-3.25-.31-6.35-1.23-9.61-1.41-1.13-.06-2.28-.29-3.16-.89.01-.13.03-.25.03-.37,0-.09.01-.18.02-.27,1.4,1.23,3.94.89,5.68,1.11,2.2.28,4.32.95,6.53,1.19,2.25.25,4.53.34,6.79.39.73.01,7.14-.04,7.41-1.04.09.21.17.41.22.61.02.06.03.11.04.17Z"/>
        <path class="cls-2" d="M107.45,154.13c-.73-1.91-1.57-3.79-2.11-5.77-.26-.98-.4-1.91-.44-2.85-.03-.75,0-1.5.06-2.28.03-.43.08-.86.14-1.3.26-1.94.15-3.67-.41-5.55-1.25-4.21-1.97-8.43-2.84-12.73-.73-3.62-1.58-7.21-2.5-10.79-.09-.35-.18-.69-.27-1.04-.05-.2-.1-.4-.15-.59-1.1-4.2-1.6-8.6-3.03-12.7-1.07-3.06-4.37-3.39-7.26-3.49-2.86-.09-6.09.25-8.29,2.28-2.34,2.15-2.69,5.51-2.18,8.49.44,2.51,1.37,4.93,2.17,7.34.77,2.32,1.53,4.65,2.29,6.97.86,2.62,1.72,5.24,2.58,7.87-.16.01-.31.15-.26.35.88,3.09,1.79,6.19,2.87,9.22.16.44.32.87.5,1.3.02,2.91-.13,5.92.74,8.66.07.22.15.44.23.66.11.28.23.56.36.83.71,1.46,1.07,2.46.75,4.09-.19.95-.53,1.87-.59,2.84-.14,2.06.93,3.83,2.01,5.49.07.11.2.16.33.13,5.2-1.28,10.49-1.98,15.84-2.09.13,0,.25-.09.28-.21.48-1.8-.19-3.47-.83-5.15Z"/>
        <path class="cls-9" d="M85.13,171.4c-1.86-.66-5.91-2.87-10.48-6.29-.73-.55-6.43-4.25-9.3-6.46-.32-.25-.3-.63-.19-1.04.24-.89,1.07-1.91,1.65-2.72.07-.1.15-.2.21-.3.05-.08.1-.15.16-.23.07-.11.15-.23.23-.34.1-.15.2-.29.31-.44.93-1.31,1.92-2.56,3.05-3.69,2.67-2.68,4.85-3.12,7.24-6.05,2.47,1.55,5.02,2.97,7.58,4.38-2.06,3.58-2.38,5.96-1.59,10.07.41,2.13,1.47,3.78,2.78,5.42.99,1.23,2.01,2.53,2.31,4.14.04.2.06.41.07.61,0,.08,0,.16,0,.24,0,.12,0,.24-.02.36,0,.02,0,.04,0,.06-.02.22-.06.44-.12.63-.02.06-.03.11-.05.17-.5,1.52-1.93,2.16-3.84,1.48Z"/>
        <path class="cls-2" d="M88.97,169.92c-1.22.17-3.53-1.19-4.19-1.53-2.82-1.43-5.54-3.22-8.1-5.07-2.64-1.91-4.86-4.26-7.59-6.07-.95-.63-1.83-1.4-2.28-2.36.07-.1.15-.2.21-.3.05-.08.1-.15.16-.23.58,1.77,2.96,2.76,4.34,3.82,1.76,1.35,3.25,3,5.03,4.33,1.81,1.35,3.74,2.58,5.67,3.77.62.38,6.19,3.57,6.92,2.84-.02.22-.06.44-.12.63-.02.06-.03.11-.05.17Z"/>
        <path class="cls-2" d="M99.46,95.32c-.76-2.22-2.36-4-4.25-5.29-8.06-5.5-24.9-6.01-28.67-6.09-1.72-.04-3.7.22-5.39-.09-.65-.12-.64.06-.81-.55-.11-.41-.02-.95-.03-1.38-.02-1.1-.05-2.2-.07-3.3,0-.37-.59-.37-.58,0,0,.02,0,.03,0,.05-9.93.97-19.91,1.11-29.86.41-.1-.18-.38-.22-.49-.03-.21-.02-.43-.03-.64-.05-.37-.03-.37.55,0,.58.17.01.34.02.5.04-1.16,5.35-1.95,11.01-1.6,16.48.29,4.55,1.97,8.72,6.2,10.88,4.62,2.36,10.33,2.44,15.4,2.64,6.21.25,12.44.17,18.64-.24,3.97-.26,7.93-.67,11.87-1.19-.62,2.72-1.24,5.44-1.86,8.16-.48,2.12-.92,4.26-1.51,6.36-.61,2.19-1.56,4.19-2.44,6.27-.65,1.53-1.18,3.11-1.15,4.79.03,2.12.9,4.19.55,6.32-.33,1.98-1.65,3.56-2.37,5.39-.67,1.69-.76,3.45-.4,5.21.02.1.11.18.2.2,2.96.83,5.92,1.67,8.87,2.5.74.21,1.48.42,2.22.63.59.17,1.38.56,1.99.54.42-.01.63-.04.93-.37.26-.3.32-.81.45-1.16.25-.65.6-1.24.99-1.81.66-.96,1.46-1.82,2.15-2.76,1.44-1.94,1.93-3.99,2.25-6.35.16-1.2.32-2.41.7-3.56.46-1.37,1.29-2.55,1.88-3.85,1.04-2.29.96-4.91,1.72-7.3.82-2.59,1.76-5.06,2.16-7.76.14-.98.24-1.96.32-2.95,1.88-4.91,2.81-8.15,3.25-13.38.24-2.84-.19-5.24-1.12-7.98Z"/>
        <path class="cls-9" d="M79.94,56.11c-.43-1.09-2.21-4.9-2.73-5.94-1.09-2.19-8.25-14.95-11.58-18.42-2.69-2.8-6.49-3.85-10.09-4.3-5.95-.73-12.06-.85-20.19,1.86-3.29,1.1-6.14,3.23-7.56,6.55-1.71,3.99-1.2,9.94-.96,14.36.27,4.86,1.09,9.7,1.99,14.52.8,4.27,1.63,8.55,2.46,12.82-.01,1.95,0,3.91.05,5.87,1.14.36,2.33.53,3.52.67,1.58.19,3.17.33,4.76.47,5.62.49,11.31.79,16.94.53,2.28-.1,5.08-2.21,7.34-2.6.74-2.77,1.23-8.37,1.42-14.22.06.03.14.04.2.02.53-.18,1.05-.37,1.56-.58,2.65-1.08,5.12-2.6,7.32-4.51,1.42-1.24,2.71-2.64,3.85-4.17.96-1.3,1.87-2.51,1.7-2.95Z"/>
        <path class="cls-1" d="M.08,38.76c7.1,22.17,10.54,42.24,10.14,64.5-.03,1.47-.09,5.35-.16,7.63-.13,4.48.05,6.71,4.99,6.71h25.8c.88,0,1.57-.56,1.63-1.34,1.82-21.12.14-40.24-5.01-61.71-1.31-5.48-2.86-10.93-4.62-16.36-.26-.8-1.12-1.39-2.02-1.39H1.63c-1.15,0-1.89.93-1.56,1.95Z"/>
        <rect class="cls-1" x="27.11" y="106.75" width="54.58" height="10.86" rx="1.94" ry="1.94"/>
        <rect class="cls-2" x="44.51" y="117.58" width="4.4" height="31.82"/>
        <rect class="cls-1" x="42.78" y="137.76" width="7.7" height="15.5" rx=".63" ry=".63" transform="translate(93.25 291.01) rotate(180)"/>
        <g>
          <g>
            <path class="cls-1" d="M35.17,161.52v.28c1.62-.36,3.17-.98,4.25.59v-.97s-.03-2.75-.03-2.75c.06-.39.16-.52.74-.7l6.4-2.37s8.5,2.86,8.71,3.07l-.02,2.75v.97c1.07-1.57,2.62-.94,4.24-.59v-2.93s0-2.04,0-2.04h0c0-.19-.02-.36-.06-.53,0-.02,0-.04-.01-.05-.2-.75-.78-1.35-1.53-1.58-.13-.04-.27-.07-.41-.08-.09,0-9.55-3-10.78-3.18h0s-.01,0-.03,0c-.02,0-.03,0-.03,0h0c-1.31.19-9.1,3.1-9.19,3.12-.95.3-1.73.81-2.06,1.53-.11.24-.17.5-.17.78h0v4.69Z"/>
            <path class="cls-5" d="M57.23,172.84h0c2.84,0,5.14-2.3,5.14-5.14v-1.55c0-2.84-2.3-5.14-5.14-5.14h0c-2.84,0-5.14,2.3-5.14,5.14v1.55c0,2.84,2.3,5.14,5.14,5.14Z"/>
            <path class="cls-2" d="M57.72,166.93c0,1.8.71,3.16,1.65,3.16s1.65-1.36,1.65-3.16-.71-3.16-1.65-3.16-1.65,1.36-1.65,3.16ZM58.29,166.93c0-1.48.57-2.58,1.07-2.58s1.07,1.1,1.07,2.58-.57,2.58-1.07,2.58-1.07-1.11-1.07-2.58Z"/>
            <rect class="cls-5" x="32.26" y="161.01" width="10.29" height="11.83" rx="5.14" ry="5.14" transform="translate(74.8 333.86) rotate(-180)"/>
            <path class="cls-2" d="M37.89,166.93c0,1.8.71,3.16,1.65,3.16s1.65-1.36,1.65-3.16-.71-3.16-1.65-3.16-1.65,1.36-1.65,3.16ZM38.47,166.93c0-1.48.57-2.58,1.07-2.58s1.07,1.1,1.07,2.58-.57,2.58-1.07,2.58-1.07-1.11-1.07-2.58Z"/>
          </g>
          <path class="cls-1" d="M11.75,161.52v.33c1.62-.36,3.75-1.03,4.83.54l-.03-3.72c.21-.21.49-.35.8-.38l.67-.07,17.31-2.17,11.23-1.4,12.79,1.6h0s.65.08.65.08l15.02,1.88.67.07c.31.03.59.17.8.38l-.03,3.05v.68c1.08-1.57,3.2-.9,4.82-.54v-3.27s0-2.04,0-2.04h0c0-1.16-.87-2.13-2.02-2.25-.1-.01-.19-.02-.29-.03-.06,0-.11-.01-.17-.02-.08,0-.16-.02-.25-.03-.08,0-.16-.02-.25-.03-.07,0-.14-.01-.21-.02-.05,0-.1,0-.16-.01-.07,0-.14-.01-.2-.02-.05,0-.1,0-.15-.01-.11,0-.21-.02-.31-.03-.13-.01-.25-.03-.37-.04-.04,0-.08,0-.12-.01-.18-.02-.35-.03-.48-.05-.05,0-.1,0-.15-.01-.15-.01-.24-.02-.24-.02l-1.48-.16-27.81-3.55h0s-.03,0-.03,0h-.03s0,0,0,0l-27.99,3.55-1.48.16s-.09,0-.24.02c-.04,0-.09,0-.15.01-.13.01-.3.03-.48.05-.04,0-.07,0-.12.01-.12.01-.24.02-.37.04-.1,0-.21.02-.31.03-.05,0-.1.01-.15.01-.07,0-.14.02-.2.02-.05,0-.1.01-.16.01-.07,0-.14.02-.21.02-.08,0-.16.02-.25.03-.08,0-.16.02-.25.03-.06,0-.11.01-.17.02-.1.01-.19.02-.29.03-1.15.12-2.02,1.09-2.02,2.24h0v4.98Z"/>
          <path class="cls-5" d="M13.99,172.84h0c2.84,0,5.14-2.3,5.14-5.14v-1.55c0-2.84-2.3-5.14-5.14-5.14h0c-2.84,0-5.14,2.3-5.14,5.14v1.55c0,2.84,2.3,5.14,5.14,5.14Z"/>
          <path class="cls-2" d="M14.48,166.93c0,1.8.71,3.16,1.65,3.16s1.65-1.36,1.65-3.16-.71-3.16-1.65-3.16-1.65,1.36-1.65,3.16ZM15.06,166.93c0-1.48.57-2.58,1.07-2.58s1.07,1.1,1.07,2.58-.57,2.58-1.07,2.58-1.07-1.11-1.07-2.58Z"/>
          <path class="cls-5" d="M79.08,172.84h0c2.84,0,5.14-2.3,5.14-5.14v-1.55c0-2.84-2.3-5.14-5.14-5.14h0c-2.84,0-5.14,2.3-5.14,5.14v1.55c0,2.84,2.3,5.14,5.14,5.14Z"/>
          <path class="cls-2" d="M79.57,166.93c0,1.8.71,3.16,1.65,3.16s1.65-1.36,1.65-3.16-.71-3.16-1.65-3.16-1.65,1.36-1.65,3.16ZM80.15,166.93c0-1.48.57-2.58,1.07-2.58s1.07,1.1,1.07,2.58-.57,2.58-1.07,2.58-1.07-1.11-1.07-2.58Z"/>
          <path class="cls-2" d="M50.32,151.97c2.06.72,1.62.55,3.68,1.27,1.16.4,2.68.74,3.85,1.43.66.39,1.21.89,1.52,1.58,0,.02.01.04.02.06,0-.02,0-.04-.01-.05l.65.08c-.53-1.69-2.1-2.33-3.72-2.9-2.77-.98-3.05-1.05-5.82-2.02-.35-.12-.5.44-.15.56Z"/>
          <path class="cls-2" d="M44.66,151.6c-2.06.72-1.89.72-3.95,1.44-1.16.4-2.68.74-3.85,1.43-.66.39-1.21.89-1.52,1.58,0,.02-.01.04-.02.06,0-.02,0-.04.01-.05l-.65.08c.53-1.69,2.1-2.33,3.72-2.9,2.77-.98,3.33-1.22,6.1-2.19.35-.12.5.44.15.56Z"/>
        </g>
        <path class="cls-1" d="M71.17,85.98h0c-.05.2-.09.39-.14.58-.51,2.15-.97,4.19-2.28,6.08-1.8,2.61-3.99,4.93-5.75,7.58-1.83,2.76-3.27,5.75-4.68,8.74-.5,1.06-1,2.12-1.42,3.22h3.84c.85-2.28,1.92-4.48,3.23-6.55,1.72-2.74,3.83-5.19,5.76-7.78,2.46-3.3,4.04-6.27,4.82-11.28.03-.19.06-.38.08-.58.13-.91.23-1.88.31-2.93,0-.05,0-.1.01-.14.01-.15,0-.29,0-.43-.13-1.49-1.52-2.64-3.07-2.64h-31.98v6.14h31.27Z"/>
        <path class="cls-2" d="M29.76,47.3s0,0,0,0c.13,0,.25.08.29.21.62,2.24,1.19,4.47,1.72,6.68,4.65,19.36,6.31,36.96,5.4,55.14,0,.16-.14.28-.3.27h0c-.16,0-.28-.14-.27-.3.91-18.13-.75-35.67-5.39-54.98-.53-2.21-1.11-4.43-1.72-6.66-.05-.18.08-.36.27-.36Z"/>
        <path class="cls-2" d="M41.36,117.61h1.25c.26-.27.43-.62.46-1.01.29-3.31.49-6.59.61-9.85h-.58c-.12,3.25-.32,6.51-.6,9.8-.05.56-.51.98-1.14,1.06Z"/>
        <path class="cls-2" d="M71.04,86.57h3.52c.03-.19.06-.38.08-.58h-3.46c-.05.19-.09.39-.14.58Z"/>
        <path class="cls-2" d="M36.38,83.06h38.57s0-.1.01-.14c.01-.15,0-.29,0-.43h-38.58c-.38,0-.38.58,0,.58Z"/>
        <path class="cls-6" d="M96.29,121.83c-1.33,3.55-3.29,7.02-3.08,10.91.17,3.23,1.23,6.58-.11,9.71-.66,1.54-1.76,2.88-2.73,4.23l-1.07,1.49c-.08-.22-.16-.44-.23-.66l.8-1.12c1.04-1.45,2.27-2.92,2.88-4.62,1.21-3.41-.31-7.04-.12-10.52.18-3.43,2.04-6.67,3.21-9.83,1.18-3.17,2.23-6.38,3.26-9.6.09.35.18.69.27,1.04-.97,3.01-1.97,6.01-3.07,8.97Z"/>
        <path class="cls-6" d="M82.53,149.1c-2.76-3.05-5.25-6.31-7.46-9.78-.2-.31-.7-.02-.5.29,2.24,3.51,4.76,6.81,7.55,9.89.25.28.66-.13.41-.41Z"/>
        <path class="cls-6" d="M88.55,99.4c-1.87,1.16-3.67,2.42-5.4,3.77-.29.23.12.63.41.41,1.69-1.32,3.46-2.55,5.28-3.68.32-.2.03-.7-.29-.5Z"/>
        <path class="cls-6" d="M91.22,103.95c-2.22-.13-4.42-.04-6.62.25-.37.05-.21.61.15.56,2.15-.29,4.3-.36,6.47-.23.37.02.37-.56,0-.58Z"/>
        <path class="cls-6" d="M104.9,145.51c-.33.92-.75,1.79-1.33,2.53-1.81,2.34-4.84,3.98-7.2,5.7-.3.22-.59-.28-.29-.5,2.23-1.63,4.97-3.16,6.79-5.25,1.1-1.27,1.67-3.01,2.09-4.76-.07.77-.1,1.52-.06,2.28Z"/>
        <path class="cls-2" d="M65.12,66.84c-3.96-5.51-7.93-11.03-11.89-16.54-.21-.3-.72-.01-.5.29.75,1.04,1.5,2.09,2.25,3.13-.67-.26-1.39-.45-2.05-.69-1.39-.52-2.84-.99-4.08-1.83-.31-.21-.6.29-.29.5.97.67,2.07,1.07,3.16,1.49,1.27.49,2.82.8,3.97,1.53,2.98,4.14,5.95,8.28,8.93,12.42.21.3.72.01.5-.29Z"/>
        <path class="cls-10" d="M114.69,63.51c-.57.44-1.53.2-2.13,0-.55-.19-.94-.5-1.63-.36-.51.11-1.74.34-3.38,1.28-.78.44-1.57.85-2.37,1.25-1.13.57-2.13,1.76-3.47,1.56-.55-.08-1.75-.44-2.27-.62-.91-.32-1.83-.47-2.79-.54-.13-.01-.23-.11-.26-.24-.31-1.37-.65-2.75-1.02-4.11-.05-.19.08-.3.23-.32,1.68-.47,4.19-1.77,5.81-2.57,1.03-.58,2.16-1.15,3.28-1.09.43.02,1.07.14,1.64.37.18-.06.36-.1.53-.14.51-.09.93.03,1.36.24.24.12.49.26.75.41h.02c.26-.07.87-.08,1.11-.07.92.01,1.67.78,2.25,1.61.19.27.35.53.47.77.01.02.02.04.03.06h0s0,.07,0,.1c1.13.54,2.93,1.56,1.83,2.42Z"/>
        <path class="cls-7" d="M112.85,60.99c-1.68-.75-3.29-.3-4.97.33-.35.13-.5-.43-.15-.56,1.41-.53,2.92-1.06,4.44-.66.06.02.12.03.18.05.19.27.35.53.47.77.01.02.02.04.03.06Z"/>
        <path class="cls-7" d="M108.98,58.63c-1.07.22-2.1.57-3.11,1.04-.33.16-.62-.34-.29-.5.86-.4,1.74-.72,2.64-.95.24.12.49.26.75.41Z"/>
      </g>
    </g>
  </g>
</svg>