<?xml version="1.0" encoding="UTF-8"?>
<svg id="_レイヤー_2" data-name="レイヤー 2" xmlns="http://www.w3.org/2000/svg" viewBox="0 0 165.14 125.83">
  <defs>
    <style>
      .cls-1 {
        fill: #da6349;
      }

      .cls-2 {
        fill: #382732;
      }

      .cls-3 {
        fill: #331e16;
      }

      .cls-4 {
        fill: #ee7b51;
      }

      .cls-5 {
        fill: #fff;
      }

      .cls-6 {
        fill: #f29776;
      }

      .cls-7 {
        fill: #955853;
      }

      .cls-8 {
        fill: #f3e7e5;
      }

      .cls-9 {
        fill: #f5e3cc;
      }

      .cls-10 {
        fill: #8c94b2;
      }

      .cls-11 {
        fill: #793c37;
      }

      .cls-12 {
        fill: #b0969b;
      }

      .cls-13 {
        fill: #694c52;
      }

      .cls-14 {
        fill: #f1dcc0;
      }
    </style>
  </defs>
  <g id="_イラスト" data-name="イラスト">
    <g>
      <g>
        <polygon class="cls-2" points="134.12 45.27 128.86 37.26 128.02 39.1 132.77 45.82 134.12 45.27"/>
        <path class="cls-3" d="M152.67,26.08c-.1,0-.18-.08-.18-.17-.01-.4-.25-9.8,3.02-10.26,3.28-.46,5.72,8.27,5.82,8.64.03.1-.03.19-.13.22-.1.03-.19-.03-.22-.13-.02-.09-2.45-8.79-5.42-8.38-2.95.41-2.71,9.8-2.71,9.89,0,.1-.08.18-.17.18h0Z"/>
        <path class="cls-14" d="M151.49,26.18c.32-.45,9.97-2.41,10.69-2.4.72,0,3.19,8.52,2.95,9.01-.24.49-11.16,3.11-11.78,2.78-.63-.33-2.17-8.94-1.85-9.38Z"/>
        <g>
          <path class="cls-6" d="M155.19,19.04c.2-.22.32-.53.17-.78-.06-.09-.18-.18-.31-.24.1-.19.11-.42,0-.61-.08-.12-.2-.2-.34-.25.13-.18.25-.4.23-.6-.03-.48-.69-.49-1.02-.35-.27.11-.52.31-.77.47-.24.15-.7.34-.86.56.32-.43.65-.85.95-1.3.22-.34.12-1.12-.9-.4-.47.34-.93.69-1.31,1.13-.48.54-.96,1.1-1.25,1.77-.09.22-.16.44-.22.68-.06.26-.11.53-.15.8-.03.2-.06.4-.08.6-.02.24-.02.48.02.72,0,.05.02.11.03.16.09.35.31.69.6.88.11.07.23.12.36.15.05.01.11.02.17.02.19,0,.39-.04.58-.1.11-.03.23-.08.34-.12.96-.38,1.9-.79,2.84-1.2.36-.16.73-.44.96-.76.26-.35.28-.91-.05-1.2Z"/>
          <path class="cls-6" d="M151.99,21.96s-2.61,6.9-5.47,12.22c-1.82,3.38-3.11,5.4-4.85,5.3-.42-.02-.82-.13-1.2-.35-.22-.12-.42-.27-.59-.44-.12-.11-.23-.24-.33-.37-.01-.01-.02-.02-.03-.03-.62-.86-.73-2.01-.24-3,.05-.1.1-.2.17-.29l.56-.87,9.42-14.46,2.55,2.28Z"/>
          <path class="cls-6" d="M129.84,29.46c.19-1.26.42-2.49.8-3.71.45-1.42,1.34-2.58,1.34-2.58l10.82,10.11-2.91,5.42s-6.66-5.08-10.2-8.39c.06-.29.11-.58.15-.85Z"/>
        </g>
        <path class="cls-6" d="M105.69,30.25c-.14-1.26-.32-2.51-.66-3.74-.39-1.44-1.24-2.63-1.24-2.63l-11.21,9.68,1.24,6.27s8.31-5.56,11.98-8.72c-.05-.29-.09-.58-.12-.86Z"/>
        <g>
          <path class="cls-6" d="M134.24,113.4s0,.03,0,.03h0l-3.92.11v-.02s0-.01,0-.02c0,0,0-.01,0-.02,0-.03-.01-.08-.02-.14,0,0,0-.02,0-.03-.01-.05-.02-.11-.03-.19,0-.04-.01-.08-.02-.13-.01-.06-.02-.12-.03-.18-.02-.14-.04-.29-.07-.46,0-.01,0-.02,0-.03,0-.03,0-.07-.01-.1,0-.03-.01-.06-.02-.1-.02-.14-.04-.28-.07-.43-.02-.15-.05-.32-.07-.48,0-.05-.02-.09-.02-.14,0-.04-.01-.07-.02-.11-.01-.08-.02-.16-.04-.24,0,0,0-.01,0-.02-.02-.11-.03-.23-.05-.34-.04-.23-.07-.46-.11-.7-.02-.12-.04-.23-.05-.35-.02-.13-.04-.26-.06-.39,0-.02,0-.04-.01-.06-.01-.09-.03-.18-.04-.27-.01-.09-.02-.17-.04-.25-.02-.12-.04-.24-.05-.36-.06-.41-.12-.8-.18-1.16-.09-.58-.16-1.07-.21-1.41-.32-2.19-.68-4.37-1.02-6.55-.21-1.32-.45-2.64-.57-3.96-.05-.52-.14-1.2-.1-1.82-.28-.04-.4-.49-.12-.65.09-.05.18-.09.27-.13.05-.13.11-.24.18-.35.05.07.08.14.11.22,1.19-.47,2.53-.4,3.66.27.43.25,1.51,1.11,2.08,1.94.08-.24.17-.48.28-.7.05-.1.23-.09.25.03.1.54.14,7.47.15,12.97,0,.33,0,.65,0,.97,0,.12,0,.24,0,.36,0,.16,0,.31,0,.46,0,.15,0,.3,0,.45,0,.12,0,.24,0,.36,0,.36,0,.7,0,1.01,0,.17,0,.34,0,.51,0,1.47,0,2.47,0,2.65Z"/>
          <path class="cls-7" d="M141.41,118.25c-2.19,1.48-9.31,1.24-9.62,1.12-.18-.07-.42-.42-.62-.87-.15-.31-.28-.67-.37-1.03-.22-.89-.48-3.92-.48-3.92l3.92-.11s3.01,1.25,4.95,1.79c.48.13.89.22,1.18.24,1.48.09,3.22,1.32,1.04,2.8Z"/>
          <path class="cls-8" d="M141.41,118.25c-2.19,1.48-9.31,1.24-9.62,1.12-.18-.07-.42-.42-.62-.87l6.54-.24s.13-1.26.73-2.28c.14-.24.49-.57.75-.76.48.13.89.22,1.18.24,1.48.09,3.22,1.32,1.04,2.8Z"/>
          <path class="cls-5" d="M129.58,108.82s0,.03,0,.04c-.01-.09-.03-.18-.04-.27.01.08.02.15.04.23Z"/>
          <path class="cls-5" d="M130.13,112.33s0,.02,0,.03h0s0-.02,0-.03Z"/>
          <path class="cls-5" d="M130.31,113.48s-.01-.08-.02-.14c0,.03.01.06.01.08,0,.02,0,.04,0,.06Z"/>
          <path class="cls-5" d="M134.24,113.4v.03s-3.92.11-3.92.11v-.02s0-.01,0-.02c0,0,0-.01,0-.02,0-.01,0-.04,0-.06,0-.02-.01-.05-.01-.08,0,0,0-.02,0-.03,0-.05-.02-.11-.03-.19,0-.04-.01-.08-.02-.13,0-.06-.02-.12-.03-.18-.02-.14-.04-.29-.07-.46h0s-.01-.09-.02-.13c0-.03-.01-.06-.02-.1-.02-.14-.04-.28-.07-.43-.02-.15-.05-.32-.07-.48,0-.05-.02-.09-.02-.14,0-.04-.01-.07-.02-.11-.01-.08-.02-.16-.04-.24,0,0,0-.01,0-.02-.02-.11-.03-.23-.05-.34-.04-.23-.07-.46-.11-.7-.02-.12-.04-.23-.05-.35-.02-.13-.04-.26-.06-.39,0-.03-.01-.07-.01-.1-.01-.08-.02-.15-.04-.23-.01-.09-.02-.17-.04-.25-.02-.12-.04-.24-.05-.36-.06-.41-.12-.8-.18-1.16l4.96-.17c0,.33,0,.65,0,.97,0,.12,0,.24,0,.36,0,.16,0,.31,0,.46,0,.15,0,.3,0,.45,0,.12,0,.24,0,.36,0,.36,0,.7,0,1.01,0,.18,0,.34,0,.51,0,1.47,0,2.47,0,2.65Z"/>
          <path class="cls-8" d="M134.24,107.97c-1.57.18-3.15.3-4.73.36-.02-.12-.04-.24-.05-.36,1.6-.06,3.2-.18,4.78-.36,0,.12,0,.24,0,.36Z"/>
          <path class="cls-8" d="M134.24,109.24c-1.5.17-3.02.32-4.53.42-.02-.12-.04-.23-.05-.35,1.53-.11,3.06-.25,4.58-.43,0,.12,0,.24,0,.36Z"/>
          <path class="cls-8" d="M136.3,116.43c-.58,0-1.38-.34-2.13-.69-.12-.05-.22-.1-.3-.13-.27-.12-.43-.29-.47-.51-.09-.5.49-1.06.88-1.43l.05-.05c.07-.07.19-.07.25,0,.07.07.07.19,0,.25l-.05.05c-.27.26-.83.79-.77,1.1.02.1.11.18.26.24.08.03.18.08.31.14.59.27,1.96.91,2.31.56.3-.3.55-.64.83-1.06.06-.08.17-.1.25-.05.08.06.1.17.05.25-.3.44-.56.79-.87,1.11-.14.15-.35.21-.59.21Z"/>
        </g>
        <g>
          <path class="cls-6" d="M110.85,95.51c-.14.56-3.36,7.52-5.73,12.61-1.34,2.87-2.4,5.15-2.49,5.34h0s-3.6-1.55-3.6-1.55c0,0,.91-3.14,1.63-5.58.28-.97.54-1.82.69-2.33.64-2.11,1.24-4.24,1.85-6.37.37-1.28.72-2.57,1.17-3.83.18-.49.37-1.15.67-1.69-.23-.16-.16-.61.17-.64.1,0,.2,0,.3,0,.09-.09.2-.18.31-.24.01.08,0,.16,0,.24,1.28.07,2.46.7,3.2,1.79.28.41.9,1.65,1.06,2.64.17-.19.35-.37.55-.52.09-.07.25.01.22.13Z"/>
          <path class="cls-7" d="M107.08,120.88c-2.61.41-8.96-2.81-9.19-3.06-.13-.14-.2-.56-.2-1.06,0-.34.03-.73.1-1.09.17-.9,1.23-3.75,1.23-3.75l3.6,1.56s2.19,2.41,3.73,3.72c.38.32.72.58.97.72,1.3.71,2.35,2.56-.25,2.97Z"/>
          <path class="cls-8" d="M107.08,120.88c-2.61.41-8.96-2.81-9.19-3.06-.13-.14-.2-.56-.2-1.06l6.03,2.55s.66-1.09,1.63-1.75c.23-.16.68-.31,1-.37.38.32.72.58.97.72,1.3.71,2.35,2.56-.25,2.97Z"/>
          <path class="cls-5" d="M105.12,108.12c-.09.2-.18.39-.27.59-.05.11-.1.22-.15.33-.13.28-.26.54-.37.8-.05.11-.11.23-.16.33-.86,1.85-1.47,3.15-1.54,3.29h0s-3.6-1.55-3.6-1.55c0,0,.42-1.43.91-3.11.03-.11.07-.23.1-.35.08-.28.17-.57.25-.86.04-.12.07-.23.1-.35.09-.31.18-.62.27-.91l4.47,1.79Z"/>
          <path class="cls-8" d="M104.85,108.71c-.05.11-.1.22-.15.33-.29-.07-.59-.14-.88-.22-1.22-.31-2.42-.69-3.54-1.23.04-.12.07-.23.1-.35,1.12.54,2.31.92,3.53,1.23.31.08.62.16.93.23Z"/>
          <path class="cls-8" d="M104.33,109.84c-.05.11-.11.23-.16.33-.29-.07-.58-.14-.87-.22-1.16-.3-2.29-.66-3.37-1.15.03-.11.07-.23.1-.35,1.07.5,2.21.86,3.36,1.16.31.08.62.16.93.23Z"/>
          <path class="cls-8" d="M103.71,117.16s-.1,0-.13-.02c-.39-.13-1.53-1.03-2.06-1.92-.14-.24-.17-.49-.08-.72.22-.59,1.14-.88,1.18-.9.09-.03.19.02.23.12.03.09-.02.2-.12.23-.22.07-.82.33-.95.68-.05.13-.03.26.06.41.51.87,1.6,1.67,1.86,1.76.13.04.73-.2,1.28-.52.09-.05.2-.02.25.06.05.09.02.2-.06.25-.25.14-1.01.57-1.44.57Z"/>
        </g>
        <path class="cls-2" d="M117.3,81.95c1.54-4.49,6.49-19.74,6.45-20.45-.1-1.69-3.35-3.6-3.45-5.33-.26-1.62-.43-3.24-.24-4.92.35-3.14,2.2-8.47-2.58-9.07-1.21-.15-4.95.31-7.21,1.48-.08,1.19-1.41,1.7-1.41,1.7-2.46,6.09-1.11,10-1.24,14.33-.07,2.16-.15,4.32-.41,6.47-.12.95-.28,1.9-.36,2.85-.09.95.21,2.43-.07,3.3-1.12,3.59-1.8,7.33-3.03,10.88-3.82,10.96-3.85,14.28-3.85,14.28l9.17,2.21s7.12-14.45,8.25-17.72Z"/>
        <path class="cls-2" d="M125.88,100.09s.9.14,4.49-.33c3.59-.46,4.51-.86,4.51-.86,0,0-.33-7.46-.43-12.72-.13-7.23-.63-14.45-1.61-21.61-.92-6.72-1.86-13.92-5.62-19.73l-1.91-2s-5.17-1.14-6.48.85c-1.54,2.34-1.76,9.35-2.13,12.05-.09.67-.18,1.36-.27,2.05.89,2.11.59,4.48,1.2,6.67.15.56.3,1.11.45,1.67.15.33.29.67.42,1.01.77,1.97,1.27,4.07,1.82,6.12,1.22,4.57,2.04,8.92,2.46,13.63.7,7.94,3.1,13.2,3.1,13.2Z"/>
        <path class="cls-11" d="M123.09,11.74c-.14-1.74-.07-3.51-.45-5.22-.47-2.11-2.18-4.91-4.62-4.71-3.62-1.89-7.89,1.09-9.62,4.2-.27.49-.52.99-.74,1.51-.67,1.57-.79,3.07-.79,4.77,0,.87-.15,1.57-.52,2.36-.23.48-.5.94-.67,1.44-.31.94-.38,1.95-.54,2.94-.29.72-.52,1.47-.76,2.2-.27.81-.67,1.68-.75,2.53-.14,1.51,1.21,1.66,2.38,1.95,1.53.38,3.17.94,4.77,1.15.03.03.07.05.12.06,1.43.24,3.16.32,4.52-.24,1.36-.56,1.75-1.9,2.85-2.84.58-.5.96-.87,1.29-1.58.38-.81,3.65,4.69,4.17,3.96.81-1.15-.2-6.21-.22-7.64-.04-2.88-.29-5.29-.42-6.84Z"/>
        <path class="cls-10" d="M108.85,45.35c3.52.03,7.05.06,10.57.1,2.88.03,7.79-.62,7.79-.62,3.98-.95,1.75-5.61,2.64-7.95,2.48-6.5,1.65-13.65,0-15.45-1.65-1.8-8.81-3.18-13.37-2.78-4.57.41-7.39,1.39-9.72,2.6-1.68.88-.58,6.08-.14,10.68.28,2.95,1.28,8.76,2.23,13.41Z"/>
        <path class="cls-6" d="M122.25,11.34c-.05.52-.14,1.05-.26,1.56-.16.7-.51,1.37-.76,2.04-.08.22-4.48,2.28-6.1,2.43-.65.06-1.69-.02-3-1.5-.94-1.06-1.52-2.54-1.69-4.06-.09-.85-.14-1.73-.12-2.58h0c0-.1,0-.19.01-.28,0-.19.02-.38.04-.57,0-.08.02-.15.02-.23.15-1.36.54-2.64,1.27-3.7.52-.75,1.26-1.52,2.23-1.57.09-.05.19-.09.28-.13.58-.23,1.11-.29,1.61-.24.39-.04.8-.01,1.22.13,1.78.63,4.03,2.36,5.27,4.17-.11,1.51.14,3.03-.02,4.53Z"/>
        <path class="cls-6" d="M114.79,16.4l.22,3.65s.48,2.64,3.49,2.32c2.63-.27,2.72-2.5,2.72-2.5l-.16-4.8-6.26,1.33Z"/>
        <path class="cls-3" d="M117.38,9.95c-.32-.3-.95-.15-1.28.06-.17.1-.04.38.14.28.17-.1.35-.16.54-.18.18-.02.35.05.53.03.08,0,.12-.13.06-.18Z"/>
        <path class="cls-3" d="M110.96,10.55c.25-.36.9-.33,1.26-.19.18.07.11.36-.08.3-.19-.06-.37-.09-.57-.07-.18.02-.34.11-.52.13-.08,0-.14-.1-.09-.16Z"/>
        <path class="cls-5" d="M116.13,13.49c0-.08-.03-.14-.08-.19-.09-.12-.24-.17-.4-.14-.34.06-.63.25-.95.35-.21.07-.42.11-.63.17-.14.04-.32.04-.45.13-.08.05-.12.14-.13.23,0,.1.03.2.09.27.03.04.07.07.1.1.29.24.73.33,1.13.3.14-.02.27-.05.39-.09.44-.15.91-.57.91-1.05,0-.02,0-.05,0-.08Z"/>
        <path class="cls-11" d="M118.33,7.64c-.06-.06-.14-.09-.22-.12-.74-.27-1.63-.18-2.32.2-.14.07-.28.2-.26.35.02.12.13.2.24.22.11.02.23,0,.35-.02.62-.12,1.26-.18,1.89-.19.16,0,.36-.02.41-.18.03-.09,0-.19-.07-.25,0,0-.01-.01-.02-.02Z"/>
        <path class="cls-11" d="M112,8.36c.02.11-.06.23-.16.28-.1.06-.22.07-.34.09-.39.05-.79.12-1.18.22,0-.19.02-.38.04-.57,0-.08.02-.15.02-.23.41-.1.84-.12,1.25-.05.15.03.33.1.36.25Z"/>
        <path class="cls-4" d="M113.91,13.1s-.06,0-.08-.02c-.18-.1-.61-.35-.7-.56-.03-.06-.11-.24.4-2.07.03-.1.13-.15.22-.13.1.03.15.12.13.22-.21.77-.43,1.7-.41,1.85.03.04.28.23.54.36.09.05.12.16.07.24-.03.06-.09.09-.16.09Z"/>
        <path class="cls-4" d="M115.12,17.74c-.08,0-.15-.05-.17-.13-.03-.1.03-.19.13-.22.01,0,1.12-.3,1.96-.71.86-.41,1.58-.79,1.59-.79.09-.05.2-.01.24.08.05.09.01.2-.08.24,0,0-.73.38-1.6.8-.87.42-1.98.72-2.02.73-.02,0-.03,0-.05,0Z"/>
        <path class="cls-11" d="M122.81,9.18c-.11-2.07-.86-4.48-2.33-6.02-2.48-2.61-8.73-1.72-9.46,2.17-.14.18-.26.36-.36.55-.61.47-1.2.95-1.79,1.45-.2.17-.04.53.21.52.05,0,.09-.01.13-.02-.02.04-.05.07-.08.11-.03.05-.04.09-.04.14-.14.11-.26.22-.36.35-.02.03-.02.06-.01.09-.34.36-.61.76-.8,1.25-.05.12.12.19.2.12.81-.75,1.55-1.48,2.52-2.02.85-.48,1.39-1.21,2.18-1.75.81-.54,2.32-.69,3.3-1.28.14,0,1.61.98,2.29,1.41,1.13.73,1.31,1.69,1.54,2.93.19,1.08.35,2.16.5,3.24.12.85.73,6.31.73,6.31,0,0,.32-1.25.38-1.42.07-.21.09-.39.09-.56.04-.03.07-.07.1-.13.92-2.43,1.21-4.86,1.07-7.44Z"/>
        <path class="cls-6" d="M119.78,9.32s1.05-.46,1.26.99c.21,1.45-.66,2.71-.66,2.71l-.61-3.71Z"/>
        <path class="cls-10" d="M126.72,19.84s2.74.74,4.77,2.5c2.04,1.76,8.02,7.15,8.02,7.77,0,.62-2.6,6.38-3.41,6.93-.81.55-1.39.07-3.42.27-2.03.19-4.79,1.28-4.98.79-.18-.5-1.36-9.27-1.4-11.44-.04-2.18.42-6.81.42-6.81Z"/>
        <path class="cls-10" d="M109.07,20.23s-2.75.7-4.81,2.42c-2.06,1.72-8.13,7.02-8.14,7.64,0,.62,2.5,6.42,3.3,6.98.8.57,1.39.1,3.42.32,2.02.22,4.77,1.36,4.96.86s1.5-9.25,1.58-11.42c.08-2.17-.31-6.81-.31-6.81Z"/>
        <path class="cls-4" d="M97.07,37.58c-.09,0-.16-.06-.18-.15l-.18-1.31c-.01-.1.05-.19.15-.2.1-.02.19.06.2.15l.18,1.31c.01.1-.05.19-.15.2,0,0-.02,0-.02,0Z"/>
        <path class="cls-2" d="M129.81,36.77s0,0-.01,0c-.1,0-.17-.09-.16-.19,0-.02.15-1.91.87-7.54.29-2.26,1.25-4.96,1.26-4.99.03-.09.14-.14.23-.11.09.03.14.14.11.23,0,.03-.96,2.69-1.24,4.91-.71,5.62-.86,7.51-.87,7.53,0,.09-.09.17-.18.17Z"/>
        <path class="cls-2" d="M131.1,31.76s-.04,0-.06-.01c-.09-.03-.14-.14-.11-.23l1.81-5.14c.03-.09.14-.14.23-.11.09.03.14.14.11.23l-1.81,5.14c-.03.07-.1.12-.17.12Z"/>
        <path class="cls-2" d="M107.69,37.58c-.09,0-.16-.06-.18-.15,0-.06-.84-5.91-1.86-8.5-1.02-2.6-1.73-3.87-1.73-3.88-.05-.09-.02-.2.07-.24.09-.05.2-.02.24.07,0,.01.73,1.3,1.75,3.93,1.03,2.63,1.84,8.34,1.88,8.58.01.1-.05.19-.15.2,0,0-.02,0-.03,0Z"/>
        <g>
          <path class="cls-9" d="M124.75,35.15c-.48.35-11.69.24-12.13-.1-.13-.09-.22-.78-.27-1.71-.02-.47-.04-1-.05-1.55-.01-1.15.02-2.39.09-3.35.03-.38.06-.71.1-.97h0c.05-.33.11-.56.18-.64.48-.55,11.72-.48,12.13.1.15.21.24,1.26.28,2.56.01.45.02.92.02,1.4,0,2.02-.12,4.08-.37,4.26Z"/>
          <path class="cls-5" d="M119.73,28.49c-.89.84-2.36.99-3.54.78-.75-.13-1.39-.48-2.11-.68-.55-.16-1.11-.11-1.68-.15.03-.38.06-.71.1-.97h0c.54-.3,1.27-.26,1.92-.08.92.26,1.68.68,2.67.68.91,0,1.59-.36,2.48-.2.28.05.34.44.16.61Z"/>
          <path class="cls-5" d="M125.12,30.88c-2.02.54-4.33,2.15-5.59.42-.45-.62.41-1.28.98-.97,1.19.64,2.98-.38,4.59-.85.01.45.02.92.02,1.4Z"/>
          <path class="cls-5" d="M118.32,34.29c-.68.17-1.35.28-2.04.08-.7-.2-1.22-.69-1.94-.87-.58-.14-1.27-.19-1.99-.17-.02-.47-.04-1-.05-1.55,2.02-.13,4.25.69,6.03,1.23.61.18.63,1.11-.01,1.27Z"/>
        </g>
        <path class="cls-2" d="M106.54,37.44c-.05,0-.11-.02-.14-.07l-4.61-6.11c-.06-.08-.04-.19.04-.25.08-.06.19-.04.25.04l4.61,6.11c.06.08.04.19-.04.25-.03.02-.07.04-.11.04Z"/>
        <path class="cls-8" d="M120.79,71.52s-.02,0-.03,0c-.1-.02-.16-.11-.15-.21l2.03-11.6c.02-.1.11-.16.21-.15.1.02.16.11.15.21l-2.03,11.6c-.02.09-.09.15-.18.15Z"/>
        <path class="cls-8" d="M108.19,55.47c-.07,0-.13-.04-.16-.1-.04-.09,0-.2.08-.24.03-.01,2.66-1.33,3.88-4.14,1.23-2.82.98-5.35.98-5.37-.01-.1.06-.19.16-.2.1,0,.19.06.2.16.01.11.26,2.64-1.01,5.55-1.28,2.93-3.94,4.26-4.05,4.32-.03.01-.05.02-.08.02Z"/>
        <path class="cls-8" d="M125.25,98.48c.45-.51,2.74-.19,5.16-.41,2.42-.22,4.67-1.41,4.79-.85.12.57.38,1.86-.02,2.27-.4.42-7.23,2.14-9.16,1.62-.78-.21-1.23-2.13-.77-2.63Z"/>
        <path class="cls-8" d="M99.79,96.42c.62-.28,3.11,1.22,5.41,2.02,2.3.79,4.38.67,4.26,1.24s-.38,1.68-.95,1.75c-3.33.42-8.09-1.99-8.79-2.38-.71-.39-.54-2.35.08-2.63Z"/>
        <path class="cls-5" d="M120.43,9.87s-.07-.01-.1-.03c-.08-.06-.1-.17-.05-.25l.35-.5c.06-.08.17-.1.25-.05.08.06.1.17.05.25l-.35.5c-.03.05-.09.08-.15.08Z"/>
        <path class="cls-5" d="M120.65,10.51c-.07,0-.14-.05-.17-.12-.03-.09.02-.2.11-.23l.58-.2c.09-.03.2.02.23.11.03.09-.02.2-.11.23l-.58.2s-.04,0-.06,0Z"/>
        <path class="cls-2" d="M116.31,4.66c-.09,0-.17-.07-.18-.16-.05-.35.05-1.1.77-1.45.69-.34.82-.87.83-.89.02-.1.12-.16.21-.14.1.02.16.12.14.21,0,.03-.16.72-1.02,1.14-.67.33-.57,1.08-.57,1.09.01.1-.06.19-.15.2,0,0-.02,0-.02,0Z"/>
        <path class="cls-2" d="M105.26,21.11s-.05,0-.08-.02c-.09-.04-.12-.15-.08-.24,0-.02.82-1.65.97-2.3.16-.7.26-1.13,1.27-2.43.61-.78.59-1.96.58-3,0-.58-.01-1.13.08-1.57.27-1.23,1.74-3.26,1.81-3.35.06-.08.17-.1.25-.04.08.06.1.17.04.25-.01.02-1.49,2.06-1.75,3.22-.09.4-.08.93-.08,1.49.01,1.1.03,2.34-.65,3.23-.96,1.24-1.04,1.61-1.2,2.29-.16.7-.97,2.32-1,2.39-.03.06-.09.1-.16.1Z"/>
        <path class="cls-2" d="M107.91,19.76c-.09,0-.17-.07-.18-.16,0-.04-.09-.88.89-2.71.93-1.73,1.01-3.47,1.01-3.49,0-.1.1-.17.19-.17.1,0,.18.09.17.19,0,.07-.08,1.83-1.05,3.64-.91,1.7-.85,2.49-.85,2.5,0,.1-.06.19-.16.2,0,0-.01,0-.02,0Z"/>
        <path class="cls-2" d="M120.49,8.31c-.08,0-.16-.06-.18-.15,0-.02-.34-1.8-1.16-2.76-.81-.95-2.07-1.15-2.08-1.15-.1-.01-.17-.11-.15-.2.01-.1.11-.17.2-.15.06,0,1.4.22,2.3,1.27.88,1.03,1.23,2.85,1.24,2.93.02.1-.05.19-.14.21-.01,0-.02,0-.03,0Z"/>
        <path class="cls-12" d="M123.75,47.69s9.56-2.63,10.37-2.42,5.82,7.91-1.2,10.02c-6.62,1.99-9.17-7.6-9.17-7.6Z"/>
        <path class="cls-2" d="M108.63,20.36s6.3,13.15,8.09,16.47c1.52,2.81,5.99,9.53,7.31,11.51.21.32.63.41.96.22h0c.36-.21.47-.67.25-1.02-1.39-2.13-5.88-9.09-7.83-12.81-3.5-6.68-7.05-14.95-7.23-14.9-.18.06-1.55.53-1.55.53Z"/>
        <path class="cls-2" d="M130.77,51.44c-3.68,0-5.26-3.05-5.27-3.08-.04-.09,0-.2.08-.24.09-.04.2,0,.24.08.07.14,1.83,3.54,6.17,2.77,1.1-.19,1.89-.67,2.36-1.4.81-1.28.37-2.96.36-2.98-.03-.1.03-.19.13-.22.09-.03.19.03.22.13.02.07.49,1.85-.41,3.26-.52.82-1.4,1.35-2.6,1.56-.45.08-.88.12-1.28.12Z"/>
      </g>
      <g>
        <path class="cls-3" d="M19.38,64.6s-.01,0-.02,0c-.1-.01-.17-.1-.16-.2,0-.05.5-5.07-2.34-6.08-2.81-1-5.54,3.61-5.57,3.66-.05.09-.16.11-.25.06-.09-.05-.11-.16-.06-.25.12-.2,2.9-4.91,6-3.81,3.11,1.1,2.6,6.24,2.58,6.45,0,.09-.09.16-.18.16Z"/>
        <path class="cls-1" d="M30.67,53.8c.03-.2.07-.39.1-.59.36-2.29.46-4.59.33-6.89-.03-.64-.09-1.27-.16-1.9-.02-.21-.05-.42-.08-.63-.22-1.68-.56-3.36-1.02-5-.13-.46-.55-.63-.93-.58-.05-.06-.12-.12-.21-.13-.32-.04-.66-.04-1.02-.03-.43.02-.89.09-1.35.19-.77.17-1.54.45-2.18.82-.37.22-.7.46-.97.74-1.23,1.29-1.44,3.88-1.63,5.56-.16,1.38-.37,2.86-.34,4.28.03,1.19.33,2.31.51,3.48.29,1.87,1.59,2.48,3.35,2.94.27.07.98.09,1.94.08,3.34-.03,9.67-.5,10.76-1.03,1.34-.66-7.32-.03-7.1-1.3Z"/>
        <path class="cls-6" d="M47.65,122.98s.98-17.59.86-18.48c-.02-.12-.18-.13-.24-.04-.12.21-.22.43-.31.66-.5-.83-1.49-1.72-1.89-1.99-1.05-.71-2.34-.85-3.51-.46-.03-.07-.05-.15-.09-.21-.08.1-.14.21-.19.33-.09.04-.18.07-.27.11-.28.14-.18.58.08.63-.07.6-.02,1.25,0,1.76.04,1.29.2,2.57.33,3.85.21,2.12,1.74,13.74,1.74,13.74l3.5.1Z"/>
        <polygon class="cls-3" points="24.68 34.14 23 40.5 24.53 39.28 25.99 34.44 24.68 34.14"/>
        <path class="cls-6" d="M18.36,119.9s9.42-14.89,9.75-15.72c.04-.11-.1-.21-.19-.15-.21.12-.4.27-.59.43-.03-.97-.47-2.23-.69-2.66-.57-1.13-1.63-1.88-2.84-2.11.01-.08.03-.15.02-.23-.12.05-.22.11-.33.19-.1-.01-.19-.03-.29-.03-.32-.01-.44.41-.24.59-.36.49-.62,1.09-.85,1.54-.59,1.14-1.08,2.34-1.59,3.52-.85,1.96-5.17,12.84-5.17,12.84l3.01,1.79Z"/>
        <path class="cls-2" d="M41.82,56.91c-.01-1-.13-1.94-.75-2.74-1.29-1.67-3.83-2.41-5.79-2.88-2.49-.59-5.07-.65-7.59-.22,0,0,0-.01,0-.02.25-.48.65-.88.79-1.41-.93.24-1.45,1.49-1.7,2.32-.38,1.25-.4,2.61-.42,3.91-.04,3.2.18,6.29-.67,9.42-.37,1.35-.69,2.68-.8,4.08-.13,1.6-.11,3.22-.14,4.83-.04,2.05.21,4.1.08,6.15-.13,2.15-1.08,3.86-1.54,5.92-.54,2.4-.93,4.67-2.52,6.63-.72.89-1.45,1.75-1.81,2.85-.44,1.36-.53,2.77-1.07,4.11-.28.68-.62,1.34-1.02,1.96-.33.52-.82,1-1.06,1.56-.33.76.08,1.41.73,1.83,1.35.87,3.02,1.42,4.48,2.09,1.36.62,2.71,1.24,4.07,1.86.35-.56,5.82-9.14,7.72-13.09,2.08-4.33,3.89-8.8,5.39-13.37.79-2.4,1.34-4.75,1.45-7.27.05-1.26.13-2.49.42-3.73.3-1.26.71-2.5.98-3.77.52-2.45.68-4.96.73-7.47.02-1.18.03-2.37.02-3.55Z"/>
        <path class="cls-2" d="M41.12,50.64c1.09-.61,2.36-.88,3.6-.76,1.14.11,1.94.63,2.84,1.1.88-.68,2.4-.44,2.36.97,0,.25-.04.48-.1.71.08,4.23.46,25.69,0,29.82-.47,4.22-1.41,25.49-1.55,29.08-1.89-.17-3.8.01-5.68-.27-1.29-.19-3.98-.23-4.6-.81-.33-.3.15-5.87.36-8.79.11-1.45.79-2.74.96-4.17.2-1.65-.49-3.27-.87-4.85-.76-3.17-.75-6.08.11-9.22.31-1.13.06-2.32-.05-3.45-.1-.98-.28-1.95-.54-2.89-.26-.94-.84-1.68-1.14-2.61-.82-2.52-.15-4.72.01-7.41.1-1.63.55-3.19.76-4.8.22-1.71-.15-3.4-.11-5.11.06-2.65,1.25-5.22,3.64-6.55Z"/>
        <g>
          <path class="cls-6" d="M62.19,27.04l-.3.73-.21.51-.14.34c-1.39,3.56-2.77,7.11-4.16,10.67-.91,2.34-2.07,6.47-5.22,6.44-.42,0-.83-.1-1.21-.3-.23-.11-.43-.25-.61-.41-.12-.11-.24-.23-.34-.36-.01-.01-.02-.02-.03-.03-.65-.83-.82-1.98-.37-2.98.04-.1.09-.2.15-.3l.53-.89,2.59-4.38.04-.07.25-.43,5.26-8.89.18-.31.47-.8.5-.85,2.61,2.31Z"/>
          <path class="cls-6" d="M44.96,30.41c.8-.99,1.64-1.93,2.58-2.78,1.11-.99,2.47-1.54,2.47-1.54l4.14,14.22-4.46,4.59s-3.95-9.18-5.3-13.84c.2-.22.39-.44.57-.65Z"/>
        </g>
        <path class="cls-6" d="M65.83,22.06c-.1,0-.18.05-.27.1-.39.25-.75.55-1.08.88.38-.39,1.29-1.6,1.49-2.11.12-.29.36-1.07-.15-1.03-.15.01-.27.14-.38.26-.68.77-1.35,1.54-2.01,2.32.55-.88,1.1-1.76,1.64-2.63.11-.17.23-.36.24-.57.02-.21-.11-.44-.31-.48-.23-.04-.42.17-.56.36l-2.18,2.95c.51-.84,1.02-1.68,1.51-2.53.08-.13.16-.29.1-.44-.06-.15-.26-.21-.41-.16-.15.04-.28.16-.4.27-.99.99-1.7,2.22-2.41,3.43.09-.53.2-1.05.27-1.58.05-.4-.4-1.05-.98.04-.27.51-.52,1.03-.67,1.59-.18.7-.37,1.41-.33,2.14.02.24.05.47.11.7.06.26.14.52.22.78.06.19.13.39.2.58.09.22.2.44.34.63.03.04.06.09.1.13.24.27.58.48.93.51.13.02.26,0,.39-.03.05-.01.1-.04.15-.06.18-.08.33-.21.47-.35.09-.08.17-.17.25-.26,1.11-1.23,1.5-1.77,2.6-3,.48-.53.97-1.08,1.27-1.73.06-.13.12-.28.1-.42s-.13-.29-.27-.3Z"/>
        <path class="cls-6" d="M26.37,34.08l-4-3.5s-.87,1.27-1.86,2.74c-.98,1.47-2.08,3.13-2.56,3.97-1.24,2.15-1.35,4.56-1.55,6.98-.22,2.74-.93,10.86-.93,10.86l3.49.53s.04-.32.11-.88c0,0,0,0,0,0,.35-2.67,1.53-10.68,3.42-14.1.7-1.27,1.96-3.19,2.91-4.59.27-.4.52-.76.71-1.05,0,0,0,0,0,0,.31-.46.51-.74.51-.74l-.26-.22Z"/>
        <path class="cls-6" d="M19.7,55.77c-.48-.91-1.15-1.7-1.92-2.39-.02-.02-.04-.04-.06-.05.21.54-.87.28-1.23.48-.46.27-.83.83-1.02,1.32-.3.8-.32,1.67-.45,2.52-.04.27-.14.62-.02.89.15.37.61.42.86.7.1.11.14.26.23.38.24.31.52.3.84.37.29.06.58.18.88.18.93,0,.93-1.31,1.07-1.94,0,.6,0,1.2,0,1.79,0,.15,0,.32.09.45.55.84.87-.91.92-1.25.16-1,.3-2.52-.19-3.45Z"/>
        <g>
          <path class="cls-3" d="M36.59,10.52c.23-.22.44-.36.57-.66,0-.02-.02-.03-.03-.02-.26.2-.54.25-.8.36-.11-.07-.22-.15-.32-.24-.06-.05-.11-.1-.17-.15.18-.08.37-.14.54-.15.23-.01.34-.39.07-.44-.79-.13-1.52.56-2.15.99-.25.17-.71.4-1.05.69.13.37.7,1.51.81,1.71.18.32,2.36,4.01,2.36,4.01,0,0,.21-.3.18-.48-.2-1.32-.46-2.68-.54-4.01-.03-.56.02-1,.34-1.41.11-.02.19-.12.21-.23Z"/>
          <path class="cls-6" d="M46.23,13.39c-.12,1.28-.75,2.54-1.66,3.48-.99,1.03-2.46,1.12-2.46,1.12l-.06.9-.02.36-.29,4.09-5.54-.76s.14-2.06.2-3.89c0-.12,0-.24.01-.36.02-.65.02-1.26,0-1.7h0s0,0,0,0c0-.2-.02-.37-.04-.5-.32-.74-.73-1.53-1.11-2.33-.09-.6-.2-1.2-.23-1.81-.04-.79.03-1.57.1-2.36.06-.61.1-1.21.09-1.82,1.24-1.61,3.39-3.09,5.07-3.6.38-.11.77-.12,1.13-.06.46-.04.95.05,1.47.29.09.04.17.08.25.13.89.09,1.54.84,1.97,1.55.22.36.41.72.57,1.08,0,0,0,0,0,.01.15.36.28.72.38,1.08,0,.04.02.09.03.13.01.04.02.08.02.11.05.19.09.39.12.59,0,.01,0,.02,0,.03.22,1.33.13,2.69-.01,4.24Z"/>
          <path class="cls-3" d="M41.4,10.93c0-.16-.03-.33-.1-.42-.26-.32-.55.14-.51.5.03.19.2.38.38.32.15-.05.22-.22.23-.4Z"/>
          <path class="cls-3" d="M45.7,10.99c.02-.15,0-.32-.07-.42-.23-.33-.54.09-.53.44,0,.19.16.39.34.34.14-.04.22-.19.25-.36Z"/>
          <path class="cls-5" d="M44.05,14.74s-.04.08-.07.12c-.12.16-.3.28-.48.37-.32.14-.69.17-1.02.07-.34-.09-.64-.3-.84-.58-.06-.08-.1-.16-.11-.26h0c0-.1.04-.2.12-.24.02,0,.04-.01.06-.02.03,0,.06,0,.09,0,.29.01.57.12.86.17.29.04.59.04.88,0,.1-.01.2-.03.3-.01.1.02.2.08.23.17.02.06,0,.14-.02.2Z"/>
          <path class="cls-3" d="M41.73,8.47c-.12-.06-.25-.08-.38-.09-.42-.03-.85.05-1.24.21-.14.06-1.14.55-.62.72.11.03.23,0,.33-.04.51-.15,1.04-.21,1.57-.17.19.01.43.02.53-.14.09-.14.03-.33-.1-.44-.03-.02-.05-.04-.08-.05Z"/>
          <path class="cls-3" d="M46.24,9.16c-.43-.07-.88-.07-1.31,0-.19.03-.42.06-.54-.09-.1-.13-.05-.33.07-.44.03-.02.05-.04.08-.06.11-.07.25-.1.38-.12.41-.06.83-.02,1.21.1.05.2.09.39.12.59,0,.01,0,.02,0,.03Z"/>
          <path class="cls-4" d="M43.89,13.21s-.08-.01-.12-.04c-.08-.06-.08-.18-.02-.25.15-.18.31-.44.3-.54-.02-.16-.28-1.02-.44-1.53-.03-.09.02-.2.12-.23.1-.03.2.02.23.12.04.14.43,1.35.46,1.59.03.29-.29.69-.39.81-.04.04-.09.06-.14.06Z"/>
          <path class="cls-4" d="M41.56,18.26s-.02,0-.04,0c-.03,0-.84-.17-1.36-.39-.52-.23-.98-.6-1-.62-.08-.06-.09-.18-.02-.25.06-.08.18-.09.25-.02,0,0,.44.36.92.57.48.21,1.28.37,1.28.37.1.02.16.11.14.21-.02.09-.09.14-.18.14Z"/>
          <path class="cls-3" d="M46.31,3.91c-.22-.27-.47-.5-.75-.71-.19-1.13-.84-2.08-2.09-2.38-.86-.2-1.89-.22-2.85-.02-.93-.28-1.9-.39-2.84-.17-.51.12-1,.33-1.5.49-.56.18-1.14.3-1.68.52-.76.31-1.44.84-1.94,1.5-.57.76-.41,1.67-.72,2.52-.29.8-1.03,1.41-1.14,2.25-.09.74.37,1.48,1.01,1.85.09.05.19.1.25.18.06.09.08.2.11.3.1.34.41.62.76.68.51.1,1-.2,1.5-.31.16-.03.32-.05.48-.05,0,.1,0,.2.01.3-.15.02-.3.18-.28.36.16,1.22.32,2.42.76,3.57.05.05.1.11.14.16.1.13.19.26.28.39.04,0,.07-.01.11-.03.01.07.02.14.03.22.13.19.44,1.1.44,1.1l-.13-3.82s-.51-.83-.6-1.3c-.09-.43-.05-.91.22-1.27.31-.42.85-.59,1.24-.93.52-.45.66-1.23.95-1.83.31-.26.7-.39,1.22-.45.5-.07,1.01.04,1.5,0,1.34-.12,1.35-.57,2.31-.95.45-.18,1.03-.29,1.5-.1.49.19.57.58.9.91.05.11.11.22.17.33.1.19.34.2.49.08,1.07-.87.95-2.37.14-3.38Z"/>
          <path class="cls-1" d="M44.05,14.74s-.04.08-.07.12c-.12.16-.3.28-.48.37-.32.14-.69.17-1.02.07-.34-.09-.64-.3-.84-.58-.06-.08-.1-.16-.11-.26h0c.19.14.6.33,1.46.32.48,0,.83-.02,1.07-.04Z"/>
        </g>
        <path class="cls-7" d="M50.33,44.24c0-1.28-.02-2.56-.06-3.79-.04-1.01-.08-1.98-.15-2.9-.3-3.98-.71-7.97-1.25-10.89-.36-1.94-.77-3.4-1.25-4.09-.27-.39-.84-.8-1.57-1.19-.05-.03-.11-.05-.16-.08-.21-.11-.44-.21-.68-.31,0,0-.01,0-.01,0-.26-.11-.54-.22-.83-.32-.23-.08-.47-.16-.71-.24-.14-.04-.29-.08-.43-.13-.28-.08-.56-.15-.84-.21-.14-.03-.28-.06-.42-.09-.52-.11-1.02-.18-1.51-.23-.35-.03-.69-.06-1.01-.09-.11,0-.22-.02-.32-.03s-.21-.02-.31-.03c-.1,0-.2-.02-.3-.02-.32-.03-.62-.05-.91-.07-.12,0-.24-.02-.35-.02-.31-.02-.61-.03-.9-.04-1.54-.04-2.81.06-4.21.4-.54.13-1.1.3-1.7.52-1.17.42-2.36,1.01-3.21,1.89-1.39,1.25-2.51,2.97-3.41,4.44-1.64,2.67-4.02,5.04-3.81,6.04.03.15.21.34.5.56.97.76,3.15,1.88,4.88,2.78.13.07.26.13.39.2,1.1.58,1.94,1.03,2.06,1.21.01.02.02.06.03.12.07.66-.41,3.68-.98,6.81-.6,3.33-1.29,6.78-1.5,7.58-.03.11.48.21,1.3.32.66.09,1.52.18,2.46.27.37.04.76.07,1.15.11,2.13.2,4.47.42,5.91.67.62.11,1.3.25,2.03.41h0c.98.22,2.03.49,3.09.77,4.23,1.13,8.57,2.52,8.57,2.52,0,0,.31-4.62.41-9.94h0c.01-.71.02-1.41.02-2.12,0-.26,0-.52,0-.77Z"/>
        <path class="cls-7" d="M53.14,35.74c-.1.41-1.53,1.15-3.02,1.82-1.65.75-3.36,1.4-3.36,1.4,0,0-1.1-8.72-1.04-8.98.04-.21-.31-5.73-.45-8.02-.04-.6-.06-.97-.06-.97,0,0,0,0,.01,0,.06.01.33.1.72.27,1.29.59,3.96,2.27,5.04,6.43,1.15,4.4,2.37,7.18,2.17,8.04Z"/>
        <path class="cls-6" d="M45.92,21.27s-.03.03-.04.04c-.19.2-.4.42-.63.65-1.73,1.79-4.33,4.37-4.9,4.28-.76-.12-6.66-5.07-8.21-6.37,2.46-.61,4.52-.46,8.31-.1,1.55.15,3.32.62,4.74,1.22,0,0,0,0,.01,0,.06.01.33.1.72.27Z"/>
        <path class="cls-2" d="M40.17,88.27c-.15-.58-.3-1.14-.45-1.7.05-.1.09-.22.11-.35.01-.1.02-.2.02-.31,0-.03.01-.06.01-.09.07-1.19-.07-2.3-.4-3.38-.24-1.91-.52-3.81-.89-5.7-.43-2.2-.71-5.2-2.49-6.78-.57-.51-1.43-.17-1.48.6-.2,2.73.74,5.21,1.28,7.84.51,2.51-.12,5.04.56,7.51.34,1.23.67,2.47.84,3.74.15,1.1-.02,2.22-.03,3.32-.02,1.97.62,3.8.85,5.74.14,1.23.21,2.47.21,3.7,0,0,.3.71.42.54,1.39-2.03,1.23-4.12.74-6.46-.34-1.63-.65-3.17-.6-4.85.04-1.38.05-2.65-.26-3.99.22.38.46.74.74,1.09.32.41.96-.03.84-.48Z"/>
        <path class="cls-7" d="M49.9,51.5c-.43-3.31.02-5.37-1.1-8.54-.23-.64-1.09-.62-1.28-.03-.34-.12-.74-.17-1.15-.2-2.16-.14-4.39.07-6.54.24-2.06.17-4.12.4-6.18.65-.48.06-1.07.18-1.7.28-1.39.23-2.98.4-3.96-.28.03-.13.06-.25.08-.39.37-2.75.59-4.88,2.57-7.03.5-.54-.23-1.25-.79-.8-.8.65-1.47,1.4-2,2.23-.77,1.21-1.24,2.59-1.38,4.08-.1,1.05-.23,1.59-.79,2.6-.06.1-.11.21-.16.32-.95,1.91-1.1,4.34-.56,7.69.27,1.66-.74,3.45-.89,5.06-.15,1.67.73,2.28,1.91,2.45.12.02.24.03.37.04.65.04,1.37-.02,2.05-.09.52-.05,1.04-.12,1.55-.18.99-.11,1.98-.21,2.99-.21,1.56,0,3.07.03,4.61-.16.15-.02.3-.04.45-.06,1.87-.27,2.77-.43,3.81-.63.77-.15,1.61-.32,2.96-.59,1.12-.22,5.11-.87,5.11-.87,0,0,.12-4.66,0-5.59Z"/>
        <path class="cls-3" d="M42.05,18.89l-.02.36c-1.33-.13-4.55-.46-5.64-.56,0-.12,0-.24.01-.36,1.06.11,4.3.43,5.65.56Z"/>
        <path class="cls-1" d="M54.15,125.8c-.56.12-9.67-.14-9.96-.48-.08-.1-.15-.41-.21-.81-.14-1.01-.02-3.04-.02-3.04,0,0,1.35.25,2.39-.38,1.35-.81,1.43-1.29,2.05-1.01,1.84.81,2.88,2.04,4.13,2.71,1.24.66,1.78,1.58,1.88,2.23.07.42-.04.73-.26.77Z"/>
        <path class="cls-8" d="M54.15,125.8c-.56.12-9.67-.14-9.96-.48-.08-.1-.15-.41-.21-.81l10.43.51c.07.42-.04.73-.26.77Z"/>
        <path class="cls-1" d="M22.85,125.58c-.55-.17-8.56-4.88-8.65-5.32-.03-.13.06-.43.21-.8.37-.95,1.46-2.66,1.46-2.66,0,0,1.06.87,2.27.83,1.57-.05,1.88-.43,2.29.11,1.21,1.61,1.7,3.24,2.47,4.43.76,1.18.79,2.24.56,2.86-.14.4-.39.62-.61.55Z"/>
        <path class="cls-8" d="M22.85,125.58c-.55-.17-8.56-4.88-8.65-5.32-.03-.13.06-.43.21-.8l9.05,5.58c-.14.4-.39.62-.61.55Z"/>
        <path class="cls-14" d="M7.6,60.95c.9-.31,14.52,3.75,15.22,4.47.7.72-3.95,20.95-4.85,21.48-.9.53-17.51-4.23-17.95-5.4-.44-1.17,6.68-20.24,7.58-20.55Z"/>
        <path class="cls-2" d="M41.46,12.76h-.01c-.85,0-1.54-.84-1.53-1.85,0-.48.16-.94.45-1.28.29-.35.68-.54,1.1-.54h.01c.85,0,1.54.84,1.53,1.85,0,1.01-.7,1.83-1.55,1.83ZM41.47,9.44c-.31,0-.6.15-.82.41-.23.28-.36.65-.37,1.06,0,.82.52,1.48,1.18,1.49h0c.65,0,1.19-.66,1.19-1.47h.18s-.18,0-.18,0c0-.82-.52-1.48-1.18-1.49h0Z"/>
        <path class="cls-2" d="M45.71,12.75h-.01c-.85,0-1.54-.84-1.53-1.85,0-.49.16-.94.45-1.28.3-.35.69-.54,1.11-.54.42,0,.79.2,1.06.57.25.34.38.79.38,1.28,0,.49-.15.94-.4,1.28-.27.35-.65.55-1.06.55ZM45.71,9.43c-.31,0-.6.15-.82.41-.23.28-.36.66-.37,1.06,0,.82.52,1.48,1.18,1.49.38,0,.64-.22.78-.41.21-.27.32-.65.33-1.06h0c0-.41-.11-.79-.31-1.07-.14-.19-.39-.42-.77-.42h0Z"/>
        <path class="cls-2" d="M44.35,10.98h-1.51c-.1-.01-.18-.09-.18-.19,0-.1.08-.18.18-.18h1.51c.1.01.18.09.18.19,0,.1-.08.18-.18.18Z"/>
        <path class="cls-2" d="M40.11,10.89s-.03,0-.05,0l-3.83-.99c-.1-.02-.15-.12-.13-.22.02-.1.12-.15.22-.13l3.83.99c.1.02.15.12.13.22-.02.08-.09.13-.17.13Z"/>
        <path class="cls-8" d="M37.33,85.89s-.03,0-.05,0c-.1-.03-.15-.12-.13-.22.1-.4,2.56-9.76,3.26-11.57,1.15-2.98,3.52-6.97,3.54-7.01.05-.08.16-.11.25-.06.08.05.11.16.06.25-.02.04-2.38,4.01-3.52,6.96-.69,1.79-3.22,11.43-3.24,11.53-.02.08-.09.13-.17.13Z"/>
        <polygon class="cls-3" points="61.67 28.28 61.53 28.62 60.87 28.21 59.83 27.57 58.42 26.69 58.6 26.38 59.49 26.94 61.41 28.12 61.67 28.28"/>
        <path class="cls-4" d="M51.28,39.46s-.05,0-.08-.02c-.09-.04-.13-.15-.08-.24l1.28-2.68c.04-.09.15-.13.24-.08.09.04.13.15.08.24l-1.28,2.68c-.03.06-.09.1-.16.1Z"/>
        <path class="cls-2" d="M28.53,37.46s-.05,0-.08-.02c-.09-.04-.13-.15-.08-.24l2.06-4.17c.04-.09.15-.13.24-.08.09.04.13.15.08.24l-2.06,4.17c-.03.06-.09.1-.16.1Z"/>
        <path class="cls-3" d="M30.79,20.22s1.2,9.83-.14,15.98c-1.34,6.16-5.68,13.96-6.58,15.44-.9,1.48-1.57,2.24-1.48,2.38s1.03.67,1.03.67c0,0,6.26-9.71,7.96-16.65,1.09-4.44,1.21-8.06,1.14-11.94-.04-2.11-.57-6.22-.57-6.22l-1.35.35Z"/>
        <path class="cls-3" d="M44.87,20.86s2.85,9.12,3.57,13.49c.66,4.03,1.9,12.28,1.9,12.28v-2.9s-.06-7.49-1.28-12.63c-1.23-5.14-2.81-9.68-2.81-9.68,0,0-.36-.23-.78-.38-.42-.15-.59-.18-.59-.18Z"/>
      </g>
      <g>
        <path class="cls-3" d="M99.55,67.86s-.01,0-.02,0c-.1-.01-.17-.1-.16-.2.02-.23.62-5.67,3.89-5.95,3.28-.27,4.94,4.61,5.01,4.82.03.09-.02.2-.11.23-.09.03-.2-.02-.23-.11-.02-.05-1.63-4.81-4.64-4.57-2.98.25-3.56,5.57-3.57,5.63,0,.09-.09.16-.18.16Z"/>
        <path class="cls-1" d="M92.45,68.43c.69-.65,20.76-2.38,21.7-2.01.93.37,2.98,19.22,2.52,19.91-.46.69-23,2.37-23.7,1.87s-1.21-19.12-.51-19.77Z"/>
        <path class="cls-6" d="M92.15,22.79c-1.55,1.1-2.08,3.99-1.98,5.8.16,2.78.68,4.88,1.3,7.58.41,1.8.77,3.8,1.19,5.6.61,2.67.85,5.4,2.06,7.89,1.14,2.35,5.68,10.51,5.68,10.51l2.38-1.84s-1.3-4.56-1.7-5.8c-1.03-3.16-1.4-4.61-2.79-7.63-.09-.19-.18-.38-.24-.58-.38-1.21-2.32-15.18-2.32-15.18,0,0-.79-1.38-3.88-4.38.12-.24.25-.48.4-.71.12-.18.09-1.4-.09-1.27Z"/>
        <path class="cls-6" d="M106.39,62.1c.93-.67-.65-1.93-1.02-2.35-.68-.78-1.6-1.66-2.7-1.72-.44-.02-.9.1-1.34.44-.56.42-1.03,1.51-1.03,1.51.11.55.68,5.2,1.86,4.23.03.06.12.13.17.17.13.1.27.18.44.21.15.02.28,0,.38-.06.02-.01.41.12.51.11.23-.03.45-.17.56-.38.22-.43-.09-1.18-.12-1.64.09.31.2.61.32.91-.06.55.62.83,1.01.48.27-.24.27-.61.09-.88-.19-.73-.41-1.46-.71-2.12.07.16.27.43.52.66.36.34.8.62,1.07.43Z"/>
        <path class="cls-6" d="M67.49,118.54s5.66-18.38,5.75-19.26c.01-.12-.15-.17-.22-.09-.17.17-.32.37-.45.57-.29-.92-1.05-2.02-1.37-2.38-.85-.94-2.07-1.38-3.3-1.27,0-.08-.02-.15-.04-.23-.1.08-.19.17-.26.27-.1.02-.19.03-.29.05-.31.07-.31.52-.07.63-.21.56-.31,1.22-.41,1.71-.26,1.26-.41,2.54-.59,3.82-.29,2.11-1.95,15.26-1.95,15.26l3.22.92Z"/>
        <path class="cls-6" d="M92.24,119.05s.98-17.59.86-18.48c-.02-.12-.18-.13-.24-.04-.12.21-.22.43-.31.66-.5-.83-1.49-1.72-1.89-1.99-1.05-.71-2.34-.85-3.51-.46-.03-.07-.05-.15-.09-.21-.08.1-.14.21-.19.33-.09.04-.18.07-.27.11-.28.14-.18.58.08.63-.07.6-.02,1.25,0,1.76.04,1.29.2,2.57.33,3.85.21,2.12,1.74,13.74,1.74,13.74l3.5.1Z"/>
        <path class="cls-2" d="M92.31,22.23s1.51,1,2.84,3.81c1.33,2.81,4.1,8.09,3.74,8.7-.36.61-6.77,3.29-7.26,3.37-.49.08-2.75-4.92-2.77-5.19-.02-.27-2.28-6.52-1.86-6.98.42-.46,5.3-3.7,5.3-3.7Z"/>
        <path class="cls-14" d="M79.05,17.8c1.06.27,2.31.08,3.34.04.62-.03,1.22,0,1.83.05,1.01-.12,1.99-.3,3-.49.35-.63-.09-1.57-.09-2.33,0-1.58.46-3.02,0-4.59-.49-1.67-.42-3.26-.59-4.97-.12-1.22-.54-2.32-1.38-3.23-1.67-1.79-4.6-2.57-7.05-2.17-1.14.1-2.3.45-3.21.91-1.96.68-3.52,3.31-3.93,5.07-.24,1.01-.02,1.82-.51,2.82-.26.53-.59.92-.64,1.54-.08.82.28,1.36-.07,2.2-.34.82-.75,1.52-.95,2.4-.02.1-.02.21-.01.31.97.34,1.88.82,2.91,1.04,1.24.27,2.47.58,3.71.85,1.18.26,2.43.55,3.65.55Z"/>
        <path class="cls-5" d="M74.3,15.15c-.33,0-.86-.05-1.05-.25-.08-.08-.29-.3.79-3.57l.17-.51.17.5c.73,2.15,1.01,3.35.82,3.58-.15.18-.51.24-.78.25-.04,0-.07,0-.12,0ZM73.53,14.66c.11.07.47.15.88.13.36-.02.5-.09.52-.12.05-.19-.3-1.47-.71-2.72-.39,1.22-.72,2.44-.69,2.71Z"/>
        <path class="cls-6" d="M84.68,11.61c-.24,1.21-1.24,2.62-1.24,2.62l.33,4.65-5.9,2.46-.46-4.73s-1.18-.41-2.39-1.81c-.85-.98-1.41-2.19-1.51-3.47-.12-1.55-.19-2.94.05-4.27.04-.23.09-.46.15-.69.01-.04.03-.09.04-.13.2-.72.52-1.43.98-2.15.42-.66.96-1.19,1.7-1.47,1.62-.61,3.38-.43,5.04-.14.26.05.66.06.87.23,1.93,1.49,2.56,3.92,2.56,6.25,0,.61.01,1.44-.22,2.65Z"/>
        <path class="cls-4" d="M76.26,11.82c-.05,0-.11-.02-.14-.07-.03-.04-.28-.36-.35-.61-.07-.24.33-1.17.67-1.91.04-.09.15-.13.24-.09.09.04.13.15.09.24-.32.68-.66,1.52-.65,1.68.04.14.22.4.28.48.06.08.05.19-.03.25-.03.03-.07.04-.11.04Z"/>
        <path class="cls-3" d="M79.32,8.71c0-.16.03-.33.11-.42.27-.32.55.14.5.51-.03.19-.21.38-.39.32-.15-.05-.21-.22-.22-.4Z"/>
        <path class="cls-3" d="M74.23,8.93c-.02-.16,0-.32.07-.41.23-.33.54.09.52.45-.01.19-.17.38-.35.33-.14-.04-.22-.2-.24-.37Z"/>
        <path class="cls-14" d="M81.55,6.78c-.39-.3-.87-.47-1.36-.49-.37,0-.74.08-1.08.24-.14.07-.31.13-.33.3-.02.16.14.31.28.35.19.05.39-.01.59-.04.51-.09,1.03,0,1.53.11.11.02.22.05.33.03.11-.02.21-.11.22-.22,0-.12-.08-.21-.18-.29Z"/>
        <path class="cls-14" d="M75.2,6.8c.02.16-.14.31-.29.35-.19.05-.39-.02-.58-.06-.25-.05-.51-.05-.77-.03.04-.23.09-.46.15-.69.01-.04.03-.09.04-.13.02,0,.04,0,.05,0,.37,0,.75.09,1.07.26.14.07.31.14.33.3Z"/>
        <path class="cls-5" d="M82.51,15.15c-.33,0-.86-.05-1.05-.25-.08-.08-.29-.3.79-3.57l.17-.51.17.5c.73,2.15,1.01,3.35.82,3.58-.15.18-.51.24-.78.25-.04,0-.07,0-.12,0ZM81.73,14.66c.11.07.47.14.88.13.36-.02.5-.09.52-.12.05-.19-.3-1.47-.71-2.72-.39,1.22-.72,2.44-.69,2.71Z"/>
        <path class="cls-4" d="M77.68,16.81c-.07,0-.14-.05-.17-.12-.03-.09.02-.2.11-.23l3.07-1.08c.09-.03.2.02.23.11.03.09-.02.2-.11.23l-3.07,1.08s-.04.01-.06.01Z"/>
        <path class="cls-14" d="M85.69,10.65c.04-1.94-.53-4.51-1.47-6.11-.84-1.42-1.68-2.74-3.47-2.89-1.96-.15-4.11.55-5.79,1.53-.13.08-.41.4-.37.48-.14.09-.02.31.15.29.06,0,2.15,1.94,2.97,3.13.65.95,1.43,1.45,2.4,2.05,1.49.92,1.81,2.06,2.71,3.4.21.32.45.58.72.8-.06.53-.11.88-.11.88,0,0,.28-.19.64-.52.25.14.52.26.81.35.39.13.74-.24.67-.62-.08-.4-.21-.72-.38-1,.25-.39.44-.82.48-1.27.07-.04.14-.09.2-.14.16-.14.02-.39-.17-.36Z"/>
        <path class="cls-2" d="M92.55,29.36c.01-2.34.02-4.69-.16-7.03.05.02-.35-.34-.59-.51-3.07-2.26-6.94-3.15-10.71-2.85-.99.08-1.98.19-2.97.34-2.72.41-7.4,1.96-9.46,3.73-.78.67,1.57,1.29,1.66,2.21.07.83-9.05,31.52-11.06,36.46-1.98,4.86-3.99,9.56-5.85,14.46-1.91,5.02-4.8,15.69-4.8,15.69,0,0,15.3,4.64,21.07,5.71,7.62,1.4,24.96,3.1,26.34,2.17,1.38-.93.02-21.05.17-27.74.71-30.26-3.65-40.74-3.64-42.65Z"/>
        <path class="cls-12" d="M93.5,87.23c-.31-7.34.54-13.22.21-20.55-.17-3.68-.82-8.26-1.17-11.93-.27-2.87-.67-5.9-1.87-8.55.09-.09.16-.23.14-.36-.15-1.08-1.15-1.35-2.11-1.53-2.02-.37-4.15-.38-6.19-.34-2.16.05-8.24,2.46-8.24,2.46,0,0-3.05,2.17-4.07,6.89-.29,1.36-3.18,11.77-3.69,14.04-1.01,4.59-1.5,9.27-2.19,13.92-.58,3.85-1.62,7.64-2.26,11.48-.47,1.93-.86,3.88-1.27,5.82-.43,2.07-1.19,4.07-1.69,6.13-.39,1.61-1.73,5.05-.06,6.31,1.3.99,3.51,1.36,5.09,1.58,2.02.28,4.08.23,6.11.18,2.84-.08,5.82.5,8.55,1.24,2.71.74,5.47,1.65,8.3,1.07,2.38-.49,5.4-.31,5.4-.31,0,0,1.17-23.95,1.01-27.55Z"/>
        <path class="cls-5" d="M77.6,19.4s-4.24,26.08-3.5,27.03,9.87.95,9.87.95c0,0,5.72,7.09,6.31,5.5.6-1.59,0-4.64,1-5.2,1.01-.56,1.29-6.49.72-9.82-2.14-12.48-7.88-18.87-7.88-18.87l-.35-.11-6.09.5-.08.02Z"/>
        <path class="cls-6" d="M77.68,19.38s3.74,9.53,4.46,9.6c.72.07,1.63-10.1,1.63-10.1,0,0-2.39-1.02-2.5-1.02-.11,0-3.59,1.53-3.59,1.53Z"/>
        <path class="cls-5" d="M86.33,13.02s-.06,0-.09-.02c-.06-.03-1.56-.86-3.08-2.52-1.5-1.64-4.24-4.82-4.27-4.85-.06-.07-.06-.19.02-.25.07-.06.19-.06.25.02.03.03,2.77,3.21,4.26,4.84,1.47,1.61,2.97,2.43,2.98,2.44.09.05.12.16.07.24-.03.06-.09.09-.16.09Z"/>
        <path class="cls-5" d="M85.82,10.23h0c-.13,0-.2-.07-.72-.56-.21-.2-.5-.48-.89-.84-1.16-1.09-2.54-3.31-2.6-3.4-.05-.08-.03-.19.06-.25.08-.05.19-.03.25.06.01.02,1.42,2.27,2.54,3.33.39.37.68.64.89.85.27.26.45.43.51.47.08.02.14.09.14.18,0,.1-.08.18-.18.18ZM85.82,9.87h0,0Z"/>
        <path class="cls-5" d="M70.18,15.4s-.04,0-.06,0c-.09-.03-.14-.13-.11-.23,0,0,.31-.89.64-1.93.33-1.01.67-2.81.67-2.83.02-.1.11-.16.21-.14.1.02.16.11.14.21-.01.07-.35,1.84-.69,2.88-.34,1.04-.64,1.93-.64,1.93-.03.07-.1.12-.17.12Z"/>
        <path class="cls-14" d="M77.93,46.52c-.05,0-.1-.02-.14-.07-.03-.03-.67-.86-1.28-4.46-.61-3.57-.26-9.55-.26-9.61,0-.1.1-.17.19-.17.1,0,.17.09.17.19,0,.06-.35,6,.26,9.52.6,3.46,1.21,4.29,1.21,4.29.06.08.05.19-.03.25-.03.03-.07.04-.11.04Z"/>
        <path class="cls-14" d="M80.76,46.54s-.1-.02-.13-.06c-.04-.05-1.1-1.25-1.91-3.36-.82-2.1-.99-4.85-1-4.96,0-.1.07-.18.17-.19.1,0,.18.07.19.17,0,.03.18,2.81.98,4.86.79,2.04,1.84,3.24,1.85,3.25.07.07.06.19-.02.25-.03.03-.08.05-.12.05Z"/>
        <g>
          <path class="cls-6" d="M64.27,117.62l3.32.61s1.78,2.49,2.89,3.33c1.25.95,2.02,1.61,1.74,2.4-.26.75-1.52.51-2.86.14-1.34-.37-6.09-1.76-6.31-2.23-.5-1.1,1.21-4.25,1.21-4.25Z"/>
          <path class="cls-2" d="M69.19,124.11s-.07,0-.1-.03c-.08-.05-.1-.17-.05-.25l1.54-2.31c.05-.08.17-.1.25-.05.08.05.1.17.05.25l-1.54,2.31c-.03.05-.09.08-.15.08Z"/>
          <path class="cls-2" d="M68.43,123.89s-.07,0-.1-.03c-.08-.05-.1-.17-.05-.25l1.71-2.56c.05-.08.17-.1.25-.05.08.05.1.17.05.25l-1.71,2.56c-.03.05-.09.08-.15.08Z"/>
          <path class="cls-2" d="M71.88,124.33s-9.02-2.85-9.16-2.77c-.15.08-.26.54-.18.69.08.15,8.92,2.76,9.06,2.7.13-.05.29-.62.29-.62Z"/>
        </g>
        <g>
          <path class="cls-6" d="M88.71,118.71l3.49-.18s2.43,1.87,3.73,2.35c1.47.54,2.4.96,2.37,1.79-.03.79-1.3.93-2.69.96-1.39.03-6.34.09-6.69-.3-.8-.91-.21-4.62-.21-4.62Z"/>
          <path class="cls-2" d="M95.4,123.71s-.03,0-.05,0c-.09-.03-.15-.13-.12-.22l.8-2.66c.03-.09.13-.15.22-.12.09.03.15.13.12.22l-.8,2.66c-.02.08-.09.13-.17.13Z"/>
          <path class="cls-2" d="M94.6,123.71s-.03,0-.05,0c-.09-.03-.15-.13-.12-.22l.89-2.94c.03-.09.13-.15.22-.12.09.03.15.13.12.22l-.89,2.94c-.02.08-.09.13-.17.13Z"/>
          <path class="cls-2" d="M98.08,123.13s-9.46-.11-9.57.01c-.12.12-.09.6.02.71.12.12,9.34.05,9.45-.04s.1-.68.1-.68Z"/>
        </g>
        <g>
          <path class="cls-6" d="M69.28,32.34s-2.45,2.61-3.05,3.2c-2.97,2.89-4.12,6.49-4.99,9.15-.86,2.61-2.01,8.06-2.01,8.06,0,0-1.42,0-1.51-.01-.42-.06-1.34-.01-1.62-.43l-.38-.56s1.15-7.1,1.59-9.64c.39-2.25.71-4.5,2.05-6.41,1.37-1.95,3.08-3.93,4.84-5.54.05-.05.12-.06.18-.05.06-.07.15-.12.26-.1,1.55.3,4.65,2.32,4.65,2.32Z"/>
          <path class="cls-6" d="M58.27,57.07c-.01.14-.02.3.04.43.44.84.89-.78.97-1.09.23-.92.5-2.34.12-3.25-.37-.89-.93-1.69-1.59-2.4-.02-.02-.03-.04-.05-.06.15.52-.83.18-1.19.35-.45.21-.85.71-1.07,1.15-.35.72-.49,1.34-.69,2.12-.29,1.14-1.15,2.46-1.17,2.66-.02.2.17.42.36.36.07-.02.12-.07.17-.12.37-.36.44-.5.81-.86-.26.59-.52,1.17-.78,1.76-.13.29-.26.64-.11.92.15.28.71.25.69-.07.02.25.04.52.18.73.14.21.46.32.66.17.09-.07.14-.18.19-.28.14-.31.28-.61.41-.92-.02.33.12.79.46.75.21-.03.33-.25.41-.45.63-1.48.85-2.04,1.34-3.57-.05.56-.1,1.12-.15,1.68Z"/>
        </g>
        <path class="cls-2" d="M69.74,22.4s-1.69.5-3.58,2.97c-1.89,2.46-5.72,7.04-5.49,7.71.22.67,5.93,4.64,6.39,4.82s3.72-4.23,3.8-4.49c.08-.26,3.6-5.89,3.29-6.43-.31-.54-4.4-4.58-4.4-4.58Z"/>
        <path class="cls-13" d="M74.23,85.88s-.05,0-.07-.01c-.09-.04-.13-.14-.1-.23.04-.11,4.49-10.61,7.31-15.15,2.8-4.51,5.74-14.1,5.77-14.2.03-.09.13-.15.22-.12.09.03.15.13.12.22-.03.1-2.99,9.73-5.81,14.28-2.81,4.52-7.24,14.99-7.28,15.1-.03.07-.1.11-.17.11Z"/>
        <path class="cls-13" d="M65.49,110.08c-.06,0-.12-.03-.15-.08-.05-.08-.03-.19.06-.25.04-.03,4.15-2.63,6.9-6.59,2.76-3.98,11.84-29.96,11.93-30.22.03-.09.14-.14.23-.11.09.03.14.13.11.23-.37,1.07-9.19,26.29-11.98,30.31-2.79,4.03-6.96,6.66-7,6.69-.03.02-.06.03-.1.03Z"/>
        <path class="cls-8" d="M69.28,38.91c-.69,0-1.78-.69-2.03-.85-.08-.05-.11-.17-.05-.25.05-.08.17-.11.25-.05.77.5,1.75.93,1.99.76.4-.31,3.23-6.82,3.63-10.23.38-3.27-.77-5.56-.78-5.58-.05-.09-.01-.2.08-.24.09-.05.2-.01.24.08.05.1,1.21,2.4.82,5.79-.4,3.41-3.22,10.08-3.78,10.48-.1.07-.22.1-.37.1Z"/>
        <path class="cls-4" d="M76.92,13.42c-1.07,0-1.34-.47-1.37-.52-.04-.09,0-.2.08-.24.09-.04.19-.01.24.07,0,.02.26.4,1.32.32.78-.06,1.15-.5,1.17-.52.06-.08.18-.09.25-.03.08.06.09.17.03.25-.02.02-.49.59-1.42.65-.1,0-.2.01-.3.01Z"/>
      </g>
      <g>
        <path class="cls-6" d="M74.94,19.39s-.04-.03-.06-.04c-.16-.11-.36-.2-.55-.18-.2.02-.39.17-.41.36,0-.03-.21-.2-.25-.23-.1-.08-.2-.13-.33-.12-.2.02-.53.17-.55.41,0-.08-.35-.07-.6.06-.35.19-.37.34-.45.55-.15-.04-.31.06-.37.2s-.05.3-.02.45c.06.24.17.48.32.67.13.17.31.31.52.35.21.03.45-.08.51-.28.12.24.39.39.65.38.27,0,.52-.18.63-.42.16.14.41.16.59.05s.28-.34.23-.55c.29.11.67,0,.79-.29.07-.17.03-.37-.03-.55-.12-.32-.34-.61-.62-.82Z"/>
        <path class="cls-4" d="M74.74,20.95c-.06,0-.12-.03-.15-.08l-.73-1.12c-.05-.08-.03-.19.05-.25.08-.05.19-.03.25.05l.73,1.12c.05.08.03.19-.05.25-.03.02-.06.03-.1.03Z"/>
        <path class="cls-4" d="M73.8,21.29c-.06,0-.12-.03-.15-.08l-.84-1.32c-.05-.08-.03-.19.05-.25.08-.05.19-.03.25.05l.84,1.32c.05.08.03.19-.05.25-.03.02-.06.03-.1.03Z"/>
        <path class="cls-4" d="M72.45,21.4c-.06,0-.12-.03-.15-.08l-.48-.72c-.05-.08-.03-.19.05-.25.08-.05.19-.03.25.05l.48.72c.05.08.03.19-.05.25-.03.02-.06.03-.1.03Z"/>
      </g>
      <path class="cls-5" d="M12.12,77.47c-2.47,0-4.48-2.01-4.48-4.48s2.01-4.48,4.48-4.48,4.48,2.01,4.48,4.48-2.01,4.48-4.48,4.48ZM12.12,68.87c-2.27,0-4.12,1.85-4.12,4.12s1.85,4.12,4.12,4.12,4.12-1.85,4.12-4.12-1.85-4.12-4.12-4.12Z"/>
    </g>
  </g>
</svg>