<?xml version="1.0" encoding="UTF-8"?>
<svg id="_レイヤー_2" data-name="レイヤー 2" xmlns="http://www.w3.org/2000/svg" viewBox="0 0 123.53 74.92">
  <defs>
    <style>
      .cls-1 {
        fill: #2d6966;
      }

      .cls-2 {
        fill: #ad482e;
      }

      .cls-3 {
        fill: #7a2e24;
      }
    </style>
  </defs>
  <g id="_文字" data-name="文字">
    <g>
      <path class="cls-3" d="M32.43,63.91c-10.67,0-21.01-1.86-31.07-5.35-.22-.08-.44-.16-.64-.27-.63-.35-.87-1.05-.62-1.68.25-.63.92-1,1.6-.81.86.24,1.69.55,2.54.82,5.46,1.78,11.03,3.03,16.72,3.78,5.04.66,10.1.9,15.18.67,10.66-.47,20.86-2.83,30.44-7.6,8.31-4.14,15.41-9.75,21.06-17.12,3.63-4.72,6.38-9.9,8.3-15.53.09-.26.17-.53.31-.76.33-.57.97-.81,1.58-.62.59.18.95.71.93,1.36,0,.3-.11.58-.2.86-2.43,7.17-6.15,13.61-11.15,19.31-6.83,7.79-15.19,13.41-24.78,17.29-5.45,2.2-11.08,3.71-16.89,4.62-4.41.69-8.85,1.04-13.31,1.03Z"/>
      <g>
        <path class="cls-1" d="M104.41,58.71c-.42-.07-.84-.08-1.27-.13-1.14-.14-2.24-.37-3.27-.95-3.42-1.92-6.82-3.86-10.43-5.44-4.2-1.84-8.54-2.92-13.18-2.32-.5.06-.99.16-1.49.23-.01-.04-.02-.08-.04-.12.11-.09.22-.19.33-.28,1.66-1.35,3.29-2.73,4.83-4.22,2.52-2.44,4.04-5.39,4.63-8.83.52-3.04.44-6.1.3-9.16-.06-1.24.34-6.26.2-7.5-.12-1.07-3.9,2.93-4.54,3.47-3.08,2.64-5.85,5.59-8.4,8.72-2.22,2.74-3.86,5.81-4.63,9.28-.59,2.65-.69,5.27.45,7.82.43.96.9,1.91,1.44,2.82.45.75-.1,1.54.09,2.37.37,1.65.6,3.44,1.36,4.97,1.28,2.55,3.41,4.08,6.02,5.07,1.8.68,3.67,1.03,5.57,1.29,4.13.57,8.21.34,12.25-.66,1.55-.39,2.97-1.13,4.45-1.69,2.08-.79,3.83-2.06,5.54-3.43.07-.05.12-.12.18-.18.43-.53.25-1.04-.43-1.15ZM63.25,43.71c-.84-.75-1.74-1.41-2.71-1.99-2.05-1.23-4.09-2.5-6.18-3.67-1.75-.98-3.3-2.14-4.24-3.97-.02-.04-.05-.07-.07-.1-.19-.24-.41-.44-.75-.36-.32.08-.51.32-.55.63-.14,1.02-.31,2.05-.03,3.08.11.41.18.82.22,1.25.17,1.8.85,3.37,2.06,4.74,1.18,1.33,2.58,2.37,4.07,3.33.7.45.7.45-.02.81-.91.46-1.8.95-2.61,1.57-5.36,4.06-10.07,8.74-13.63,14.47-.75,1.2-1.58,2.35-2.41,3.5-1.32,1.8-2.37,3.71-2.29,6.25.02.25-.03.72.08,1.18.06.27.19.48.49.5.27.02.43-.15.53-.38.09-.19.15-.4.24-.58.49-.97,1.14-1.79,2.18-2.2,1.17-.46,2.37-.83,3.61-1,3.93-.54,7.89-.79,11.85-1.03,2.86-.17,5.55-.97,8-2.49,1.82-1.13,3.13-2.7,3.97-4.66,1.11-2.57,1.14-5.16.22-7.78-.12-.35-.18-.67,0-1.03,1.79-3.48.35-7.95-2.01-10.06ZM118.22,20.87c-2.1.4-4.21.7-6.37.73-2.37.03-4.68.46-6.87,1.44-3.17,1.41-6.14,3.24-9.36,4.56-1.43.58-2.45,1.64-3.28,2.9-.22.34-.4.69-.62,1.03-.93,1.43-2,2.79-2.71,4.35-.63,1.37-1.44,2.61-2.38,3.79-.8,1-.6,1.63.63,2.07.74.26,1.49.48,2.25.69.92.26,1.86.37,2.83.28,1.43-.13,2.86-.38,4.29-.01.47.12.97.1,1.46.1,2.16,0,4.2-.53,6.14-1.46,3.66-1.75,6.37-4.58,8.79-7.72.77-1,1.44-2.09,2.28-3.05,1.67-1.89,3.21-3.88,4.75-5.87.4-.52,3.21-3.5,3.46-4.11.47-1.12-4.78.18-5.29.27ZM34.31,64.26c-.2-1.13.14-1.99.93-2.76,2.03-1.97,3.19-4.33,3.01-7.19-.17-2.7-1.28-5.04-3.01-7.11-2.68-3.21-6.04-5.74-8.93-8.74-.52-.54-2.72-2.33-3.27-1.95-.56.39-1.14.88,1.74,4.87,1.87,2.59,2.67,5.5,2.66,8.63,0,1.85-.17,3.71-.1,5.57.07,2.04.59,3.96,1.63,5.73.24.41.52.81.77,1.21-.19.13-.36.07-.52.05-1.16-.13-2.31-.31-3.48-.37-3.17-.17-5.86.76-7.81,3.37-1.1,1.47-2.18,2.95-3.6,4.16-.93.8-.56,2.06.61,2.42.47.14.93.29,1.39.45,1.6.54,3.24.92,4.93.82,3.11-.19,6.15-.73,9.04-1.93.12-.05.23-.1.35-.16,3.01-1.46,4.26-3.8,3.68-7.08ZM93.68,28.88c.21.79,7.32-5.16,8.38-6.23,2.19-2.2,2.66-5.76,2.71-8.78,0-1.17-.15-2.32-.35-3.47-.31-1.83-.92-3.59-1.27-5.42-.17-.9-.28-1.82-.25-2.75.01-.36.35-2.17-.2-2.23-.58-.06-1.15,1.51-1.32,1.91-.77,1.91-1.22,3.93-1.94,5.86-.75,2.01-1.6,3.98-2.46,5.95-.79,1.8-1.79,3.5-2.55,5.32-.62,1.47-.99,2.96-.66,4.57.17.85-.31,4.44-.09,5.27ZM16.05,57.94c1.07-.82,1.65-1.89,1.78-3.23.2-1.99.22-4.01.04-6.01-.1-1.14-.12-2.29-.42-3.4-.12-.46-.3-1.08-.71-1.37-.66-.47-1.05.3-1.25.83-.72,1.91-1.36,3.88-2.42,5.64-.3.51-.58,1.03-.87,1.55-1.04,1.86-.94,3.88-.7,5.87.16,1.32,1.91,2.07,2.9,1.3.53-.42,1.11-.77,1.65-1.18Z"/>
        <path d="M101.44,3.99c.07,1.78.2,3.56.19,5.34,0,1.47-.16,2.93-.46,4.36-.58,2.78-1.73,5.44-3.23,7.85-.86,1.37-1.83,2.67-2.9,3.89-.18.2-.08.55.13.69.24.17.51.08.69-.13,1.95-2.22,3.58-4.72,4.77-7.43,1.17-2.69,1.89-5.59,1.98-8.53.06-2.07-.1-4.15-.19-6.21-.01-.27-.33-.45-.57-.41-.29.05-.42.3-.41.57h0Z"/>
        <path d="M98.07,12.31c.83,2.43,1.12,5.04.87,7.59-.06.64.93.73.99.09.27-2.74-.07-5.5-.95-8.1-.09-.25-.44-.35-.66-.24-.27.12-.33.41-.24.66h0Z"/>
        <path d="M98.52,22.17c1.65,0,3.07-1.07,4.14-2.23.18-.2.25-.48.06-.7-.16-.19-.52-.26-.7-.06-.27.3-.57.57-.88.82-.26.21-.6.51-.85.65-.26.16-.56.29-.85.38-.26.08-.61.15-.83.15-.27,0-.52.16-.54.45-.02.25.18.54.45.54h0Z"/>
        <path d="M119.12,21.67c-4.57,1.81-8.91,4.14-13.22,6.51-4,2.2-8.05,4.38-11.73,7.09-2.05,1.51-3.97,3.19-5.66,5.1-.18.2-.08.55.13.69.24.17.51.08.69-.13,2.95-3.31,6.64-5.89,10.43-8.15,1.93-1.15,3.9-2.24,5.87-3.32,2.14-1.18,4.28-2.35,6.45-3.47,2.44-1.25,4.91-2.42,7.46-3.42.6-.24.17-1.14-.42-.9h0Z"/>
        <path d="M106.72,28.15c1.02-2.05,2.69-3.78,4.7-4.88.24-.13.36-.41.24-.66-.11-.23-.42-.37-.66-.24-2.26,1.24-4.06,3.14-5.21,5.44-.12.24.06.55.3.64.28.1.52-.06.64-.3h0Z"/>
        <path d="M101.6,31.83c2.71,1.43,5.79,1.55,8.79,1.61.27,0,.52-.17.54-.45.02-.25-.18-.54-.45-.54-2.79-.06-5.78-.1-8.31-1.44-.24-.13-.53-.11-.69.13-.14.2-.11.57.13.69h0Z"/>
        <path d="M94.51,35.87c1.07-3.04,3.16-5.72,5.89-7.45.23-.14.37-.39.24-.66-.1-.22-.43-.39-.66-.24-2.96,1.88-5.24,4.7-6.4,8.01-.21.6.72.95.94.34h0Z"/>
        <path d="M83.12,22.03c-2.01,3.29-3.98,6.62-5.82,10.01-1.94,3.57-3.78,7.21-5.32,10.97-.79,1.93-1.5,3.9-2.07,5.9-.07.26.03.54.3.64.24.09.57-.04.64-.3,1.03-3.67,2.53-7.2,4.18-10.64,1.74-3.64,3.68-7.18,5.71-10.66,1.05-1.8,2.12-3.59,3.21-5.37.33-.54-.48-1.12-.82-.57h0Z"/>
        <path d="M76.28,28.45c-.14,1.2.03,2.42.5,3.54.1.24.43.36.66.24.25-.13.35-.4.24-.66-.05-.13-.1-.26-.15-.39,0-.02-.06-.17-.04-.11-.02-.07-.04-.14-.06-.22-.07-.25-.12-.51-.15-.77-.07-.53-.07-.99,0-1.54.03-.26-.19-.53-.45-.54-.28-.01-.51.17-.54.45h0Z"/>
        <path d="M74.9,38.66c3.25-1.24,5.63-3.93,7.77-6.56.17-.21.08-.55-.13-.69-.24-.16-.52-.08-.69.13-2.04,2.5-4.28,5.05-7.37,6.23-.25.1-.35.43-.24.66.12.26.41.34.66.24h0Z"/>
        <path d="M70.01,37.23c.25,2.26.56,4.58,1.71,6.59.13.23.4.36.66.24.23-.11.38-.43.24-.66-1.1-1.93-1.38-4.16-1.63-6.33-.07-.64-1.05-.47-.98.16h0Z"/>
        <path d="M71.94,54.76c3.11,2.28,6.64,3.97,10.34,5.02,3.71,1.04,7.58,1.45,11.42,1.18,2.15-.15,4.28-.52,6.36-1.11.26-.07.46-.29.41-.57-.04-.24-.31-.48-.57-.41-3.61,1.02-7.38,1.37-11.11,1.07-3.75-.3-7.43-1.25-10.86-2.81-1.91-.87-3.73-1.94-5.43-3.18-.52-.38-1.08.44-.57.82h0Z"/>
        <path d="M88.32,61.08c2.36,1.47,5.05,2.4,7.82,2.69.64.07.73-.93.09-.99-2.6-.27-5.12-1.13-7.34-2.51-.54-.34-1.11.48-.57.82h0Z"/>
        <path d="M81.62,59.27c.76-.28,1.41-.75,2.1-1.15.67-.39,1.4-.71,2.14-.94,1.49-.46,3.06-.65,4.6-.84.64-.08.47-1.06-.16-.98-1.61.2-3.22.4-4.77.89-.75.23-1.47.53-2.15.92-.72.41-1.4.91-2.18,1.2-.25.09-.35.43-.24.66.12.26.41.33.66.24h0Z"/>
        <path d="M75.39,57.14c.93,2.31,2.53,4.33,4.56,5.78.52.37,1.09-.45.57-.82-1.9-1.35-3.36-3.22-4.23-5.38-.24-.59-1.14-.17-.9.42h0Z"/>
        <path d="M71.06,52.38c.87-.67,1.9-1.09,2.99-1.26.27-.04.45-.31.41-.57-.05-.27-.31-.45-.57-.41-1.26.19-2.46.7-3.47,1.48-.21.16-.22.5-.06.7.18.21.49.22.7.06h0Z"/>
        <path d="M64.85,52.43c-.94-2.83-3.07-5.34-6.13-5.84-.76-.13-1.55-.1-2.3.08-.26.06-.46.29-.41.57.04.25.31.47.57.41,1.5-.37,3.08,0,4.35.88,1.49,1.02,2.45,2.63,3.01,4.33.08.26.44.35.66.24.27-.12.33-.4.24-.66h0Z"/>
        <path d="M25.85,40.64c1.87,2.29,3.42,4.82,4.62,7.52.6,1.36,1.13,2.75,1.54,4.18.41,1.38.78,2.82.93,4.26.17,1.63-.45,3.23-.87,4.79-.07.26.03.54.3.64.24.09.57-.04.64-.3.21-.76.42-1.52.62-2.28.19-.72.35-1.45.34-2.2-.02-1.53-.42-3.07-.82-4.53-.82-2.96-2.01-5.82-3.58-8.46-.88-1.49-1.87-2.91-2.96-4.26-.4-.5-1.16.15-.76.64h0Z"/>
        <path d="M30.68,44.7c.57,1.18.72,2.52.44,3.81-.06.26.2.52.45.54.3.03.48-.19.54-.45.32-1.45.12-2.99-.53-4.32-.28-.58-1.18-.16-.9.42h0Z"/>
        <path d="M28.75,51.65c1.08,1.7,2.4,3.21,3.97,4.48.21.17.55.08.69-.13.16-.24.08-.52-.13-.69-1.42-1.15-2.65-2.54-3.63-4.08-.14-.23-.39-.37-.66-.24-.22.1-.39.43-.24.66h0Z"/>
        <path d="M31.17,63.83c-1.08,1.65-2.82,2.67-4.58,3.45-1.95.86-4.01,1.46-6.11,1.8-1.2.19-2.41.3-3.62.32-.27,0-.52.16-.54.45-.02.25.18.55.45.54,2.27-.03,4.52-.33,6.7-.94,2.1-.58,4.19-1.39,6.02-2.59.98-.65,1.86-1.46,2.51-2.45.35-.53-.47-1.11-.82-.57h0Z"/>
        <path d="M19.6,66.75c1.21.59,2.3,1.42,3.21,2.41.18.2.49.24.7.06.2-.17.24-.5.06-.7-1.03-1.13-2.26-2.03-3.63-2.7-.24-.12-.55.06-.64.3-.1.27.05.52.3.64h0Z"/>
        <path d="M24.21,72.34c1.86-.73,3.2-2.51,3.43-4.49.07-.64-.92-.73-.99-.09-.19,1.64-1.32,3.08-2.86,3.68-.25.1-.35.43-.24.66.12.26.41.34.66.24h0Z"/>
        <path d="M15.72,47.34c.11,1.71-.3,3.39-.85,5-.28.81-.6,1.62-.92,2.41-.31.78-.61,1.62-1.21,2.24-.19.19-.24.48-.06.7.16.19.51.25.7.06.53-.54.88-1.19,1.18-1.89.29-.66.55-1.33.81-2.01.52-1.37.99-2.77,1.21-4.22.13-.82.17-1.64.11-2.46-.02-.27-.33-.45-.57-.41-.29.05-.43.3-.41.57h0Z"/>
        <path d="M62.88,53.82c-1.09,1.79-2.48,3.4-4.17,4.65-.82.61-1.7,1.12-2.64,1.51-1.02.43-2.09.67-3.16.9-1.17.25-2.34.5-3.51.75-1.18.25-2.36.52-3.5.92-1.12.4-2.15.97-3.15,1.61-.85.54-1.69,1.1-2.5,1.7-1.69,1.25-3.3,2.79-3.94,4.85-.19.61.74.95.94.34.54-1.75,1.86-3.06,3.28-4.16.78-.6,1.6-1.15,2.43-1.69.97-.64,1.96-1.23,3.05-1.64,1.09-.42,2.23-.67,3.37-.92,1.15-.25,2.31-.49,3.46-.74,1.12-.24,2.23-.48,3.3-.89.98-.38,1.9-.89,2.77-1.48,1.95-1.33,3.57-3.15,4.8-5.16.33-.54-.48-1.12-.82-.57h0Z"/>
        <path d="M60.4,57.2c-.7-.72-1.63-1.07-2.58-1.35-.95-.28-1.94-.49-2.93-.6-2.07-.23-4.17-.03-6.13.68-1.13.41-2.2,1-3.14,1.74-.5.4.14,1.15.64.76,3.03-2.38,7.13-2.74,10.76-1.77.9.24,1.94.5,2.61,1.19.19.19.49.24.7.06.19-.16.25-.51.06-.7h0Z"/>
        <path d="M52.67,61.73c.16,1.42-1,2.64-1.99,3.47-1.15.96-2.49,1.64-3.78,2.38-.23.13-.36.4-.24.66.11.23.43.38.66.24,1.44-.82,2.94-1.59,4.2-2.69,1.21-1.07,2.34-2.52,2.14-4.24-.07-.64-1.06-.47-.98.16h0Z"/>
        <path d="M60.23,58.59c.46.9.73,1.89.75,2.9.01.79-.09,1.71-.73,2.25-.49.41.15,1.17.64.76.82-.69,1.08-1.8,1.08-2.83,0-1.22-.28-2.42-.84-3.51-.29-.57-1.2-.15-.9.42h0Z"/>
        <path d="M51.91,39.22c1.57,1.4,3.14,2.8,4.71,4.21,1.42,1.27,2.88,2.59,3.6,4.4.24.6,1.14.17.9-.42-.59-1.47-1.65-2.67-2.78-3.74-1.21-1.14-2.47-2.23-3.72-3.34-.72-.64-1.43-1.28-2.15-1.92-.2-.18-.55-.08-.69.13-.17.24-.08.51.13.69h0Z"/>
      </g>
      <g>
        <g>
          <path class="cls-2" d="M76.46,48.52c.02-.12.44-1.44.48-1.56.39-1.2-.36-.49-.8-2.41-.48-2.08,1.05-3.99,3.2-3.9.76.03,1.07-.2,1.41-.85,1.05-2.01,3.6-2.87,5.64-1.97.38.17.64.13.98-.08,2.87-1.72,6.54.02,6.75,3.22.11,1.7-.7,2.96-2.14,3.82-.25.15-.5.25-.58.61-.52,2.18-2.03,3.21-4.25,2.95-1.08-.13-2.53.83-2.79,1.85-.61,2.35-3.46,3.42-5.59,2.01-1.15-.76-2.53-2.19-2.31-3.69Z"/>
          <path class="cls-2" d="M32.93,60.83c.12-1.13.55-2.39,1.9-3.14.29-.16.43-.36.38-.71-.21-1.83.48-3.31,1.89-4.07,1.35-.73,3.26-.49,4.58.64.41.35.83.53,1.36.58.75.08,1.44.39,1.99.91.29.27.57.37.97.3,1.54-.27,3.14.48,3.79,1.73.64,1.23.31,2.64-.89,3.84-1.17,1.16-2.59,1.64-4.22,1.57-.63-.03-1.08.62-.79,1.2.29.58.5,1.17.42,1.82-.18,1.51-1.46,2.5-2.98,2.23-1.53-.28-2.86-.88-3.19-2.63-.08-.44-.34-.37-.66-.3-2.28.47-4.56-1.38-4.54-3.96Z"/>
          <path class="cls-2" d="M84.55,30.37c0-2.39,2.21-4.09,4.65-3.53.44.1.73.05,1.08-.24,1.29-1.08,2.92-.82,3.92.58.94,1.31.61,2.92-.82,3.76-.53.31-.84.66-1.04,1.24-.6,1.7-2.39,2.63-4.27,2.28-2-.37-3.53-2.14-3.53-4.08Z"/>
          <path class="cls-2" d="M36,34.96c-.22-2.63,2.67-5.75,5.17-4.85,3.16,1.14,2.21,6.39-.44,7.5-1.16.49-2.55.29-3.56-.5-.74-.59-1.1-1.34-1.17-2.15Z"/>
          <path class="cls-2" d="M101.47,49.56c-.07,1.72-1.64,3.18-3.32,3.09-1.74-.09-3.35-1.62-3.28-3.1.07-1.48,1.91-3.08,3.47-3.02,1.75.07,3.2,1.46,3.13,3.03Z"/>
          <path class="cls-2" d="M47.54,32.45c-1.29,0-2.14-.85-2.14-2.11,0-1.68,1.5-3.49,2.91-3.5,1.29-.01,2.29,1.08,2.26,2.47-.03,1.79-1.35,3.15-3.04,3.14Z"/>
        </g>
        <path d="M90.16,27.97c.9.64,1.7,1.57,1.57,2.72-.03.27.18.52.45.54.27.03.51-.18.54-.45.17-1.52-.82-2.79-2-3.63-.22-.16-.54-.09-.69.13-.15.22-.09.54.13.69h0Z"/>
        <path d="M86.18,47.28c-.63-.53-1.16-1.23-1.29-2.06-.11-.66.04-1.37.53-1.84,1.01-.98,2.6-.9,3.7-.14.64.44,1.16,1.1,1.38,1.85.08.26.29.46.57.41.24-.04.48-.31.41-.57-.52-1.78-2.16-3.23-4.06-3.26-.9-.01-1.82.25-2.52.84-.75.63-1.09,1.57-1.03,2.53.07,1.24.82,2.29,1.74,3.06.21.17.55.08.69-.13.16-.24.08-.52-.13-.69h0Z"/>
        <path d="M79.87,41.55c.78,1.8,2.38,3.25,4.43,3.17.27-.01.45-.33.41-.57-.05-.29-.3-.42-.57-.41-1.58.06-2.78-1.27-3.36-2.61-.26-.59-1.16-.17-.9.42h0Z"/>
        <path d="M86.42,39.01c.09.1.17.2.25.3.02.03.04.05.06.08.02.03.03.06,0,.01.03.06.07.11.1.17.06.12.12.23.16.36.02.06.05.12.07.19-.02-.05,0-.02,0,.01.01.04.02.08.03.12.03.13.05.26.07.39,0,.06.01.13.02.2,0,.08,0-.06,0,.02,0,.03,0,.07,0,.1,0,.13-.01.26-.03.39,0,.06-.02.13-.03.19-.02.08.02-.06,0,.02-.01.04-.02.08-.03.12-.07.25.03.55.3.64.24.08.56-.03.64-.3.36-1.26.06-2.67-.83-3.64-.18-.19-.5-.24-.7-.06-.19.18-.25.5-.06.7h0Z"/>
        <path d="M77.96,46.42c.57-1.22,1.93-1.86,3.23-1.8.63.03,1.36.15,1.81.63.43.45.73,1.06.9,1.65.2.67.23,1.39,0,2.06-.21.61.73.95.94.34.52-1.53.05-3.35-.97-4.57-1.11-1.33-3.34-1.37-4.82-.68-.9.42-1.61,1.14-2.03,2.03-.11.24.06.55.3.64.27.1.52-.05.64-.3h0Z"/>
        <path d="M99.35,49.96c.01.11.03.22.04.33,0,.07.03.13.08.18.03.06.07.11.13.14.05.04.11.06.18.07.06.02.13.02.19,0,.04-.01.08-.03.13-.04.08-.04.15-.09.2-.17.02-.04.04-.08.06-.11.03-.08.04-.17.02-.25-.01-.11-.03-.22-.04-.33,0-.07-.03-.13-.08-.18-.03-.06-.07-.11-.13-.14-.05-.04-.11-.06-.18-.07-.06-.02-.13-.02-.19,0-.04.01-.08.03-.13.04-.08.04-.15.09-.2.17-.02.04-.04.08-.06.11-.03.08-.04.17-.02.25h0Z"/>
        <path d="M79.58,51.01c.27-.25.49-.57.61-.92.04-.12.04-.26-.02-.38-.05-.11-.16-.22-.28-.26-.12-.04-.26-.05-.38.02-.12.06-.21.15-.26.28-.03.08-.06.16-.1.24.02-.04.04-.08.06-.11-.07.13-.16.26-.26.37.03-.03.06-.06.09-.1-.03.04-.07.07-.1.1-.09.09-.16.2-.17.33,0,.07,0,.13.02.19.01.07.05.12.09.18.09.09.2.17.33.17.13,0,.27-.02.37-.12h0Z"/>
        <path d="M83.65,39.89c.11-.01.22-.02.33-.03.07,0,.13-.03.18-.08.06-.03.11-.07.14-.13.04-.05.06-.11.07-.18.02-.06.02-.13,0-.19-.01-.04-.03-.08-.04-.13-.04-.08-.09-.15-.17-.2-.04-.02-.08-.04-.11-.06-.08-.03-.17-.04-.25-.02-.11.01-.22.02-.33.03-.07,0-.13.03-.18.08-.06.03-.11.07-.14.13-.04.05-.06.11-.07.18-.02.06-.02.13,0,.19.01.04.03.08.04.13.04.08.09.15.17.2.04.02.08.04.11.06.08.03.17.04.25.02h0Z"/>
        <path d="M87.07,29.1c.11.14.22.28.33.42.04.05.09.09.15.12.05.03.11.05.18.06.07,0,.13,0,.19-.02.07-.01.12-.05.18-.09.09-.09.17-.2.17-.33,0-.04,0-.09,0-.13-.02-.09-.05-.17-.11-.24-.11-.14-.22-.28-.33-.42-.04-.05-.09-.09-.15-.12-.05-.03-.11-.05-.18-.06-.07,0-.13,0-.19.02-.07.01-.12.05-.18.09-.09.09-.17.2-.17.33,0,.04,0,.09,0,.13.02.09.05.17.11.24h0Z"/>
        <path d="M92.71,27.88l.14.05c.06.03.12.03.19.03.07,0,.13-.01.19-.04.06-.03.12-.07.16-.12.05-.04.08-.1.1-.16,0-.04.02-.08.03-.12,0-.09,0-.17-.04-.26-.02-.04-.05-.07-.07-.11-.06-.07-.13-.11-.21-.15l-.14-.05c-.06-.03-.12-.03-.19-.03-.07,0-.13.01-.19.04-.06.03-.12.07-.16.12-.05.04-.08.1-.1.16,0,.04-.02.08-.03.12,0,.09,0,.17.04.26.02.04.05.07.07.11.06.07.13.11.21.15h0Z"/>
        <path d="M37.78,54.81c.14.05.28.11.42.16.06.03.12.03.19.03.07,0,.13-.01.19-.04.06-.03.12-.07.16-.12.05-.04.08-.1.1-.16,0-.04.02-.08.03-.12,0-.09,0-.17-.04-.26-.02-.04-.05-.07-.07-.11-.06-.07-.13-.11-.21-.15-.14-.05-.28-.11-.42-.16-.06-.02-.12-.03-.19-.03-.07,0-.13.01-.19.04-.06.03-.12.07-.16.12-.05.04-.08.1-.1.16,0,.04-.02.08-.03.12,0,.09,0,.17.04.26.02.04.05.07.07.11.06.07.13.11.21.15h0Z"/>
        <path d="M36.09,58.49c.9,1.08,2.34,1.65,3.74,1.47,1.4-.18,2.57-1.23,2.95-2.58.22-.77.2-1.59-.14-2.33-.26-.58-1.16-.17-.9.42.53,1.19-.11,2.72-1.27,3.27-1.23.59-2.77.11-3.63-.9-.41-.49-1.17.15-.76.64h0Z"/>
        <path d="M44.95,55.37c-1.41.25-2.68,1.33-3.05,2.73-.4,1.49.15,3.09,1.34,4.05.21.17.55.08.69-.13.16-.23.09-.52-.13-.69-.85-.68-1.26-1.9-.96-2.95.3-1.04,1.2-1.84,2.27-2.03.63-.11.47-1.09-.16-.98h0Z"/>
        <path d="M39.08,60.13c.42.6.58,1.47.39,2.2-.21.77-.74,1.41-1.42,1.75-.24.12-.36.41-.24.66s.42.36.66.24c.94-.47,1.68-1.34,1.95-2.37.28-1.09.06-2.21-.58-3.13-.15-.22-.51-.22-.7-.06-.22.19-.21.48-.06.7h0Z"/>
        <path d="M34,61.31l.18.38c.03.06.07.12.12.16.04.05.1.08.16.1.06.03.12.03.19.03.07,0,.13-.01.19-.04.04-.02.07-.05.11-.07.07-.06.11-.13.15-.21,0-.04.02-.08.03-.12,0-.09,0-.17-.04-.26l-.18-.38c-.03-.06-.07-.12-.12-.16-.04-.05-.1-.08-.16-.1-.06-.03-.12-.03-.19-.03-.07,0-.13.01-.19.04-.04.02-.07.05-.11.07-.07.06-.11.13-.15.21,0,.04-.02.08-.03.12,0,.09,0,.17.04.26h0Z"/>
        <path d="M46.62,59.59s.05,0,.08,0c-.04,0-.08-.02-.12-.03.03,0,.06.02.09.03-.04-.02-.08-.04-.11-.06.03.02.06.03.08.06-.03-.03-.06-.06-.1-.09.02.02.04.04.06.07-.02-.04-.05-.07-.07-.11.01.02.03.04.03.07.03.06.07.12.12.16.04.05.1.08.16.1.06.03.12.03.19.03.07,0,.13-.01.19-.04.04-.02.07-.05.11-.07.07-.06.11-.13.15-.21,0-.04.02-.08.03-.12,0-.09,0-.17-.04-.26,0-.02-.01-.04-.02-.05-.03-.05-.05-.09-.08-.13,0,0-.01-.02-.02-.02-.01-.02-.03-.03-.04-.04-.04-.04-.09-.08-.14-.12-.05-.03-.1-.06-.16-.08-.02,0-.03-.02-.05-.02,0,0-.02,0-.03,0-.05-.01-.1-.02-.14-.03-.02,0-.04,0-.06,0-.07,0-.13,0-.19.02-.07.01-.12.05-.18.09-.05.04-.09.09-.12.15-.03.05-.05.11-.06.18,0,.04,0,.09,0,.13.02.09.05.17.11.24.03.03.06.06.1.09.07.05.15.08.24.09h0Z"/>
        <path d="M39.74,33.55s0,0,0,0c-.04-.02-.08-.04-.11-.06.08.04.15.09.22.15-.03-.03-.06-.06-.1-.09.07.06.13.13.18.21-.02-.04-.05-.07-.07-.11.02.04.04.07.06.11.05.12.16.21.28.26.06.02.12.03.19.03.07,0,.13-.01.19-.04.11-.06.22-.15.26-.28.04-.13.04-.26-.02-.38-.04-.09-.1-.17-.15-.26-.03-.05-.07-.1-.11-.14-.07-.07-.14-.14-.22-.19-.08-.06-.17-.1-.26-.15-.06-.03-.12-.03-.19-.03-.07,0-.13.01-.19.04-.06.03-.12.07-.16.12-.05.04-.08.1-.1.16-.04.12-.05.26.02.38.02.04.05.07.07.11.06.07.13.11.21.15h0Z"/>
      </g>
    </g>
  </g>
</svg>