<?xml version="1.0" encoding="UTF-8"?>
<svg id="_レイヤー_2" data-name="レイヤー 2" xmlns="http://www.w3.org/2000/svg" viewBox="0 0 104.31 53.38">
  <defs>
    <style>
      .cls-1 {
        fill: #69584d;
      }

      .cls-2 {
        fill: #1e203d;
      }

      .cls-3 {
        fill: #fde8d9;
      }

      .cls-4 {
        fill: #1f7a53;
      }

      .cls-5 {
        fill: #b4a094;
      }

      .cls-6 {
        fill: #5e5399;
      }

      .cls-7 {
        fill: #f9bb48;
      }

      .cls-8 {
        fill: #784923;
      }

      .cls-9 {
        fill: #7f4c22;
      }

      .cls-10 {
        fill: #f3a280;
      }
    </style>
  </defs>
  <g id="_ヘッダー2" data-name="ヘッダー2">
    <g>
      <g>
        <g>
          <path class="cls-7" d="M94.9,18.69h-.09v-7.33h.09c.23,0,.44-.14.49-.36.08-.33-.16-.62-.48-.62H12.46c-.63,0-1.21.35-1.5.91-.42.78-.89,2.05-.86,3.74.03,1.67.49,2.93.88,3.72.29.57.88.93,1.52.93h82.43c.31,0,.56-.29.48-.62-.05-.22-.27-.36-.49-.36Z"/>
          <path class="cls-8" d="M21.96,19.15c-1.02-2.62-.97-5.58.17-8.15.16-.37-.38-.69-.55-.32-1.21,2.72-1.32,5.85-.23,8.64.15.38.76.21.61-.17h0Z"/>
          <path class="cls-8" d="M45.9,19.15c-1.02-2.62-.97-5.58.17-8.15.16-.37-.38-.69-.55-.32-1.21,2.72-1.32,5.85-.24,8.64.15.38.76.21.61-.17h0Z"/>
          <path class="cls-8" d="M51.22,19.15c-1.02-2.62-.97-5.58.17-8.15.16-.37-.38-.69-.55-.32-1.21,2.72-1.32,5.85-.24,8.64.15.38.76.21.61-.17h0Z"/>
          <path class="cls-2" d="M54.54,19.24c-1.04-2.73-1-5.67,0-8.41.14-.38-.47-.55-.61-.17-1.04,2.83-1.08,5.92,0,8.74.14.38.76.21.61-.17h0Z"/>
          <path class="cls-3" d="M56.02,13.17c-.11.54-.14,1.12-.14,1.61,0,1.43-.04,3.92,1.95,3.92h36.98v-7.33h-36.98c-1.13,0-1.61.85-1.81,1.81Z"/>
          <path class="cls-8" d="M18.48,14.65c-.2-.25-.47-.41-.76-.47.13-.15.23-.32.28-.53.06-.22.06-.46-.03-.66-.1-.23-.29-.3-.5-.32-.3-.02-.59.08-.83.28,0-.21-.04-.41-.13-.6-.09-.2-.24-.37-.44-.44-.21-.08-.4.02-.55.18-.22.22-.37.53-.41.86-.13-.14-.29-.26-.47-.32-.19-.06-.4-.07-.59.04-.2.11-.27.33-.28.56-.02.34.07.66.24.94-.18,0-.37.05-.53.15-.18.11-.33.28-.39.49-.07.24.02.45.16.62.2.25.47.41.76.47-.13.15-.23.32-.28.53-.06.22-.06.46.03.66.1.23.29.3.5.32.3.02.59-.08.83-.28,0,.21.04.41.13.6.09.2.24.37.44.44.21.08.4-.02.55-.18.22-.22.37-.53.41-.86.13.14.29.26.47.32.19.06.4.07.59-.04.2-.11.27-.33.28-.56.02-.34-.07-.66-.24-.94.18,0,.37-.05.53-.15.18-.11.33-.28.39-.49.07-.24-.02-.45-.16-.62Z"/>
          <g>
            <path class="cls-8" d="M24.4,13.98c5.57,0,11.13-.02,16.7-.02.41,0,.41-.63,0-.63-5.57,0-11.13.02-16.7.02-.41,0-.41.63,0,.63h0Z"/>
            <path class="cls-8" d="M28,16.68c3.17.02,6.33.04,9.5.05.41,0,.41-.63,0-.63-3.17-.02-6.33-.04-9.5-.05-.41,0-.41.63,0,.63h0Z"/>
          </g>
          <path class="cls-8" d="M48.19,13.87c-.31-.15-.68-.16-.98-.01-.22.11-.39.3-.52.52-.56.97.1,2.13,1.26,1.92.93-.17,1.25-1.57.5-2.25-.08-.07-.17-.13-.27-.18Z"/>
        </g>
        <g>
          <path class="cls-4" d="M93.84,21.18c.42,0,.75-.34.75-.75h0c0-.42-.34-.75-.75-.75H20.43c-.69,0-1.34.35-1.7.95-.68,1.13-1.62,3.24-1.57,6.19.05,2.88.93,4.97,1.57,6.11.35.63,1.02,1.02,1.74,1.02h73.33c.39,0,.75-.28.79-.68.05-.45-.31-.83-.75-.83h-.06v-11.25h.06Z"/>
          <path class="cls-2" d="M57.19,33.4c-1.65-4.28-1.59-8.96,0-13.24.14-.38-.47-.55-.61-.17-1.62,4.38-1.68,9.21,0,13.58.15.38.76.21.61-.17h0Z"/>
          <path class="cls-10" d="M54.4,33.4c-1.65-4.28-1.59-8.96,0-13.24.14-.38-.47-.55-.61-.17-1.62,4.38-1.68,9.21,0,13.58.15.38.76.21.61-.17h0Z"/>
          <path class="cls-10" d="M21.95,33.32c-1.93-4.21-1.72-8.94.03-13.17.16-.38-.46-.54-.61-.17-1.83,4.39-1.97,9.3.03,13.66.17.37.72.05.55-.32h0Z"/>
          <path class="cls-3" d="M58.73,23.64c-.52,2.22-.98,8.79,2.59,8.79h32.46v-11.25h-32.46c-1.57,0-2.28,1.14-2.59,2.46Z"/>
          <path class="cls-10" d="M30,26.31c-.4.75-.91,1.45-1.39,2.16-.61.9-1.23,1.84-1.98,2.64h.45c-1.31-1.57-2.54-3.2-3.7-4.88v.32c1.09-1.5,2.37-2.86,3.85-3.98-.13-.02-.26-.03-.38-.05,1.08,1.35,2.13,2.72,3.15,4.12.24.33.79.01.55-.32-1.05-1.44-2.13-2.86-3.25-4.24-.08-.1-.28-.13-.38-.05-1.58,1.19-2.92,2.61-4.08,4.21-.06.08-.06.24,0,.32,1.19,1.73,2.46,3.4,3.8,5.01.11.13.34.12.45,0,.76-.82,1.39-1.77,2.02-2.69.5-.73,1.03-1.46,1.45-2.24.19-.36-.36-.68-.55-.32Z"/>
          <path class="cls-10" d="M49.5,26.31c-.4.75-.91,1.45-1.39,2.16-.61.9-1.23,1.84-1.98,2.64h.45c-1.31-1.57-2.54-3.2-3.7-4.88v.32c1.09-1.5,2.37-2.86,3.85-3.98-.13-.02-.26-.03-.38-.05,1.08,1.35,2.13,2.72,3.15,4.12.24.33.79.01.55-.32-1.05-1.44-2.13-2.86-3.25-4.24-.08-.1-.28-.13-.38-.05-1.58,1.19-2.92,2.61-4.08,4.21-.06.08-.06.24,0,.32,1.19,1.73,2.46,3.4,3.8,5.01.11.13.34.12.45,0,.76-.82,1.39-1.77,2.02-2.69.5-.73,1.03-1.46,1.45-2.24.19-.36-.36-.68-.55-.32Z"/>
          <path class="cls-10" d="M39.64,26.31c-.4.75-.91,1.45-1.39,2.16-.61.9-1.23,1.84-1.98,2.64h.45c-1.31-1.57-2.54-3.2-3.7-4.88v.32c1.09-1.5,2.37-2.86,3.85-3.98-.13-.02-.26-.03-.38-.05,1.08,1.35,2.13,2.72,3.15,4.12.24.33.79.01.55-.32-1.05-1.44-2.13-2.86-3.25-4.24-.08-.1-.28-.13-.38-.05-1.58,1.19-2.92,2.61-4.08,4.21-.06.08-.06.24,0,.32,1.19,1.73,2.46,3.4,3.8,5.01.11.13.34.12.45,0,.76-.82,1.39-1.77,2.02-2.69.5-.73,1.03-1.46,1.45-2.24.19-.36-.36-.68-.55-.32Z"/>
        </g>
        <g>
          <path class="cls-5" d="M93.41,37.16c.03,2.06-1.01,3.22-1.01,3.22H16.09c-.24,0-.43-.19-.43-.43s.19-.43.43-.43h.03s.52-2.2,0-4.72h-.03c-.24,0-.43-.19-.43-.43s.19-.43.43-.43h76.3s.98,1.15,1.01,3.22Z"/>
          <path class="cls-2" d="M55.37,35.47c.12,1.12.14,2.26.04,3.38-.01.17.16.32.32.32.18,0,.3-.15.32-.32.09-1.13.08-2.26-.04-3.38-.02-.17-.13-.32-.32-.32-.16,0-.34.15-.32.32h0Z"/>
          <path class="cls-2" d="M57.64,35.15c.15,1.34.16,2.68.05,4.02-.03.41.6.4.63,0,.11-1.34.1-2.68-.05-4.02-.02-.17-.13-.32-.32-.32-.16,0-.34.15-.32.32h0Z"/>
          <path class="cls-2" d="M51.42,40.3c.76-1.99.73-4.19,0-6.19-.14-.38-.75-.22-.61.17.7,1.9.73,3.95,0,5.85-.15.38.47.55.61.17h0Z"/>
          <path class="cls-3" d="M49.76,35.95c.43,1.4-.03,3.57-1.22,3.57H16.12s.52-2.2,0-4.72h32.42c.62,0,1.02.49,1.22,1.15Z"/>
        </g>
        <g>
          <path class="cls-2" d="M104.31,46.88c0,3.77-1.26,6.5-1.26,6.5H14.25c-.33,0-.59-.26-.59-.59s.26-.59.59-.59h.08s1.17-4.96,0-10.64h-.08c-.33,0-.59-.26-.59-.59s.26-.59.59-.59h88.81s1.25,2.73,1.26,6.5Z"/>
          <path class="cls-9" d="M94.27,46.81c-.31,1.62-2.5,2.03-3.8,2.44-1.65.52-3.37.83-5.08,1.04-2.82.36-5.67.41-8.5.34-3.01-.07-6.05-.25-9.03-.74-1.52-.25-3.11-.54-4.51-1.2-.78-.36-1.76-.98-1.49-1.91.27-.94,1.28-1.47,2.13-1.78,1-.37,2.06-.55,3.11-.74,3.21-.58,6.47-.88,9.73-1.07,3.42-.19,6.86-.07,10.26.42,1.34.19,2.71.39,4.01.78.96.29,2.04.69,2.75,1.43.29.3.46.64.41,1.07-.05.4.59.4.63,0,.12-1.01-.74-1.76-1.53-2.22-.92-.54-1.97-.9-3.01-1.12-3.48-.76-7.07-1.08-10.63-1.07-1.77,0-3.54.12-5.3.27-1.78.15-3.56.3-5.32.55-1.3.18-2.6.4-3.88.7-1.09.25-2.23.6-3.09,1.33-1.04.88-1.3,2.27-.23,3.21,1.08.95,2.65,1.33,4.02,1.64,3.36.75,6.84.97,10.27,1.08,2.45.08,4.91.07,7.35-.13,1.82-.15,3.64-.41,5.42-.81.85-.19,1.68-.46,2.51-.72.77-.24,1.57-.48,2.23-.96.56-.4,1.05-.96,1.18-1.65.08-.4-.53-.57-.61-.17Z"/>
          <path class="cls-9" d="M74.06,46.04c.44-.18.65-.58.44-1.03-.08-.17-.29-.18-.43-.11-.73.34-1.37.86-1.83,1.52-.34.5-.89,1.47-.39,2.02.51.56,1.34.1,1.86-.19.94-.53,1.88-1.06,2.83-1.58-.13-.17-.26-.33-.38-.5-.33.41-.81.88-.96,1.4-.15.53.19,1.12.77,1.14.63.03,1.26-.49,1.73-.86.56-.45,1.06-.95,1.58-1.44-.15-.15-.3-.3-.45-.45-.51.63-1.72,2.07-.63,2.75.59.37,1.19-.11,1.62-.5.6-.55,1.11-1.18,1.66-1.78-.17-.13-.33-.26-.5-.38-.4.77-.6,1.63-.88,2.45-.09.26.24.5.47.36,1.08-.7,2.07-1.54,3.17-2.21-.16-.12-.31-.24-.47-.36-.11.71-.33,1.4-.44,2.12-.04.24.14.44.39.39.91-.19,1.68-.79,2.49-1.2.36-.19.04-.73-.32-.55-.76.39-1.49.96-2.34,1.14.13.13.26.26.39.39.11-.71.33-1.4.44-2.12.04-.26-.21-.52-.47-.36-1.1.67-2.08,1.51-3.17,2.21.16.12.31.24.47.36.26-.76.45-1.58.82-2.29.16-.31-.25-.66-.5-.38-.36.4-.71.81-1.08,1.2-.3.32-.73.89-1.17,1.01-.26.07-.42-.15-.39-.39.02-.15.15-.32.23-.46.2-.32.41-.64.65-.93.25-.31-.14-.73-.45-.45-.68.64-1.33,1.34-2.13,1.83-.17.11-.55.37-.77.27-.21-.09-.12-.32-.05-.47.19-.35.47-.67.73-.98.22-.27-.05-.68-.38-.5-.67.38-1.35.75-2.02,1.13-.31.18-.63.35-.94.53-.2.11-.52.33-.77.28-.54-.1.23-1.26.43-1.5.39-.49.9-.86,1.47-1.12-.14-.04-.29-.08-.43-.11-.02.03-.04.06-.06.09-.38.15-.21.76.17.61h0Z"/>
          <path class="cls-9" d="M54.44,40.99c1.42,3.86,1.34,8.16-.21,11.97-.15.38.46.54.61.17,1.59-3.9,1.66-8.35.21-12.31-.14-.38-.75-.22-.61.17h0Z"/>
          <path class="cls-9" d="M100.54,40.99c1.42,3.86,1.34,8.16-.21,11.97-.15.38.46.54.61.17,1.59-3.9,1.66-8.35.21-12.31-.14-.38-.75-.22-.61.17h0Z"/>
          <path class="cls-6" d="M51.29,53.12c1.54-4,1.48-8.43,0-12.44-.14-.38-.75-.22-.61.17,1.45,3.92,1.5,8.19,0,12.1-.15.38.47.55.61.17h0Z"/>
          <path class="cls-3" d="M49.49,43.5c1.12,3.07.13,8.71-2.19,8.71H14.32s1.17-4.96,0-10.64h32.98c1.05,0,1.77.79,2.19,1.94Z"/>
        </g>
      </g>
      <g>
        <path class="cls-5" d="M0,5.2c0,2.17.66,3.76,1.1,4.58.2.38.6.62,1.03.62h58.5c.18,0,.34-.07.46-.19.12-.12.19-.28.19-.46,0-.36-.29-.65-.65-.65h-.34c-1.19-4.26,0-7.8,0-7.8h.34c.36,0,.66-.3.65-.66,0-.36-.31-.64-.67-.64h-4.89s0,0,0,0H2.16C1.72,0,1.31.25,1.12.65c-.44.87-1.12,2.56-1.12,4.55Z"/>
        <path class="cls-3" d="M33.65,10.4h2.65c.13-.08.26-.15.38-.23.3-.19.61-.38.86-.63.42-.41.66-.96.82-1.52.19-.65.34-1.33.42-2,.15-1.21.06-2.43-.4-3.57-.39-.94-1-1.78-1.75-2.45h-2.82c-.02.46-.04.92-.06,1.38-.06,1.61-.08,3.22-.1,4.83-.01,1.39,0,2.79,0,4.18Z"/>
        <path class="cls-3" d="M7.89,5.49c.06,1.08.16,2.18.43,3.23.16.59.38,1.17.7,1.68h3.57c.02-.33.04-.65.05-.98.07-1.18.13-2.37.2-3.55.11-1.95.22-3.91.31-5.87h-3.88c-.65.57-.95,1.46-1.15,2.3-.25,1.05-.28,2.13-.23,3.19Z"/>
        <path class="cls-1" d="M2.01,5.54c.33.29.66.57,1.02.83.31.23.92.78,1.25.29.12-.19.1-.43.1-.64,0-.23,0-.46,0-.69,0-.46,0-.92,0-1.38,0-.36-.44-.4-.68-.27-.54.3-1.43.93-1.76,1.3-.14.15-.08.42.07.56Z"/>
        <path class="cls-1" d="M43.35,4.98c-.33-.37-1.22-1-1.76-1.3-.24-.13-.68-.1-.68.27,0,.46,0,.92,0,1.38,0,.23,0,.46,0,.69,0,.21-.02.45.1.64.33.5.94-.06,1.25-.29.35-.26.69-.53,1.02-.83.15-.14.2-.41.07-.56Z"/>
        <path class="cls-2" d="M25.24,3.9c1.24-.6,2.76-.4,3.81.49.28.24.52.52.64.87.14.4.02.85-.35,1.07-.31.19-.71.15-1.05.07-.17-.04-.35-.1-.52-.16-.21-.07-.42-.13-.63-.2-.93-.3-1.85-.6-2.78-.89.08-.19.16-.38.24-.57.28.2.56.42.66.76.09.33-.01.74-.33.91-.34.18-.69.05-1.02-.09-.33-.14-.67-.28-1-.41-.38-.16-.76-.31-1.13-.47-.08-.03-.14-.07-.18-.14-.04-.07-.06-.16-.03-.24.05-.15.22-.28.38-.22.17.06.31.19.36.37.04.13.03.28,0,.41-.04.13-.12.26-.22.35-.16.13-.36.19-.56.18-.35,0-.67-.16-.99-.28-.34-.12-.67-.25-1.01-.37-.38-.14-.76-.28-1.13-.41-.15-.06-.27-.21-.22-.38.05-.15.22-.27.38-.22.27.09.47.33.52.61.05.3-.04.6-.27.82-.22.21-.52.31-.82.32-.31.01-.62-.09-.91-.2-.34-.13-.67-.25-1.02-.35-.16-.05-.27-.22-.22-.38.05-.16.21-.26.38-.22.27.08.54.17.8.27.25.1.5.2.77.25.02,0,.06.01-.01,0,.02,0,.03,0,.05,0,.03,0,.06,0,.09,0,.03,0,.05,0,.08,0,.01,0,.03,0,.04,0,.01,0,.07-.01.02,0-.05.01.02,0,.03,0,.02,0,.05-.01.07-.02.02,0,.05-.01.07-.02,0,0,.03-.01.04-.01-.04.02-.05.02-.03.01,0,0,.02,0,.03-.01.02-.01.04-.02.07-.04.01,0,.02-.01.03-.02.03-.02,0-.02-.02.02,0-.02.04-.04.06-.05,0,0,.02-.02.03-.03,0,0,.05-.05.01-.01s.01-.02.02-.04c0,0,0-.02.02-.03.02-.03-.02.07-.01.03,0-.02.01-.04.02-.06,0-.01,0-.02,0-.03.01-.05,0,0,0,.03,0-.03,0-.05,0-.08,0-.01,0-.02,0-.03,0-.05.01.06,0,.03,0-.02,0-.05-.02-.07,0-.01,0-.02,0-.03-.02-.05.04.07,0,.02-.01-.02-.02-.04-.04-.06-.02-.03.05.05.02.03,0,0-.02-.02-.03-.03,0,0-.02-.01-.02-.02.04.05.05.03.01.01,0,0-.02,0-.03-.01-.05-.03.07.03.02,0,.05-.2.11-.4.16-.6.59.22,1.18.43,1.77.65.29.11.58.22.87.32.07.02.13.04.2.06.03,0,.06.02.09.02-.07,0-.03,0-.01,0,.02,0,.05,0,.07,0,.01,0,.03,0,.04,0,.07,0-.05.01,0,0,0,0,.1-.02.1-.03,0,0-.06.03-.02,0,0,0,.02-.01.02-.01.04-.02-.03.02-.03.02,0-.01.02-.02.03-.03,0,0,.01-.02.02-.02-.06.05-.03.04-.01.02,0-.01.01-.02.02-.03.03-.04,0,.01,0,.03,0-.02.02-.05.02-.07,0-.01.01-.06,0,0,0,.06,0,.01,0,0,0-.01,0-.02,0-.03,0-.06.01.06,0,.03,0,0,0-.02,0-.03-.01-.06.03.05.01.03-.05-.06.05.04,0,0-.03-.02.06.04.03.02-.02-.01-.08-.03.02,0,.05-.2.11-.4.16-.6.6.25,1.2.5,1.8.74.15.06.29.12.44.18.06.02.12.05.18.07.03,0,.06.02.09.03.01,0,.03,0,.04,0,.01,0,.02,0,.03,0-.04,0-.05,0-.03,0,.03,0,.06,0,.09,0,.06,0-.02,0-.02,0,0,0,.04,0,.05-.01.02,0,.05,0,0,0,0,0-.01,0-.02,0,.01,0,.02-.01.04-.02.03-.02,0-.02-.02.02,0,0,.03-.03.04-.04-.03.01-.04.05-.02.02,0,0,.01-.02.02-.03,0,0,.03-.06,0,0-.02.05,0,0,0-.01,0-.01,0-.02,0-.03.01-.05,0,.02,0,.03,0-.03,0-.06,0-.09,0-.01,0-.07,0-.01,0,.06,0,0,0-.02,0-.01,0-.03-.01-.04,0-.01-.02-.06,0-.01.02.05,0,0,0-.01,0-.02-.02-.04-.03-.06,0,0-.02-.03-.02-.04.03.03.03.04.02.02,0,0-.01-.02-.02-.02-.05-.05-.1-.1-.15-.15-.01-.01-.03-.02-.04-.03-.03-.02.05.04,0,0-.03-.03-.07-.05-.1-.08-.13-.09-.19-.24-.13-.39.06-.14.22-.23.36-.18l2.33.75c.39.13.78.25,1.18.38.16.05.31.1.47.14.03,0,.06.01.09.02.02,0,.04,0,.06,0,.07.01-.08,0,0,0,.07,0,.14.01.22,0,.02,0,.03,0,.05,0-.09,0-.04,0-.01,0,.03,0,.05-.01.08-.02.03-.01.05-.03-.01,0,.01,0,.03-.01.04-.02.01,0,.02-.01.03-.02.06-.04-.04.04,0,0,.01-.01.02-.02.04-.04,0,0,0,0,.01-.01.02-.02.01-.02-.02.02,0,0,.04-.07.05-.09-.04.06-.01.03,0,0,0-.01,0-.04.01-.05,0,.02,0,.03,0,.05,0-.01,0-.03,0-.04,0-.02,0-.04,0-.06,0,0,0-.01,0-.02,0-.03,0-.03,0,.02,0-.01,0-.04-.01-.06,0-.04-.02-.07-.03-.11,0,0,0,0,0,0-.01-.03,0-.03,0,.02,0-.01-.02-.05-.03-.06-.02-.04-.05-.09-.07-.13-.02-.03-.04-.06-.06-.09-.04-.06.04.05,0,0-.01-.02-.03-.03-.04-.05-.05-.06-.1-.11-.16-.16-.05-.05-.1-.09-.15-.14-.01-.01-.03-.02-.04-.04-.05-.04.05.03.01,0-.03-.02-.07-.05-.1-.07-.12-.08-.24-.16-.37-.22-.06-.03-.13-.05-.19-.09.08.04.03.01,0,0-.02,0-.04-.01-.05-.02-.04-.01-.07-.03-.11-.04-.14-.05-.29-.09-.44-.12-.04,0-.07-.01-.11-.02-.02,0-.04,0-.06,0,.1.02.01,0-.01,0-.08,0-.16-.02-.25-.02-.16,0-.33,0-.49.02-.01,0-.03,0-.04,0,.1,0,.01,0-.01,0-.04,0-.08.01-.12.02-.08.02-.16.04-.24.06-.08.02-.16.05-.23.08-.01,0-.03.01-.04.02-.01,0-.02,0-.04.01-.03.01-.02,0,.02,0-.03.02-.08.04-.12.06-.15.07-.34.04-.42-.11-.07-.14-.04-.35.11-.42h0Z"/>
        <path class="cls-1" d="M36.15,8.38c-.56.64-1.15,1.26-1.55,2.01h6.07c-1.04-3.4-1.18-7.12.08-10.4h-6.7c.46.43.91.88,1.36,1.33.73.73,1.44,1.48,2.13,2.24.34.37.69.75,1.02,1.14.13.16.09.26,0,.42-.06.1-.12.2-.18.29-.13.2-.26.4-.39.6-.56.83-1.17,1.62-1.82,2.37Z"/>
        <path class="cls-1" d="M6.31,0h0s6.7,0,6.7,0c-.46.43-.91.88-1.36,1.33-.73.73-1.44,1.48-2.13,2.24-.34.37-.69.75-1.01,1.14-.13.16-.09.26,0,.42.06.1.12.2.18.29.13.2.26.4.39.6.56.83,1.16,1.62,1.82,2.36.56.64,1.15,1.26,1.55,2.01h-6.24c-1.04-3.4-1.18-7.12.08-10.4Z"/>
        <path class="cls-2" d="M46.83.51c-.2.28-.38.56-.54.86-.08.15-.15.3-.22.45-.02.04-.03.07-.05.11,0,.02-.02.04-.02.06-.03.07.03-.07,0,0-.03.08-.07.16-.1.24-.12.31-.21.63-.29.95-.04.16-.07.32-.1.48-.01.08-.03.16-.04.23,0,.02,0,.04,0,.06-.01.07,0-.07,0,0,0,.05-.01.09-.02.14-.07.65-.07,1.31,0,1.95,0,.04,0,.08.01.12,0,.02,0,.04,0,.06,0-.09,0-.02,0,0,.01.09.03.17.04.26.03.16.06.33.1.49.07.32.16.64.27.96.06.18.13.35.2.52,0,.02.02.04.02.06.01.03.01.02,0-.02,0,.01.01.02.02.04.02.04.04.09.06.13.04.09.08.17.12.25.16.34.35.67.55.98.09.14.03.35-.11.42-.15.08-.33.03-.42-.11-.38-.59-.69-1.22-.93-1.88-.23-.63-.4-1.28-.49-1.95-.1-.69-.13-1.38-.07-2.07.06-.68.19-1.36.42-2.01.23-.66.54-1.3.93-1.88.05-.07.1-.14.15-.21.05-.07.1-.12.18-.14.07-.02.17-.01.24.03.13.08.21.28.11.42h0Z"/>
        <path class="cls-3" d="M49.35,1.3h1.87s0,0,0,0h9.07s-1.19,3.54,0,7.8h-9.07s0,0,0,0h-1.87c-3.05,0-3.31-7.8,0-7.8Z"/>
      </g>
    </g>
  </g>
</svg>