<?xml version="1.0" encoding="UTF-8"?>
<svg id="_レイヤー_2" data-name="レイヤー 2" xmlns="http://www.w3.org/2000/svg" viewBox="0 0 149.49 174.2">
  <defs>
    <style>
      .cls-1 {
        fill: #d6b8ae;
      }

      .cls-2 {
        fill: #f0833b;
      }

      .cls-3 {
        fill: #361209;
      }

      .cls-4 {
        fill: #ee7831;
      }

      .cls-5 {
        fill: #b4a29e;
      }

      .cls-6 {
        fill: #6a341a;
      }

      .cls-7 {
        fill: #e6702f;
      }

      .cls-8 {
        fill: #db3432;
      }

      .cls-9 {
        fill: #e2590a;
      }

      .cls-10 {
        fill: #f9bf57;
      }

      .cls-11 {
        fill: #fce2cc;
      }
    </style>
  </defs>
  <g id="_文字" data-name="文字">
    <g>
      <path class="cls-3" d="M122.14,150.89c-.14,0-.29-.07-.37-.2-1.94-2.9-5.57-2.98-9.09-3.05-1.89-.04-3.67-.08-5.25-.51-6.44-1.78-7.28-9.47-7.34-12.69,0-.25.19-.45.44-.46.24,0,.45.19.46.44.06,3.02.82,10.23,6.68,11.84,1.47.41,3.2.44,5.03.48,3.74.08,7.62.16,9.81,3.45.14.21.08.48-.12.62-.08.05-.16.08-.25.08Z"/>
      <path class="cls-8" d="M149.16,165.03c-.46-.36-.68-.84-.77-1.38-.35-.12-.7-.11-.78.32-.07.03-.13.09-.17.16-.05.1-.1.2-.14.31-.07-.35-.18-.69-.37-.95-.28-.38-.74-.38-1.02,0-.15.2-.24.44-.31.69-.16-.02-.32.03-.43.17-.09-.23-.22-.44-.42-.6-.34-.29-.75-.29-1.1,0-.13.11-.22.23-.29.36-.13-.21-.31-.35-.55-.23-.02,0-.04.02-.06.04-.06-.2-.15-.38-.28-.54-.5-.62-1.63-.11-1.57.66,0,.06,0,.12,0,.17-.29-.07-.63.12-.75.41,0,0,0,0,0,0-.11-.49-.39-1.01-.95-.93-.48.07-.71.38-.83.82-.04-.06-.08-.11-.13-.17-.11-.13-.37-.13-.48,0-.08.09-.15.2-.22.3.03-.26.06-.52.06-.78,0-1.14-1.73-1.42-1.99-.27-.04.17-.07.35-.1.52-.09,0-.18.04-.22.12-.04.08-.08.16-.12.24-.07-.29-.19-.56-.41-.81-.75-.83-1.9.13-1.63,1.02-.09-.08-.18-.15-.31-.2-.18-.07-.35.08-.41.23-.03.07-.05.14-.07.21.02-.27.03-.53.03-.8.02-1.25-1.9-1.25-1.93,0,0,.09-.01.17-.01.26-.03-.03-.05-.06-.09-.08-.08-.06-.24-.06-.32,0-.07.06-.13.12-.19.19.04-.66-.03-1.3-.46-1.83-.21-.26-.73-.26-.93,0-.43.55-.52,1.18-.56,1.84-.07,0-.15.01-.21.07-.18.17-.34.49-.45.88,0-.2.02-.41.04-.61.08-.67.14-1.13-.33-1.68-.25-.29-.78-.28-1.03,0-.35.4-.5.87-.55,1.37-.25.19-.41.46-.53.77,0-.68-.07-1.34-.47-1.84-.29-.37-1.03-.37-1.31,0-.34.43-.46.9-.5,1.4-.05.02-.1.05-.14.08,0-.01,0-.02,0-.03-.06-.55-.33-1.33-1-1.23-.48.07-.71.38-.83.82-.04-.06-.08-.11-.13-.17-.11-.13-.37-.13-.48,0-.08.09-.15.2-.22.3.03-.26.06-.52.06-.78,0-1.14-1.73-1.42-1.99-.27-.04.17-.07.35-.1.52-.09,0-.18.04-.22.12-.04.08-.08.16-.12.24-.07-.29-.19-.56-.41-.81-.75-.83-1.9.13-1.63,1.02-.09-.08-.18-.15-.31-.2-.18-.07-.35.08-.41.23-.03.07-.05.14-.07.21.02-.27.03-.53.03-.8.02-1.25-1.9-1.25-1.93,0,0,.09-.01.17-.02.26-.03-.03-.05-.06-.09-.08-.08-.06-.24-.06-.32,0-.07.06-.13.12-.19.19.04-.66-.03-1.3-.46-1.83-.21-.26-.73-.26-.93,0-.43.55-.52,1.18-.56,1.84-.07,0-.15.01-.21.07-.18.17-.34.49-.45.88,0-.2.02-.41.04-.61.08-.67.14-1.13-.33-1.68-.25-.29-.78-.28-1.03,0-.35.4-.5.87-.55,1.37-.25.19-.41.46-.53.77,0-.68-.07-1.34-.47-1.84-.29-.37-1.03-.37-1.31,0-.34.43-.46.9-.5,1.4-.2.09-.38.25-.47.51-.35.99-.38,2.52-.14,3.55.22.92,1.27,1.61,2.12.95.37-.29.54-.76.62-1.27.11.78.39,1.54,1.27,1.46.7-.07.99-.76,1.13-1.48.22,1.06.76,1.77,1.77,1.23.38-.2.58-.55.69-.95.1.37.28.71.57.99.36.34,1.03.42,1.39,0,.19-.23.33-.48.43-.74.09.43.26.84.64,1.09.49.31,1.06.2,1.46-.2.3-.3.49-.68.62-1.09.16.4.39.75.72.93.97.51,1.65-.27,1.91-1.12.04.13.07.26.12.37.28.69.95,1.22,1.7.81.31-.17.53-.47.69-.82.29.84,1.27,1.42,2.07.8.37-.29.54-.76.62-1.27.11.78.39,1.54,1.27,1.46.7-.07.99-.76,1.13-1.48.22,1.06.76,1.77,1.77,1.23.38-.2.58-.55.69-.95.1.37.28.71.57.99.36.34,1.03.42,1.39,0,.19-.23.33-.48.43-.74.09.43.26.84.64,1.09.49.31,1.06.2,1.46-.2.3-.3.49-.68.62-1.09.16.4.39.75.72.93.97.51,1.65-.27,1.91-1.12.04.13.07.26.12.37.28.69.95,1.22,1.7.81.38-.21.63-.62.79-1.06.29.79.98,1.46,1.83.74.25-.21.42-.5.54-.83.14.34.36.64.7.9.32.24.75.15,1.08,0,.36-.17.59-.47.75-.83.2.5.58.83,1.23.8.32-.01.71-.17.85-.49.1-.23.18-.45.26-.67.02.03.03.06.05.1.2.71.89,1.29,1.63.86.69-.4.69-1.54.7-2.22,0-.55-.06-1.37-.13-2.03-.07-.04-.13-.08-.2-.13Z"/>
      <rect class="cls-3" x="94.04" y="125.72" width="5.98" height="31.6" transform="translate(-49.93 52.95) rotate(-24.49)"/>
      <rect class="cls-3" x="61.96" y="84.06" width="21.59" height="2.39"/>
      <rect class="cls-3" x="56.88" y="83.33" width="10.87" height="3.9" rx="1.91" ry="1.91"/>
      <rect class="cls-3" x="75.99" y="83.33" width="10.87" height="3.9" rx="1.91" ry="1.91"/>
      <path class="cls-2" d="M80.26,81.66s3.75.05,4.84,2.04c1.1,1.98.71,3.11-.91,3.49-2.19.5-5.71-2.71-5.71-2.71,0,0-14.49-9.69-16.17-11.76-5.56-6.85-.78-8.67,3.02-6.03,3.8,2.65,14.92,14.97,14.92,14.97Z"/>
      <path class="cls-2" d="M42.88,168.9s0-.04-.01-.06c-.34-1.87-.86-8.9-.91-10.79-.02-.93,5.21-1.58,5.22.19,0,1.49-.81,7.79-.9,9.27-.07,1.2-.09,2.67-1.71,2.75-.86.04-1.52-.57-1.68-1.35Z"/>
      <path class="cls-3" d="M42.46,166.53c-.55-.12-.78.03-.78.74s-.21,6.22.24,6.61c.45.39,11.59.34,11.96.2s.1-2.41-.84-3.05c-.93-.64-5.44-3.49-5.78-3.86-.61-.68-1.01-.1-2.63.07-1.62.17-1.62-.6-2.17-.72Z"/>
      <path class="cls-2" d="M3.25,161.49s.01-.04.02-.06c.6-1.8,3.53-8.22,4.4-9.9.43-.82,5.33,1.12,4.48,2.67-.71,1.31-4.46,6.44-5.25,7.69-.64,1.02-1.37,2.29-2.82,1.59-.77-.37-1.05-1.23-.82-2Z"/>
      <path class="cls-3" d="M4.03,159.22c-.42-.37-.7-.35-1.04.27S-.2,164.84.01,165.4s9.99,5.88,10.39,5.93c.39.05,1.25-2.06.73-3.07-.51-1.01-3.09-5.67-3.21-6.16-.21-.89-.84-.57-2.34-1.2-1.51-.63-1.13-1.31-1.56-1.67Z"/>
      <path class="cls-11" d="M75.77,76.21c-.11,1.46-2.91,4.48-4.26,4.6-1.35.11-6.95-1.91-8.97-5.04-1.72-2.68-4.66-8.45-5.49-10.09-.14-.28-.22-.44-.22-.44v-.13s-.91-20.54-.91-20.54l-.24-5.44,1.27-4.86.2-.76s0,0,.01,0c.12.05,1,.48,2.17,1.48,1.56,1.34,3.63,3.7,5.12,7.61,2.69,7.06,4.15,23.43,5.49,26.34,1.35,2.91,5.94,5.83,5.83,7.29Z"/>
      <path class="cls-6" d="M51.65.89c-.19-.41-.89-.41-1.08,0-.1.21-.17.44-.24.68-.24-.69-.6-1.31-1.2-1.54-.19-.07-.48,0-.61.16-.29.33-.39.79-.39,1.27-.36-.68-.87-1.29-1.6-1.29-.71,0-.91.54-.9,1.16-.07-.11-.14-.21-.22-.32-.42-.55-1.41-.44-1.4.38,0,.18.04.38.09.58-.27-.12-.55-.19-.84-.17-1.38.07-.54,1.83-.1,2.43.03.04.06.08.09.12-.05-.02-.1-.05-.15-.07-.33-.16-.75-.48-1.14-.44-.28.03-.48.16-.57.44-.26.78.42,1.67,1.04,2.29-.71-.2-1.61-.42-2.11.18-.19.22-.25.51-.1.78.69,1.21,2.24,1.06,3.41,1.35.78.19,1.99.8,2.78.28.3-.2.31-.53.1-.8-.05-.06-.11-.12-.17-.16-.04-.15-.12-.3-.24-.44.28.17.58.07.76-.13.24.05.44-.14.45-.37,0-.02,0-.04,0-.06.05.04.11.07.19.09.07.02.13.01.19-.01.33.42,1.03.09,1.07-.42.01-.14,0-.29-.02-.44.03.04.06.08.09.13.04.05.11.06.17.05.24.44.81.46,1.06.1.31.2.78.17,1-.21.41-.73.51-1.55.62-2.37.15-1.11.49-2.13-.01-3.19Z"/>
      <path class="cls-10" d="M51.43,5.97s-.06-.1-.12-.16c-.56-.52-1.66-.19-2.3-.02-1.09.29-2.09.85-2.97,1.53-.41.32-.78.68-1.17,1.02-.33.29-.72.65-.66,1.13.05.37.36.57.71.41.47-.22.84-.8,1.23-1.14.44-.39.93-.74,1.44-1.04.68-.4,1.4-.71,2.15-.93.27-.08,1.95-.27,1.68-.81Z"/>
      <path class="cls-6" d="M57.57,8.2c-1.55-1.57-4.23-2.22-6.41-1.96-.97.12-1.98.36-2.87.75-.93.41-1.49.67-2.32,1.26-1.2.86-2.06,2.07-2.3,3.56-.23,1.39-.34,3.08-.01,4.44.39,1.63,1.03,3.28,2.25,4.51,1.65,1.65-.05-2.72-.2-3.26-.11-.37-.21-.73-.3-1.08.07.05.14.09.23.12.31.12.69-.08.85-.34.41-.68.39-1.49.36-2.3.11-.48.14-.99.05-1.4.68-.24,1.24-.97,1.73-1.43.26-.25.53-.52.8-.79.26.36.98.16,1.32-.09.28-.21.57-.42.85-.64.38.43.93.79,1.49.96.44.3.88.59,1.31.87,1.43.96,3.26,1.26,4.64,2.3.04.03.08.05.13.06.85.2,1.18-.62,1.02-1.26-1.33-3.2-2.13-3.83-2.6-4.29Z"/>
      <path class="cls-2" d="M43.55,29.98c-1.71,1.74,1.65,4.57,3.1,5.09,1.12.4,2.66.18,3.76-.16.75-.22,2.75-1.36,1.96-2.48-.14-.2-.4-.8-.28-1.13.24-.65.46-1.33.64-2.01,0,0,0-.01,0-.03.01-.05.03-.1.04-.16,0-.05.03-.1.04-.15,0-.02.01-.03.02-.05.97,0,1.92-.23,2.75-.8,1.9-1.28,2.7-2.94,3.49-5.03.49-1.28.87-2.57,1.02-3.88.04-.2.06-.4.06-.62,0-.08.01-.15.01-.24,0-.14,0-.26,0-.4,0-.45-.03-.91-.09-1.38-.13-1.72-.79-3.22-2.41-4.39-1.64-1.2-4.49-2.02-6.53-1.48-1.39.37-2.82,1.42-3.57,2.65-.38.6-.74,1.21-1.09,1.82,0,0-1.04-.37-1.46.35-1.02,1.75.88,5.26.88,5.26,0,0-.66,3.09-1.08,4.8-.34,1.38-.71,2.76-1.03,4.14-.02.07-.04.12-.05.19-.07,0-.13.04-.18.1Z"/>
      <path class="cls-3" d="M57.17,20.56c-.07-.31,0-.72.22-.86.15-.1.4-.13.51.05.17.28.1,1.07-.3,1.15-.24.05-.38-.12-.43-.34Z"/>
      <path class="cls-3" d="M50.01,19.23c-.08-.3,0-.72.2-.86.14-.1.4-.14.51.04.18.27.12,1.06-.28,1.16-.23.06-.38-.11-.44-.33Z"/>
      <path class="cls-7" d="M49.84,30.13c.64.51,1.42.95,2.24,1.18.24-.66.46-1.32.64-2.01,0,0-.02-.01-.03-.02.01,0,.03,0,.04,0,.01-.05.03-.1.04-.16,0-.05.02-.1.03-.15-.34-.2-.64-.17-1.08-.28-.74-.18-1.43-.54-1.96-1.08-.41-.43-1.19-1.48-1.57-.42-.37,1.03.93,2.38,1.64,2.94Z"/>
      <path class="cls-7" d="M54.75,22.71c-.18-.04-.29-.21-.26-.38l.52-3.06c.03-.18.2-.3.39-.27.17.03.3.2.27.39l-.52,3.06c-.03.18-.2.3-.39.27,0,0,0,0-.01,0Z"/>
      <path class="cls-6" d="M56.83,17.75c-.02.06.03.13.08.16.52.35,1.25.25,1.85.36.4.07.93.32,1.39.32,0-.08.01-.15.01-.24,0-.14,0-.26,0-.4-.43-.38-.98-.56-1.56-.62-.48-.05-1.58-.22-1.78.43Z"/>
      <path class="cls-6" d="M49.35,16c.38-.45,1.15-.34,1.66-.24.52.1,1.02.28,1.46.57.2.14.97.75.35.87-.4.07-.81-.18-1.19-.26-.6-.13-1.82-.19-2.29-.59-.11-.09-.08-.24.02-.35Z"/>
      <path class="cls-7" d="M54.25,25.04c-.44,0-1.11-.04-1.57-.26-.68-.33-1.44-1-1.47-1.03-.14-.12-.15-.34-.03-.47.12-.14.34-.15.47-.03,0,0,.72.64,1.31.93.46.22,1.37.21,1.68.18.19,0,.35.12.36.31.01.18-.12.35-.31.36-.05,0-.22.02-.46.02Z"/>
      <path class="cls-6" d="M60.57,13.96c-.27-1.67-.8-2.5-2.25-3.35-1.34-.78-2.87-1.09-4.4-1.14-.72-.02-2.3-.33-3.27-.03-.17-.03-.35-.07-.52-.16-.29-.15-.45-.23-.79-.21-.74.04-1.2.75-1.62,1.3-.5.64-.97,1.36-1.27,2.12-.2.5-.42,1.01-.46,1.55-.05.66.48,1.48,1.22,1.07.26-.15.53-.32.72-.56.2-.24.36-.5.58-.73.84-.88,2.07-1.41,3.21-1.8.47-.16.96-.28,1.42-.46.76.7,1.73,1.15,2.75,1.32.69.11,1.61.16,2.41,0-.05.01.55,1.12.61,1.21.28.43.58.88.73,1.38.1.36.13.75.23,1.11.04.15.32.99.59.58.55-.84.27-2.29.12-3.19Z"/>
      <g>
        <path class="cls-6" d="M60.19,14.72c-.06-.02-.12-.02-.19-.02-.02-.15-.06-.3-.14-.42,0-.01-.02-.02-.03-.03.05-.05.09-.09.13-.15.2-.28.21-.67-.04-.93-.18-.18-.41-.19-.61-.11-.01-.03-.02-.05-.03-.08-.06-.11-.19-.18-.32-.19.37-.45.6-1.05.18-1.49-.16-.17-.43-.19-.62-.08-.26.14-.35.39-.47.63.07-.39,0-.76-.33-.99-.13-.1-.34-.08-.47,0-.39.22-.37.65-.5,1.02-.05.13-.12.23-.19.34-.04-.04-.08-.07-.13-.09.1-.33.07-.68-.18-.94-.18-.18-.47-.17-.66,0-.18.17-.23.39-.31.62,0,.01-.03.05-.05.09-.04-.03-.08-.05-.13-.07,0,0-.04,0-.08-.02.11-.2.17-.41.09-.64-.05-.14-.18-.27-.34-.26-.25.02-.43.13-.61.29-.07.07-.11.15-.18.23-.06-.15-.19-.3-.32-.35-.09-.04-.18-.05-.26-.03.17-.48.24-1.02.02-1.41-.13-.23-.53-.32-.71-.09-.26.32-.35.74-.45,1.13-.04.16-.09.32-.16.48-.07-.03-.16-.04-.17-.05-.04,0-.09,0-.13,0-.02-.1-.04-.19-.08-.28-.09-.22-.27-.53-.55-.5-.32.03-.48.44-.55.7-.08.33-.11.6-.25.91-.04-.02-.08-.03-.12-.04-.1-.02-.21,0-.3.03,0-.38-.05-.75-.34-1.05-.28-.29-.68-.1-.82.22-.22.55-.02,1.24-.06,1.81,0,.02,0,.04,0,.06,0,0-.01-.01-.02-.01-.09-.05-.2-.06-.31-.04-.01-.06-.02-.13-.04-.18-.08-.31-.22-.74-.6-.79-.29-.03-.45.18-.53.43-.14.41-.03.85-.02,1.28,0,.23,0,.47-.02.7-.07-.02-.14,0-.2.02-.05,0-.11,0-.15.04-.56.36.11,1,.52,1.11.9.26,1.11-.93,1.13-1.58.33.17.78.19,1.06-.12.21-.24.32-.55.36-.86.07.07.16.13.28.17.35.12.75.08,1.01-.21.2-.22.36-.51.47-.81.4.33.99.23,1.34-.26,0,.09.02.17.05.24.1.33.5.58.83.59.22,0,.4-.09.57-.21.02.16.09.32.21.43.26.26.71.35,1.04.17.04-.02.08-.05.12-.08.07.14.2.27.37.34.36.16.71.11,1.02-.1.09.09.2.16.32.2.28.1.56.06.81-.08,0,.01-.01.03-.01.04-.08.34-.08.66.17.93.16.17.35.25.55.26-.09.3-.06.66.08.87.14.21.34.39.59.45.37.1.81-.13.89-.52.06-.28-.08-.6-.38-.67Z"/>
        <path class="cls-6" d="M55.04,11.81s.02.01.03.02c0,0,0,0-.03-.02Z"/>
      </g>
      <path class="cls-11" d="M61.87,44.72c-.23,2.63-1.82,8.46-3.49,14.6-.52,1.93-1.06,3.88-1.56,5.78-1.04,3.91-1.92,7.56-2.33,10.2,0,0,0,.01,0,.01-.78,5.08-15.26,5.49-15.93,5.49-.47,0-7.46-1.66-11.85-4,0,0-.02,0-.02,0-.04-.02-.08-.04-.11-.06,0,0,0,0,0,0-1.8-.98-3.13-2.07-3.36-3.21-.06-.29-.09-.69-.09-1.19-.01-6.16,4.12-26.72,4.91-29.22.86-2.7,2.01-11.73,8.63-12.96,1.13-.21,2.27-.34,3.43-.39.93-.04,1.87-.04,2.8,0,4.7.2,9.22,1.36,12.16,2.53.68.27,1.32.63,1.92,1.08.06.04.12.09.18.14,0,0,0,0,.01,0,.82.65,1.56,1.43,2.2,2.33,1.78,2.48,2.78,5.77,2.51,8.89Z"/>
      <path class="cls-4" d="M54.48,75.32s1.53,17.04,1.19,26.75c-.34,9.71-3.59,46.78-3.76,51.71-.17,4.93-2.11,5.53-6.9,5.68-4.78.15-7.47-.45-8.22-2.39-.75-1.94-.75-29.14-1.2-33.18s-1.35-18.08-1.35-18.53-1.49-10.46-.9-13.15c.6-2.69,5.38-15.84,5.38-15.84l15.74-1.05Z"/>
      <path class="cls-4" d="M37.69,105.21s-4.33,15.54-8.52,25.56c-4.18,10.01-10.76,25.11-13.45,26.16s-9.28-2.19-11.82-5.03c-2.54-2.84,6.59-22.62,9.43-29.64,2.84-7.02,3.74-28.99,5.83-37.51,2.09-8.52,3.95-12.4,3.95-12.4l15.63,4.03s4.63,8.07,4.71,8.52c.08.45-5.75,20.33-5.75,20.33Z"/>
      <path class="cls-4" d="M59.29,52c-.11,2.22-.45,4.76-.91,7.31-.39,2.16-.85,4.34-1.33,6.36-1.22,5.2-2.48,9.38-2.56,9.63,0,0,0,.01,0,.01,0,0-4.05,2.58-4.89,2.64-.84.05-5.89.67-6.15.67s-15.4-1.47-16.75-1.82c0,0-.02,0-.02,0-.03,0-.05-.01-.06-.02-.01,0-.03-.02-.05-.04,0,0,0,0,0,0-.6-.52-3.45-4.4-3.45-4.4,0,0,2.95-1.67,5.58-4.47,2.63-2.81,9.19-18.5,9.98-23.09.66-3.89,1.25-12.46,1.41-15.02.93-.04,1.87-.04,2.8,0,.07.85.17,2.45.2,4.77.04,3.64-.48,7.34,0,8.29.44.87,10.7,2.54,12.84,1.74.2-.07.33-.17.37-.29.39-1.04.58-6.99.66-10.01,0-.35.02-.65.02-.9.06.04.12.09.18.14,0,0,0,0,.01,0,.12.05,1,.48,2.17,1.48,0,.24.02.52.04.85.1,3,.26,9.51-.07,16.17Z"/>
      <path class="cls-2" d="M60.92,81.66s3.75.05,4.84,2.04c1.1,1.98.71,3.11-.91,3.49-2.19.5-5.71-2.71-5.71-2.71,0,0-14.49-9.69-16.17-11.76-5.56-6.85-.78-8.67,3.02-6.03,3.8,2.65,14.92,14.97,14.92,14.97Z"/>
      <path class="cls-11" d="M54.52,73.23c-.11,1.46-3.18,6.23-4.53,6.34-1.35.11-7.29-3.19-9.3-6.33-1.72-2.68-5.66-8.05-6.84-9.47-12.34-14.87.82-22.2.82-22.2l-.24-5.44,1.27-4.86.2-.76s0,0,.01,0c.12.05,4.17-.76,4.17-.76,0,0,1.88,4.11,2.85,10.14,1.2,7.46,4.42,23.14,5.76,26.05,1.35,2.91,5.94,5.83,5.83,7.29Z"/>
      <path class="cls-3" d="M67.14,85.63s2.02,1.05,4.63,4.63c2.62,3.59,9.12,19.8,9.12,19.8h4.83s-8.72-17.72-8.94-20.55,1.05-3.89,1.05-3.89h-10.69Z"/>
      <rect class="cls-3" x="98.9" y="149.7" width="20.66" height="6.5"/>
      <polygon class="cls-3" points="93.86 166.21 90.86 163.79 98.93 150.44 105.38 155.65 93.86 166.21"/>
      <g>
        <circle class="cls-5" cx="92.46" cy="165.45" r="5.66"/>
        <path class="cls-3" d="M94.77,165.45c0-1.27-1.03-2.3-2.3-2.3s-2.3,1.03-2.3,2.3,1.03,2.3,2.3,2.3,2.3-1.03,2.3-2.3Z"/>
      </g>
      <path class="cls-5" d="M126.13,139.56h.56c3.96,0,7.17,3.21,7.17,7.17v13.64h-14.91v-13.64c0-3.96,3.21-7.17,7.17-7.17Z"/>
      <path class="cls-3" d="M148.86,166.66h-44.26c-.35,0-.63-.28-.63-.63h0c0-3.9,3.16-7.07,7.07-7.07h31.38c3.9,0,7.07,3.16,7.07,7.07h0c0,.35-.28.63-.63.63Z"/>
      <path class="cls-3" d="M126.41,148.52c-.25,0-.45-.2-.45-.45v-2.67c0-.25.2-.45.45-.45s.45.2.45.45v2.67c0,.25-.2.45-.45.45Z"/>
      <path class="cls-3" d="M124.64,148.52c-.25,0-.45-.2-.45-.45v-2.67c0-.25.2-.45.45-.45s.45.2.45.45v2.67c0,.25-.2.45-.45.45Z"/>
      <path class="cls-3" d="M122.87,148.52c-.25,0-.45-.2-.45-.45v-2.67c0-.25.2-.45.45-.45s.45.2.45.45v2.67c0,.25-.2.45-.45.45Z"/>
      <path class="cls-3" d="M121.09,148.52c-.25,0-.45-.2-.45-.45v-2.67c0-.25.2-.45.45-.45s.45.2.45.45v2.67c0,.25-.2.45-.45.45Z"/>
      <path class="cls-3" d="M131.67,148.52c-.25,0-.45-.2-.45-.45v-2.67c0-.25.2-.45.45-.45s.45.2.45.45v2.67c0,.25-.2.45-.45.45Z"/>
      <path class="cls-3" d="M129.9,148.52c-.25,0-.45-.2-.45-.45v-2.67c0-.25.2-.45.45-.45s.45.2.45.45v2.67c0,.25-.2.45-.45.45Z"/>
      <path class="cls-3" d="M128.12,148.52c-.25,0-.45-.2-.45-.45v-2.67c0-.25.2-.45.45-.45s.45.2.45.45v2.67c0,.25-.2.45-.45.45Z"/>
      <path class="cls-5" d="M108.39,131.7c-.22,1.68-14.36,9.53-15.92,8.63-1.12-.64-7.53-15.4-10.88-24.32-.17-.45-.33-.89-.48-1.3-1.04-2.87-1.67-4.91-1.53-5.31.57-1.6,13.79-6.95,16.48-5.49.58.31,1.5,1.72,2.58,3.74.21.39.43.81.65,1.24,3.89,7.69,9.27,21.57,9.1,22.81Z"/>
      <path class="cls-3" d="M99.28,108.89l-17.7,7.12c-.17-.45-.33-.89-.48-1.3l17.53-7.06c.21.39.43.81.65,1.24Z"/>
      <path class="cls-1" d="M31.64,61.03c-.08,0-.16-.05-.2-.13-.02-.05-2.32-4.84-3.08-6.64-.77-1.81-1.07-2.92-1.08-2.96-.03-.12.04-.24.16-.27.12-.03.24.04.27.16,0,.01.31,1.13,1.06,2.9.76,1.79,3.05,6.57,3.08,6.62.05.11,0,.25-.11.3-.03.01-.06.02-.1.02Z"/>
      <path class="cls-9" d="M35.74,112.05s-.06,0-.09-.02c-.11-.05-.17-.18-.12-.3l6.77-15.51c.05-.11.18-.17.3-.12.11.05.17.18.12.3l-6.77,15.51c-.04.08-.12.13-.21.13Z"/>
    </g>
  </g>
</svg>