<?xml version="1.0" encoding="UTF-8"?>
<svg id="_レイヤー_2" data-name="レイヤー 2" xmlns="http://www.w3.org/2000/svg" viewBox="0 0 125.66 63.49">
  <defs>
    <style>
      .cls-1 {
        fill: #a65656;
      }

      .cls-2 {
        fill: #f7ecdc;
      }

      .cls-3 {
        fill: #412523;
      }

      .cls-4 {
        fill: #b65323;
      }

      .cls-5 {
        fill: #5359a5;
      }

      .cls-6 {
        fill: #fff;
      }

      .cls-7 {
        fill: #f0ad83;
      }
    </style>
  </defs>
  <g id="_ヘッダー2" data-name="ヘッダー2">
    <g>
      <g>
        <path class="cls-2" d="M10.58,18.42c2.56,1.74,26.88,23.73,33.79,29.25,3.42,2.73,6.75,5.56,9.95,8.53.78.72,1.55,1.45,2.31,2.19.06.06.13.12.19.19.03.03.05.05.08.08.06.06.13.12.19.19.73.71,1.45,1.42,2.16,2.15.71.72,1.39,1.61,2.17,2.25.55.45.94.21,1.6,0,.67-.21,1.35-.41,2.02-.62,9.54-2.91,19.07-5.83,28.61-8.74,10.67-3.26,21.33-6.52,32-9.78-13.87-11.72-28.04-23.11-42.47-34.14-3.81-2.91-7.65-5.8-11.5-8.66-2.07.32-4.11.82-6.12,1.41-.13.04-.26.07-.39.11-.81.24-1.62.5-2.43.76-.13.04-.25.08-.38.12-.8.26-1.59.53-2.38.81-2.61.9-5.21,1.81-7.86,2.56-2.81.8-5.66,1.45-8.5,2.14-11.32,2.73-30.99,8.58-33.04,9.2Z"/>
        <path class="cls-2" d="M7.69,16.37c2.06-.6,13.58-4.1,24.92-6.69,2.85-.65,5.71-1.27,8.53-2.04,2.66-.72,5.28-1.6,7.89-2.47,3.84-1.27,7.74-2.5,11.74-3.08,3.82,2.91,4.24,3.05,8.02,6.01,14.3,11.2,28.33,22.75,42.06,34.64-10.7,3.13-21.41,6.27-32.11,9.4-9.57,2.8-13.16,3.75-22.73,6.55-.68.2-1.35.4-2.03.59-.67.2-1.05.44-1.6-.02-.78-.65-1.44-1.55-2.14-2.28-1.59-1.65-40.02-38.84-42.55-40.61Z"/>
        <path class="cls-7" d="M56.63,58.38c.06.06.13.12.19.19.03.03.05.05.08.08l53.77-15.74-.23-.2c-14.39-12.46-29.22-24.67-44.08-36.31-1.19-.93-2.4-1.88-3.62-2.82-.09-.07-.18-.14-.28-.21-.13.04-.26.07-.39.11.1.07.19.15.29.22,1.28.99,2.55,1.98,3.8,2.96,14.78,11.57,29.53,23.71,43.84,36.1l-53.37,15.62Z"/>
        <g>
          <path class="cls-1" d="M89.04,36.29l-33.65,10.06c-.13-.13-.26-.27-.39-.4l33.57-10.04c.16.13.31.25.47.38Z"/>
          <path class="cls-1" d="M81.93,43.54c.12.13.23.27.35.4.23.26.11.67-.22.77l-9.84,2.96c-.19.06-.4-.01-.52-.17,0,0,0,0,0,0-.1-.14-.21-.28-.31-.42-.2-.27-.07-.65.25-.74l9.8-2.94c.18-.05.38,0,.5.15Z"/>
          <path class="cls-1" d="M85.06,32.15l-33.65,10.06c-.13-.13-.26-.27-.39-.4l33.57-10.04c.16.13.31.25.47.38Z"/>
          <path class="cls-1" d="M80.58,28l-33.65,10.06c-.13-.13-.26-.27-.39-.4l33.57-10.04c.16.13.31.25.47.38Z"/>
          <path class="cls-1" d="M76.61,23.86l-33.65,10.06c-.13-.13-.26-.27-.39-.4l33.57-10.04c.16.13.31.25.47.38Z"/>
          <path class="cls-1" d="M72.35,20.38l-33.65,10.06c-.13-.13-.26-.27-.39-.4l33.57-10.04c.16.13.31.25.47.38Z"/>
          <path class="cls-1" d="M68.37,16.23l-33.65,10.06c-.13-.13-.26-.27-.39-.4l33.57-10.04c.16.13.31.25.47.38Z"/>
          <path class="cls-1" d="M37.05,15.08c.16.13.32.25.49.37l-10.56,3.16c-.13-.13-.26-.27-.39-.4l10.47-3.13Z"/>
        </g>
      </g>
      <g>
        <path class="cls-3" d="M0,27.81c-.02.25.11.54.43.86,4.88,5.09,20.49,20.74,23.36,23.7.43.44,1.06.6,1.65.42,2.47-.75,9.9-3.18,18.02-5.35.79-.21,1.25-.55,1.26-.99,0-.25.19-.63.21-.76,0,0,0,0,0-.01,0,0-.04-.03-.11-.1-.07-.06-.18-.16-.32-.28-2.95-2.58-20.2-17.69-23.52-20.89-.36-.35-.87-.51-1.38-.44-3.57.55-16.32,2.4-18.9,2.78-.23.03-.38.05-.43.06-.02,0-.02,0-.02,0,0,0-.01.06-.03.15-.07.34-.2.48-.23.84Z"/>
        <path class="cls-3" d="M.23,26.97c0,.24.13.52.43.83,4.88,5.09,20.49,20.74,23.36,23.7.43.44,1.06.6,1.65.42,2.47-.75,9.9-3.18,18.02-5.35.72-.19,1.17-.49,1.25-.88,0,0,0,0,0-.01,0-.04.01-.09.01-.13,0-.11-.03-.22-.09-.34-.08-.17-.21-.34-.41-.53-6.37-6.12-19.98-19.17-23.62-22.68-.36-.35-.87-.51-1.38-.44-3.97.61-13.01,3.23-17.85,4.4-.51.12-.91.3-1.15.52-.09.09-.16.19-.2.3-.02.06-.03.12-.03.18Z"/>
        <path class="cls-6" d="M2.49,27.15c0,.18.1.39.32.63,3.69,3.85,18.26,17.73,20.43,19.96.32.33.8.45,1.25.32,1.87-.56,9.42-2.7,15.56-4.35.55-.15.89-.37.95-.67,0,0,0,0,0,0,0-.03,0-.06,0-.1,0-.08-.02-.17-.07-.26-.06-.12-.16-.26-.31-.4-4.82-4.63-17.27-16.73-20.02-19.38-.28-.27-.66-.39-1.04-.33-3.01.46-12.38,2.94-16.04,3.82-.39.09-.69.23-.87.4-.07.07-.12.15-.15.23-.01.04-.02.09-.02.13Z"/>
        <path class="cls-3" d="M22.95,42.93s0,.02.01.03c.16.17.83.8.92.9.01.01.04.02.06.01.08-.03.93-.29,1.2-.36.02,0,.04-.02.04-.03,0,0,0,0,0,0,0,0,0,0,0,0,0,0,0,0,0-.01,0,0,0-.01-.01-.02-.21-.21-.78-.77-.91-.89-.01-.01-.03-.02-.05-.01-.13.02-1.06.32-1.22.36-.02,0-.03.01-.04.02,0,0,0,0,0,.01,0,0,0,0,0,0Z"/>
        <path class="cls-3" d="M20.79,40.88s0,.02.01.03c.16.17.83.8.92.9.01.01.04.02.06.01.08-.03.93-.29,1.2-.36.02,0,.04-.02.04-.03,0,0,0,0,0,0,0,0,0,0,0,0,0,0,0,0,0-.01,0,0,0-.01-.01-.02-.21-.21-.78-.77-.91-.89-.01-.01-.03-.02-.05-.01-.13.02-1.06.32-1.22.36-.02,0-.03.01-.04.02,0,0,0,0,0,.01,0,0,0,0,0,0Z"/>
        <path class="cls-3" d="M18.69,38.73s0,.02.01.03c.16.17.83.8.92.9.01.01.04.02.06.01.08-.03.93-.29,1.2-.36.02,0,.04-.02.04-.03,0,0,0,0,0,0,0,0,0,0,0,0,0,0,0,0,0-.01,0,0,0-.01-.01-.02-.21-.21-.78-.77-.91-.89-.01-.01-.03-.02-.05-.01-.13.02-1.06.32-1.22.36-.02,0-.03.01-.04.02,0,0,0,0,0,.01,0,0,0,0,0,0Z"/>
        <path class="cls-3" d="M14.18,34.38s0,.02.01.03c.16.17.83.8.92.9.01.01.04.02.06.01.08-.03.93-.29,1.2-.36.02,0,.04-.02.04-.03,0,0,0,0,0,0,0,0,0,0,0,0,0,0,0,0,0-.01,0,0,0-.01-.01-.02-.21-.21-.78-.77-.91-.89-.01-.01-.03-.02-.05-.01-.13.02-1.06.32-1.22.36-.02,0-.03.01-.04.02,0,0,0,0,0,.01,0,0,0,0,0,0Z"/>
        <path class="cls-3" d="M12.19,32.54s0,.02.01.03c.16.17.83.8.92.9.01.01.04.02.06.01.08-.03.93-.29,1.2-.36.02,0,.04-.02.04-.03,0,0,0,0,0,0,0,0,0,0,0,0,0,0,0,0,0-.01,0,0,0-.01-.01-.02-.21-.21-.78-.77-.91-.89-.01-.01-.03-.02-.05-.01-.13.02-1.06.32-1.22.36-.02,0-.03.01-.04.02,0,0,0,0,0,.01,0,0,0,0,0,0Z"/>
        <path class="cls-3" d="M10.14,30.67s0,.02.01.03c.16.17.83.8.92.9.01.01.04.02.06.01.08-.03.93-.29,1.2-.36.02,0,.04-.02.04-.03,0,0,0,0,0,0,0,0,0,0,0,0,0,0,0,0,0-.01,0,0,0-.01-.01-.02-.21-.21-.78-.77-.91-.89-.01-.01-.03-.02-.05-.01-.13.02-1.06.32-1.22.36-.02,0-.03.01-.04.02,0,0,0,0,0,.01,0,0,0,0,0,0Z"/>
        <path class="cls-1" d="M.26,26.79s.02.02.02.03c3.91,4.02,10.25,10.41,15.51,15.73,3.7,3.74,6.9,6.97,8.09,8.18.36.37.83.57,1.33.59.22,0,.44-.02.66-.08.59-.18,1.43-.44,2.5-.78,3.7-1.16,9.8-3.07,16.45-4.88.04-.01.08-.02.12-.03,0-.11-.03-.22-.09-.34-.12.03-.23.06-.35.09-6.57,1.79-12.57,3.67-16.23,4.82-1.07.33-1.91.6-2.5.78-.18.05-.36.08-.54.07-.41-.02-.8-.19-1.09-.49-1.18-1.22-4.38-4.45-8.09-8.19-5.19-5.23-11.41-11.51-15.33-15.54-.09-.09-.18-.18-.26-.27-.09.09-.16.19-.2.3Z"/>
        <path class="cls-3" d="M26.57,42.09c1.91-.56,3.83-1.06,5.77-1.49.22-.05.29.29.07.34-1.94.43-3.86.93-5.77,1.49-.22.06-.29-.28-.07-.34Z"/>
        <path class="cls-3" d="M24.28,39.86c1.91-.56,3.83-1.06,5.77-1.49.22-.05.29.29.07.34-1.94.43-3.86.93-5.77,1.49-.22.06-.29-.28-.07-.34Z"/>
        <path class="cls-3" d="M21.74,37.96c1.91-.56,3.83-1.06,5.77-1.49.22-.05.29.29.07.34-1.94.43-3.86.93-5.77,1.49-.22.06-.29-.28-.07-.34Z"/>
        <path class="cls-3" d="M17.74,33.99c1.91-.56,3.83-1.06,5.77-1.49.22-.05.29.29.07.34-1.94.43-3.86.93-5.77,1.49-.22.06-.29-.28-.07-.34Z"/>
        <path class="cls-3" d="M15.45,31.76c1.91-.56,3.83-1.06,5.77-1.49.22-.05.29.29.07.34-1.94.43-3.86.93-5.77,1.49-.22.06-.29-.28-.07-.34Z"/>
        <path class="cls-3" d="M12.9,29.86c1.91-.56,3.83-1.06,5.77-1.49.22-.05.29.29.07.34-1.94.43-3.86.93-5.77,1.49-.22.06-.29-.28-.07-.34Z"/>
        <path class="cls-1" d="M30.92,47.22c2.3-.7,4.57-1.41,6.87-2.11.75-.23,1.3.86.56,1.08-2.3.7-4.6,1.41-6.9,2.11-.75.23-1.27-.86-.53-1.08Z"/>
      </g>
      <g>
        <path class="cls-3" d="M47.56,8.96l-2.83-1.92c-.26-.16-.41-.44-.41-.74l.02-2.59h3.15l.07,5.24Z"/>
        <path class="cls-3" d="M50.5,5.53c1.44,1.39,3.17,2.73,4.37,4.34.55.74.8,1.69,1.44,2.37.75.8,2.64.84,3.31-.13.7-1.01-.02-2.21-1.01-2.67-.84-.39-1.81-.17-2.62-.6-.74-.4-1.35-1.17-1.92-1.77-.71-.76-1.39-1.55-2.04-2.36-.21-.26.16-.63.37-.37.84,1.06,1.74,2.08,2.69,3.04.57.58,1.04,1.07,1.88,1.2.55.09,1.07.09,1.61.29,1.41.54,2.52,2.34,1.37,3.69-.56.65-1.62.83-2.44.82-.88-.02-1.53-.58-1.99-1.29-.3-.46-.5-.98-.79-1.46-.41-.68-.98-1.21-1.55-1.75-1.02-.99-2.04-1.97-3.07-2.96-.24-.23.13-.61.37-.37Z"/>
        <path class="cls-5" d="M44.66,3.31L54.83.02c.13-.04.28-.02.39.06l2.71,4.43c.52.56.5,1.14-.22,1.5-.42.22-2.25.88-2.67.83-.19-.02-.39-.15-.52-.32l-2.83.92c.17.71-.29.72-.96.94-.28.09-1.85.63-2.47.7-.45.05-.59.03-.92-.43l-2.8-4.57c-.29-.21-.22-.66.12-.77Z"/>
        <path class="cls-3" d="M54.39,5.57c.96-.32,1.92-.64,2.88-.96.32-.11.46.4.14.51-.96.32-1.92.64-2.88.96-.32.11-.46-.4-.14-.51Z"/>
        <path class="cls-3" d="M48.22,7.73c.81-.34,1.64-.6,2.49-.79.33-.07.47.43.14.51-.86.19-1.68.45-2.49.79-.31.13-.45-.38-.14-.51Z"/>
      </g>
      <g>
        <path class="cls-3" d="M124.47,32.49s.05-.14.05-.15c.27-.63-2.74-2.73-3.32-3.1-11.07-6.87-20.42-12.15-27.81-16.08-.22-.12-.43-.23-.64-.34-11.98-6.33-15.82-7.53-15.91-7.57-.64-.33-1.42-.09-1.77.54,0,0-.01.02-.01.03-.37.65-.12,1.48.55,1.82.13.07,4.36,2.92,15.04,8.86.21.12.42.23.63.35,7.99,4.43,17.96,9.71,28.63,14.78.71.34,4.26,1.59,4.57.87Z"/>
        <path class="cls-3" d="M89.39,11.97c-.37-.46-.06-1.03.21-1.45.01-.02.02-.03.04-.04,0,0-.01-.02-.02-.03-.13-.18-.28-.36-.43-.53-.38-.43-.8-.81-1.26-1.15-.83-.62-1.76-1.1-2.72-1.45-2.18-.8-4.52-.97-6.82-1.03-.32,0-.27-.51.05-.5,3.7.1,7.69.57,10.53,3.19.59.54,2.34,2.16,1.45,3.05-.3.3-.75.27-1.02-.06Z"/>
        <path class="cls-6" d="M91.27,16.84c.17-1.45.91-2.77,2.11-3.68-.22-.12-.43-.23-.64-.34-1.13.94-1.86,2.24-2.1,3.67.21.12.42.23.63.35Z"/>
        <path class="cls-3" d="M124.82,33.08c-.34-.21-.68-.41-1.02-.62-.28-.17.02-.57.3-.4.34.21.68.41,1.02.62.28.17-.02.57-.3.4Z"/>
      </g>
      <g>
        <g>
          <path class="cls-4" d="M99.51,26c.56-.67,1.71-.72,2.7-.28l3.72,1.63s-.08.09-.13.14l-3.71-1.63c-.87-.38-1.87-.36-2.36.23-.5.59-.13,1.31.75,1.7l10.29,4.51c.87.38,1.99.21,2.48-.38.5-.59.19-1.39-.69-1.77l-5.76-2.53s.09-.09.13-.14l5.75,2.52c.99.44,1.34,1.34.78,2.01-.56.67-1.83.86-2.82.43l-10.29-4.51c-.99-.44-1.4-1.26-.84-1.93Z"/>
          <path class="cls-4" d="M110.61,32.53l-10.29-4.51c-.6-.27-1.01-.68-1.12-1.13-.08-.33,0-.65.25-.94.55-.66,1.71-.79,2.8-.31l3.83,1.68-.25.28-3.77-1.65c-.91-.4-1.82-.32-2.26.21-.17.21-.24.44-.18.68.08.35.41.67.9.89l10.29,4.51c.84.37,1.91.21,2.38-.35.19-.23.26-.49.19-.75-.08-.36-.39-.68-.85-.88l-5.87-2.57.25-.28,5.81,2.55c.57.25.96.66,1.07,1.13.08.36,0,.72-.26,1.02-.29.34-.75.57-1.26.65-.54.09-1.14.03-1.66-.2ZM106.95,27.6l5.65,2.48c.51.22.85.59.95,1,.07.32,0,.64-.23.9-.32.38-.88.59-1.47.61.63-.01,1.22-.23,1.55-.63.22-.26.29-.56.22-.86-.1-.41-.45-.78-.97-1.01l-5.69-2.5h0ZM100.58,25.55c-.41.06-.77.23-1,.51-.2.24-.27.51-.21.79.09.4.47.77,1.02,1.01l10.29,4.51c.12.05.25.1.38.13-.11-.03-.22-.07-.33-.12l-10.29-4.51c-.54-.24-.9-.6-1-1.01-.07-.29,0-.58.22-.83.22-.26.54-.43.92-.49,0,0,0,0,0,0ZM102.18,25.8c-.14-.06-.28-.11-.42-.15.12.04.25.08.37.14l3.65,1.6h0s-3.61-1.59-3.61-1.59Z"/>
        </g>
        <g>
          <path class="cls-4" d="M101.84,28.1l4.17,1.83c.87.38,1.75.5,2.24-.09.5-.59.07-1.24-.81-1.62l-8.69-3.81c-.87-.38-1.93-.29-2.42.31-.5.59-.07,1.24.81,1.62l3.69,1.62s-.08.1-.12.14l-3.69-1.62c-.99-.44-1.46-1.19-.9-1.86.56-.67,1.77-.79,2.76-.36l8.69,3.81c.99.44,1.46,1.19.9,1.86s-1.58.57-2.58.14l-4.17-1.83s.08-.1.12-.14Z"/>
          <path class="cls-4" d="M105.86,30.15l-4.28-1.88.07-.09c.04-.05.08-.1.12-.15l.04-.05,4.23,1.86c.7.31,1.63.54,2.14-.06.16-.19.22-.4.17-.61-.08-.33-.42-.65-.95-.88l-8.69-3.81c-.87-.38-1.87-.26-2.32.28-.16.19-.22.4-.17.61.08.33.42.65.95.88l3.8,1.67-.08.09s-.08.09-.12.14l-.04.05-3.76-1.65c-.64-.28-1.07-.69-1.17-1.13-.07-.3.01-.6.24-.87.57-.68,1.8-.84,2.86-.38l8.69,3.81c.64.28,1.07.69,1.17,1.13.07.3-.01.6-.24.87-.22.26-.52.43-.89.49-.5.08-1.11-.02-1.79-.32ZM98.79,24.32l8.69,3.81c.58.25.96.62,1.05,1,.06.26-.01.52-.21.76-.17.2-.39.33-.65.4.3-.06.54-.2.72-.42.19-.23.26-.47.2-.72-.09-.38-.48-.75-1.07-1.01l-8.69-3.81c-.15-.07-.31-.12-.46-.16.14.04.28.08.41.14ZM101.86,28.21l4.07,1.78c.16.07.32.13.48.18-.14-.05-.28-.1-.43-.16l-4.12-1.81s0,0,0,0ZM97.11,26.41c-.58-.25-.96-.62-1.05-1-.06-.26.01-.52.21-.76.31-.38.86-.57,1.45-.56-.63-.01-1.2.19-1.53.58-.19.23-.26.47-.2.72.09.38.48.75,1.07,1.01l3.63,1.59s0,0,0,0l-3.59-1.57Z"/>
        </g>
      </g>
    </g>
  </g>
</svg>