<?xml version="1.0" encoding="UTF-8"?>
<svg id="_レイヤー_2" data-name="レイヤー 2" xmlns="http://www.w3.org/2000/svg" viewBox="0 0 59.21 97.3">
  <defs>
    <style>
      .cls-1 {
        fill: #2b0712;
      }

      .cls-2 {
        fill: #6c1c2e;
      }

      .cls-3 {
        fill: #3f364e;
      }

      .cls-4 {
        fill: #6e8ec9;
      }

      .cls-5 {
        fill: #fff;
      }

      .cls-6 {
        fill: #c8a86e;
      }

      .cls-7 {
        fill: #4f1820;
      }

      .cls-8 {
        fill: #983723;
      }

      .cls-9 {
        fill: #e7d3aa;
      }

      .cls-10 {
        fill: #b96a32;
      }

      .cls-11 {
        fill: #f19170;
      }
    </style>
  </defs>
  <g id="_ヘッダー2" data-name="ヘッダー2">
    <g>
      <g>
        <path class="cls-6" d="M59.21,1.58v90.1H10.38c-.28,0-.51-.23-.51-.51V1.58c0-.87.71-1.58,1.58-1.58h46.17c.87,0,1.58.71,1.58,1.58Z"/>
        <path class="cls-9" d="M14.35,4.03h39.84c.51,0,.92.41.92.92v86.74H13.43V4.95c0-.51.41-.92.92-.92Z"/>
        <path class="cls-5" d="M49.22,40.8c-.09,0-.17-.08-.17-.17V5.88c0-.09.08-.17.17-.17s.17.08.17.17v34.76c0,.09-.08.17-.17.17Z"/>
        <path class="cls-5" d="M51.33,89.46s-33.9-.17-33.9-.17c-.24,0-.45-.12-.58-.33-.12-.21-.13-.45-.01-.66,1-1.83,3.52-6.43,3.52-6.43.25-.44.67-.71,1.11-.71l25.42-.17c.36,0,.69.2.9.53l4.2,6.67c.16.26.17.6.03.87-.14.26-.4.4-.7.4ZM20.66,82.03c-.05.1-2.53,4.61-3.52,6.42-.06.1-.06.23,0,.33.06.1.17.17.29.17l33.9.17c.24,0,.36-.14.41-.23.09-.16.08-.37-.02-.52l-4.2-6.67c-.15-.24-.37-.38-.61-.38,0,0-25.43.17-25.43.17-.32,0-.63.2-.82.54Z"/>
        <path class="cls-5" d="M42.07,40.8c-.09,0-.17-.08-.17-.17V5.88c0-.09.08-.17.17-.17s.17.08.17.17v34.76c0,.09-.08.17-.17.17Z"/>
        <path class="cls-9" d="M41.94,18.41s-.05-.06-.09-.07c-.22-.25-.59-.33-.93-.19-.66.26-.77,1.14-.74,1.75.04.95.42,1.86.94,2.64.52.77,1.22,1.68,2.01,2.17.09.05.2-.02.2-.12-.05-2.14-.53-4.23-1.39-6.19Z"/>
        <path class="cls-5" d="M54.33,40.8h-19.05c-.5,0-.9-.4-.9-.88V6.67c0-.53.43-.96.96-.96h20.51c.09,0,.17.08.17.17s-.08.17-.17.17h-20.51c-.35,0-.63.28-.63.63v33.25c0,.3.25.55.56.55h19.05c.09,0,.17.08.17.17s-.08.17-.17.17Z"/>
        <path class="cls-9" d="M51.94,38.48c-3.92-.2-7.96-.06-11.75.61-2,.35-5.62,1.08-5.61,2.7,0,1.87,6.42,3.39,14.34,3.39,1.04,0,2.05-.03,3.02-.08v-6.62Z"/>
        <path class="cls-5" d="M48.92,45.34c-7.13,0-14.51-1.33-14.51-3.56,0-1.66,3.28-2.43,5.75-2.86,3.53-.62,7.49-.83,11.79-.61h.16v6.95h-.16c-.99.06-2.01.08-3.03.08ZM48.71,38.56c-3.04,0-5.89.23-8.49.69-1.35.24-5.48.96-5.48,2.53,0,1.56,5.69,3.23,14.17,3.23.96,0,1.92-.02,2.86-.07v-6.3c-1.04-.05-2.06-.07-3.06-.07Z"/>
        <g>
          <path class="cls-9" d="M41.17,33.75c-.12,0-.23.08-.23.23.03,1.63.38,4.86.49,5.74.02.13.1.23.2.27.71.25,3.06.17,3.8.18l.03-6.42c-1.46.03-3.43.03-4.3,0Z"/>
          <path class="cls-5" d="M44.23,40.34c-.98,0-2.15-.02-2.65-.19-.17-.06-.29-.22-.32-.41-.1-.78-.46-4.08-.5-5.76,0-.11.04-.21.11-.29.08-.07.18-.12.29-.11.89.03,2.88.03,4.29,0,.1,0,.17.07.17.16,0,.09-.07.17-.16.17-1.42.03-3.41.03-4.31,0-.02,0-.04,0-.05.01,0,0-.01.01-.01.04.03,1.66.39,4.94.49,5.72,0,.06.04.12.09.13.53.18,2.12.18,3.07.17.28,0,.52,0,.68,0,.09,0,.17.08.16.17,0,.09-.08.16-.17.16-.16,0-.4,0-.67,0-.17,0-.35,0-.54,0Z"/>
          <path class="cls-5" d="M44.9,33.8c.4-2.57-.18-5.22-.98-7.66-.85-2.6-2.03-5.11-3.46-7.45-.62-1.02-1.29-2.02-2.07-2.94-.14-.17-.38.07-.24.24,1.47,1.73,2.62,3.76,3.61,5.79,1.2,2.45,2.2,5.06,2.67,7.76.24,1.37.34,2.79.13,4.17-.03.21.29.3.32.09h0Z"/>
          <path class="cls-5" d="M43.71,33.65c-.21-1.33-.95-2.6-1.64-3.74-.81-1.33-1.72-2.6-2.71-3.8-.42-.51-.85-1.01-1.32-1.46-.16-.15-.39.09-.24.24.92.88,1.71,1.9,2.45,2.93.92,1.25,1.78,2.56,2.45,3.96.3.62.57,1.27.67,1.96.03.21.36.12.32-.09h0Z"/>
          <path class="cls-5" d="M41.92,29.85c.1-1.91-.77-4.01-2.39-5.11-.64-.43-1.76-.55-2.09.33-.35.93.52,2.04,1.17,2.61.96.84,2.05,1.53,3.05,2.31.17.13.34-.16.17-.29-.96-.74-1.98-1.4-2.9-2.18-.42-.36-.79-.78-1.02-1.29-.28-.61-.3-1.43.55-1.5.58-.04,1.09.4,1.47.78.36.36.67.77.92,1.21.54.95.79,2.03.73,3.12-.01.22.33.22.34,0h0Z"/>
          <path class="cls-5" d="M39.4,25.06c.08.48.09.95.05,1.43-.02.22.32.21.34,0,.04-.51.02-1.01-.06-1.52-.04-.21-.36-.12-.32.09h0Z"/>
          <path class="cls-5" d="M40.42,27.73c-.61-.02-1.23-.22-1.79-.45-.2-.08-.29.24-.09.32.59.25,1.23.44,1.88.46.22,0,.22-.33,0-.34h0Z"/>
          <path class="cls-5" d="M43.52,25.16c.13-.85,0-1.71-.13-2.55-.12-.84-.28-1.69-.54-2.5-.47-1.48-1.31-2.94-2.54-3.91-.51-.4-1.16-.74-1.82-.71-.63.03-1.05.43-1.13,1.05-.19,1.51.67,3.08,1.56,4.22.59.76,1.28,1.43,1.96,2.11.75.74,1.51,1.49,2.26,2.23.15.15.39-.09.24-.24-1.1-1.08-2.22-2.14-3.28-3.25-1-1.05-1.93-2.25-2.28-3.69-.14-.57-.39-1.74.34-2.03.62-.24,1.38.15,1.87.51,1.14.84,1.95,2.19,2.41,3.51.27.77.44,1.56.57,2.37.15.91.33,1.88.2,2.8-.03.21.29.3.32.09h0Z"/>
          <path class="cls-5" d="M45.34,25.5c-.34.59-.64,1.2-1.13,1.68-.15.15.08.39.24.24.51-.51.83-1.13,1.18-1.75.11-.19-.18-.36-.29-.17h0Z"/>
          <path class="cls-5" d="M44.4,27.33c-.02-1.31-.03-2.63.18-3.92.17-1.06.5-2.01,1.05-2.94.11-.19-.18-.35-.29-.17-.57.95-.91,1.93-1.09,3.02-.21,1.33-.21,2.67-.19,4.01,0,.22.34.22.34,0h0Z"/>
          <path class="cls-5" d="M44.82,30.81c-.18-.61-.5-1.17-.96-1.63-.22-.22-.47-.41-.73-.57-.21-.12-.51-.32-.76-.22-.57.23.08,1.05.32,1.29.55.54,1.3.8,1.85,1.33.16.15.4-.09.24-.24-.36-.34-.8-.58-1.22-.85-.23-.14-.45-.29-.64-.48-.07-.07-.62-.66-.31-.72.14-.02.53.29.63.37.2.15.38.32.54.51.33.38.56.82.7,1.3.06.21.39.12.32-.09h0Z"/>
          <path class="cls-5" d="M45.45,31.4c-.17.07-.3.1-.48.07-.21-.04-.3.29-.09.32.24.04.43.02.66-.07.08-.04.14-.11.12-.21-.02-.08-.12-.15-.21-.12h0Z"/>
          <path class="cls-5" d="M45.03,31.41c.11-.78.24-1.59.6-2.29.1-.19-.19-.36-.29-.17-.38.73-.53,1.56-.64,2.37-.03.21.29.3.32.09h0Z"/>
          <path class="cls-5" d="M40.34,16.73c.05.6.08,1.19-.08,1.78-.06.21.27.3.32.09.17-.61.14-1.24.09-1.87-.02-.21-.35-.22-.34,0h0Z"/>
          <path class="cls-5" d="M42.23,22.19c-1.12-.48-2.19-1.07-3.18-1.78-.18-.13-.34.17-.17.29,1,.71,2.06,1.3,3.18,1.78.2.08.37-.21.17-.29h0Z"/>
          <path class="cls-5" d="M45.33,22.58c-.49,1.53-.72,3.13-1.17,4.68-.06.21.26.3.32.09.45-1.54.68-3.14,1.17-4.68.07-.21-.26-.3-.32-.09h0Z"/>
          <path class="cls-5" d="M44.88,21.26c-.09.71-.02,1.35.3,2,.1.19.39.02.29-.17-.3-.59-.33-1.18-.25-1.83.03-.21-.31-.21-.34,0h0Z"/>
        </g>
        <path class="cls-1" d="M57.99,91.35c-.07,0-.13-.06-.13-.13V1.77c0-.43-.35-.78-.78-.78H11.82c-.43,0-.78.35-.78.78v89.45c0,.07-.06.13-.13.13s-.13-.06-.13-.13V1.77c0-.58.47-1.05,1.05-1.05h45.26c.58,0,1.05.47,1.05,1.05v89.45c0,.07-.06.13-.13.13Z"/>
        <path class="cls-6" d="M56.45,90.52c-.17.44-.36.91-.61,1.17h-.74l-10.43-4.2c-.26-.24-.41-.57-.41-.92l.21-76.43c0-.31.12-.61.33-.84l9.92-5.09.39-.48c.76-.83,1.34,1.29,1.34,2.41v82.21s.34,1.33,0,2.17Z"/>
        <path class="cls-1" d="M55.24,91.35c-.07,0-.13-.06-.13-.13l-.13-87.08c0-.07.06-.13.13-.13.07,0,.13.06.13.13l.13,87.08c0,.07-.06.13-.13.13h0Z"/>
        <path class="cls-1" d="M52.84,83.78s-.02,0-.04,0l-6.33-1.71c-.06-.02-.1-.07-.1-.13V9.46c0-.05.03-.1.07-.12l6.33-3.16s.09-.02.13,0c.04.02.06.07.06.11v77.35s-.02.08-.05.11c-.02.02-.05.03-.08.03ZM46.64,81.84l6.06,1.64V6.52l-6.06,3.03v72.29Z"/>
        <path class="cls-1" d="M48.35,82.5c-.07,0-.13-.06-.13-.13V8.69c0-.07.06-.13.13-.13s.13.06.13.13v73.67c0,.07-.06.13-.13.13Z"/>
        <path class="cls-6" d="M47.03,51.78l-1.99-.25c-.13-.02-.24-.16-.24-.32v-8.38c0-.16.11-.27.24-.26l1.99.25c.13.02.24.16.24.32v8.38c0,.16-.11.27-.24.26Z"/>
        <path class="cls-1" d="M47.05,51.91s-.03,0-.04,0l-1.99-.25c-.2-.02-.35-.22-.35-.45v-8.38c0-.12.05-.24.13-.31.07-.06.16-.09.26-.08l1.99.25c.2.02.35.22.35.45v8.38c0,.12-.05.24-.13.31-.06.05-.14.08-.21.08ZM45.01,42.71s-.02,0-.04.01c-.03.02-.04.06-.04.11v8.38c0,.1.06.18.12.18l1.99.25s.03,0,.04-.01c.03-.02.04-.06.04-.11v-8.38c0-.1-.06-.18-.12-.18l-1.99-.25s0,0,0,0Z"/>
        <path class="cls-1" d="M50.02,46.52c-1.04-.57-2.1-1.08-3.2-1.54-.16-.45-.69-.77-1.13-.43-.41.32-.39.88-.2,1.31.06.14.21.23.37.25.08.03.17.05.27.05.14,0,.29-.05.41-.14,1,.42,1.98.89,2.93,1.42.61.34,1.15-.59.54-.93Z"/>
        <path class="cls-1" d="M50.46,83.09c-.07,0-.13-.06-.13-.13V7.68c0-.07.06-.13.13-.13s.13.06.13.13v75.27c0,.07-.06.13-.13.13Z"/>
        <path class="cls-5" d="M13.48,85.39s-.07-.01-.1-.04c-.07-.06-.09-.16-.03-.24l7.85-10.1c.33-.42.51-.95.51-1.49l-.33-69.5c0-.09.07-.17.17-.17.09,0,.17.07.17.17l.33,69.5c0,.61-.2,1.22-.58,1.7l-7.85,10.1s-.08.06-.13.06Z"/>
        <path class="cls-1" d="M46.65,48.4c-.11-.25-.32-.46-.61-.46-.28,0-.51.18-.62.43-.25.52-.14,1.22.47,1.4.25.07.54-.07.64-.31.06-.05.11-.11.15-.18.16-.28.1-.6-.02-.88Z"/>
        <path class="cls-5" d="M39.71,56.4h-.26c-.15,0-.29-.06-.4-.17-.1-.11-.15-.26-.14-.41l.85-11.53c0-.09.08-.16.18-.16.09,0,.16.09.16.18l-.85,11.53c0,.06.02.11.05.16.04.04.09.07.15.07h.26s.08-.03.08-.07l1.14-11.17c0-.09.09-.16.18-.15.09,0,.16.09.15.18l-1.14,11.17c-.02.21-.2.37-.41.37Z"/>
      </g>
      <g>
        <path class="cls-11" d="M26.14,18.82s-.05-.07-.08-.08c-.24-.26-.6-.5-.91-.19-.39.4.03.94.29,1.28.19.25.58.91.89.39.24-.39,0-1.03-.19-1.4Z"/>
        <path class="cls-11" d="M31.48,16.78c-.02-.1-.09-.14-.16-.13,0-.04-.01-.09-.05-.12-.86-.99-2.23-1.45-3.51-1.13-.93.23-2.01,1.26-1.97,2.3-.04.03-.07.08-.07.14-.05.96.09,1.88.39,2.78,0,.83-.24,2.56-.23,2.59-.16.36-.13.61.43.56.57-.05,1.13-.18,1.71-.14.68.05,1.28.34,1.88.64.1.05.2,0,.25-.07.05-.03.1-.08.1-.16.02-.4.04-.8.05-1.2,0-.06.05-.1.1-.11.89-.03,1.2-1.13,1.32-1.92.2-1.34-.02-2.7-.25-4.02Z"/>
        <path class="cls-1" d="M23.32,87.98c.01-.1.07-.16.14-.17.01-.02.02-.04.04-.05-.08-.66-.28-1.27-.73-1.79-.52-.59-1.25-1-1.95-1.35-1.48-.75-3.18-.72-4.63.09-.07.04-.1.11-.09.17-.04.01-.07.04-.1.09-.26.48-.44,1.06-.15,1.57.3.52.98.92,1.43,1.3.05.04.11.05.16.04,1.03.68,2.22,1.05,3.44,1.28.92.18,1.75.34,2.42-.48.02-.23-.01-.47.01-.7Z"/>
        <path class="cls-1" d="M31.2,17.12c-.89-.08-1.77-.04-2.65.11-.44.08-.88.18-1.31.32-.5.16-.99.43-1.51.51-.04,0-.07.02-.1.03-.13,0-.44-.14-.43.02.02.67.19,1.32.36,1.96.07.27.29,1.67.6,1.68.08,0,.15-.03.22-.07.2-.12.37-.29.55-.43.37-.28.94-.35,1.32-.05.31.24.52.49.94.5.72.02,1.17-.53,1.35-1.17.08-.29.11-.58.16-.87.08-.4.34-.65.51-1,.13-.27.51-1.51-.02-1.55Z"/>
        <path class="cls-10" d="M18.63,91.82c.02-.23.42-1.51.48-1.73.17-.63.34-1.27.51-1.9.06-.21.65-2.87.76-2.87.14,0,.28-.15.17-.3-.64-.92-3.06-1.25-3.09-1.23,0,0-.02,0-.02,0-.07.01-.11.06-.13.11-.53,1.8-1.33,4.92-1.85,6.71.65-.26,3.16,1.24,3.16,1.21Z"/>
        <path class="cls-2" d="M21.45,96.16c-.44-.85-.92-1.67-1.37-2.51-.04-.08-.07-.17-.1-.26-.14-.52-.38-1.15-.5-1.68-.04-.17-.06-.37-.14-.53-.07-.13-.21-.2-.35-.18-.12.01-.26.04-.36.07-.07.02-.14.03-.26,0-.27-.07-.47-.25-.65-.45-.23-.25-.46-.5-.78-.66-.93-.46-1.41.02-1.44.13-.15.49-.56,1.91-.54,2.07.09.67.71,1.19,1.07,1.74.3.56,2.89,3.12,4.09,3.37.98.2,1.71-.39,1.34-1.11Z"/>
        <path class="cls-1" d="M32.11,16.51c-.16-1.95-2.48-2.94-4.19-2.66-.89.15-1.94.44-2.5,1.21-.28.39-.29.83-.61,1.19-.29.32-.54.63-.61,1.09-.1.71.37,1.17.99,1.3.34.2.7.13,1.03-.02.5.45,1.12.36,1.69.05.15.21.38.35.69.4.23.04.46.02.68-.05.43.09.86.06,1.18-.28.2-.21.29-.47.33-.75.88.12,1.37-.66,1.3-1.48Z"/>
        <path class="cls-1" d="M18.57,57.07c-.38-.81-1.19-1.19-2.01-1.44-1.16-.35-2.36-.46-3.57-.38-.02-.06-.08-.25-.15-.23-1.9.54.86,2.25,1.51,2.52,1.05.43,3.55,1.16,4.19-.25.01-.03.01-.05,0-.08.03-.04.05-.09.02-.15Z"/>
        <path class="cls-11" d="M31.73,17.96c-.71-.73-1.14,1.38-.81,1.87.09.14.25.21.4.16.21-.07.29-.34.36-.53.14-.39.4-1.15.06-1.5Z"/>
        <path class="cls-10" d="M37.74,89.92c.19-.19-.8-1.82-.8-2.04-.19-.93-.39-1.86-.58-2.79,0-.04-.03-.07-.06-.08.09-.09.02-.28-.14-.25-.54.13-1.07.31-1.57.56-.35.18-1.39.82-1.37.94.1.72.87,3.02,1.16,4.38.48-.47,3.07-.45,3.34-.73Z"/>
        <path class="cls-2" d="M40.78,86.69c-.57-.24-1.23.14-1.73.37-.4.18-1.32.53-1.78.75-.12.06-.32.06-.17.67.15.6-.44,1.25-1,1.23-1.47-.06-1.93.2-1.92.53.03.64.39,1.69.49,1.92.3.69,1.67.47,2.41.02,1.73-1.05,1.92-1.93,3.26-3.12.38-.33,1.59-1.89.45-2.37Z"/>
        <path class="cls-7" d="M30.54,14.89c-1.6-.04-2.92,2.42-1.74,3.63.09.09.23-.05.14-.14-1.06-1.08.18-3.32,1.6-3.29.13,0,.13-.2,0-.2h0Z"/>
        <g>
          <path class="cls-11" d="M14.34,52.99c-.06,0-.11,0-.16.02-.19-.08-1.02,2.68-1.15,3.14-.18.62-.35,1.26-.73,1.8-.46.66-1.04,1.2-1.45,1.9-.59.98.1,1.95.42,2.89.1.3.24.61.59.68.35.07.97-.31,1.3-.44.44-.18.77-.43,1.08-.79.06-.06.86-.96.92-1.03-.06.97,0,2,.33,2.24.17.13.59.05.59-.16-.01-.95-.03-2.25.03-3.06.05-.67-.15-1.11-.33-1.8-.04-.15-.04-.31.01-.47.33-1.09.8-1.79,1.04-2.96.13-.07-1.59-1.84-2.5-1.95Z"/>
          <g>
            <path class="cls-3" d="M20.82,65.25c.05-.31-.85-1.1-1.55-1.18-2.8-.32-10.08-1.07-12.93-.56-.61.11-.96.23-1.16.8-.52,1.42-1.82,4.93-2.33,6.53-.25.8-.94,2.8-1.11,3.74-.17.99.21.9,1.05,1.25.81.34,11.62.15,14.05.14.5,0,.79-.35.84-.73.15-.09.27-.24.33-.45.56-1.8,2.45-7.35,2.8-9.56Z"/>
            <g>
              <path class="cls-3" d="M18.84,65.65c-2.42,5.35-4.49,11.28-9.13,15.16-1.07.89-2.3,1.67-3.62,2.14-1.04.36-2.55.74-3.53,0-1.01-.76-.85-2.41-.69-3.5.22-1.54,2.43-10.62,4.15-13.63.57-1-.99-1.86-1.56-.86-1.72,3.01-4.08,12.37-4.32,14.06-.21,1.46-.32,3.11.5,4.43,1.77,2.83,5.83,1.54,8.12.2,2.72-1.6,4.85-4.03,6.53-6.66,2.1-3.28,3.5-6.93,5.09-10.46.47-1.04-1.08-1.91-1.56-.86Z"/>
              <path class="cls-1" d="M5.73,64.08c.27.01.52.14.75.26.14.08.49.23.55.4.04.13-.07.4-.1.53-.18.73-.42,1.45-.65,2.17-.63,1.95-1.31,3.88-2.01,5.81-.28.76-.56,1.52-.87,2.27-.07.16.19.23.26.07.72-1.71,1.32-3.47,1.92-5.22.59-1.71,1.26-3.44,1.66-5.21.05-.23.12-.45-.05-.64-.33-.36-.96-.67-1.45-.7-.17,0-.17.26,0,.27h0Z"/>
              <path class="cls-1" d="M5.3,70.41c.22.7.87.69,1.46.72.86.05,1.72.08,2.59.11,2.28.09,4.57.16,6.86.2.5,0,1,.01,1.5.01.41,0,1.01.09,1.33-.19.13-.11-.06-.3-.19-.19-.24.2-.89.11-1.19.11-.42,0-.84,0-1.25-.01-1.04-.02-2.08-.04-3.12-.07-2-.06-4-.12-6-.22-.56-.03-1.52.11-1.72-.55-.05-.16-.31-.09-.26.07h0Z"/>
              <path class="cls-3" d="M13.59,60.23c-2.56.04-3.05,1.65-3.8,2.96-.36.64.64,1.2,1,.56.48-.85.88-2.13,2.18-2.3,1.58-.2,1.5,1.33,1.39,2.25-.09.72,1.02,1.01,1.11.28.19-1.49.07-3.79-1.88-3.76Z"/>
              <path class="cls-1" d="M4.98,64.86c.31.03,1.07.1,1.2.47,0,.02,0,.14-.03.21-.1.41-.28.81-.44,1.2-.7,1.71-1.41,3.42-2.01,5.17-.41,1.19-.78,2.39-1.08,3.61-.04.17.22.24.26.07.58-2.31,1.39-4.56,2.27-6.77.31-.77.63-1.54.94-2.31.14-.34.34-.73.36-1.1.04-.64-1.02-.78-1.47-.82-.17-.02-.17.25,0,.27h0Z"/>
              <path class="cls-1" d="M8.06,64.78c3.86.16,7.72.32,11.58.48.17,0,.17-.26,0-.27-3.86-.16-7.72-.32-11.58-.48-.17,0-.17.26,0,.27h0Z"/>
              <path class="cls-1" d="M14.19,76.18c.49,0,.97,0,1.46-.01.17,0,.17-.27,0-.27-.49,0-.97,0-1.46.01-.17,0-.17.27,0,.27h0Z"/>
            </g>
          </g>
          <path class="cls-1" d="M9.67,63.44c-.08.54.64.45.97.42.17-.01.17-.28,0-.27-.09,0-.74.09-.71-.08.02-.17-.23-.24-.26-.07h0Z"/>
          <path class="cls-1" d="M12.6,61.41c.64-.28,1.69-.64,2.1.15.34.65.25,1.59.2,2.3-.01.17.26.17.27,0,.06-.83.18-2.04-.43-2.7-.59-.64-1.61-.28-2.28.01-.16.07-.02.3.14.23h0Z"/>
          <path class="cls-11" d="M14.58,59.18c-.18.02-.35.09-.5.21-.26-.26-.63-.41-.82,0-.31-.33-.93-.58-1.02,0-.09-.12-.2-.22-.34-.25-.49-.12-.58.47-.51.79.26,1.17.05,2.86-.11,2.71-.03-.03.14.12.16.15.06.3.31.34.6.34.21,0,.4-.04.57-.14.29.12.63-.07.86-.34.13.02.27-.01.39-.06.17-.07.32-.18.43-.31.26-.06.5-.15.69-.34.36-.36.49-2.27-.4-2.75Z"/>
          <path class="cls-8" d="M11.59,60.44c-.02-.2-.06-.43.04-.61.17-.31.5-.12.63.1.16.27.21.64.24.95.06.64-.06,1.27-.32,1.85-.07.16.16.29.23.14.41-.89.55-2.04.13-2.96-.14-.31-.45-.62-.82-.5-.44.14-.45.65-.41,1.03.02.17.29.17.27,0h0Z"/>
          <path class="cls-8" d="M12.47,59.69c.59-.29.95.54,1.07.97.14.49.14,1.01.06,1.51-.03.17.23.24.26.07.11-.72.08-1.46-.24-2.12-.23-.5-.71-.93-1.28-.66-.16.08-.02.31.14.23h0Z"/>
          <path class="cls-8" d="M13.49,59.68c1.07-.63,1.07,1.57,1.06,2.12,0,.17.27.17.27,0,.01-.65.02-1.42-.29-2.02-.23-.44-.75-.59-1.18-.34-.15.09-.01.32.14.23h0Z"/>
          <path class="cls-8" d="M14.33,59.54c.72.12.78.93.8,1.52,0,.17.27.17.27,0-.02-.7-.15-1.64-1-1.78-.17-.03-.24.23-.07.26h0Z"/>
          <path class="cls-8" d="M14.45,58.4c-.37.26-.55.72-.42,1.16.05.17.31.1.26-.07-.09-.32.02-.67.3-.86.14-.1,0-.33-.14-.23h0Z"/>
        </g>
        <path class="cls-7" d="M31.12,16.6c-.29.44-.4.94-.31,1.46.02.13.22.07.19-.05-.08-.47.03-.91.29-1.3.07-.11-.1-.21-.17-.1h0Z"/>
        <path class="cls-11" d="M48.24,44.93c0-.24-.15-.46-.36-.58-.02-.18-.06-.35-.14-.5-.16-.31-.46-.45-.78-.56-.17-.18-.37-.32-.61-.37-.44-.1-.85.12-1.24.31-.48.23-.96.48-1.44.73-.05.02-.08.06-.1.1-.07.05-.13.14-.14.27-.08,1.02-.24,2.03-.46,3.03-.07.31.23.48.42.36,0,0,.02.02.03.03.76.58,2.86.12,3.34-.79.17-.32,1.6-.87,1.6-1.25,0-.18-.34-.05-.34-.2.15-.15.24-.35.23-.57Z"/>
        <path class="cls-7" d="M30.68,18.2c-.13.36-.39.88-.87.75-.19-.05-.33-.21-.54-.22-.15,0-.29.07-.41.15-.11.07-.23.18-.37.18-.16,0-.27-.16-.38-.25-.45-.34-.83.24-1.29-.02-.15-.08-.25-.21-.43-.18-.15.02-.25.15-.39.19-.22.06-.39-.06-.56-.18-.11-.07-.21.1-.1.17.19.13.39.26.62.22.18-.03.4-.23.59-.17.12.04.21.16.34.2.28.09.47-.04.72-.12.39-.13.48.28.81.33.21.03.37-.1.55-.2.2-.12.35-.13.56-.02.11.06.21.11.33.13.55.08.87-.47,1.02-.91.04-.12-.15-.18-.19-.05h0Z"/>
        <path class="cls-7" d="M26.72,14.55c-1.24.86-1.63,3.21-.39,4.23.1.08.24-.06.14-.14-1.14-.94-.79-3.13.35-3.92.11-.07,0-.25-.1-.17h0Z"/>
        <path class="cls-7" d="M25.04,16.45c.05.19.15.36.29.5.09.09.23-.05.14-.14-.12-.12-.2-.26-.24-.42-.03-.12-.23-.07-.19.05h0Z"/>
        <path class="cls-8" d="M30.15,21.38c-.02.3-.05.59-.07.89-.01.17.25.17.27,0,.02-.3.05-.59.07-.89.01-.17-.25-.17-.27,0h0Z"/>
        <path class="cls-8" d="M30.88,19.05c-.03.25.02,1.45.56,1.09.14-.09,0-.33-.14-.23-.08.05-.15-.38-.16-.42-.02-.15-.01-.29,0-.44.02-.17-.25-.17-.27,0h0Z"/>
        <path class="cls-1" d="M36.72,53.6s0-.01,0-.02c-.44-.9-1.57-2.72-2.82-2.41-.6.15-.64.85-.67,1.37-.05.86.07,1.73.14,2.59-.31.09-.27.62.11.62,1.22,0,3.06.11,3.67-2.06.04-.13-.32-.04-.42-.09Z"/>
        <path class="cls-8" d="M31.44,18.27c.03.33,0,.66-.09.99-.04.17.21.24.26.07.09-.35.13-.7.1-1.06-.01-.17-.28-.17-.27,0h0Z"/>
        <path class="cls-4" d="M18.25,57.62c0,.2.18-.15.3-.4,3.17-6.57,4.51-20.46,3.67-24.65-.33-1.64-1.16-3.64-2.95-3.91-.1-.02-.19-.08-.21-.18-.04-.18.24-.69.06-.54-1.62,1.29-1.78,2.33-2.33,4.87-.44,2.01-1.48,10.19-2.01,12.18-.42,1.59-2.15,7.4-2.63,10.47-.03.17.13.36.28.3,2.65-1.08,5.82,1.2,5.81,1.86Z"/>
        <path class="cls-1" d="M20.52,48.57c-.46-.27-1.15.07-1.56.29-.75.4-1.92.18-2.59.7-.13,1.19-.21,2.38-.04,2.96.17.59.84.87,1.39,1.09.72.28,1.5.4,2.27.32.62-.07.82-.21.78-.86-.06-.91-.03-1.8.06-2.71.05-.51.24-1.48-.31-1.8Z"/>
        <path class="cls-5" d="M27.48,48.48c-.58-1.66-6.75,1.36-7.51,1.84-.05.03-.84-.14-.85-.09-1.29,4.69-.35,9.82-.31,14.64.02,2.61.01,5.23-.31,7.82-.31,2.53-2.15,9.43-2.8,13.02-.06.35,1.2-1.1,4.18.22,1.75.77,3.25,2.28,3.19,2.92-.02.24.29-.17.4-.38,2.53-4.76,4.27-11.43,4.62-22.34,0,0,.07-2.59.08-2.76,0,0,0-.01,0-.02-.14-1.88.78-10.61-.69-14.87Z"/>
        <path class="cls-5" d="M37.68,84.28c-.73-8.91-1.25-18.66-2.86-27.47-.45-2.47-1.01-4.91-1.7-7.32.15-.13.18-.4-.05-.52-1.78-.92-3.72-1.4-5.67-1.85-1.63-.38-3.41-.7-4.78.5-.09.08-.09.21-.07.31.05.22.11.29.31.38.1.05.2.04.28,0-.75,2.34.16,4.72,1.14,6.85.53,1.14,1.07,2.28,1.41,3.5.38,1.37.52,2.8.69,4.21.66,5.25.75,10.28,2,15.43.71,2.91,1.57,6.41,2.73,9.18.13.32,5.81.7,6.62-2.96.02-.09,0-.17-.05-.24Z"/>
        <path class="cls-4" d="M38.35,29.57c-.63-2.66-5.08-4.67-6.52-5.13-.27-.5-.19-.57-.48-1.01-.42-.64-1.09-1.05-1.84-1.08-.79-.04-2.75-.02-3.53.16-.37.08-.65.36-.86.65-.15.22-.43,1.33-.68,1.43-2.73,1.04-5.54,3.21-6.18,4.37-.43.78-.33,2.28-.33,3.15,0,1.34.72,6.56.64,6.86-.47,1.89-2.1,6.8-2.44,13.32,0,.15.16.24.28.15.12-.09.23-.16.28-.19.86-.57,1.94-.81,2.93-.97,2.11-.35,4.29-.33,6.42-.21,2.3.13,6.81.63,9.04,2.21.34.24.83.8,1.05,1.16.1.16.04.67.43.41,1.33-.92,1.48-6.86.64-17.56-.12-1.5,1.41-6.52,1.12-7.72Z"/>
        <path class="cls-4" d="M44.65,44.67c0-.2-.08-.39-.2-.55-.49-.64-1.82-2.36-2.46-3.15-.44-.54-.8-1.12-1.12-1.73-.52-2.02-1.04-4.03-1.56-6.05-.3-1.18-.57-2.37-.91-3.54-.2-.68-.51-1.52-1.19-2.02-.07-.05-.13.42-.18.46-.06-.03-.14-.03-.22.01-1.49.77-1.98,2.67-2.38,4.16-.26.97-.52,1.93-.76,2.91-.21.85-.31,1.71-.1,2.57.4,1.67,1.37,4.92,2.45,6.21,1.25,1.5,6.07,5.51,6.47,5.33,2.26-1,2.21-3.65,2.17-4.62Z"/>
        <path class="cls-1" d="M32.86,33.72c.25,1.22.5,2.45.75,3.67.25,1.2.45,2.41.8,3.58.28.93.66,1.84,1.29,2.59.58.68,1.3,1.23,1.91,1.89.12.13.31-.06.19-.19-.58-.62-1.26-1.15-1.82-1.79-.71-.79-1.1-1.8-1.38-2.81-.31-1.12-.51-2.27-.74-3.41-.25-1.2-.49-2.41-.74-3.61-.03-.17-.29-.1-.26.07h0Z"/>
        <path class="cls-1" d="M33.56,35.79c.53-1.19,1.17-2.33,1.92-3.39.37-.53.77-1.04,1.21-1.52.38-.42,1.24-1.01,1.67-.31.09.15.32.01.23-.14-.28-.46-.87-.55-1.34-.34-.63.28-1.08.95-1.49,1.48-.98,1.25-1.79,2.62-2.44,4.08-.07.16.16.29.23.14h0Z"/>
        <path class="cls-1" d="M18.92,34.17c-.33,2.35-.4,4.72-.72,7.07-.17,1.22-.43,2.42-.75,3.61-.33,1.2-.69,2.39-.95,3.6-.29,1.33-.44,2.68-.29,4.03.02.17.29.17.27,0-.28-2.47.48-4.86,1.13-7.2.63-2.28.96-4.57,1.16-6.92.11-1.38.23-2.75.42-4.12.02-.17-.24-.24-.26-.07h0Z"/>
        <path class="cls-1" d="M17.39,30.56c.11,1.39.65,2.69,1.56,3.74.11.13.3-.06.19-.19-.86-.99-1.38-2.24-1.48-3.55-.01-.17-.28-.17-.27,0h0Z"/>
        <path class="cls-1" d="M24.9,24.5c1.09-.21,2.2-.33,3.32-.36,1.1-.02,2.11.19,3.15.54.16.06.23-.2.07-.26-1.06-.36-2.1-.58-3.22-.55-1.14.02-2.27.16-3.39.37-.17.03-.1.29.07.26h0Z"/>
        <path class="cls-1" d="M27.79,72.91c-.44-2.78-.87-5.56-1.31-8.34-.22-1.39-.44-2.78-.66-4.17-.21-1.32-.39-2.66-.76-3.95-.36-1.25-1-2.38-1.34-3.63-.05-.17-.31-.1-.26.07.29,1.07.82,2.03,1.17,3.08.42,1.26.63,2.59.83,3.9.44,2.78.87,5.56,1.31,8.34.25,1.59.5,3.18.75,4.77.03.17.29.1.26-.07h0Z"/>
        <path class="cls-1" d="M19.45,71.41c-.15.53-.35,1.03-.61,1.52-.08.15.15.29.23.14.26-.51.47-1.04.63-1.58.05-.17-.21-.24-.26-.07h0Z"/>
        <path class="cls-1" d="M15.62,91.85c1.48-.22,2.15,1.55,2.87,2.49.32.42.72.74,1.14,1.06.47.36.96.73,1.16,1.31.06.16.32.09.26-.07-.19-.56-.61-.95-1.07-1.31-.59-.45-1.11-.87-1.52-1.5-.68-1.03-1.45-2.47-2.92-2.25-.17.03-.1.28.07.26h0Z"/>
        <path class="cls-1" d="M34.93,42.58c.29,1.3.49,2.61.61,3.93.01.17.28.17.27,0-.11-1.35-.32-2.69-.62-4.01-.04-.17-.3-.1-.26.07h0Z"/>
        <path class="cls-1" d="M40.64,39.82c.21.54.22,1.08,0,1.62-.06.16.2.23.26.07.22-.58.22-1.19,0-1.76-.06-.16-.32-.09-.26.07h0Z"/>
        <path class="cls-1" d="M43.07,43c.29,1.79-.66,3.64-2.26,4.46-.15.08-.02.31.14.23,1.72-.88,2.7-2.86,2.39-4.76-.03-.17-.29-.1-.26.07h0Z"/>
        <path class="cls-1" d="M13.11,53.07c1.91-.33,3.91.4,5.17,1.87.11.13.3-.06.19-.19-1.33-1.55-3.43-2.29-5.44-1.94-.17.03-.1.29.07.26h0Z"/>
        <path class="cls-1" d="M18.56,91.5c.32.67.62,1.36,1.06,1.96.1.14.34,0,.23-.14-.44-.6-.74-1.29-1.06-1.96-.08-.16-.31-.02-.23.14h0Z"/>
        <path class="cls-1" d="M39.39,87.2c-.53.47-1.24,1.05-1.98.69-.16-.07-.29.16-.14.23.87.42,1.67-.17,2.31-.73.13-.11-.06-.3-.19-.19h0Z"/>
        <path class="cls-1" d="M40.66,87.55c-.34,1.2-1.59,1.77-2.38,2.61-.39.42-.75.9-1.23,1.22-.52.35-1.14.49-1.76.45-.17-.01-.17.26,0,.27.59.05,1.19-.07,1.71-.37.56-.32.96-.83,1.39-1.3.85-.93,2.16-1.53,2.53-2.81.05-.17-.21-.24-.26-.07h0Z"/>
        <path class="cls-8" d="M46.62,43.19c-.48,0-.92.16-1.28.48-.13.12.06.3.19.19.3-.27.68-.4,1.09-.4.17,0,.17-.27,0-.27h0Z"/>
        <path class="cls-8" d="M47.68,44.13c-.4-.22-.89-.2-1.26.06-.14.1,0,.33.14.23.3-.21.67-.24.99-.06.15.08.29-.15.14-.23h0Z"/>
        <path class="cls-8" d="M47.93,45.2c-.36-.35-.94-.06-1.25.21-.13.11.06.3.19.19.2-.17.64-.44.87-.21.12.12.32-.07.19-.19h0Z"/>
      </g>
    </g>
  </g>
</svg>