<?xml version="1.0" encoding="UTF-8"?>
<svg id="_レイヤー_2" data-name="レイヤー 2" xmlns="http://www.w3.org/2000/svg" viewBox="0 0 123.07 129.17">
  <defs>
    <style>
      .cls-1 {
        fill: #278589;
      }

      .cls-2 {
        fill: #8acfd6;
      }

      .cls-3 {
        fill: #e69a6d;
      }

      .cls-4 {
        fill: #005e61;
      }

      .cls-5 {
        fill: #f8c38e;
      }

      .cls-6 {
        fill: #132c40;
      }

      .cls-7 {
        fill: #3766b0;
      }

      .cls-8 {
        fill: #305377;
      }

      .cls-9 {
        fill: #084090;
      }

      .cls-10 {
        fill: #2c4865;
      }

      .cls-11 {
        fill: #151a27;
      }

      .cls-12 {
        fill: #e8edef;
      }

      .cls-13 {
        fill: #96a6cd;
      }

      .cls-14 {
        fill: #f2f6fb;
      }

      .cls-15 {
        fill: #b5c1da;
      }

      .cls-16 {
        fill: #fce4cd;
      }

      .cls-17 {
        fill: #d8dee0;
      }

      .cls-18 {
        fill: #51a0a3;
      }

      .cls-19 {
        fill: #2d374b;
      }

      .cls-20 {
        fill: #d65045;
      }
    </style>
  </defs>
  <g id="_イラスト" data-name="イラスト">
    <g>
      <path class="cls-12" d="M89.91,0v126.81H0V1.26C0,.57.62,0,1.37,0h88.55Z"/>
      <path class="cls-17" d="M74.47,0c-.45,13.82-3.08,27.56-7.82,40.7-6.47,17.94-16.87,34.58-30.5,48.75-10.43,10.85-22.66,20.25-36.15,27.74v9.63h89.91V0h-15.45Z"/>
      <g>
        <circle class="cls-13" cx="45.25" cy="65.88" r="26.75" transform="translate(-34.65 67.79) rotate(-56.88)"/>
        <path class="cls-19" d="M66.04,65.88c0,8.84-5.52,16.39-13.3,19.4-2.32.89-4.84,1.38-7.48,1.38-8.88,0-16.45-5.56-19.43-13.39-.69-1.81-1.14-3.74-1.29-5.74-.05-.55-.07-1.09-.07-1.64,0-11.48,9.3-20.79,20.79-20.79,2.25,0,4.41.36,6.43,1.02,8.32,2.71,14.34,10.53,14.34,19.77Z"/>
        <path class="cls-11" d="M51.69,46.11c.97,3.2.91,6.72.16,10-1.62,7-6.49,13.28-13.1,16.13-4.04,1.74-8.68,2.08-12.93,1.03,2.98,7.83,10.55,13.39,19.43,13.39,11.48,0,20.78-9.3,20.78-20.78,0-9.23-6.02-17.06-14.34-19.77Z"/>
        <path class="cls-14" d="M45.3,90.29c-13.53,0-24.53-11.01-24.53-24.53s11.01-24.53,24.53-24.53,24.53,11.01,24.53,24.53-11.01,24.53-24.53,24.53ZM45.3,46.87c-10.41,0-18.88,8.47-18.88,18.88s8.47,18.88,18.88,18.88,18.88-8.47,18.88-18.88-8.47-18.88-18.88-18.88ZM31.94,62.62v6.28c0,1.16-2.01,2.17-4.9,2.62-.73-1.81-1.13-3.75-1.13-5.76s.4-3.95,1.13-5.76c2.89.46,4.9,1.46,4.9,2.62Z"/>
        <path class="cls-15" d="M45.3,86.98c-11.63,0-21.1-9.46-21.1-21.1s9.46-21.1,21.1-21.1,21.1,9.46,21.1,21.1-9.46,21.1-21.1,21.1ZM45.3,45.41c-11.29,0-20.47,9.18-20.47,20.47s9.18,20.47,20.47,20.47,20.47-9.18,20.47-20.47-9.18-20.47-20.47-20.47Z"/>
        <path class="cls-10" d="M45.3,78.34c-6.87,0-12.46-5.59-12.46-12.46s5.59-12.46,12.46-12.46,12.46,5.59,12.46,12.46-5.59,12.46-12.46,12.46ZM45.3,54.04c-6.53,0-11.84,5.31-11.84,11.84s5.31,11.84,11.84,11.84,11.84-5.31,11.84-11.84-5.31-11.84-11.84-11.84Z"/>
      </g>
      <rect class="cls-15" x="0" y="123.88" width="87.24" height=".63"/>
      <path class="cls-15" d="M74.66,119.8h-22.91c-.87,0-1.57-.7-1.57-1.57v-12.56c0-.87.7-1.57,1.57-1.57h22.91c.87,0,1.57.7,1.57,1.57v12.56c0,.87-.7,1.57-1.57,1.57ZM51.74,104.74c-.52,0-.94.42-.94.94v12.56c0,.52.42.94.94.94h22.91c.52,0,.94-.42.94-.94v-12.56c0-.52-.42-.94-.94-.94h-22.91Z"/>
      <rect class="cls-6" x="61.24" y="4.85" width="17.89" height="9.57" rx=".44" ry=".44"/>
      <rect class="cls-15" x="0" y="17.79" width="89.92" height=".63"/>
      <g>
        <path class="cls-15" d="M12.56,14.41c-2.63,0-4.77-2.14-4.77-4.77s2.14-4.77,4.77-4.77,4.77,2.14,4.77,4.77-2.14,4.77-4.77,4.77ZM12.56,5.49c-2.29,0-4.14,1.86-4.14,4.14s1.86,4.14,4.14,4.14,4.14-1.86,4.14-4.14-1.86-4.14-4.14-4.14Z"/>
        <path class="cls-15" d="M12.56,9.95c-.17,0-.31-.14-.31-.31v-4.3c0-.17.14-.31.31-.31s.31.14.31.31v4.3c0,.17-.14.31-.31.31Z"/>
      </g>
      <path class="cls-15" d="M56.63,6.8h-4.22c-.62,0-1.13-.51-1.13-1.13s.51-1.13,1.13-1.13h4.22c.62,0,1.13.51,1.13,1.13s-.51,1.13-1.13,1.13ZM52.4,5.16c-.28,0-.5.23-.5.5s.23.5.5.5h4.22c.28,0,.5-.23.5-.5s-.23-.5-.5-.5h-4.22Z"/>
      <path class="cls-15" d="M56.63,14.31h-4.22c-.62,0-1.13-.51-1.13-1.13v-4.22c0-.62.51-1.13,1.13-1.13h4.22c.62,0,1.13.51,1.13,1.13v4.22c0,.62-.51,1.13-1.13,1.13ZM52.4,8.45c-.28,0-.5.23-.5.5v4.22c0,.28.23.5.5.5h4.22c.28,0,.5-.23.5-.5v-4.22c0-.28-.23-.5-.5-.5h-4.22Z"/>
      <circle class="cls-15" cx="47.58" cy="5.67" r="1.01"/>
      <path class="cls-15" d="M48.6,8.96c0-.56-.45-1.01-1.01-1.01s-1.01.45-1.01,1.01.45,1.01,1.01,1.01,1.01-.45,1.01-1.01Z"/>
      <path class="cls-20" d="M49.05,12.53c0-.81-.66-1.46-1.46-1.46s-1.46.66-1.46,1.46.66,1.46,1.46,1.46,1.46-.66,1.46-1.46Z"/>
      <rect class="cls-15" x="4.11" y="21.66" width="14.4" height="6.28" rx=".44" ry=".44"/>
      <path class="cls-8" d="M114.91,114.06c-2.38-1.9-5.96-2.07-8.86-2.07-9.8,0-19.61.35-29.42.36-.02-.2-.23-.4-.46-.27-2.12,1.2-2.35,5.11-2.05,7.21.25,1.77,1.17,3.2,1.68,4.88.34,1.13.45,2.11,1.61,2.66,1.09.52,2.43.48,3.61.47,2.06-.02,4.13.06,6.19.05,4.48-.02,8.95-.04,13.43-.04,2.25,0,4.5,0,6.75,0,1.89,0,4.19.37,6.01-.31,2.34-.87,3.45-3.36,3.71-5.69.27-2.39-.18-5.67-2.18-7.27Z"/>
      <path class="cls-6" d="M111.79,118.43c-6.12-.62-12.49.16-18.56,1.02-3.41.48-6.64.72-10.05.17-3.15-.5-6.28-1.05-9.48-.98-.4,0-.4.64,0,.63,3.45-.07,6.8.59,10.19,1.09,2.81.42,5.58.23,8.39-.15,6.4-.87,13.05-1.81,19.51-1.15.4.04.4-.59,0-.63Z"/>
      <path class="cls-6" d="M111.21,120.99c-1.25.59-3.08.29-4.43.19-1.4-.11-2.79-.31-4.2-.34-2.75-.06-5.5.38-8.25.47-2.48.08-4.8.32-7.24.73-2.8.47-5.65.48-8.48.48-.4,0-.4.63,0,.63,2.7,0,5.41,0,8.08-.41,1.65-.25,3.25-.62,4.92-.71,1.28-.07,2.57-.07,3.85-.13,2.99-.15,5.92-.57,8.93-.31,2.19.19,5.07.93,7.14-.05.36-.17.05-.71-.32-.54Z"/>
      <path class="cls-5" d="M111.38,73.95c-.08-2.6-1.19-3.9-3.87-3.94-3.56-.06-7.15.23-10.72.34-2.15.07-4.21.02-6.34-.27-1.83-.24-3.5-.29-5.32.05-2.12.4-4.28.52-6.4.9-.87.16-1.43.42-1.54,1.35-.13,1.11.13,2.49.33,3.59.13.73.33,1.47.73,2.07-.61.02-1.28.06-1.48.62-.18.49.18.72.59.88,1,.41,2.41.41,3.45.54,2.04.27,4.09.47,6.14.61,7.46.51,15.35.78,22.63-1.18,2.79-.75,1.87-3.28,1.8-5.57Z"/>
      <path class="cls-1" d="M113.86,78.12c-.66-1.63-4.87-.72-6.14-.7-7.73.14-15.46-.08-23.19-.05-2.08,0-4.15.04-6.23.1-.95.03-2.33-.17-3.11.53-.95.85-.36,2.32-.6,3.39-.3,1.32-.27,1.68.65,2.76.13.16.32.12.43,0,2.22,1.61,5.86.77,8.41.73,3.8-.06,7.61-.01,11.41-.03,3.82-.02,7.65-.05,11.47-.1,1.57-.02,5.2.6,6.37-.87.65-.81.13-1.68.01-2.57-.14-1.05.91-2.21.51-3.19Z"/>
      <path class="cls-16" d="M114.18,84.69c-.38-.97-1.4-1.65-2.37-1.87-1.45-.34-3.12.17-4.56.33-1.93.22-3.88.33-5.83.37-3.82.08-7.65.11-11.48.18-3.7.06-7.54.21-11.22-.29-1.23-.17-3.32-.95-4.44-.08-.53.41-.52,1.03-.36,1.63.1.39.29.79.54,1.09.73.87,1.53.91,1.17,2.42-.05.2.09.34.25.38.03.08.09.15.21.16,1.74.26,3.49.34,5.24.66,1.7.31,3.39.68,5.11.89,3.9.48,7.87.33,11.79.29,3.71-.04,7.47.22,11.16-.24,1.11-.14,2.62-.19,3.56-.88.69-.5.72-1.26.91-2.04.23-.98.72-2,.33-3Z"/>
      <path class="cls-14" d="M111.58,87.4c-4.97-.07-9.94-.14-14.91-.21-3.93-.06-7.87-.11-11.78.24-1.89.17-7.49.35-8.48.15-.99-.19-2.2.11-2.59,1.04-.18.42-.16.9-.14,1.35.13,2.61.26,3.83.39,6.45.22,4.32,4.9,4.16,8.26,4.02,4.4-.18,8.78-.62,13.15-1.07,5.09-.51,10.18-1.03,15.27-1.54,1.33-.13,2.83-.38,3.55-1.5,1.1-1.72-.5-4.13.32-6,.28-.63.83-1.24.67-1.91-.2-.82-1.27-1-2.12-1.01-.53,0-1.07-.02-1.6-.02Z"/>
      <path class="cls-7" d="M113.75,104.16c-1.03-.88-2.61-1.03-3.88-1.28-1.87-.38-3.7-.63-5.6-.69-4.18-.13-8.25-.42-12.41-.9-3.86-.45-7.88-1.27-11.78-.97-2.6.2-6.42.43-7.51,3.28-.61,1.6-.48,3.66-.41,5.35.08,1.78.35,3.6.68,5.37-.03,0-.06,0-.09,0-.4,0-.4.63,0,.63.07,0,.14,0,.21,0,.02.11.04.23.07.34.08.4.69.23.61-.17-.01-.06-.02-.12-.03-.18,3.81,0,7.63.15,11.44.15,4.16,0,8.31,0,12.47,0s8.31-.05,12.46-.05c1.1,0,2.43.2,3.48-.22,1.18-.48,1-1.18.89-2.27-.18-1.84.12-3.65.2-5.49.05-1.13.12-2.12-.79-2.9Z"/>
      <path class="cls-9" d="M111.81,110.78c-1.49.37-3.08.22-4.6.23-1.64.01-3.28.05-4.92.13-2.93.14-5.85.35-8.79.15-2.93-.19-5.68-1.3-8.58-1.73-2.92-.43-5.87-.49-8.81-.59-.4-.01-.4.61,0,.63,3.27.11,6.57.16,9.8.76,2.76.51,5.34,1.46,8.17,1.59,3.16.14,6.29-.12,9.44-.23,2.74-.1,5.79.34,8.46-.32.39-.1.23-.7-.17-.61Z"/>
      <g>
        <path class="cls-2" d="M121.63,95.58h-53.1c-.8,0-1.44.64-1.44,1.44v4.22c0,.79.64,1.44,1.44,1.44h.77l1.96,20.4c.33,3.45,3.23,6.09,6.7,6.09h34.23c3.47,0,6.37-2.64,6.7-6.09l1.96-20.4h.77c.8,0,1.44-.65,1.44-1.44v-4.22c0-.8-.64-1.44-1.44-1.44ZM79.52,125.59c-1.39.09-2.59-.97-2.67-2.37l-.89-14.67c-.08-1.39.98-2.59,2.37-2.67.05,0,.1,0,.15,0,1.33,0,2.44,1.04,2.52,2.37l.88,14.68c.09,1.39-.97,2.59-2.37,2.67ZM87.32,125.6c-1.39.05-2.56-1.04-2.61-2.44l-.48-14.7c-.04-1.39,1.05-2.56,2.44-2.61h.08c1.36,0,2.47,1.07,2.52,2.44l.48,14.69c.04,1.39-1.05,2.56-2.44,2.61ZM97.61,123.08c0,1.39-1.13,2.52-2.52,2.52s-2.52-1.13-2.52-2.52v-14.7c0-1.39,1.13-2.52,2.52-2.52.7,0,1.32.28,1.78.74.46.45.74,1.09.74,1.78v14.7ZM105.79,123.16c-.04,1.39-1.21,2.49-2.61,2.44-1.39-.04-2.49-1.21-2.44-2.61l.48-14.69c.04-1.37,1.17-2.44,2.52-2.44h.08c1.39.04,2.49,1.21,2.44,2.61l-.48,14.7ZM113.32,123.22c-.08,1.39-1.28,2.45-2.67,2.37-1.39-.08-2.45-1.28-2.37-2.67l.88-14.68c.08-1.34,1.19-2.37,2.52-2.37.05,0,.1,0,.15,0,1.39.08,2.45,1.28,2.37,2.67l-.89,14.67Z"/>
        <path class="cls-18" d="M120.28,102.93h-50.46c-.17,0-.31-.14-.31-.31s.14-.31.31-.31h50.46c.17,0,.31.14.31.31s-.14.31-.31.31Z"/>
      </g>
      <path class="cls-4" d="M112.14,80.24c-3.11,0-5.96.28-9.02.8-3.35.58-6.66.68-10.05.72-3.4.03-6.55-.69-9.86-1.35-2.41-.48-5.34-1.4-7.78-.68-.39.11-.22.72.17.61,1.52-.45,3.07-.13,4.59.15,1.51.28,3.03.55,4.53.87,3.02.65,5.83,1.07,8.93,1.02,2.87-.05,5.7-.1,8.55-.55,1.73-.27,3.44-.68,5.18-.86,1.58-.16,3.18-.11,4.76-.1.4,0,.4-.63,0-.63Z"/>
      <path class="cls-15" d="M113.09,90.18c-6.44-.01-12.97-.73-19.39,0-6.17.7-12.5,2.12-18.51-.19-.38-.15-.54.46-.17.61,5.88,2.26,12.07,1.01,18.13.28,6.61-.79,13.3-.07,19.94-.06.4,0,.4-.63,0-.63Z"/>
      <path class="cls-15" d="M112.56,92.59c-4.65.03-9.33.63-13.97.13-2.26-.24-4.41-.43-6.69-.45-1.98-.01-3.94-.18-5.9.22-.4.08-.23.69.17.61,2.08-.42,4.21-.21,6.31-.2,2.27,0,4.45.31,6.7.5,4.45.39,8.92-.16,13.38-.19.4,0,.4-.63,0-.63Z"/>
      <path class="cls-3" d="M109.53,73.65c-2.36,0-4.74-.04-7.08.32-2.9.45-5.71,1.18-8.67,1.15-5.14-.06-9.94-2.45-15.12-2.31-.4.01-.4.64,0,.63,5.18-.14,9.98,2.25,15.12,2.31,2.49.03,4.94-.4,7.37-.89,2.78-.56,5.55-.58,8.37-.58.4,0,.4-.63,0-.63Z"/>
    </g>
  </g>
</svg>