<?xml version="1.0" encoding="UTF-8"?>
<svg id="_レイヤー_2" data-name="レイヤー 2" xmlns="http://www.w3.org/2000/svg" viewBox="0 0 248.25 136.9">
  <defs>
    <style>
      .cls-1 {
        fill: #cdcdd2;
      }

      .cls-2 {
        fill: #ca7550;
      }

      .cls-3 {
        fill: #8a3522;
      }

      .cls-4 {
        fill: #826859;
      }

      .cls-5 {
        fill: #2e664a;
      }

      .cls-6 {
        fill: #cab0d0;
      }

      .cls-7 {
        fill: #202332;
      }

      .cls-8 {
        fill: #7f4938;
      }

      .cls-9 {
        fill: #fff;
      }

      .cls-10 {
        fill: #727280;
      }

      .cls-11 {
        fill: #82a678;
      }

      .cls-12 {
        fill: #983723;
      }

      .cls-13 {
        fill: #b49283;
      }

      .cls-14 {
        fill: #eee5db;
      }

      .cls-15 {
        fill: #f19170;
      }
    </style>
  </defs>
  <g id="_写真" data-name="写真">
    <g>
      <path class="cls-15" d="M149.77,36.53c-.28-1.28-.57-2.55-.9-3.82-.2-.78-.36-1.24-1.11-1.59-1.69-.78-3.34-.82-4.76.39-.02.02-.03.04-.04.06-.15,0-.29.16-.2.33.68,1.27,1.42,3.05,2.62,3.92,1.15.83,2.47,1.4,3.84,1.36.15,0,.58-.51.55-.66Z"/>
      <g>
        <path class="cls-15" d="M141.53,25.92c-.15-.93-1.08-1.02-1.86-.97-.08,0-.13.04-.17.1-.21-.08-.42-.13-.64-.13,0,0-.02-.02-.03-.03-1.25-.98-3.24-2.02-4.87-1.4-.81.31-1.47,1.11-2.03,1.74-.76.84-1.42,1.76-2,2.72-.1.17.04.32.19.33.51,1.68,1.26,3.26,2.25,4.72.09.13.25.12.35.04.03,0,.05-.03.08-.05,1.26-1.16,2.77-1.93,4.34-2.58,1.12-.46,2.39-.81,3.26-1.68.64-.65,1.28-1.88,1.12-2.82Z"/>
        <g>
          <path class="cls-2" d="M125.1,63.46s0,.08,0,.11c-.06.82-.14,1.57-.24,2.28-.02.15-.04.3-.07.45-.61,3.9-1.83,6.21-3.75,8.77-1.5,2.01-3.15,3.92-4.48,6.05-1.01,1.61-1.84,3.32-2.51,5.09h-2.98c.33-.85.72-1.68,1.11-2.5,1.1-2.32,2.21-4.65,3.64-6.8,1.37-2.05,3.07-3.86,4.47-5.89,1.01-1.47,1.37-3.05,1.77-4.73.04-.15.07-.3.11-.45h-21.34c-.67,0-1.22-.55-1.22-1.22v-2.34c0-.67.55-1.22,1.22-1.22h21.89c1.2,0,2.28.9,2.38,2.05.01.11.01.22,0,.34Z"/>
          <path class="cls-7" d="M125.1,63.46s0,.08,0,.11h-25.49v-.45h25.49c.01.11.01.22,0,.34Z"/>
        </g>
        <g>
          <rect class="cls-7" x="91.7" y="91.87" width="3.42" height="25.62" transform="translate(186.83 209.36) rotate(180)"/>
          <rect class="cls-7" x="90.35" y="108.43" width="5.99" height="12.05" rx=".47" ry=".47" transform="translate(186.7 228.92) rotate(180)"/>
          <g>
            <path class="cls-2" d="M62.48,125.06v-1.58h0c0-.9.68-1.65,1.57-1.75.07,0,.15-.02.22-.02.04,0,.09,0,.13-.01.07,0,.13-.01.19-.02s.13-.01.19-.02c.06,0,.11-.01.16-.02.04,0,.08,0,.12-.01.05,0,.11-.01.16-.02.04,0,.08,0,.12-.01.08,0,.16-.02.24-.02.1-.01.2-.02.29-.03.03,0,.06,0,.09,0,.14-.02.27-.03.38-.04.04,0,.08,0,.11-.01.12-.01.19-.02.19-.02l1.15-.13,25.36-2.76h0s.02,0,.02,0h.03s0,0,0,0l23.64,2.76,1.15.13s.07,0,.19.02c.03,0,.07,0,.11.01.1.01.23.02.38.04.03,0,.06,0,.09,0,.09,0,.19.02.29.03.08,0,.16.02.24.02.04,0,.08,0,.12.01.05,0,.11.01.16.02.04,0,.08,0,.12.01.05,0,.11.01.16.02.07,0,.13.01.19.02s.13.01.19.02c.04,0,.09,0,.13.01.08,0,.15.02.22.02.89.09,1.57.85,1.57,1.74h0v4.13c-1.26-.28-2.91-.8-3.75.42l.02-2.89c-.16-.16-.38-.27-.62-.3l-.52-.05-24.16-2.78-25.79,2.78-.52.05c-.24.03-.46.13-.62.3l.02,2.89c-.84-1.22-2.5-.7-3.76-.42v-2.54Z"/>
            <path class="cls-2" d="M75.06,125.29v-1.58h0c0-.9.68-1.65,1.57-1.75.07,0,15.52-2.34,16.54-2.48h0s0,0,.02,0c.02,0,.03,0,.03,0h0c.96.15,14.75,2.48,14.82,2.49.89.09,1.57.85,1.57,1.74h0v3.86c-1.26-.28-2.46-.76-3.3.46l.02-2.89c-.16-.16-.38-.27-.62-.3l-.52-.05-12.07-2.03-13.63,2.03-.52.05c-.24.03-.46.13-.62.3l.02,2.89c-.84-1.22-2.05-.73-3.31-.46v-2.28Z"/>
            <path class="cls-10" d="M76.96,136.17h0c-2.21,0-4-1.79-4-4v-1.2c0-2.21,1.79-4,4-4h0c2.21,0,4,1.79,4,4v1.2c0,2.21-1.79,4-4,4Z"/>
            <path class="cls-7" d="M75.29,129.11c-.73,0-1.28,1.06-1.28,2.46s.55,2.46,1.28,2.46,1.28-1.06,1.28-2.46-.55-2.46-1.28-2.46ZM75.29,133.57c-.39,0-.84-.86-.84-2.01s.44-2.01.84-2.01.84.86.84,2.01-.44,2.01-.84,2.01Z"/>
            <path class="cls-10" d="M64.33,136.17h0c-2.21,0-4-1.79-4-4v-1.2c0-2.21,1.79-4,4-4h0c2.21,0,4,1.79,4,4v1.2c0,2.21-1.79,4-4,4Z"/>
            <path class="cls-7" d="M62.66,129.11c-.73,0-1.28,1.06-1.28,2.46s.55,2.46,1.28,2.46,1.28-1.06,1.28-2.46-.55-2.46-1.28-2.46ZM62.66,133.57c-.39,0-.84-.86-.84-2.01s.44-2.01.84-2.01.84.86.84,2.01-.44,2.01-.84,2.01Z"/>
            <rect class="cls-10" x="117.01" y="126.97" width="8" height="9.2" rx="3.84" ry="3.84"/>
            <path class="cls-7" d="M119.34,129.11c-.73,0-1.28,1.06-1.28,2.46s.55,2.46,1.28,2.46,1.28-1.06,1.28-2.46-.55-2.46-1.28-2.46ZM119.34,133.57c-.39,0-.84-.86-.84-2.01s.44-2.01.84-2.01.84.86.84,2.01-.44,2.01-.84,2.01Z"/>
            <rect class="cls-10" x="104.38" y="126.97" width="8" height="9.2" rx="3.84" ry="3.84"/>
            <path class="cls-7" d="M106.71,129.11c-.73,0-1.28,1.06-1.28,2.46s.55,2.46,1.28,2.46,1.28-1.06,1.28-2.46-.55-2.46-1.28-2.46ZM106.71,133.57c-.39,0-.84-.86-.84-2.01s.44-2.01.84-2.01.84.86.84,2.01-.44,2.01-.84,2.01Z"/>
          </g>
          <path class="cls-2" d="M69.11,32.3c.15-.61.78-1.05,1.48-1.05h34.64c.7,0,1.33.45,1.48,1.05,1.03,4.1,3.42,43.08.69,59.07-.1.59-.67,1.01-1.35,1.01h-36.51c-.68,0-1.25-.42-1.35-1.01-2.73-15.99-.12-54.96.92-59.07Z"/>
          <path class="cls-2" d="M66.47,84.77h50.48c.8,0,1.45.65,1.45,1.45v5.54c0,.8-.65,1.45-1.45,1.45h-50.48c-.8,0-1.45-.65-1.45-1.45v-5.54c0-.8.65-1.45,1.45-1.45Z" transform="translate(183.41 177.99) rotate(180)"/>
          <path class="cls-7" d="M81.53,120.96l-5.66.83c-.28.04-.16.47.12.43,1.89-.28,3.77-.55,5.66-.83.28-.04.16-.47-.12-.43Z"/>
        </g>
        <path class="cls-3" d="M112.37,130.87c-.16-.15-.33-.31-.52-.5-.15-.15-.31-.31-.46-.48-.14-.15-.28-.32-.42-.48-.61-.75-1.13-1.61-1.19-2.4-.24-2.81.35-5.34.11-8.16-1.78.12-2.78-.29-4.56-.24-1.23.03-3.02.02-4.25,0-.03,2.03-1.19,10.13-1.39,12.61-.03.32-.04.62-.06.9,0,.19-.01.36-.01.53-.02,1.11.1,1.76.32,2.07.3.43,1.08,1.14,1.54,1.32,1.57.61,3.79.47,5.46.47,1.46,0,3.66.09,5.02-.48.65-.27,1.01-1.03,1.14-1.9.18-1.23-.1-2.68-.71-3.24Z"/>
        <path class="cls-3" d="M122.72,132.62c-.06-.15-.13-.29-.22-.42-.13-.22-.3-.43-.48-.61-.84-.82-1.76-1.4-2.52-2.31-.56-.66-2.07-2.11-1.63-3.07,1.2-2.6,3.08-4.55,4.28-7.15-1.87-.77-1.21-.64-3.05-1.48-1.27-.58-3.09-1.47-4.33-2.11-1.06,1.78-5.49,7.14-6.96,9.23-1.06,1.51-2.14,3.22-.83,4.87.93,1.17,2.56,1.49,3.55,2.5.32.33.62.67.92,1.01.12.14.24.27.36.41.32.36.65.71,1.01,1.04,1.1,1.01,2.56,1.41,4.09,1.47,1.15.04,2.3-.04,3.42-.08.76-.03,1.76-.05,2.3-.62.29-.31.4-.74.4-1.19,0-.5-.1-1.01-.3-1.49Z"/>
        <path class="cls-14" d="M132.29,80.69c-.08-.94-.29-1.87-.65-2.79-1.21-3.02-2.08-4.32-7.44-7.17-3.9-2.07-8.52-4.45-13.16-6.6-.31-2.78,1.43-8.65,1.06-11.42-.03-.24-.06-.48-.1-.72-.02,0-.05,0-.08,0-2.87.26-5.74.51-8.61.72-2.78.2-5.56.27-8.33.46-2.16.15-4.31.43-6.48.47-.5,0-1,0-1.5-.01-.79,3.15-2.57,8.34-3.33,11.5-.96,3.99-1.95,15.31,2.48,17.78,2.17,1.21,3.54,1.83,5.84,2.56.2.86.33,2.56.47,4.41-.11,2.02.9,4.29.71,6.31-.17,1.79-.26,3.59-.07,5.39.19,1.85.63,3.66.85,5.5.45,3.69.07,7.44.33,11.14.26,3.7.8,7.37,1.34,11.04.02.1.13.16.22.17,2.5.12,5.01.16,7.52.1,1.25-.03,2.51-.08,3.76-.16,1.09-.07,3.16.05,4.21-.24.5-.14.59-.37.68-.87.12-.65.05-.57.13-.9,3.66,2.03,7.06,2.05,11.29,2.26.1,0,.19-.07.22-.17.66-2.01.53-4.1.79-6.17.26-2.1.87-4.14,1.46-6.17.56-1.92,1.12-3.85,1.39-5.84.27-2.03.18-4.07.26-6.1.07-1.89,1.35-3.5,1.67-5.39.62-2.49,1.22-4.98,1.81-7.48.81-3.47,1.5-8.93,1.26-11.62ZM111.53,103.73c.35-6.47.71-9.54.18-14.9-.03-.28-.06-.57-.09-.86-.03-.26-.06-.54-.1-.81.02.01.04.02.06.03.17.1.31.28.53.5.32.33.8.78,1.78,1.31-.29,3.62-.7,7.39-2.36,14.73Z"/>
        <path class="cls-15" d="M128.67,46.35c-.58,1.26-1.33,2.87-2.62,3.54-.14.07-.28.13-.43.18-.14-.24-.26-.48-.37-.69-.81-1.57-1.56-3.21-2.11-4.88-.18-.55-.45-1.28-.62-2.03.51-.88.99-.83,1.51-1.7,2.24-3.79,4.59-7.97,6.6-12.24,1.15,1.05,2,1.57,3.15,2.62-1.68,4.8-3.12,10.27-5.02,15.01-.03.07-.06.14-.09.2Z"/>
        <path class="cls-15" d="M136.68,26.26c-.25.08-.51.16-.76.24-1.13.36-2.24.75-3.35,1.15-.65.23-1.3.46-1.95.67-.25.08-.49.19-.73.28,0,.13,0,.28,0,.46-.03.47-.14.88-.28,1.28-.13.37-.28.73-.42,1.14-.07.2-.21.51-.31.82,1.08.97,2.18,1.93,3.36,2.77.32-.84.68-1.67,1.17-2.35.59-.82,2.96-3.43,4.42-5.03-.33-.39-.65-.79-.97-1.19-.06-.08-.12-.16-.18-.24Z"/>
        <path class="cls-9" d="M116.71,39.18c-1.03,5.95-2.26,11.86-3.51,17.77-.17.79-.17,2.21-.9,2.78-.71.56-2.14.16-2.95.1l-4.31.26-.45.03-4.54.27c-3.04-.24-6.11-.37-9.14-.72-.95-.11-5.41-3.08-5.42-3.32,0-.07,0-.14,0-.22-1.99.8-4.19,1.08-6.29.52-3.04-.81-4.18-3.19-4.05-6.18.16-3.6,1.35-7.13,2.75-10.42,1.39-3.28,2.96-6.56,4.83-9.6,1.33-2.18,2.43-4.66,4.16-6.54,1.66-1.8,5.27-2.36,7.61-2.84,3.06-.64,5.36-1.09,8.47-.98,2.04.07,4.08.2,6.1.39,2.25.21,4.52.49,6.34,1.96,1.52,1.23,2.33,3.04,2.75,4.91.9,4.02-.77,7.88-1.45,11.85Z"/>
        <path class="cls-7" d="M105.05,60.08l-.45.03c1.56-12.41.37-24.98-.9-37.37-.03-.29.42-.28.45,0,1.27,12.39,2.44,24.95.9,37.35Z"/>
        <path class="cls-5" d="M107.3,49.08c-.01-1.77-.03-3.53-.07-5.3-.06-3.42-.02-7.67-.43-11.06-.41-3.41-.89-4.13-1.95-6.6.28-.37.69-1.04.79-1.47.08-.33-.07-.43-.31-.65-.38-.34-.88-.95-1.37-1.15-.21-.08-.4-.06-.57.02-.29.68-.63,1.34-1.05,1.96.29.41.59.82.92,1.21.08.09.16.19.25.29-.64,1.3-1.04,2.65-1.07,4.16-.05,2.55.16,5.12.18,7.67.05,5.11-.1,10.22-.43,15.33-.01.22.24.27.38.15,1.3,1.2,3.68,1.6,4.5-.39.51-1.23.22-2.89.21-4.18Z"/>
        <path class="cls-15" d="M110.02,3.03s-.08-.02-.12-.03c-.46-.12-.91-.22-1.38-.3-.98-.16-1.99-.22-2.98-.17-1.6.08-3.32.32-4.62,1.34-1.39,1.09-1.98,2.94-1.63,4.64.16.8.46,1.56.65,2.35.19.78.28,1.58.27,2.39,0,.21,1.28,1.71,1.99,2.43.73.73,1.6,1.34,2.56,1.75,2.23.96,4.95.44,6.01-1.91.52-1.16.59-2,.75-3.24.18-1.4.11-2.85.15-4.27,0-.19,0-.38.01-.57.04-1.79-.31-3.34-1.68-4.41Z"/>
        <path class="cls-15" d="M99.62,21.99c2.09.02,4.22.71,6.28.36.07-.9.22-4.15.29-5.05.01-.15.03-.3.04-.45.23-2.67.49-4.89.79-7.55-2.41-.39-3.67-.78-6.1-1.02-.49,4.18-.99,9.51-1.3,13.71Z"/>
        <path class="cls-7" d="M106.95,10.37c0,.46-.26.84-.57.83s-.55-.38-.55-.84c0-.46.26-.84.57-.83.31,0,.55.38.55.84Z"/>
        <path class="cls-7" d="M107.2,9.84c-.18-.32-.58-.38-1.02-.34-.45.04-.71.13-1.18.34-.13.06-.05.27.06.26.7-.1,1.34-.26,1.98-.08.06.02.14.07.19,0,.03-.05-.01-.13-.04-.18Z"/>
        <path class="cls-7" d="M111.32,9.92c-.16-.32-.54-.38-.95-.34-.42.04-.66.13-1.09.34-.12.06-.04.27.06.26.65-.1,1.24-.26,1.83-.08.05.02.13.07.18,0,.03-.05-.01-.13-.04-.18Z"/>
        <path class="cls-7" d="M110.05,10.43c.02.44.24.79.53.78.28,0,.5-.37.49-.81,0-.44-.25-.81-.53-.78-.31.03-.51.38-.49.81Z"/>
        <path class="cls-3" d="M108.46,2.06c-1.74-.5-5.24-.61-6.95,0-3.32,1.2-4.09,3.72-3.87,6.12.12,1.33,1.18,3.04,2.36,5.5.11.22.3,1.1.41,1.18.34-.35.13-1.09.16-1.27.4-2.05-.97-1.8-.54-2.79.15-.34.37-.66.68-.88.1-.07.21-.12.32-.18.13-.06.28-.08.41-.16.28-.18.34-.42.37-.7.11-.84.2-1.61.63-2.39.97-1.78,2.78-2.2,4.66-2.29,1.1-.05,2.21.03,3.28.25.28.06.59.12.88.22-.37-1.08-1.32-2.17-2.8-2.6Z"/>
        <path class="cls-12" d="M108.03,12.45c.2-.04.47-.06.66-.16.65-.37.47-.78.31-1.29-.17-.55-.36-1.1-.55-1.65-.09-.27.35-.38.44-.11.17.51.35,1.02.51,1.54.11.36.26.77.2,1.15-.13.7-.85.84-1.45.96-.28.06-.39-.38-.11-.44Z"/>
        <path class="cls-12" d="M105.96,13.72c.12.5.33.73.72,1.03.74.56,1.7.64,2.46-.1.14-.14.34-.42.4-.61.04-.14.12-.24,0-.31-.03-.02-.07-.03-.13-.04-.7-.03-2.93-.19-3.3-.16-.01,0-.02,0-.03,0-.07,0-.12.02-.13.05-.02.04,0,.09,0,.13Z"/>
        <path class="cls-9" d="M106.09,13.53c0,.1,0,.22.09.32.29.34,1.65.55,2.13.57.5.01,1.06-.14,1.24-.69-.03-.02-.07-.03-.13-.04-.7-.03-2.93-.19-3.3-.16-.01,0-.02,0-.03,0Z"/>
        <path class="cls-3" d="M104.41,8.28c.13.46,1.27.28,1.64.27.43,0,1.13.27,1.51.03.4-.26.18-.75-.18-.91-.45-.2-.97-.22-1.45-.18-.28.02-1.02.07-1.36.38-.12.11-.22.25-.17.42Z"/>
        <path class="cls-3" d="M109.73,8.56c.33.22.94-.02,1.32-.01.13,0,.37.03.61.04,0-.29.01-.59.02-.91-.21-.04-.42-.06-.53-.07-.42-.03-.87-.02-1.26.15-.31.14-.51.57-.16.8Z"/>
        <path class="cls-15" d="M102.62,9.16c-.22-.47-.88-.82-1.57-.77-1.35.1-1.91,1.59-1.53,2.64.39,1.09,1.73,1.9,2.8,1.16,1.06-.73.99-2.17.31-3.04Z"/>
        <path class="cls-12" d="M101.32,11.31c-.55-.2-.35-.99.07-1.22.08-.05.14-.16.11-.25-.12-.36-.26-.67-.58-.88-.24-.16-.48.22-.24.38.18.12.27.28.33.47-.63.51-.68,1.62.18,1.94.27.1.4-.33.13-.43Z"/>
        <path class="cls-12" d="M105.34,17.34c-1.15-.62-2.13-1.47-2.91-2.52-.17-.23-.56,0-.39.23.82,1.11,1.85,2.02,3.07,2.68.25.14.48-.25.23-.39Z"/>
        <path class="cls-7" d="M121.01,69.34c-.83.04-1.63.02-2.45-.18-1-.24-1.95-.66-2.89-1.07-.71-.31-1.43-.64-2.09-1.05-1.52-.93-2.62-2.32-3.2-4.01-.14-.4-.24-.81-.33-1.23.06-3.98.12-7.95.18-11.93,0-.38.01-.76.02-1.14.01-.82.02-1.64.04-2.46.07-4.61.33-9.27,0-13.87-.31-4.33-1.36-8.66-4.04-12.16-.13-.17.07-.15.11-.15,1.53.11,3.16.27,4.71.55.32.06.63.12.94.19,1.03.23,2,.52,2.85.89,2.35,1.02,3.18,2.9,3.9,5.19,1.59,5.09,1.73,10.12,2.21,15.42.52,5.71-.89,7.78-.6,13.51.22,4.53.96,10.23.65,13.49Z"/>
        <path class="cls-9" d="M107.02,19.41c-.06-.25-.16-.44-.5-.43-.24,0-1.01.32-1.07.33-1.02.21-1.16,1.53-1.84,2.9-.2-.75-.43-1.45-.79-2.04-.48-.78-1.81-1.17-2.61-1.53-.37-.17-.67-.31-.99.03-.32.34-.42.77-.6,1.19-.29.68-.58,1.35-.87,2.03-.03.08-.02.16.02.22-.04.09-.02.2.09.26.94.53,1.59,1.41,2.51,1.94.8.46,2.44-1.43,3.35-1.42,1.49,0,3.96,1.38,3.99-.35,0-.55-.48-2.27-.69-3.13Z"/>
        <path class="cls-7" d="M107.97,21.36c-.07.75-.88,3.49-1.52,3.54-.43.03-.97-.79-1.26-1.09-.45-.46-.89-.92-1.34-1.38-.13-.13-.32-.05-.38.1-.28.7-.63,1.36-1.11,1.94-.11.13-.52.69-.7.73-.48.12-.78-.56-.99-.84-.8-1.11-1.47-2.3-2.05-3.53-.12-.26-.51-.03-.39.23.5,1.06,1.06,2.08,1.71,3.05.3.45.85,1.6,1.49,1.65.46.03.87-.54,1.13-.84.5-.58.89-1.23,1.2-1.92.69.74,1.37,1.59,2.15,2.21.24.19.52.45.86.28.44-.23.64-1.15.82-1.57.35-.83.75-1.65.83-2.55.03-.29-.42-.29-.45,0Z"/>
        <path class="cls-7" d="M98.47,20.02c-.39.05-1.15.18-2.12.37-.21.04-.44.09-.67.14-3.11.66-7.75,1.89-9.77,3.55-3.1,2.53-3.89,5.24-5.66,8.71-2.06,4.03-3.24,6.13-5.11,10.25-1.42,3.15-4.41,10.51-2.19,13.71,1.54,2.22,5.44,2.43,8.17,3-.39,1.58-1.09,3.16-1.49,4.75-.49,1.99-1.03,3.98-1.49,5.98-.31,1.34.14,1.46,1.41,1.86,1.64.51,3.34.83,5.06.94,1.38.09,3.32.3,4.62-.27,1.11-.48,1.43-2.18,1.74-3.3l3.07-8.84c.99-2.84,2.1-5.68,2.97-8.57.21-.69.4-1.39.57-2.09.02-.06.03-.12.04-.18.85-3.43,2.17-8.16,2.32-11.62.6-14.08-1.52-18.63-1.48-18.39Z"/>
        <path class="cls-10" d="M97.63,50.02c-.02.06-.03.12-.04.18-.17.7-.37,1.4-.57,2.09.63-5.04-.41-10.12-2.01-14.93-.44-1.32-.92-2.64-1.42-3.94-.36-.94-1.06-2.08-1.02-3.11.03-.82.71-1.29,1.26-1.81.92-.88,1.85-1.77,2.77-2.65-1.1-.06-2.22-.11-3.32-.22-.36-.03-.76-.04-.9-.42-.24-.7.96-1.7,1.32-2.16.66-.84,1.32-1.69,1.98-2.53.23-.05.46-.09.67-.14-.51.65-1.01,1.29-1.52,1.94-.41.53-1.08,1.26-1.52,1.77-.25.29-.49.96.11,1.07.3.05,1.17.11,1.47.12.74.05,1.48.09,2.23.14.19.01.31.24.16.38-.99.95-1.99,1.9-2.99,2.86-.62.59-1.3,1.08-1.25,2.06.03.56.46,1.28.66,1.79.9,2.34,1.77,4.7,2.46,7.12.97,3.38,1.56,6.88,1.45,10.38Z"/>
        <path class="cls-15" d="M93.39,51.6s-.01,0-.02,0c-6.84-2.05-7.07-2.17-13.68-3.96-.07.28-.13.57-.19.85-.31,1.51-.93,4.54-1.09,5.71,5.42,1.03,12.36,1.72,14.1,1.66.29-1.42.67-2.82.88-4.25Z"/>
        <g>
          <path class="cls-15" d="M104.67,52.69c-.99-.62-3.08-1.73-4.24-1.73-2.06,0-4.94.25-7.7.65-.05,1.45-.85,4.08-.82,4.06.4.09,1.36.41,1.76.51.62.16,1.14.2,1.76.05.88-.21,3.81-.88,5.63-.98,2.77.37,3.1.99,4.21.22.07-.05.13-.1.19-.17.05-.05.09-.11.13-.17.09-.02.17-.04.24-.07,1.32-.46-.48-1.96-1.15-2.38Z"/>
          <path class="cls-12" d="M105.52,54.59c-1.64-.84-3.39-1.29-5.24-1.35-.29,0-.29.44,0,.45,1.77.06,3.43.49,5.01,1.29.26.13.48-.26.23-.39Z"/>
          <path class="cls-12" d="M105.97,53.69c-1.72-1.25-3.65-1.99-5.77-2.25-.29-.03-.28.42,0,.45,2.03.24,3.89.98,5.54,2.19.23.17.46-.22.23-.39Z"/>
        </g>
        <g>
          <path class="cls-2" d="M88.76,63.46s0,.08,0,.11c-.06.82-.14,1.57-.24,2.28-.02.15-.04.3-.07.45-.61,3.9-1.83,6.21-3.75,8.77-1.5,2.01-3.15,3.92-4.48,6.05-1.01,1.61-1.84,3.32-2.51,5.09h-2.98c.33-.85.72-1.68,1.11-2.5,1.1-2.32,2.21-4.65,3.64-6.8,1.37-2.05,3.07-3.86,4.47-5.89,1.01-1.47,1.37-3.05,1.77-4.73.04-.15.07-.3.11-.45h-21.34c-.67,0-1.22-.55-1.22-1.22v-2.34c0-.67.55-1.22,1.22-1.22h21.89c1.2,0,2.28.9,2.38,2.05.01.11.01.22,0,.34Z"/>
          <path class="cls-7" d="M88.76,63.46s0,.08,0,.11h-25.49v-.45h25.49c.01.11.01.22,0,.34Z"/>
        </g>
        <path class="cls-7" d="M92.92,52.7c-.86,2.35-1.73,4.7-2.59,7.05-2.51-.56-4.98-1.3-7.37-2.26-1.4-.56-2.77-1.19-4.11-1.89-1.27-.66-2.68-1.32-3.5-2.53-1.45-2.15-.97-5.07-.26-7.39.51-1.65,1.24-3.22,2.05-4.75,4.11,1.76,7.94,4.08,11.66,6.55.98.66,1.96,1.32,2.93,1.99.41.28,1.05.57,1.37.95.62.71.08,1.54-.19,2.27Z"/>
        <path class="cls-7" d="M132.34,42.99c-.39,3.02-1.35,5.99-2.59,8.81-1.01,2.3-2.86,4.44-5.38,5.06-1.44.35-3.36.43-4.46-.71-.68-.7-1.12-1.53-1.94-2.07,2.63-6.87,5.25-13.73,7.88-20.6.09-.25.35-.38.61-.32,2.03.5,4.71,1.24,6.64,2,.22.08.35.3.33.53-.21,2.44-.77,4.86-1.08,7.29Z"/>
        <path class="cls-7" d="M123.67,41.25c-.45-2.46-.97-4.91-1.61-7.33-1.16-4.35-2.44-10.13-6.99-12.09-.26-.11-.64.69-.37.8,0,0,.02,0,.03.01-.11,1.18-.8,2.13-1.12,3.24-.27.93-.26,1.9-.13,2.86.34,2.52,1.01,5.01,1.45,7.52.75,4.3,1.26,9.18,3.83,12.86.87,1.24,2.22,2.29,3.82,2.01,1.49-.26,2.12-1.57,2.11-2.98,0-2.28-.61-4.66-1.01-6.9Z"/>
        <path class="cls-7" d="M120.69,83.24c-2.49,1.51-4.76,3.33-6.77,5.43-.2.21.12.53.32.32,1.99-2.08,4.22-3.87,6.68-5.36.25-.15.02-.54-.23-.39Z"/>
        <path class="cls-7" d="M112.1,87.69c-.22-.23-.36-.4-.53-.5,0-.03,0-.06,0-.09-.02-.42-.05-.84-.08-1.27-.07-.99-.15-1.97-.24-2.95-.2-2.09-.34-4.28-1.26-6.21-1.49-3.09-4.45-5.14-7.2-7.02-.24-.16-.01-.55.23-.39,2.92,1.99,6.07,4.19,7.53,7.54.88,2.02,1,4.32,1.2,6.49.11,1.19.2,2.39.27,3.58.01.23.07.51.1.8Z"/>
        <path class="cls-7" d="M99.05,120.52c-1.67-4.45-3.07-8.99-4.19-13.61-.07-.28-.5-.16-.43.12,1.12,4.62,2.52,9.16,4.19,13.61.1.27.53.15.43-.12Z"/>
        <path class="cls-7" d="M118.23,132.86c-1.71-.03-3.56-.05-5.17-.7.12.64.15,1.27.11,1.77,0,.08-.05.14-.1.17-.14.09-.36.03-.35-.17.01-.18.02-.36.02-.54-.31.04-.63.08-.94.11-2.5.26-5.02.31-7.53.12-1.52-.12-3.35-.14-4.67-.99,0-.16,0-.34.01-.53.82.64,1.92.78,2.96.9,1.12.13,2.25.22,3.39.26,1.83.07,3.65,0,5.47-.17.43-.04.86-.09,1.28-.14-.03-.37-.1-.75-.21-1.11-.13-.42-.34-1.01-.67-1.46-.13-.19-.29-.36-.46-.48-.09-.07-.19-.12-.29-.15-.15-.05-.18-.22-.13-.33.04-.09.13-.15.25-.1.91.32,1.45,1.28,1.73,2.32,1.72.81,3.84.79,5.71.8,1.29,0,2.57-.07,3.84-.22.09.14.16.28.22.42-1.49.18-2.98.26-4.48.24Z"/>
        <path class="cls-7" d="M101.36,131.84c-.22,1.01-.38,2.03-.48,3.06-.01.11.11.24.22.22.12-.01.19-.04.25-.15.05-.09.03-.17-.01-.23.1-.94.25-1.86.45-2.78.06-.28-.37-.4-.43-.12Z"/>
        <path class="cls-7" d="M91.08,79.94c-.05-.28-.48-.16-.43.12.26,1.57.52,3.14.78,4.71.05.28.48.16.43-.12-.26-1.57-.52-3.14-.78-4.71Z"/>
        <path class="cls-7" d="M81.62,84.53h-3.59c.92-2.7,2.49-5.07,4.63-6.97.22-.19-.1-.51-.32-.32-2.22,1.98-3.85,4.46-4.78,7.28,0,0,0,0,0,0h-2.24c1.37-4.29,3.77-8.14,7.03-11.26.21-.2-.11-.52-.32-.32-3.35,3.19-5.81,7.16-7.19,11.57h-6.55c-.29,0-.29.45,0,.45h13.33c.29,0,.29-.45,0-.45Z"/>
        <path class="cls-7" d="M78.52,65.67h-11.15c-.29,0-.29.45,0,.45h11.15c.29,0,.29-.45,0-.45Z"/>
        <path class="cls-10" d="M119.01,50.62c1.54-3.41,2.99-6.86,4.35-10.35.1-.27-.33-.39-.43-.12-1.26,3.25-2.61,6.46-4.04,9.64-.38-5.75-.86-11.5-1.44-17.24-.03-.29-.48-.28-.45.01.79,7.73,1.39,15.48,1.8,23.24.02.29.46.28.45-.01-.09-1.7-.19-3.4-.3-5.1.02-.02.05-.04.06-.08Z"/>
        <path class="cls-14" d="M155.07,28.45c-3.73-3.01-8.15-4.88-13-4.59-3.69.22-7.43,1.04-11.06,2.06-1.85,1.22-3.68,2.45-5.07,4.19,2.76-.41,5.56-.5,8.33-.2,1.56.17,3.11.46,4.62.88,1.43.4,3.27.81,4.36,1.86.06.05.14.08.22.06,3.84-1.29,7.67-2.58,11.5-3.87.14-.05.24-.26.1-.38Z"/>
        <path class="cls-15" d="M140.11,23.51c-.26-.35-.76-.38-1.19-.41-1.19-.08-3.1-.22-4.27.04-1.07.24-1.54,1.03-2.28,1.69-.2.18.12.45.32.27.22-.2.44-.4.68-.59-.05.1.02.23.15.25,1.7.37,3.5.49,5.23.21.72-.12,1.98-.65,1.37-1.47Z"/>
        <path class="cls-10" d="M115.4,30.58c-.03,2.52-.41,5.06-.99,7.51-.95,4.08-2.48,7.98-4.19,11.79,0-.38.01-.76.02-1.14,1.37-3.11,2.58-6.29,3.45-9.58.63-2.4,1.07-4.87,1.22-7.35.08-1.4.17-2.66-.8-3.8-.74-.87-1.6-1.65-2.45-2.41-.12-.11-.07-.35.1-.37.62-.1,1.54-.18,2.1-.5,1.23-.69.16-1.4-.42-1.97-.75-.74-1.54-1.43-2.36-2.09.32.06.63.12.94.19.29.24.57.49.85.75.69.63,1.69,1.34,2.14,2.17.69,1.28-1.54,1.65-2.68,1.82.86.77,1.74,1.58,2.43,2.49.57.77.67,1.58.66,2.51Z"/>
        <path class="cls-10" d="M92.98,49.81c-2.31-.77-4.66-1.41-7.04-1.92,1.31-2.64,2.42-5.35,3.33-8.15.09-.28-.34-.39-.43-.12-.92,2.79-2.03,5.51-3.34,8.14,0,.01,0,.02,0,.03-1.26-.26-2.52-.48-3.79-.67-.28-.04-.4.39-.12.43,3.84.56,7.6,1.45,11.28,2.68.27.09.39-.34.12-.43Z"/>
        <path class="cls-7" d="M106.92,69.63c-2.93-.57-5.89-.54-8.81.09-.28.06-.16.49.12.43,2.84-.61,5.72-.65,8.58-.09.28.05.4-.38.12-.43Z"/>
        <path class="cls-10" d="M90.38,42.95c-.65-2.41-1.57-4.71-2.77-6.9-.14-.25-.53-.03-.39.23,1.18,2.15,2.09,4.42,2.73,6.79.07.28.51.16.43-.12Z"/>
        <path class="cls-7" d="M127.16,104.66c-1.76,3.6-3.52,7.2-5.29,10.8-1.69,3.45-3.07,7.25-6.49,9.35-.25.15-.02.54.23.39,3.28-2.01,4.65-5.41,6.27-8.73,1.89-3.86,3.78-7.72,5.67-11.59.13-.26-.26-.49-.39-.23Z"/>
        <path class="cls-7" d="M111.96,104.03c-.01-.29-.46-.29-.45,0,.32,7.55.44,15.11.35,22.67,0,.29.45.29.45,0,.08-7.56-.03-15.12-.35-22.67Z"/>
        <path class="cls-3" d="M112.76,4.93c-.02-.5-.28-.97-.58-1.35-.33-.41-.71-.66-.98-1.12-.19-.32-.33-.73-.57-1.01-.25-.31-.6-.51-.99-.59-.46-.09-.92.12-1.36-.09-.25-.12-.4-.35-.64-.49-1.49-.85-2.7.49-4.19.21-.56-.11-.91-.36-1.5-.15-.8.29-1.06,1.2-1.8,1.55-.09.01-.2.03-.33.06-1.25.26-2.2,1.29-2.37,2.55-.11.87.21,1.42-.23,2.26-.31.59-.54,1.16-.39,1.84.16.71.63.88,1.04,1.36.35.42.35.95.61,1.4.15.26.38.48.54.72.06.22.7.91.76,1.11.07.24-.13-.28-.13-.54,0-.32-.07-.52-.21-.74-.25-.87-.45-1.82-.37-2.69.12-1.36,1.21-1.05,1.83-1.75.1.5.73,1.66,1.3,1.41.22-.1.35-.32.53-.47.59-.46.87-1.23,1.5-1.18.88.06,1.51-.24,2.33-.52.95-.32,1.61.08,2.52.22.31.05.6.03.9-.01.43-.06,1.02-.01,1.42-.14.23-.07.4-.21.52-.4.53-.25.87-.8.84-1.49Z"/>
        <path class="cls-7" d="M99.39,6.57c-1.06.11-1.75,1.04-1.52,2.09.06.28.49.16.43-.12-.16-.74.33-1.44,1.09-1.52.28-.03.29-.48,0-.45Z"/>
        <path class="cls-7" d="M109.79,3.13c-.26-.13-.48.25-.23.39.63.32.78,1.03.37,1.6-.17.23.22.46.39.23.55-.75.3-1.79-.53-2.21Z"/>
        <path class="cls-7" d="M107.37,4.11c-.16-.24-.54-.02-.39.23.34.53.33,1.15-.02,1.67-.16.24.23.47.39.23.43-.65.43-1.48.02-2.13Z"/>
      </g>
      <g>
        <path class="cls-8" d="M248.25,56.58v4.43c0,.6-.47,1.09-1.04,1.09H39.99c-.57,0-1.04-.49-1.04-1.09v-4.43c0-.61.47-1.1,1.04-1.1h207.22c.58,0,1.04.49,1.04,1.1Z"/>
        <path class="cls-8" d="M202.02,56.37h3.14v79.1c0,.34-.28.62-.62.62h-1.9c-.34,0-.62-.28-.62-.62V56.37h0Z"/>
        <path class="cls-8" d="M60.61,56.38v78.53c0,.36-.29.65-.65.65h-1.85c-.35,0-.64-.29-.64-.65V56.38h3.14Z"/>
        <path class="cls-8" d="M86.05,56.38v78.53c0,.36-.29.65-.65.65h-1.85c-.35,0-.64-.29-.64-.65V56.38h3.14Z"/>
        <path class="cls-8" d="M231.11,56.38v78.53c0,.36-.29.65-.65.65h-1.85c-.35,0-.64-.29-.64-.65V56.38h3.14Z"/>
        <rect class="cls-7" x="57.47" y="62.11" width="3.14" height=".45"/>
        <rect class="cls-7" x="82.91" y="62.11" width="3.14" height=".45"/>
        <rect class="cls-7" x="202.02" y="62.11" width="3.14" height=".45"/>
        <rect class="cls-7" x="227.97" y="62.11" width="3.14" height=".45"/>
        <rect class="cls-7" x="68.96" y="55.49" width=".45" height="6.62"/>
      </g>
      <g>
        <g>
          <path class="cls-7" d="M184,52.6h-8.06l-2.73-17.18c-.04-.25-.26-.44-.52-.44h-24.58c-.32,0-.57.29-.52.61l3.09,19.46c.04.25.26.44.52.44h24.58s8.22,0,8.22,0c.37,0,.67-.3.67-.67v-1.54c0-.37-.3-.67-.67-.67Z"/>
          <path class="cls-9" d="M171.42,36.61h-21.5c-.22,0-.38.19-.34.41l2.25,13.92c.03.17.17.29.34.29h21.5c.22,0,.38-.19.34-.41l-2.25-13.92c-.03-.17-.17-.29-.34-.29Z"/>
        </g>
        <g>
          <path class="cls-7" d="M201.99,11.99c-.36-1.98-.87-3.28-1.33-4.85-.35-1.21-.82-2.49-1.8-3.31-.91-.77-2.12-1.11-3.3-1.33-2.13-.4-3.71-.35-5.88.05-1.51.28-3.14.59-4.38,1.62-2.06,1.7-2.5,4.58-2.62,7.02-.08,1.61,0,3.21.02,4.81.03,2.2.09,5.33,1.83,6.85,1.88,1.64,8.55-.51,11.27-2.35.35-.24.67-.49.97-.77,1.75-.14,4.87-.76,5.35-2.33.45-1.46.13-3.95-.14-5.41Z"/>
          <path class="cls-7" d="M161.87,123.76c-2.26-.16-4.53-.34-6.79-.5-.74,1.44-1.62,2.81-2.63,4.11-1.23,1.58-5.16,2.13-6.41,3.67-.76.93-1.25,2.29-.49,3.24.82,1.04,2.52.96,3.79,1.02,2.15.1,4.3.29,6.47.27,1.45,0,4.27.19,5.54-.73,1.46-1.04.96-3.1,1.03-4.62.1-2.16-.55-4.31-.5-6.46Z"/>
          <path class="cls-15" d="M199.08,10.33c-.31-3.6-1.23-5.02-4.4-6.31-1.63-.66-5.03-.58-6.74-.08-1.45.42-2.42,1.55-2.83,2.67-.08.22-.14.45-.18.67-.05.29-.11.99-.17,2,0,.02,0,.04,0,.06,0,.02,0,.04,0,.06-.02.31-.04.64-.06,1.01,0,.02,0,.03,0,.05,0,.07,0,.15-.01.22-.03.66-.07,1.4-.1,2.21-.02.49-.14,1.51-.13,2.66,0,.6.04,1.23.15,1.85.08.46.2.92.36,1.33.83,2.05,4.27,2.19,6.72,1.29,1.32-.48,2.33-1.7,2.81-3.12,1.17-.02.82.36,1.37-.04.11-.08,3.38-4.72,3.22-6.54Z"/>
          <path class="cls-15" d="M183.26,13.81c-.02.78.81.95,1.47,1.18.13.04.35-.18.39-.3.47-1.32-.05-4.36-.14-4.07-.22.67-1.71,2.79-1.72,3.19Z"/>
          <path class="cls-15" d="M188.98,12.84c2.34-.55,3.54-1.03,5.91-1.42.92,4.91,1.73,9.85,2.45,14.79-2.38.39-3.64.6-6,1.08-.69-4.83-1.47-9.65-2.36-14.45Z"/>
          <path class="cls-7" d="M185.09,12.17c.01.49.2.88.42.87.22,0,.38-.41.36-.9-.01-.49-.2-.88-.42-.87-.22,0-.38.41-.36.9Z"/>
          <path class="cls-7" d="M184.78,11.45c.2-.38.43-.5.8-.46.37.04.68.2,1.02.47.19.16.02.33-.07.33-.54,0-1.12-.32-1.61-.07-.04.02-.1,0-.14-.07-.03-.06-.02-.15,0-.2Z"/>
          <path class="cls-15" d="M188.8,14.9c.74.77,1.64-.09,1.89-1.23.25-1.12-.16-2.68-1.08-2.79-.47-.06-.92.32-1.06.81-.45.92-.48,2.45.25,3.21Z"/>
          <path class="cls-13" d="M208.74,57.7c-2.09-.58-17.6,2.94-17.67,3.35-.76,4.55-2.11,10.35-2.18,10.67-2.4,1.96-11.64,11.32-17.64,18.17-.46.5-1.03,1.16-1.66,1.93-.55.65-1.03,1.25-1.44,1.77h0c-3.42,4.26-8.58,11.73-10.76,13.96-2.43,2.48-6.07,8.05-9.1,12.04-.29.28-.61.6-.69.98-.14.7.53,1.68.84,2.24.46.82.99,1.6,1.51,2.39,1.94,2.91,2.72,4.73,7.28,5.94.92.24,6.99.76,7.86.08,1.3-1.02,2.15-4.85,2.71-6.62,1.71-2.27,4.01-5.42,4.48-5.83,1.54-1.35,10.31-15.87,12.9-19.37,5.26-7.09,14.57-9.28,20.68-13.31,7.19-4.73,6.64-11.3,5.57-16.78-.61-3.12-1.71-11.33-2.69-11.6Z"/>
          <path class="cls-15" d="M172.35,43.06c-4.25-1.85-16.28-8.46-16.28-8.46,0,0-3.64,2.65-2.89,3.28,0,0,10.59,9.99,13.51,12.2,2.1,1.59,3.55,2.6,6.17,2.71-.92-4.47-.83-5.17-.51-9.72Z"/>
          <path class="cls-6" d="M211.87,53.61c-2.12-6.9-1.19-19.76-5.17-26.62-2.41-2.05-2.45-2.49-4.68-2.91-2.19-.41-5.44-.45-10.1.18,0-.01-.02-.03-.02-.04,0,0,0,0,0,0-2.84.34-4.76,1.3-4.77,1.3-.13.04-.29.11-.45.18-2.03.85-3.54,1.96-4.89,3.38,0,0,0,0,0,0h0c-1.37,1.43-8.56,8.83-9.68,10.18-1.79.07-3.71.71-4.72,2.06-.32.43-.53.91-.66,1.42-.38.85-.28,1.96-.23,2.89.11,1.93.42,3.87.93,5.8,0,0,0,.01,0,.02.34.49.68.98,1.12,1.39.76.74,1.72,1.34,2.7,1.72,1.09.43,2.2.31,3.36.1.54-.1,1.81-1.02,1.74-1.35.74-.49,4.46-3.71,8.13-6.1.4,2.3,2.76,10.53,3.25,11.92.35,1,.86,1.05,1.63,1.83.12.13,1.21.93,1.33,1.05.12,1.53,16.95-1.33,19.09-1.64.75-1.18,2.71-4.75,2.08-6.77Z"/>
          <path class="cls-15" d="M156.07,34.59c-1.67-1.29-3.81-3.79-5.41-5.15-.45-.39-1.62-.48-2.21-.48-.42,0-2.18-.15-2.51.2-.31.33-.07.81.2,1.07.21.21,1.35.31,1.6.46.15.09.3.18.43.28-.21.1-.4.21-.56.29-.53.26-2.3.83-2.3.83,0,0,1.15,3.03,1.7,4.17.28.6.67.82,1.32.92,1.19.18,2.46.13,3.66.2.87.05,1.21.54,1.87,1.14.32.29.94.23,1.3.48.15.1,1.4-4.02.91-4.4Z"/>
          <path class="cls-12" d="M148.01,33.38c-.76,0-1.66.1-2.35-.24-.62-.3-1.2-.7-1.75-1.1-.23-.17-.46.22-.23.39.62.45,1.31.96,2.03,1.24.71.27,1.56.16,2.3.16.29,0,.29-.45,0-.45Z"/>
          <path class="cls-12" d="M148.27,35.5c-.79.04-1.41-.04-2.12-.44-.61-.34-1.21-.69-1.82-1.04-.25-.14-.48.24-.23.39.77.44,1.53.96,2.34,1.31.59.26,1.19.25,1.83.22.29-.02.29-.46,0-.45Z"/>
          <path class="cls-12" d="M186.03,15.71c-.11.48-.34.91-.69,1.26-.19.18-.45.4-.73.43-.05-.32-.09-.64-.11-.97-.02-.3-.03-.59-.03-.88.44-.05.88-.09,1.32-.12,0,0,.02,0,.03,0,.15,0,.25.15.22.28Z"/>
          <path class="cls-9" d="M185.78,15.43h0c-.14.66-.7.91-1.29,1.01-.02-.3-.03-.59-.03-.88.44-.05.88-.09,1.32-.12Z"/>
          <path class="cls-7" d="M185.87,10.4c-.38.13-.8.14-1.19.27,0-.07,0-.15.01-.22,0-.02,0-.04,0-.05.02-.37.04-.7.06-1.01.56-.09,1.25-.07,1.47.44.12.28-.11.49-.35.57Z"/>
          <path class="cls-12" d="M189.23,12.5c-.06-.08-.13-.13-.12-.2.01-.1.2-.29.25-.38.16-.24-.23-.47-.39-.23-.14.22-.47.54-.32.82.08.15.24.24.29.41.08.29-.1.54-.36.65-.26.12-.03.51.23.39.37-.17.61-.52.6-.94,0-.19-.07-.37-.18-.53Z"/>
          <path class="cls-12" d="M190.3,13.41c-.14.54-.51.96-1.01,1.19-.26.12-.03.51.23.39.61-.28,1.05-.82,1.22-1.46.07-.28-.36-.4-.43-.12Z"/>
          <path class="cls-13" d="M192.39,78.42c-.14-2.92-1.47-6.06-2.07-7.5-4.31,3.67-12.29,11.31-18.57,17.32-3.11,2.97-13.16,19.91-15.39,23.63-2.66,4.43-6.77,5.59-9.42,10.03-.08.14,0,.28.13.33,2.61,1.03,3.8,1.5,6.58,1.91,1.17.17,2.35.29,3.53.35.99.05,2.34.29,3.25-.2.75-.4,1.24-1.36,1.7-2.04.86-1.28,1.68-2.6,2.49-3.91,1.46-2.38,2.91-4.76,4.53-7.04,3.26-4.57,7.69-10.32,11.54-14.4,3.36-3.57,7.24-6.99,9.73-11.26,1.28-2.18,2.1-4.65,1.98-7.21Z"/>
          <path class="cls-7" d="M156.04,116.67c.03-.15-.06-.27-.22-.29-1.35-.12-2.67-.06-4.01.16-.18.03-.2.22-.11.34-1.04,1.61-2.15,3.26-3.72,4.39-1.88,1.36-4.19,1.56-6.41,1.76-1.94.18-4.06.12-5.96.61-.63.16-1.21.49-1.53.97-.09.13-.16.06-.2.22-.08.3-.08.63.04,1,.49,1.51,2.3,2.3,3.6,2.83,2.06.83,10.38,3.94,12.49,4.14,1.3.13,2.32-.37,2.97-1.43.07-.12.14-.24.2-.37,0,0,0,0,0-.01.9-1.91,1.44-4.2,2.84-6.59,1.36-2.33-.49-5.08,0-7.73Z"/>
          <path class="cls-13" d="M190.31,70.74c-3.24,2.33-18.07,11.62-23.86,18.32-2.69,3.11-9.96,15.02-12.21,18.45-2.39,3.62-5.43,5.68-7.42,9.54-.6,1.16-2.73,2.99-1.88,4.24,1.01,1.49,3.63,2.68,5,3.84,2.61,2.22,4.46,2.66,7.96,2.44,1.66-.1,2.36-1.18,3.11-2.53,1.03-1.83,1.89-3.76,2.69-5.7,1.72-4.17,3.32-8.38,5.12-12.52,1.96-4.52,4.72-10.55,6.93-14.96,1.92-3.83,14.74-21.27,14.56-21.14Z"/>
          <path class="cls-10" d="M153.2,130.99s0,0,0,.01c-.06.13-.13.25-.2.37-.88-1.08-3.9-1.71-4.65-1.91-1.69-.44-3.41-.8-5.09-1.29-1.59-.47-3.04-1.15-4.53-1.87-1.55-.75-3.14-1.4-4.83-1.46.04-.16.11-.08.2-.22,1.62.09,3.18.49,4.67,1.2,2.09,1,4.11,1.82,6.36,2.38,2.1.53,4.27.93,6.28,1.74.53.22,1.3.56,1.8,1.04Z"/>
          <path class="cls-10" d="M153.36,129.96c-.22.67-.51,1.37-.98,1.91-.78.9-1.69.52-2.66.29-1.31-.31-2.6-.65-3.89-1.03-.28-.08-.4.35-.12.43,1.09.31,2.18.61,3.27.88.77.19,1.67.54,2.48.47,1.32-.11,1.97-1.77,2.33-2.85.09-.27-.34-.39-.43-.12Z"/>
          <path class="cls-7" d="M172.19,51.36c-1.65-.94-2.25-3.64-2.67-5.36-.32-1.33-.26-2.45.52-3.6.61-.89,1.37-1.69,2.06-2.5.19-.22-.13-.54-.32-.32-1.59,1.87-3.33,3.48-2.79,6.13.39,1.95,1.08,4.97,2.97,6.04.25.14.48-.24.23-.39Z"/>
          <path class="cls-7" d="M190.77,41.97c-2.22,2.37-4.75,4.39-7.56,6.02-.25.15-.02.53.23.39,2.84-1.65,5.41-3.69,7.65-6.09.2-.21-.12-.53-.32-.32Z"/>
          <path class="cls-7" d="M202.28,14.13c-.32-1.2-1.94-1.51-3.11-2.01.22-.64.34-1.25.38-1.88.11-2.03-.2-3.94-1.98-5.15-2.19-1.49-4.81-1.7-7.4-1.55-.83.05-1.68.13-2.46.41-.03.01-.06.02-.09.03-2.48-.35-2,3.26-1.43,4.68.37.92.93,1.83,1.78,2.39.34.22.7.36,1.08.46.16.14.3.2.39.23.45.15.82.41,1.1.78.23.3.39.62.52.95.19,1.19.4,2.59.85,3.83,0,0,0,0,0,0,0,0,0,0,0,0,.55,1.53,1.48,2.82,3.19,3.13.7.13,1.2-.04,1.86-.24.76-.22,1.34.09,2.1.06,1.03-.04,2.57-.71,3.15-1.6.97-1.5.42-3.3.08-4.55Z"/>
          <path class="cls-6" d="M198.94,24.25c-.19-.63-.46-2.05-1.13-2.38-.37-.19-.9-.09-1.29-.08-.78.01-1.56.06-2.33.13-.58.06-1.16.14-1.74.23-.46.08-1.42.1-1.8.42-.53.46-.74,1.57-.94,2.37-.17.03-.27.27-.11.38,0,0,0,0,0,.01-.08.25.27.37.4.18,1.06.42,2.16.31,3.29.14,1.85-.28,3.69-.62,5.5-1.12.11-.03.19-.16.16-.28Z"/>
          <path class="cls-7" d="M197.85,23.65c-2.49.03-4.97.23-7.43.6-.28.04-.16.48.12.43,2.43-.36,4.86-.55,7.31-.58.29,0,.29-.45,0-.45Z"/>
          <path class="cls-7" d="M190.28,72.63c-3.64,2.6-7.19,5.34-10.62,8.21-3.32,2.78-6.64,5.64-9.57,8.84-2.6,2.83-4.84,6.02-6.1,9.69-1.47,4.27-1.93,8.82-3.26,13.13-.77,2.5-1.71,4.95-2.82,7.33-1.05,2.25-2.17,4.55-3.99,6.28-.21.2.11.52.32.32,2.85-2.71,4.42-6.84,5.78-10.46,1.58-4.2,2.41-8.52,3.41-12.88,1-4.39,2.84-8.21,5.73-11.67,2.69-3.22,5.88-6.02,9.05-8.75,3.95-3.41,8.06-6.62,12.31-9.66.23-.17,0-.56-.23-.39Z"/>
          <path class="cls-7" d="M151.78,122.83c-1.85-2.82-2.18-6.32-.9-9.43.11-.27-.32-.38-.43-.12-1.32,3.22-.96,6.87.95,9.78.16.24.55.02.39-.23Z"/>
          <path class="cls-7" d="M165.92,105.52c.03-.29-.42-.28-.45,0-.7,5.92-.64,11.89.18,17.8.04.29.47.16.43-.12-.81-5.87-.86-11.8-.17-17.68Z"/>
        </g>
        <path class="cls-2" d="M235.13,29.63h-28.61c-.7,0-1.37.46-1.57,1.08-1.37,4.22-2.57,8.46-3.59,12.72-4.01,16.69-5.31,31.56-3.89,47.99.05.61.59,1.04,1.27,1.04h25.96c3.84,0,3.99-1.74,3.88-5.22-.05-1.77-.1-4.79-.12-5.93-.31-17.31,2.37-32.92,7.88-50.16.26-.79-.32-1.52-1.21-1.52Z"/>
        <rect class="cls-2" x="178.14" y="84.02" width="42.44" height="8.44" rx="1.51" ry="1.51"/>
        <rect class="cls-7" x="203.62" y="92.44" width="3.42" height="24.74"/>
        <rect class="cls-2" x="202.4" y="108.13" width="5.99" height="12.05" rx=".47" ry=".47"/>
        <g>
          <g>
            <path class="cls-2" d="M214.31,126.61v.22c-1.26-.28-2.47-.76-3.31.46v-.75s.02-2.14.02-2.14c-.05-.3-.12-.4-.58-.54l-4.97-1.84s-6.61,2.22-6.77,2.38l.02,2.14v.75c-.84-1.22-2.04-.73-3.3-.46v-2.28s0-1.58,0-1.58h0c0-.15.02-.28.05-.41,0-.01,0-.03.01-.04.15-.58.6-1.05,1.19-1.23.1-.03.21-.05.32-.06.07,0,7.42-2.33,8.38-2.48h0s.01,0,.03,0c.02,0,.02,0,.02,0h0c1.02.15,7.08,2.41,7.14,2.43.74.24,1.35.63,1.6,1.19.09.18.13.39.13.61h0v3.65Z"/>
            <path class="cls-10" d="M197.15,135.41h0c-2.21,0-4-1.79-4-4v-1.2c0-2.21,1.79-4,4-4h0c2.21,0,4,1.79,4,4v1.2c0,2.21-1.79,4-4,4Z"/>
            <path class="cls-7" d="M195.49,128.36c-.73,0-1.28,1.06-1.28,2.46s.55,2.46,1.28,2.46,1.28-1.06,1.28-2.46-.55-2.46-1.28-2.46ZM195.49,132.82c-.4,0-.84-.86-.84-2.01s.44-2.01.84-2.01.84.86.84,2.01-.44,2.01-.84,2.01Z"/>
            <path class="cls-10" d="M212.57,135.41h0c-2.21,0-4-1.79-4-4v-1.2c0-2.21,1.79-4,4-4h0c2.21,0,4,1.79,4,4v1.2c0,2.21-1.79,4-4,4Z"/>
            <path class="cls-7" d="M210.9,128.36c-.73,0-1.28,1.06-1.28,2.46s.55,2.46,1.28,2.46,1.28-1.06,1.28-2.46-.55-2.46-1.28-2.46ZM210.9,132.82c-.39,0-.84-.86-.84-2.01s.44-2.01.84-2.01.84.86.84,2.01-.44,2.01-.84,2.01Z"/>
          </g>
          <path class="cls-2" d="M232.51,126.61v.25c-1.26-.28-2.91-.8-3.76.42l.02-2.89c-.16-.16-.38-.27-.62-.3l-.52-.05-13.46-1.68-8.74-1.09-9.95,1.25h0s-.5.07-.5.07l-11.68,1.46-.52.05c-.24.03-.46.13-.62.3l.02,2.37v.53c-.84-1.22-2.49-.7-3.75-.42v-2.54s0-1.58,0-1.58h0c0-.9.68-1.65,1.57-1.75.07,0,.15-.02.22-.02.04,0,.09,0,.13-.01.07,0,.13-.01.19-.02.07,0,.13-.01.19-.02.06,0,.11-.01.16-.02.04,0,.08,0,.12-.01.05,0,.11-.01.16-.02.04,0,.08,0,.12-.01.08,0,.16-.02.24-.02.1-.01.2-.02.29-.03.03,0,.06,0,.09,0,.14-.02.27-.03.37-.04.04,0,.08,0,.11-.01.12-.01.19-.02.19-.02l1.15-.13,21.62-2.76h0s.03,0,.03,0h.02s0,0,0,0l21.76,2.76,1.15.13s.07,0,.19.02c.03,0,.07,0,.11.01.1.01.23.02.37.04.03,0,.06,0,.09,0,.09,0,.19.02.29.03.08,0,.16.02.24.02.04,0,.08,0,.12.01.05,0,.11.01.16.02.04,0,.08,0,.12.01.05,0,.11.01.16.02.07,0,.13.01.19.02.07,0,.13.01.19.02.04,0,.09,0,.13.01.08,0,.15.02.22.02.89.09,1.57.85,1.57,1.74h0v3.87Z"/>
          <rect class="cls-10" x="226.78" y="126.21" width="8" height="9.2" rx="3.84" ry="3.84"/>
          <path class="cls-7" d="M229.11,128.36c-.73,0-1.28,1.06-1.28,2.46s.55,2.46,1.28,2.46,1.28-1.06,1.28-2.46-.55-2.46-1.28-2.46ZM229.11,132.82c-.39,0-.84-.86-.84-2.01s.44-2.01.84-2.01.84.86.84,2.01-.44,2.01-.84,2.01Z"/>
          <path class="cls-10" d="M180.16,135.41h0c-2.21,0-4-1.79-4-4v-1.2c0-2.21,1.79-4,4-4h0c2.21,0,4,1.79,4,4v1.2c0,2.21-1.79,4-4,4Z"/>
          <path class="cls-7" d="M178.49,128.36c-.73,0-1.28,1.06-1.28,2.46s.55,2.46,1.28,2.46,1.28-1.06,1.28-2.46-.55-2.46-1.28-2.46ZM178.49,132.82c-.4,0-.84-.86-.84-2.01s.44-2.01.84-2.01.84.86.84,2.01-.44,2.01-.84,2.01Z"/>
          <path class="cls-7" d="M202.52,119.18c-1.6.56-1.26.43-2.86.99-.9.31-2.09.58-3,1.11-.52.3-.94.69-1.18,1.23,0,.02-.01.03-.02.04,0-.01,0-.03.01-.04l-.5.06c.41-1.31,1.64-1.81,2.9-2.25,2.16-.76,2.37-.82,4.53-1.57.27-.09.39.34.12.43Z"/>
          <path class="cls-7" d="M206.92,118.89c1.6.56,1.47.56,3.07,1.12.9.31,2.09.58,3,1.11.52.3.94.69,1.18,1.23,0,.02.01.03.02.04,0-.01,0-.03-.01-.04l.5.06c-.41-1.31-1.64-1.81-2.9-2.25-2.16-.76-2.59-.95-4.74-1.71-.27-.09-.39.34-.12.43Z"/>
        </g>
        <path class="cls-2" d="M178.82,67.87h0c.04.15.07.31.11.45.4,1.67.76,3.26,1.77,4.73,1.4,2.03,3.1,3.84,4.47,5.89,1.43,2.14,2.54,4.47,3.64,6.8.39.82.78,1.65,1.11,2.5h-2.98c-.66-1.77-1.5-3.48-2.51-5.09-1.34-2.13-2.98-4.04-4.48-6.05-1.92-2.57-3.14-4.87-3.75-8.77-.02-.15-.05-.3-.07-.45-.1-.71-.18-1.46-.24-2.28,0-.04,0-.07,0-.11,0-.11,0-.23,0-.34.1-1.16,1.18-2.05,2.38-2.05h24.87v4.78h-24.31Z"/>
        <path class="cls-7" d="M206.69,38.07c-.48,1.74-.93,3.47-1.34,5.18-1.82,7.57-3.04,14.78-3.72,21.89-.02.15-.03.3-.04.45-.64,6.84-.76,13.57-.42,20.41,0,.12-.09.23-.21.23h0c-.12,0-.22-.09-.23-.21-.34-6.85-.22-13.59.42-20.43.01-.15.03-.3.04-.45.68-7.14,1.92-14.39,3.74-21.99.41-1.72.86-3.45,1.34-5.19.03-.1.12-.17.22-.17h0c.14,0,.24.14.21.28Z"/>
        <path class="cls-7" d="M197.5,91.64c-.22-2.56-.38-5.09-.47-7.62h-.45c.09,2.54.25,5.09.47,7.66.02.31.15.58.36.79h.97c-.48-.06-.85-.39-.88-.82Z"/>
        <path class="cls-7" d="M178.93,68.32h-2.74c-.02-.15-.05-.3-.07-.45h2.69c.04.15.07.3.11.45Z"/>
        <path class="cls-7" d="M201.37,65.14c-.02.15-.03.3-.04.45h-25.45s0-.07,0-.11c0-.11,0-.23,0-.34h25.49Z"/>
        <path class="cls-10" d="M194.57,14.07c-.44-1.46-.95-3.08-2.14-4.1-.22-.19-.54.13-.32.32,1.23,1.05,1.72,2.79,2.14,4.3.46,1.63.71,3.3.8,4.98.02.29.46.29.45,0-.1-1.87-.39-3.71-.93-5.5Z"/>
        <path class="cls-10" d="M197.36,14.87c-.13-.26-.52-.03-.39.23.58,1.15.77,2.39.54,3.66-.05.28.38.4.43.12.25-1.39.05-2.74-.59-4.01Z"/>
      </g>
      <g>
        <path class="cls-1" d="M143.58,35.48l-3.11,19.57c-.04.25-.26.44-.52.44h-32.98c-.37,0-.67-.3-.67-.67v-1.55c0-.37.3-.67.67-.67h8.11l2.75-17.28c.04-.26.26-.44.52-.44h24.72c.32,0,.57.29.52.61Z"/>
        <polygon class="cls-7" points="120.75 34.87 117.48 55.48 116.93 55.48 120.19 34.87 120.75 34.87"/>
        <path class="cls-7" d="M132.15,43.46c-.73.73-1.46,1.46-2.19,2.19-.25.25.14.64.39.39l2.19-2.19c.25-.25-.14-.64-.39-.39Z"/>
      </g>
      <g>
        <path class="cls-5" d="M29.66,97.35c-.48-1.06.07-2.21-.35-3.27-.03-.07,0-.19.05-.26.37-.63.36-1.3.25-1.98-.06-.37.26-.56.3-.9.12-1.11-.02-2.27.28-3.31.34-1.13.18-2.32.64-3.45.23-.56.7-1.25.37-2.02-.08-.18-.01-.59.12-.66.66-.37.48-1.05.67-1.59.29-.83.57-1.66.86-2.49.41-1.15.84-2.3.99-3.52.03-.23.13-.42.29-.55.88-.7,1.4-1.79,2.45-2.3.08-.04.21-.1.25-.07.48.47,1.26.34,1.73.86.3.33.57,1.56.7,1.75.46.69-.07,1.37.06,2.06.08.43-.12,1.05.25,1.26.22.13.7-.38,1.07-.57.5-.26.72-.89,1.49-.87.59.02,1.01.26,1.1.63.18.71.78,1.19.84,2.01.05.73.06,1.42-.08,2.13-.04.18-.1.34-.01.53.43,1,.35,2.03.21,3.08-.08.65-.22,1.28-.06,1.96.22.94-.21,1.86-.35,2.78-.07.46.11.92-.08,1.38-.1.24.02.54-.28.74-.21.15-.09.37.02.57.28.49-.52,3.66-.77,4.73-.06.25-.16.49-.1.75.21,1.02-.02,2.05-.42,2.92-.36.79-.36,1.54-.43,2.32-.04.43.02.87.05,1.28.04.47-.51.5-.44.87.18.95-.22,1.79-.49,2.66-.09.29-.21.58.04.86.11.13.03.27-.05.39-.45.65-.55,1.41-.62,2.17-.03.27-.08.48-.27.69-.22.24-.13.66-.22.89-.23.59.16,1.24-.36,1.79-.73.77-.77,1.83-.81,2.83-.01.25-.07.35-.2.52-.34.44-.71.87-.26,1.48.1.13.16.41-.12.54-.24.11-.19.34-.26.55-.25.87.24,1.92-.67,2.65-.21.17-.42.24-.5.1-.18-.31-.88.06-.73-.53.24-.93-.31-1.9.24-2.83.52-.86.29-2.01,1.06-2.79.14-.14.09-.25-.02-.36-.13-.13.08-1.82.4-2.43.34-.66.19-1.48.74-2.06.17-.17.24-.39.19-.64-.02-.11-.08-.29-.03-.33.77-.74.2-1.73.48-2.53.28-.81.71-3.62.92-4.2.36-1.03.66-2.1.7-3.17.02-.73.35-1.31.5-1.97.08-.35.67-3.39.37-4.09-.1-.24.52-1.05.39-1.34-.34-.8.34-1.62-.08-2.41-.05-.09.06-.32.16-.44.51-.57-.11-2.8.52-3.09.04-.02.21-2.62.28-3.8.02-.3.03-.6.05-.9.02-.31.27-.7-.16-.99-.11-.07-.1-.48,0-.67.27-.56.1-1.12,0-1.65-.08-.42-.3-.77.06-1.16.16-.17.01-.39-.2-.42-.32-.05-.61-.35-.98,0-.81.76-1.03,1.75-1.4,2.75-.31.84-.36,1.7-.55,2.54-.09.39-.05.95.07,1.29.25.69-.17,1.35.12,2,.14.32-.5.62-.1,1-.52.76-.2,1.62-.25,2.42-.05.8-.03,1.62-.13,2.42-.09.7-.14,1.41-.28,2.12-.14.76-.26,1.55-.34,2.33-.09.86-.04,1.75-.16,2.59-.23,1.56-.45,3.12-.69,4.68-.05.31-.04.63-.37.86-.32.22-.22.64-.25.98-.05.59-.3,1.04-.9,1.2-.64.17-1.29-.47-1.22-1.26.04-.49-.05-.85-.3-1.29-.27-.5-.1-1.18-.21-1.78-.17-.89.28-1.83-.03-2.7-.37-1.07.13-2.11-.08-3.22-.15-.76-.21-1.87.18-2.59.36-.65.2-1.1.07-1.65-.06-.25.02-.39.21-.54.31-.26.44-.65.37-1.01-.23-1.31.15-2.59.59-3.71.45-1.14.24-2.47,1.09-3.46-.19-.77.74-1.29.46-2.08-.07-.21.18-.33.31-.43.82-.63.57-1.52.64-2.35.08-.96-.19-1.88-.18-2.84.01-.78.07-1.67-.45-2.41-.3-.43-.63-.38-.93-.08-.54.54-1.09,1.04-1.36,1.82-.13.4-.54.72-.74,1.16-.52,1.13-1.09,2.22-1.2,3.51-.04.51-.15,1.1-.56,1.54-.26.29-.43.66-.35,1.05.12.59-.33,1.09-.3,1.55.04.77-.03,1.57-.32,2.15-.43.86-.27,1.74-.46,2.59-.15.65.06,1.43-.24,2.08-.4.9.15,1.8-.12,2.68-.07.23-.26,2.22-.15,2.83.15.86-.05,1.66-.11,2.49-.04.6-.05,1.21.06,1.83.16.96.07,1.96.06,2.94,0,.91-.25,1.88-.01,2.71.18.62.23,1.2.25,1.8.02.53.18,3.65.14,4.11-.08.87.15,1.68.37,2.49.03.12.08.23.02.33-.24.41.04.88-.02,1.18-.14.72.13,1.39.05,2.1-.08.67.22,1.38.25,2.07.03.91.64,1.73.39,2.69-.13.49-.63.8-.59,1.38.01.14-.19-.04-.22-.16-.11-.61-.32-1.16-.83-1.56-.15-.12-.07-.3-.04-.46.14-.71.18-1.42-.27-2.05-.12-.16-.06-.3-.05-.46.06-1.22-.01-2.4-.37-3.59-.16-.54-.42-1.31-.3-1.69.43-1.35-.32-2.62-.05-3.91.08-.39-.11-.76-.2-1.14-.13-.6-.06-1.27.02-1.9.1-.72.11-1.45-.06-2.14-.09-.37.34-.59.13-.92-.36-.56.22-3.64-.05-4.33-.37-.97.3-1.77.19-2.66ZM38.43,84.27s.03-.16-.02-.19c-.13-.1-.19.06-.28.11-.4.23-.24.75-.5,1.03-.71.76-.42,1.8-.73,2.67-.06.18-.32.44-.22.75.22.72-.17,1.43-.07,2.16.02.16-.1.37-.22.5-.43.45-.45,1-.4,1.56.06.69.19,1.42-.12,2.05-.47.95-.1,1.95-.33,2.94-.23.99.47,2.13-.04,3.22-.03.07.05.2.03.27-.2.52.33,1,.17,1.41-.24.61-.02,1.09.13,1.6.06.2.13.6.29.56.27-.07-.02-.35.02-.54.03-.14.08-.28.16-.39.36-.51.33-1.13.4-1.7.1-.76.31-1.5.39-2.27.11-1,.3-1.99.45-2.99.15-.96-.09-1.97.28-2.91.1-.24.04-.44,0-.67-.12-.9.05-1.81.13-2.7.05-.64.31-1.43.21-1.97-.21-1.1.28-2.09.2-3.14-.03-.41-.13-.88.08-1.37ZM39.43,77.46s0-.03-.01-.05c-.01,0-.03,0-.04.01,0,.02,0,.04.01.05.01,0,.03,0,.04-.01Z"/>
        <path class="cls-11" d="M24.83,118.71c.06-.29-.1-.64-.22-.94-.31-.83-.53-1.71-.99-2.44-.5-.8-.43-1.86-1.22-2.51-.28-.23-.33-.58-.35-.95-.02-.34,0-.74-.26-1-.49-.5-.84-1.08-1.11-1.71-.12-.28-.42-.35-.55-.74-.24-.72-.82-1.33-1.16-2.06-.03-.05-.2-.02-.26-.08-.29-.29-.62-.55-.91-.85-.6-.63-.5-1.72-1.45-2.07-.21-.08-.17-.29-.18-.49-.04-.83-.45-1.5-.96-2.13-.65-.81-1.03-1.75-1.31-2.74-.05-.18.18-.37.04-.54-.64-.71-.74-1.67-1.16-2.46-.18-.35-.02-.64-.19-.92-.65-1.12-.37-2.42-.68-3.6-.16-.61.27-1.12.13-1.68-.11-.44.13-.72.45-.83.65-.2,1.34-.96,2,.02.04.06.17.07.26.1.85.3,1.17,1.18,1.85,1.68.44.32.41,1.16,1.15,1.31.04,0,.04.17.07.25.51,1.26,1.31,2.37,1.91,3.58.52,1.06,1.45,1.87,1.75,3.12.12.49.54,1.08.84,1.55.69,1.09.77,2.39,1.41,3.46.32.53.11,1.23.43,1.69.54.79.62,1.68.78,2.54.08.45.6,2.05.76,2.32.14.25.18.47.17.78-.04.88-.06,1.8.16,2.64.23.47.68,1.1,1.07.53.25-.38.32-.93.32-1.46-.02-.26-.05-.53-.12-.79-.3-1.27-.44-2.59-.91-3.83-.1-.27-.29-.57-.29-.81.03-1.07-.28-2.03-.77-2.95-.03-.06-.1-.13-.09-.18.16-.88-.37-1.52-.74-2.23-.4-.77-.77-1.58-1-2.42-.19-.7-.88-1.13-.92-1.84-.04-.61-.35-1.05-.67-1.49-.33-.45-.57-.96-.96-1.38-.28-.3-.56-.66-.67-1.04-.2-.72-.53-1.34-1.02-1.9-.19-.22-.36-.49-.53-.71-.33-.42-.49-1.02-.92-1.27-.74-.42-1.13-1.14-1.66-1.71-.72-.78-1.5-1.4-2.56-1.4-1.15,0-2.63,1.42-2.9,2.57-.25,1.09.36,2.2-.08,3.28.77.61.18,1.53.54,2.31.32.68,1.61,4.3,1.7,5.35.02.19.15.33.28.48.21.25.4.52.57.8.06.11.06.38-.04.35-.43-.14-1.04.54-1.31-.25-.17-.48-.52-.42-.85-.3-.37.13-.68.22-.84-.26-.07-.21-.26-.15-.4-.22-.67-.32-1.34-.01-2-.02-1.18-.02-2.41-.04-3.48.45-.83.38-1.5,1.12-2.25,1.68-.64.48-1.05,1.17-1.58,1.75-.43.47-.84,1.09-.93,1.69-.12.76.2,1.57.16,2.38-.01.21.21.45.37.65.51.65,2.79,1.82,3.09,1.85,1.05.11,2.05.7,3.18.03.41-.24,1.17.06,1.72.17,1.06.22,2.15.42,3.18.79.83.3,1.64.69,2.41,1.14,1.03.61,1.78,1.51,2.44,2.52.48.73,1,1.49,1.35,2.24.3.66.83,1.39.68,2.25-.03.19.03.44.15.6.56.74.73,1.61.95,2.47.04.15.04.27.17.41.65.65.87,1.41.65,2.34-.11.45.13.89.58,1.08.45.19,1.11-.38,1.07-.95-.1-1.29-.43-2.54-.94-3.73-.26-.61-.71-1.3-.67-1.82.09-1.01-.89-1.52-.84-2.46.01-.26-.35-.71-.59-.98-.43-.49-.79-1.02-1.11-1.55-.61-1.02-1.21-2.01-2.21-2.73-.75-.54-1.27-1.4-2.3-1.5-.07-.86-2.34-1.06-2.85-1.23-.94-.31-2.08-.09-3.06-.39-1.01-.31-2.01.05-3.04-.2-.85-.2-1.74-.08-2.34-.89-.02-.03-.09-.03-.13-.06-.43-.31-.92-1.48-.64-1.67.49-.34.27-.92.55-1.24.41-.48.84-.94,1.14-1.5.04-.07.16-.09.24-.14.15-.09.3-.19.44-.31.67-.53,1.2-1.32,2.23-1.23.37.03,2.33-.49,2.93-.47.91.03,1.78-.04,2.43.83.23.3.61.54,1.11.5.36-.03.68.11.99.4.95.89,2.07,1.6,2.74,2.79.18.32.41.61.4.96-.02.79.6,1.32.78,2.06.23.94,1.22,1.65.94,2.81-.13.78.74,1.19.72,1.94,0,.24.08.58.25.71.71.51.69,1.38.94,2.05.26.69.45,1.41.82,2.07.26.46.59.87.71,1.42.2.89.4,1.78.88,2.58.34.57,1.35.75,1.91.42.47-.28.13-.79.41-.99.41-.3.36-.66.21-.98-.36-.8-.53-1.59-.35-2.47ZM23.27,119.93c-.02.08.03.2-.1.23-.02,0-.08-.05-.09-.08-.03-.36-.48-.45-.54-.74-.27-1.29-.89-2.45-1.36-3.66-.14-.37.26-.75-.12-1.05-.09-.07-.17-.16-.26-.23h0c-.14-.07-.29-.16-.31-.34-.11-.8-.59-1.46-.81-2.22-.05-.18-.71-2.54-.58-2.74.1-.15.79,1.71.88,1.72.27.01.1.3.17.45.39.79.5,1.72,1.16,2.38.17.18.3.42.27.63-.16,1.15.77,1.86,1.13,2.8.2.54.51.99.44,1.64-.04.37.21.78.12,1.2ZM23.55,121.06s-.12-.06-.13-.1c0-.04.05-.12.1-.14.04-.01.1.05.18.09-.06.07-.1.15-.15.15Z"/>
        <path class="cls-5" d="M46.96,110.55c.49-.34,1.04-.65,1.44-1.12.1-.11.35-.16.34-.32-.02-.61,2.21-2.44,2.7-2.72.47-.27.98-.44,1.32-.95.33-.49.97-.76,1.48-.98.82-.35,1.51-.92,2.35-1.24,1.12-.41,2.18-.47,3.24.07.53.27.59,1.35.4,1.86-.25.66-2.39,2.55-2.64,3.07-.19.4-.46.61-.82.85-.76.52-1.45,1.13-2.28,1.57-.21.11-.46.38-.58.63-.43.89-1.15,1.38-2.07,1.63-.15.04-.32.13-.32.23-.03.77-.73.97-1.16,1.4-.02.02-.06.02-.06.04-.19,1.05-1.34,1.23-1.83,2.01-.15.24-.34.44-.36.74,0,.09-.04.26-.05.26-.86-.03-.84.9-1.35,1.29-.6.46-1.02,1.2-1.42,1.88-.35.59-.72,1.17-.74,1.94,0,.26-.58.58-.8.95-.04.07-.2.12-.2.17,0,1.21-1.03,1.87-1.49,2.83-.25.51-.37,1.1-.49,1.66-.09.44-.28.79-.53,1.16-.29.42-.57.42-.95.23-.43-.22-.57-.81-.42-1,.27-.34.15-.66.24-.97.12-.43.27-.88.62-1.15.55-.43.69-1,.73-1.64.05-.8.14-1.54,1.1-1.86.39-.13.5-.69.49-1.13-.02-.6.21-1.02.72-1.31.2-.12.34-.31.44-.53.28-.64.64-1.23,1.18-1.67.29-.23.26-.58.42-.86.49-.82,1.19-1.48,1.76-2.23.33-.43.65-.86.96-1.31.14-.2.34-.29.54-.25.43.09.7-.18.75-.47.11-.56.44-.77.9-1,.65-.33,1.11-.9,1.57-1.47.35-.43.74-.95,1.35-.99.47-.03.34-.49.63-.65.61-.35,1.04-.91,1.48-1.46.36-.46,1.01-.44,1.43-.84.21-.2.42-.34.48-.64.06-.28,1.68-1.29,1.12-1.7-.51-.37-1.25-.46-1.59-.06-.63.75-1.77.53-2.28,1.43-.16.28-3.26,2.57-3.68,2.93-.76.66-1.64,1.17-2.35,1.87-.71.7-1.33,1.5-1.98,2.25-.7.82-1.46,1.6-2.04,2.51-.57.89-1.5,1.31-1.99,2.25-.13.24-.29.41-.52.54-.12.07-.28.17-.3.27-.17,1.25-1.24,2.04-1.61,3.21-.12.39-.18,1.51-.89,1.65-.05.01-.08.16-.11.25-.08.3-.21.56-.58.44-.39-.12-.68-.39-.58-.83.24-1.14.64-2.21,1.45-3.1.16-.17,1.01-2.27,1.04-2.54.09-.78.63-1.3.91-1.96.25-.6,1.04-2.31,1.2-2.6.24-.43.53-.89.64-1.34.14-.6.87-.55.95-1.12.09-.67.48-1.17,1.02-1.55.12-.09.14-.18.11-.29-.14-.53.13-.83.52-1.18,1.06-.97,1.61-2.36,2.68-3.34.11-.1.27-.32.22-.56-.02-.1.02-.24.08-.33.28-.42,1.66-1.93,1.95-2.31.49-.64.83-1.42,1.48-1.9.26-.2.31-.42.42-.66.46-.96,1.25-1.73,1.55-2.78.18-.62.25-1.27.62-1.83.02-.04,0-.14-.03-.17-.11-.09-.21-.03-.31.05-.75.57-1.45,1.24-2.45,1.35-.05,0-.12.02-.13.04-.38.97-1.6.94-2.12,1.89-.32.58-1.04,1.09-1.58,1.64-.31.32-.65.6-.66,1.1,0,.2-.11.34-.34.38-.13.02-.33.13-.34.21-.05.81-.98,1-1.18,1.73-.1.37-.26.81-.74.97-.2.07-.11.28-.12.44-.02.19-.02.41-.24.46-.57.13-.8.58-.89,1.07-.13.67-.67,1.05-1.04,1.53-.19.24-.45.36-.29.71.05.1,0,.17-.08.24-.69.63-1.16,1.37-1.15,2.34,0,.17-.14.23-.24.33-.61.61-.88,1.36-.88,2.21,0,.09,0,.25-.04.27-.68.24-.51.95-.78,1.41-.07.12-.07.27-.24.31-.06.02-.17.08-.17.11.08.7-.51,1.13-.69,1.7-.27.83-.17,1.77-.54,2.6-.09.22-.14.47-.35.59-.23.13-.21.26-.18.5.09.57-.27,1.06-.34,1.6-.1.74-.95,1.16-.87,1.92.12,1.08-.44,1.99-.57,2.99-.02.18-.13.24-.27.27-.22.05-.29-.11-.35-.27-.18-.48-.15-.99,0-1.44.25-.79.19-1.61.38-2.4.11-.46.68-.75.48-1.28-.18-.5-.07-.97.17-1.35.71-1.11.7-2.42,1.08-3.62.52-1.64,1.53-3.09,1.85-4.75.2-1.04,1-1.74,1.1-2.8.03-.35.35-.85.67-1.19.85-.9,1.13-2.11,1.74-3.14.05-.08.08-.23.12-.23.82,0,.71-.69.7-1.11,0-.56.56-.49.72-.91.23-.62.94-1.08,1.1-1.7.17-.66.66-.94.97-1.42.24-.37.45-.58.87-.77.29-.13.66-.58.82-.97.2-.48.47-.91.83-1.23.67-.59,1.39-1.13,2.13-1.62.42-.28.84-.53,1.18-.89.06-.07.14-.18.21-.17.88.07,1.2-.7,1.75-1.13.54-.42,1.23-.46,1.87-.59.35-.07.67.17.76.58.14.66.16,1.35.24,1.98.13.97-.47,1.39-.8,2.01-.15.28-.07.55-.22.84-.52.97-1.26,1.78-1.9,2.67-.16.23-.29.46-.38.74-.24.74-.67,1.32-1.33,1.8-.37.27-.47.89-.9,1.24-.77.6-1.03,1.57-1.59,2.32-.41.55-.98.97-1.43,1.51-.16.19-.24.36-.32.61-.18.6-.59,1.04-1.08,1.48-.51.46-1.51,1.66-1.65,2.38-.05.27-1.87,2.92-1.86,3.19,0,.06,0,.17.09.12.23-.1,2.97-4.05,3.82-4.64Z"/>
        <path class="cls-4" d="M51.75,130.07c-.45,1.96-1.19,3.58-2.31,4.68-1.74,1.71-3.8,2.15-5.81,2.15-1.01,0-22.16-.08-23.16-.21-.99-.13-2.01-.83-2.87-1.59-.13-.11-.25-.23-.37-.35-1.12-1.1-1.87-2.72-2.31-4.68-.39-1.7-.76-7.79-.92-11.29-.03-.57.26-1.05.61-1.05h37.56c.36,0,.64.48.61,1.05-.16,3.39-.64,9.6-1.02,11.29Z"/>
      </g>
    </g>
  </g>
</svg>