<?xml version="1.0" encoding="UTF-8"?>
<svg id="_レイヤー_2" data-name="レイヤー 2" xmlns="http://www.w3.org/2000/svg" viewBox="0 0 105.62 171.6">
  <defs>
    <style>
      .cls-1 {
        fill: #d6b8ae;
      }

      .cls-2 {
        fill: #f0833b;
      }

      .cls-3 {
        fill: #361209;
      }

      .cls-4 {
        fill: #6a341a;
      }

      .cls-5 {
        fill: #e6702f;
      }

      .cls-6 {
        fill: #db3432;
      }

      .cls-7 {
        fill: #fff;
      }

      .cls-8 {
        fill: #c3181f;
      }

      .cls-9 {
        fill: #f39918;
      }

      .cls-10 {
        fill: #f9bf57;
      }

      .cls-11 {
        fill: #fce2cc;
      }

      .cls-12 {
        fill: #2a5676;
      }
    </style>
  </defs>
  <g id="_文字" data-name="文字">
    <g>
      <path class="cls-11" d="M.16,167.25c.03-.12.05-.25.08-.37.08-.45.14-.9.26-1.33.56-2.03,3-2.83,4.67-3.73,1.52-.81,3.21-1.63,4.25-3.03.95-1.28,1.69-2.65,2.18-4.17.78-2.45,1.28-5.19,2.55-7.47,1.08-.13,2.13-.38,3.24-.58,1.68-.31,3.28-.11,4.98-.15,1.66-.04,3.27-.31,4.92-.05,1.06.16,1.93.36,2.85-.1.08.21.17.42.25.62.63,1.53,1.46,2.97,2.07,4.5,1.08,2.69,1.95,6.24,1.43,9.14-.43,2.42-1.75,5.07-3.84,6.47-2.05,1.37-5.2,2.26-7.83,2.11-.43.08-.87.16-1.31.22-1.09.18-2.19.32-3.27.46-2.28.31-4.77.78-6.89,1.74-.43.19-.95-.13-.82-.63.21-.82,1.09-1.61,1.68-2.23.17-.18.35-.35.53-.53-.81.07-1.62.04-2.28,0-1.16-.09-3.48-.2-4.3-1.3-.99.18-2.15.37-2.97.87-.6.37-.97,1.12-1.65,1.31-.58.16-.94-.38-.94-.9,0-.29.09-.58.16-.87Z"/>
      <path class="cls-2" d="M55.31,164.25s0-.04.01-.06c.33-1.82.84-8.67.88-10.51.02-.9-5.07-1.54-5.08.18,0,1.45.79,7.58.88,9.03.07,1.17.09,2.6,1.66,2.68.83.04,1.48-.56,1.64-1.32Z"/>
      <path class="cls-2" d="M77.79,164.9s0-.04.01-.06c.34-1.74.82-8.33.88-10.09.03-.86-4.71-1.1-4.73.55-.02,1.39.63,6.87.69,8.25.05,1.12.05,2.49,1.56,2.59.8.05,1.42-.51,1.59-1.24Z"/>
      <path class="cls-4" d="M71.12,5.37c-.83-1.99-2.6-3.95-4.85-4.33-.94-.16-2.05.18-2.41,1.13-.83-.51-2.02-.63-2.86-.55-.96.08-3.52,2.14-4.51,2.21-.78.05-3.4.58-2.9,2.24.07.23.26.53.53.83-.59.53-.87,1.45-.71,2.27.33,1.79,2.14,2.3,3.55,3.03,2.22,1.15,3.51,3.63,5.68,4.92,1.65.98,4.02,1.5,5.96,1.71-.01.08-.03.17-.03.25h0c.01.14.14.27.29.17.88-.61,1.11-2.1,1.45-3.04.5-1.42.76-2.94,1.2-4.38.23-.79.49-1.56.58-2.4.16-1.55-.38-2.65-.96-4.05Z"/>
      <path class="cls-2" d="M69.41,26.68c1.29,2-2.48,4.03-3.96,4.24-1.15.16-2.57-.36-3.55-.89-.67-.36-2.35-1.84-1.38-2.75.18-.16.54-.68.49-1.02-.1-.67-.18-1.35-.21-2.04,0,0,0-.01,0-.03,0-.05,0-.1,0-.16,0-.05,0-.1,0-.15,0-.02,0-.03,0-.05-.92-.19-1.78-.6-2.47-1.31-1.56-1.6-1.99-3.34-2.33-5.49-.21-1.32-.32-2.62-.2-3.9,0-.2.03-.4.07-.6,0-.08.02-.15.03-.23.02-.13.05-.25.07-.38.08-.43.21-.87.36-1.3.47-1.61,1.39-2.91,3.16-3.71,1.8-.82,4.68-1.04,6.52-.12,1.25.63,2.4,1.91,2.88,3.23.24.64.47,1.3.68,1.95,0,0,1.06-.14,1.32.63.62,1.87-1.88,4.84-1.88,4.84,0,0,.02,3.08.08,4.79.05,1.39.13,2.77.17,4.15,0,.07.01.12.01.19.07.01.12.07.16.13Z"/>
      <path class="cls-3" d="M58.28,15.01c.13-.28.13-.69-.04-.86-.12-.12-.35-.2-.5-.05-.22.23-.31,1,.06,1.16.21.09.38-.04.48-.24Z"/>
      <path class="cls-3" d="M65.37,15.16c.14-.27.15-.68-.02-.86-.12-.12-.35-.21-.5-.06-.22.22-.33.99.03,1.16.21.1.38-.03.48-.23Z"/>
      <path class="cls-5" d="M63.38,25.57c-.71.36-1.54.62-2.37.68-.1-.68-.18-1.35-.21-2.05,0,0,.02,0,.04-.01-.01,0-.02-.01-.04-.02,0-.05,0-.1,0-.16,0-.05,0-.1,0-.15.36-.12.64-.03,1.08-.05.74-.02,1.48-.23,2.08-.65.47-.32,1.43-1.18,1.58-.09.15,1.05-1.35,2.08-2.15,2.48Z"/>
      <path class="cls-5" d="M60.17,17.53c.17,0,.32-.14.33-.31l.11-3.02c0-.18-.13-.33-.31-.34-.17,0-.33.13-.34.31l-.11,3.02c0,.18.13.33.31.34,0,0,0,0,.01,0Z"/>
      <path class="cls-7" d="M59.61,18.77c.31-.03.65.36.93.43.4.1.75-.09,1.06-.29.18-.12.43-.43.83-.34.2.04.3.3.3.41,0,.67-.78,1.14-1.35,1.28-.64.16-1.31,0-1.82-.41-.41-.34-.59-1.01.05-1.08Z"/>
      <path class="cls-4" d="M59.16,12.39c0,.07-.05.12-.1.14-.56.23-1.24,0-1.83-.03-.39-.01-.95.12-1.39.03,0-.08.02-.15.03-.23.02-.13.05-.25.07-.38.48-.27,1.04-.34,1.61-.29.47.05,1.55.1,1.61.76Z"/>
      <path class="cls-4" d="M66.64,12.39c-.27-.63-1.41-.73-2-.74-.56,0-1.23.12-1.68.48-.09.07-.06.24.04.3.45.23,1.04.08,1.53.12.59.05,1.5.53,2.03.17.12-.08.14-.2.09-.33Z"/>
      <path class="cls-4" d="M68.97,7.83c-1.04-1.6-2.6-2.42-4.46-2.75-1.09-.2-2.02.16-3.1.22-.92.05-1.84.15-2.73.44-.81.27-2.26.86-2.68,1.78-.08,0-.15.04-.19.12-.38.76-.12,1.47.81,1.7,1.86.46,2.73-2.2,4.69-1.43.62.24,1.05.83,1.72,1.04.63.2,1.15.05,1.8-.03.65-.08,1.4-.13,1.95.28,1.06.79.94,2.27.87,3.44-.01.21-.06.46.12.62.43.4.98-.23,1.22-.55.16-.2.35-.38.48-.6.19-.33.39-.55.47-.94.08-.39.05-.8-.03-1.19-.16-.77-.51-1.5-.94-2.15Z"/>
      <path class="cls-3" d="M55.72,161.95c.53-.12.76.03.76.72s.21,6.06-.23,6.44c-.44.38-11.28.34-11.64.19-.36-.14-.1-2.35.81-2.97.91-.62,5.3-3.39,5.62-3.76.6-.66.98-.1,2.56.07,1.58.17,1.58-.58,2.11-.7Z"/>
      <path class="cls-3" d="M78.94,163.08c-.44-.73-.69-.97-2.44-.98-2.23,0-2.29,1.02-2.51,1.27-.22.25-1.09,5.02-1.24,5.49-.15.47-.07.84,0,1.09.07.25,1.16.83,3.75.78,2.26-.04,3.35-.82,3.46-1.33.11-.51-.58-5.6-1.02-6.33Z"/>
      <path class="cls-2" d="M17.01,55.65s-3.69-2.99-4.57-.96c-.57,1.32-.08,2.87.27,3.78.87,2.27,4.29.43,4.29.43,0,0,18.28.21,20.74-.61,8.14-2.73-.81-7.72-.81-7.72l-19.92,5.1Z"/>
      <path class="cls-11" d="M50.64,53.67c.15,1.37.43,2.72.77,4.08.66,2.66,1.2,5.27,2.33,7.78.97,2.18,2.23,4.2,3.88,5.92.79.82,1.83,1.55,2.82,2.11.94.54,2.01.74,3.02,1.05,2.5.78,5.16,1.35,7.77,1.63.67.07,1.31.17,1.98.3.26.05.53.14.8.23.52.17,1.06.31,1.57.08.45-.2.8-.56,1.13-.92.48-.52.93-1.03,1.34-1.56,1.03-1.31,1.87-2.65,2.47-4.1.75-1.78,1.13-3.71,1.07-5.9-.13-5.15-.07-10.08.54-15.21.42-3.47.86-6.94.52-10.45-.14-1.5-.09-3.04-.62-4.47-.67-1.8-1.11-3.47-2.6-4.8-1.21-1.08-2.75-1.82-4.23-2.41-.03-.01-.06-.02-.08-.03-.94-.38-1.8-.58-2.63-.67-1.51-.15-2.93.13-4.61.6-2.32.65-4.99.65-7.15-.52-1.15-.63-2.32-.73-3.44-.48-.13.03-.25.06-.37.1-1.14.34-2.23,1.04-3.17,1.92-.11.1-.22.21-.32.32-2.4,2.56-2.54,6.57-2.5,10.24.02,1.43.06,2.81,0,4.04-.11,2.49-.07,4.98-.33,7.47-.13,1.25-.1,2.46.02,3.66Z"/>
      <path class="cls-11" d="M38.38,57.02c1.14.33,2.88.52,4,.07.76-.31,1.5-.72,2.21-1.12.57-.32,1.1-.78,1.68-1.04.96-.44,2.03-.58,3.06-.83h0c.45-.11.89-.24,1.32-.43.06-.02.12-.05.18-.08,1.28-.61,2.34-1.51,3.16-2.65.89-1.24,1.43-2.67,2.18-3.99.83-1.45,1.73-2.83,2.41-4.36.52-1.18,1-2.44,1.27-3.72.32-1.54.32-3.12-.31-4.64-.44-1.07-.93-2.11-1.36-3.19-.31-.78-.29-1.58-.48-2.38-.16-.69-.27-1.33-.26-2.03.04-.03.07-.07.09-.11.5-.06,1-.09,1.48-.13.28-.03.28-.43,0-.45-.55-.04-1.12-.05-1.69-.01-.12,0-.24.02-.36.03-.81.09-1.61.28-2.35.62-.17.08-.34.17-.5.26-1.34.74-2.61,1.9-3.71,2.89-2.29,2.07-3.26,5.02-5.09,7.42-1.04,1.36-2.6,1.89-3.88,2.93-1.11.89-1.98,2.2-2.64,3.45-.35.66-.68,1.34-1.24,1.86-.52.48-1.03.91-1.5,1.45-.94,1.09-1.57,2.36-1.74,3.8-.33,2.85,1.3,5.58,4.09,6.39Z"/>
      <path class="cls-6" d="M45.75,135.37c-.32-4.41-.03-8.8.01-13.24.19-16.74.28-33.57,2.01-50.4,0,0,.28.58.35.6.02-.1.03-.19.04-.29.29-1.51.24-2.87.88-4.33.44-1,1.2-1.21,2.25-1.19.59.01,1.2.13,1.78.21.89.13,1.75.16,2.65.16,1.72,0,3.47,0,5.18.15,3.59.31,7.25-.17,10.83.22,1.47.16,2.96.51,4.14,1.42.61.47,1.11,1.08,1.71,1.56.75.6,1.41,1.29,2.13,1.92.32.05.1-6.73.18-6.38,1.91,7.78,2.47,15.99,2.89,23.97.31,6.01-.16,12.2-.17,18.25,0,8.69.11,17.38.11,26.07,0,5.64.78,11.62-.07,17.22-.56,3.68-2.07,7.83-6.77,7.9-4.21.06-5-2.32-5.85-5.53-.94-3.58-1.62-7.35-1.96-11.01-.44-4.84-1.56-9.07-2.18-13.82-.35-2.67-.6-5.42-.87-8.1-.36-3.61-.76-7.26-1.39-10.83-.36,2.04-.54,4.2-.56,6.28-.1,9.76-2.37,19.4-2.31,29.17.03,5.72.5,12.51-6.49,13.84-1.18.22-2.43.24-3.54-.23-3.64-1.57-3.67-5.94-3.93-9.36-.35-4.69-.71-9.37-1.06-14.06,0-.05,0-.1-.01-.16Z"/>
      <path class="cls-12" d="M73.06,24.25s.01-.04.02-.06c0-.05,0-.02-.02.06Z"/>
      <path class="cls-6" d="M48.23,77.4c.1.29.43.35.62.17.63.49,1.59.88,1.96,1.04,3.47,1.52,7.7.02,11.28-.37,2.23-.24,4.38-.66,6.64-.66,1.42,0,3.58.45,4.85-.41.17-.11.31-.25.44-.4.24-.29.45-.62.67-.91.72-.93,1.44-1.12,2.48-1.49.31-.1.6-.22.89-.33,0,.11,0,.22,0,.33,0,.35-.02.7-.04,1.05-.09,1.57-.25,2.87.26,4.38.11.33.63.38.72,0,.45-1.87.6-3.76.6-5.66.14.24.3.45.47.63.17.19.52.1.58-.15.1-.4.35-.73.35-.73,0,0-.24-2.02-.46-3.63-.07-.55-.14-1.04-.19-1.4-.7-4.61-1.12-9.26-1.91-13.85-1.24-7.21-2.81-14.31-2.97-21.64-.03-1.4-.16-2.83-.19-4.23,0-.38-.06-1.25-.05-2.12-.03-.01-.06-.02-.08-.03-.94-.38-1.8-.58-2.63-.67-.69,3.14-1.16,7.48-1.3,9.91-.03.51,0,2.38-.17,2.54-.17.15-1.92-.03-2.43-.06-.35-.03-5.09.09-8.76.14-2.3.03-4.17.04-4.28-.01-.27-.14-.25-1.17-.24-1.39.19-2.88.37-4.93.91-8.13.2-1.2.5-2.21.7-3.31,0-.02,0-.04,0-.07-.81.09-1.61.28-2.35.62-.17.08-.34.17-.5.26-.24.45-.46.93-.65,1.43-.26.69-.47,1.41-.63,2.06-.66,2.73-1.28,5.34-1.87,8.18-.14.67-.27,1.35-.41,2.05-.4,2.09-.73,4.73-.84,6.87-.12,2.23-.24,4.45-.37,6.67h0c-.29,4.98-.65,9.94-1.27,14.88-.32,2.51-.65,6.01.17,8.43Z"/>
      <g>
        <path class="cls-10" d="M87.39,123.74h10.36c3.02,0,5.46-1.57,5.46-4.59l1.61-20.06h-24.09l1.2,20.06c0,3.02,2.45,4.59,5.46,4.59Z"/>
        <path class="cls-10" d="M80.98,99.89h23.59c.58,0,1.05-.47,1.05-1.05h0c0-.58-.47-1.05-1.05-1.05h-23.59c-.58,0-1.05.47-1.05,1.05h0c0,.58.47,1.05,1.05,1.05Z"/>
        <path class="cls-3" d="M105.02,99.28c-.19,0-.37-.13-.42-.32,0-.03-.83-3.07-1.8-4.76-2.48-4.32-4.81-5.29-4.83-5.3-.22-.09-.33-.34-.24-.57.09-.22.34-.33.56-.25.11.04,2.61,1.05,5.27,5.68,1.03,1.8,1.85,4.85,1.89,4.97.06.23-.08.47-.31.53-.04.01-.08.01-.11.01Z"/>
        <path class="cls-3" d="M80.53,99.28s-.08,0-.11-.01c-.23-.06-.37-.3-.31-.53.03-.13.85-3.18,1.89-4.97,2.66-4.62,5.16-5.64,5.27-5.68.22-.09.48.02.56.25.09.22-.02.48-.25.56-.02,0-2.34.98-4.83,5.3-.98,1.7-1.79,4.73-1.8,4.76-.05.2-.23.32-.42.32Z"/>
        <path class="cls-3" d="M98.69,89.14h-11.86c-.36,0-.65-.29-.65-.65s.29-.65.65-.65h11.86c.36,0,.65.29.65.65s-.29.65-.65.65Z"/>
        <path class="cls-9" d="M103.75,100.11h-21.36c-.12,0-.22-.1-.22-.22s.1-.22.22-.22h21.36c.12,0,.22.1.22.22s-.1.22-.22.22Z"/>
      </g>
      <path class="cls-2" d="M90.48,84.18s-1.6,3.28-.36,5.1c1.24,1.82,2.4,1.98,3.43.74,1.4-1.69.15-6.15.15-6.15,0,0-1.58-18.21-2.63-20.58-3.51-7.84-7.68-3.12-7.05,1.34.63,4.46,6.46,19.54,6.46,19.54Z"/>
      <path class="cls-11" d="M77.6,28.07c1.5.72,2.59,1.89,3.82,2.95,2.12,1.82,3.57,4.38,4.65,6.94,1.3,3.07,2.27,5.75,3.25,8.9.48,1.55,1.11,4.94,2.02,7.31.99,2.58,1.47,4.31.98,6.44-.29,1.25-1.17,2.61-2.1,3.47-.88.82-2.31.95-3.46,1.16-1.26.23-2.46.2-3.51-.65-1.96-1.59-2.92-3.88-3.81-6.15-1.13-2.86-1.37-6.02-1.7-9.06-.21-1.94-.55-3.82-.64-5.77-.08-1.9-.21-3.77-.21-5.67,0-1.68-.23-3.36-.22-5.02,0-1.35-.06-3.09.72-4.27-.93-.55-.67-.98.21-.56Z"/>
      <path class="cls-3" d="M22.48,146.05c-.45,0-.83-.34-.87-.79L10.7,27.98c-.04-.48.31-.91.79-.95.49-.05.91.31.95.79l10.91,117.28c.04.48-.31.91-.79.95-.03,0-.05,0-.08,0Z"/>
      <path class="cls-2" d="M13.11,54.05s1.51,1.14,1.58,3.03c.07,1.89-1.09,2.36-1.09,2.36l-.58-2.54.09-2.85Z"/>
      <path class="cls-3" d="M30.63,147.14c.49-1.2-8.44-5.07-8.44-5.07,0,0-8,4.35-8.36,5.45-.36,1.1,16.31.82,16.8-.38Z"/>
      <path class="cls-1" d="M65.32,29.24c-.09,0-.18,0-.27,0-2.97-.11-4.63-1.74-4.7-1.81-.09-.09-.09-.22,0-.31s.22-.09.31,0c.02.02,1.61,1.57,4.4,1.68,2.81.11,5.21-1.63,5.24-1.65.1-.07.23-.05.3.05.07.1.05.23-.05.3-.1.07-2.41,1.74-5.24,1.74Z"/>
      <path class="cls-1" d="M13.31,167.77c-.07,0-.15-.04-.19-.11-.06-.1-.03-.24.08-.3.03-.02,2.96-1.72,6.22-2.53.82-.21,1.69-.31,2.61-.42,2.71-.33,5.51-.66,7.02-3.72,2.01-4.08.44-10.1.42-10.16-.03-.12.04-.24.15-.27.12-.03.24.04.27.15.07.25,1.63,6.24-.45,10.47-1.61,3.27-4.66,3.64-7.35,3.96-.9.11-1.76.21-2.55.41-3.2.8-6.08,2.47-6.11,2.49-.03.02-.07.03-.11.03Z"/>
      <path class="cls-1" d="M22.23,163.18c-.09,0-.18-.06-.21-.16-.03-.12.03-.24.15-.27.02,0,1.99-.62,4.01-3.15,1.97-2.46,1.7-5.81,1.7-5.85-.01-.12.08-.23.2-.24.12,0,.23.08.24.2.01.14.29,3.56-1.79,6.16-2.12,2.64-4.14,3.27-4.23,3.29-.02,0-.04,0-.06,0Z"/>
      <path class="cls-1" d="M6.44,165.88c-.1,0-.2-.08-.21-.18-.02-.12.06-.23.18-.25.05,0,5.2-.88,7.85-3.33,4.39-4.05,4.19-10.46,4.19-10.53,0-.12.09-.22.21-.23.14,0,.22.09.23.21,0,.07.2,6.68-4.33,10.86-2.75,2.54-7.86,3.4-8.08,3.44-.01,0-.02,0-.04,0Z"/>
      <path class="cls-8" d="M63.16,107.97c-.08,0-.16-.05-.2-.13l-4.78-10.91c-.05-.11,0-.24.11-.29.11-.05.24,0,.29.11l4.78,10.91c.05.11,0,.24-.11.29-.03.01-.06.02-.09.02Z"/>
      <path class="cls-8" d="M65.52,71.38c-2.25,0-4.45-.06-5.82-.19-2.88-.29-10.12-1.23-10.19-1.24-.12-.02-.2-.13-.19-.24.02-.12.13-.2.24-.19.07,0,7.31.95,10.18,1.24,2.96.3,9.8.21,12.69,0,2.94-.22,7.42-.79,7.46-.8.12-.02.23.07.24.19.02.12-.07.23-.19.24-.05,0-4.53.59-7.49.8-1.57.11-4.3.19-6.95.19Z"/>
      <path class="cls-6" d="M71.21,12.85s-8.21-4.55-10.7-6.08c-2.5-1.53-3.99-2.8-4.02-2.95-.04-.15,5.53-6.58,12.51-1.86,6.1,4.13,2.21,10.88,2.21,10.88Z"/>
      <path class="cls-6" d="M59.84,3.59S53.76.81,51.72.07c-1.08-.39-2.16.85,2.65,3.74,4.8,2.89,6.79,3.35,6.79,3.35l-.2-2.14-1.12-1.43Z"/>
    </g>
  </g>
</svg>