<?xml version="1.0" encoding="UTF-8"?>
<svg id="_レイヤー_2" data-name="レイヤー 2" xmlns="http://www.w3.org/2000/svg" viewBox="0 0 41.58 36.9">
  <defs>
    <style>
      .cls-1 {
        fill: #66391f;
      }
    </style>
  </defs>
  <g id="_文字" data-name="文字">
    <g>
      <path class="cls-1" d="M28.86,9.64l-7.45-7.45c-1.48-1.48-3.25-2.19-5.32-2.19-2.07.06-3.84.77-5.38,2.31-1.48,1.48-2.19,3.25-2.25,5.38-.06,2.07.71,3.84,2.13,5.26l7.45,7.45-.35.35,10.41,10.35c1.42,1.48,3.19,2.13,5.38,2.07,2.13-.12,3.96-.95,5.56-2.54,1.6-1.6,2.48-3.43,2.54-5.62.12-2.13-.59-3.96-2.01-5.38l-10.35-10.35-.35.35ZM28.5,14.72c.12-.12.3-.18.47-.35h.06c.12-.06.24-.12.35-.18,2.96,2.84,5.03,4.85,6.21,6.03.59.59,1.01,1.06,1.18,1.42.18.41.18.71-.12.89l-8.16-7.81ZM21.17,3.73l6.15,6.21-8.87,8.99-6.15-6.27c-1.36-1.3-2.07-2.9-2.07-4.73-.12-1.77.47-3.31,1.71-4.61,1.24-1.24,2.72-1.77,4.55-1.71,1.83.06,3.37.77,4.67,2.13ZM38.5,24.3q.06.06.12.06c.59,1.54.35,2.9-.71,4.08-.12,0-.18.12-.3.18-.3.06-.59.06-.83,0,0-.06.3-.47.83-1.24.35-.65.41-1.54.12-2.78.18-.12.47-.24.77-.3Z"/>
      <path class="cls-1" d="M17.68,23.24c-.24-.47-.53-.95-.95-1.42-.18-.35-.47-.59-.71-.83-.06-.12-.18-.18-.24-.3-.06,0-.12,0-.18-.06-.3-.3-.65-.59-1.01-.89-.3-.18-.59-.35-.89-.53-.35-.18-.71-.3-1.12-.41-.95-.41-2.01-.59-3.19-.59h-.41c-.77,0-1.54.12-2.25.3-.12,0-.24,0-.3.06-1.42.41-2.66,1.18-3.73,2.25q-.06,0-.06.06c-1.77,1.71-2.66,3.84-2.66,6.33v.77c.12,2.37,1.06,4.44,2.84,6.21,1.77,1.83,3.96,2.72,6.56,2.72s4.79-.89,6.62-2.72c.95-1.01,1.66-2.07,2.13-3.19.18-.59.3-1.12.47-1.66.12-.59.18-1.18.18-1.83,0-1.6-.35-3.02-1.12-4.26ZM14.72,21.35c.12.12.24.24.35.35,1.12,1.06,1.83,2.37,2.13,3.84.06.47.12,1.01.12,1.6,0,2.07-.77,3.84-2.25,5.38-1.54,1.48-3.31,2.25-5.44,2.25-1.77,0-3.31-.53-4.61-1.6l9.7-11.83ZM12.65,20.05c.3.12.59.3.89.47l-9.7,11.59c-1.18-1.42-1.83-3.02-1.83-4.97,0-2.13.77-3.9,2.25-5.44,1.54-1.48,3.31-2.25,5.38-2.25,1.06,0,2.13.18,3.02.59Z"/>
    </g>
  </g>
</svg>