<?xml version="1.0" encoding="UTF-8"?>
<svg id="_レイヤー_2" data-name="レイヤー 2" xmlns="http://www.w3.org/2000/svg" viewBox="0 0 41.85 26.52">
  <defs>
    <style>
      .cls-1 {
        fill: #66391f;
      }
    </style>
  </defs>
  <g id="_文字" data-name="文字">
    <g>
      <path class="cls-1" d="M38.99,23.54H1.04c-.68.22-1.04.45-1.04.69,0,1.02,6.57,1.9,15.95,2.28h8.14c9.37-.38,15.95-1.26,15.95-2.28,0-.24-.37-.47-1.04-.69Z"/>
      <path class="cls-1" d="M41.75,6.03c-.6-2.86-3.86-4.67-8.35-5.07.02-.32.03-.63.04-.95H4.73c.29,8.74,2.46,16.43,5.7,21.4h17.31c.82-1.26,1.57-2.69,2.24-4.27,7.57-2.26,12.65-6.95,11.77-11.11ZM31.05,14.26c1.07-3.24,1.82-6.94,2.18-10.92,3.56.31,5.95,1.58,6.3,3.21.48,2.25-2.82,5.63-8.48,7.71Z"/>
    </g>
  </g>
</svg>