<?xml version="1.0" encoding="UTF-8"?>
<svg id="_レイヤー_2" data-name="レイヤー 2" xmlns="http://www.w3.org/2000/svg" viewBox="0 0 44.64 27.81">
  <defs>
    <style>
      .cls-1 {
        fill: #66391f;
      }
    </style>
  </defs>
  <g id="_文字" data-name="文字">
    <path class="cls-1" d="M43.33,27.81h0c.87,0,1.5-.84,1.26-1.68h0s-5.63-19.35-5.63-19.35c-.16-.56-.68-.95-1.26-.95h-17.45c-.61-3.33-3.54-5.84-7.01-5.84-1.6,0-3.1.51-4.35,1.49l-.19.15-.13.21c-.61,1.03-1.34,2.23-2.17,3.57-2.16,3.53-4.29,6.91-4.63,7.44-1.14,1.58-1.77,3.53-1.77,5.51,0,5.47,5.14,9.43,12.23,9.43h31.1ZM7.92,12.11c3.09,0,5.42,2.02,5.42,4.7,0,2.42-1.97,4.39-4.39,4.39-1.86,0-3.38-1.52-3.38-3.38,0-1.42,1.15-2.57,2.57-2.57,1.06,0,1.92.86,1.92,1.93,0,.78-.63,1.41-1.41,1.41-.55,0-.99-.45-.99-.99,0-.36.3-.66.66-.66s.66-.3.66-.66-.3-.66-.66-.66c-1.1,0-1.99.89-1.99,1.99,0,1.28,1.04,2.32,2.32,2.32,1.51,0,2.74-1.23,2.74-2.74,0-1.79-1.46-3.25-3.25-3.25-2.15,0-3.9,1.75-3.9,3.9,0,2.6,2.11,4.71,4.71,4.71,2.17,0,4.12-1.2,5.11-3.14h.01s.08-.2.08-.2c.07-.16.14-.32.19-.48.89-2.19,3.07-7.59,4.11-10.31h.06s11.42.01,11.42.01l4.34,16.82H12.23c-5.68,0-9.65-2.82-9.65-6.86,0-3.34,2.5-6.26,5.34-6.26Z"/>
  </g>
</svg>