<?xml version="1.0" encoding="UTF-8"?>
<svg id="_レイヤー_2" data-name="レイヤー 2" xmlns="http://www.w3.org/2000/svg" viewBox="0 0 35.52 35.52">
  <defs>
    <style>
      .cls-1 {
        fill: #66391f;
      }
    </style>
  </defs>
  <g id="_文字" data-name="文字">
    <path class="cls-1" d="M34.65,4.59l-.9.9-4.86,4.87-2.67-1.04-1.03-2.68L30.95.87l-1.21-.41C28.84.15,27.91,0,26.98,0c-2.18,0-4.37.84-6.04,2.51-1.67,1.67-2.5,3.87-2.5,6.06,0,1.15.24,2.29.7,3.36l-9.7,9.73c-.74-.25-1.51-.38-2.28-.38-1.83,0-3.67.7-5.06,2.1C.7,24.78,0,26.62,0,28.46c0,1.83.7,3.67,2.09,5.07.65.65,1.4,1.16,2.2,1.5l1.11.48v-6.91l1.75-1.01,1.75,1.01v6.91l1.11-.48c.8-.35,1.55-.85,2.2-1.5,1.39-1.4,2.1-3.24,2.09-5.07,0-.77-.13-1.55-.38-2.29l9.7-9.73c1.07.46,2.21.7,3.35.7,2.18,0,4.37-.84,6.04-2.51,1.67-1.67,2.5-3.87,2.5-6.06,0-.94-.15-1.87-.46-2.77l-.41-1.21Z"/>
  </g>
</svg>