<?xml version="1.0" encoding="UTF-8"?>
<svg id="_レイヤー_2" data-name="レイヤー 2" xmlns="http://www.w3.org/2000/svg" viewBox="0 0 34.39 41.26">
  <defs>
    <style>
      .cls-1 {
        fill: #66391f;
      }
    </style>
  </defs>
  <g id="_文字" data-name="文字">
    <g>
      <path class="cls-1" d="M29.22,0H5.17C2.31,0,0,2.31,0,5.17v33.44c0,1.47,1.19,2.65,2.65,2.65h29.08c1.47,0,2.65-1.19,2.65-2.65V5.17c0-2.85-2.31-5.17-5.17-5.17ZM31.86,35.47H2.52V9.32h29.34v26.15ZM31.86,8.24H2.52v-3.07c0-1.46,1.18-2.64,2.64-2.64h16.51v1.77c0,.31.26.57.57.57h5.17c.32,0,.57-.26.57-.57v-1.77h1.22c1.46,0,2.64,1.18,2.64,2.64v3.07Z"/>
      <path class="cls-1" d="M16.99,29.91c4.2,0,7.6-3.4,7.6-7.6,0-.29-.02-.57-.05-.85,0-.1-.01-.2-.02-.29,0,0,0,.01,0,.02,0,0,0-.01,0-.02-.3.63-.94,1.06-1.69,1.06-.81,0-1.51-.52-1.76-1.24-.04-.11-.18-.11-.22,0-.26.72-.95,1.24-1.76,1.24s-1.51-.52-1.76-1.24c-.04-.11-.18-.11-.22,0-.26.72-.95,1.24-1.77,1.24s-1.5-.52-1.76-1.24c-.04-.11-.18-.11-.22,0-.26.72-.95,1.24-1.77,1.24s-1.51-.52-1.76-1.24c-.04-.11-.18-.11-.22,0-.04.09-.08.18-.13.27h0c-.05.35-.07.7-.07,1.05,0,4.2,3.41,7.6,7.6,7.6Z"/>
      <path class="cls-1" d="M16.99,33.38h.2c4.2,0,7.86-2.34,9.74-5.79h1.58c1,0,1.8-.8,1.8-1.8v-6.44c0-1-.81-1.8-1.8-1.8h-1.53c-1.78-3.73-5.59-6.31-9.99-6.31-1.6,0-3.12.35-4.5.97-2.33,1.03-4.24,2.83-5.38,5.11-.61,1.2-1.01,2.53-1.14,3.94-.04.35-.05.7-.05,1.06,0,6.11,4.97,11.07,11.08,11.07ZM7.95,22.22c.02-2.38.96-4.62,2.65-6.31,1.71-1.71,3.98-2.65,6.4-2.65s4.71.99,6.34,2.6c.02.02.03.03.04.05,1.61,1.6,2.62,3.8,2.66,6.24,0,.05,0,.11,0,.16,0,2.41-.94,4.69-2.65,6.4-1.71,1.71-3.98,2.65-6.4,2.65-4.99,0-9.05-4.06-9.05-9.05,0-.03,0-.06,0-.09Z"/>
      <path class="cls-1" d="M8.03,3.79c-.83,0-1.5.67-1.5,1.5s.67,1.5,1.5,1.5,1.5-.67,1.5-1.5-.67-1.5-1.5-1.5Z"/>
      <path class="cls-1" d="M12.68,3.79c-.83,0-1.5.67-1.5,1.5s.67,1.5,1.5,1.5,1.5-.67,1.5-1.5-.67-1.5-1.5-1.5Z"/>
    </g>
  </g>
</svg>