<?xml version="1.0" encoding="UTF-8"?>
<svg id="_レイヤー_2" data-name="レイヤー 2" xmlns="http://www.w3.org/2000/svg" viewBox="0 0 33.13 38.49">
  <defs>
    <style>
      .cls-1 {
        fill: #66391f;
      }
    </style>
  </defs>
  <g id="_文字" data-name="文字">
    <g>
      <g>
        <path class="cls-1" d="M20.54,18.1s.04-.07.05-.11c.04-.05.06-.11.08-.17.61-.67,1.16-1.4,1.46-2.26.28-.81.35-1.67.42-2.52.07-.34.19-.68.31-1,.68-1.01,1.23-2.11,1.9-3.12.84-1.29,1.86-2.6,3.46-2.91.14-.02.25-.08.33-.16,1.57,2.31,1.99,5.87.84,9.44-1.69,5.27-6.14,8.55-9.94,7.33-.14-.04-.28-.1-.41-.15-.02-.12-.04-.24-.05-.36.22-.58.27-1.2.48-1.8.27-.78.64-1.51,1.07-2.21Z"/>
        <path class="cls-1" d="M22.49,11.21c-1.01.8-.79,2.12-1.14,3.32-.45,1.56-1.34,3.14-2.46,4.33-.53.56-1.09.96-1.72,1.23-1.27-2.3-1.54-5.58-.48-8.87,1.51-4.71,5.23-7.83,8.72-7.56-.04,1.27-.38,2.47-.83,3.62-1,1.11-1.77,2.38-2.09,3.93Z"/>
      </g>
      <g>
        <path class="cls-1" d="M18.28,32.02s.08,0,.12-.01c.06,0,.13,0,.18-.02.89.17,1.8.26,2.69.07.84-.18,1.61-.58,2.37-.96.33-.12.67-.19,1.02-.26,1.21.05,2.44-.05,3.65,0,1.53.05,3.18.22,4.29,1.43.09.11.2.17.3.2-1.15,2.55-3.96,4.76-7.61,5.65-5.38,1.31-10.5-.77-11.44-4.65-.04-.14-.06-.29-.08-.43.09-.07.19-.15.28-.23.61-.11,1.17-.38,1.79-.53.81-.18,1.63-.25,2.45-.25Z"/>
        <path class="cls-1" d="M25.17,30.08c-1.21-.44-2.23.43-3.43.76-1.57.44-3.37.5-4.98.16-.76-.16-1.39-.43-1.95-.82,1.3-2.29,3.95-4.23,7.31-5.04,4.81-1.17,9.41.37,11,3.48-1.1.63-2.29.97-3.52,1.19-1.47-.27-2.95-.27-4.44.28Z"/>
      </g>
      <g>
        <path class="cls-1" d="M1.86,3.83c.09-.03.21-.07.33-.11.86.23,1.7.55,2.48.98.73.39,1.42.85,2.07,1.36.56.43,1.07.95,1.73,1.22,1.25.51,2.67.4,3.92.92.27.11.53.23.78.37.04.12.12.22.25.29.54.29.94.79,1.23,1.36-1.79,2.27-5.18,3.11-8.31,1.86C2.79,10.66.86,7.05,1.84,3.84c0,0,0,0,.01,0Z"/>
        <path class="cls-1" d="M6.54,5.06c-.65-.45-1.32-.87-2.02-1.21-.24-.12-.49-.22-.74-.33-.37-.48-.88-.66-1.1-1.22C4.48.14,7.8-.65,10.87.58c3.51,1.4,5.44,4.94,4.54,8.13-.36,0-.77-.25-1.03-.35-.08-.03-.15-.04-.22-.04-.5-.3-1.03-.57-1.57-.78-.65-.26-1.33-.41-2.02-.5-.71-.1-1.44-.16-2.06-.5-.71-.38-1.3-1.01-1.97-1.47Z"/>
      </g>
      <g>
        <path class="cls-1" d="M4.52,30.07s.04-.07.05-.1c.04-.05.06-.11.08-.17.61-.67,1.16-1.4,1.46-2.26.28-.81.34-1.67.41-2.52.07-.35.19-.68.31-1.01.68-1.01,1.23-2.1,1.9-3.12.84-1.28,1.86-2.59,3.46-2.91.14-.03.24-.08.33-.15,1.57,2.31,1.99,5.87.84,9.44-1.7,5.27-6.14,8.55-9.94,7.33-.14-.05-.28-.1-.41-.16-.02-.12-.03-.24-.05-.36.22-.58.27-1.2.48-1.8.27-.78.64-1.51,1.07-2.22Z"/>
        <path class="cls-1" d="M6.46,23.18c-1.01.8-.8,2.12-1.14,3.32-.44,1.57-1.34,3.14-2.46,4.33-.53.56-1.09.96-1.72,1.23-1.27-2.3-1.54-5.58-.49-8.87,1.51-4.71,5.23-7.82,8.72-7.56-.04,1.27-.38,2.46-.82,3.63-1,1.11-1.77,2.38-2.08,3.92Z"/>
      </g>
    </g>
  </g>
</svg>