<?xml version="1.0" encoding="UTF-8"?>
<svg id="_レイヤー_2" data-name="レイヤー 2" xmlns="http://www.w3.org/2000/svg" viewBox="0 0 26.72 46.75">
  <defs>
    <style>
      .cls-1 {
        fill: #66391f;
      }
    </style>
  </defs>
  <g id="_文字" data-name="文字">
    <g>
      <path class="cls-1" d="M24.5,37.26h-1.54l-1.08,5.01c-.04.18-.3.18-.33,0l-1.08-5.01h-3.09l-1.08,5.01c-.04.18-.3.18-.33,0l-1.08-5.01h-3.09l-1.08,5.01c-.04.17-.3.17-.33,0l-1.08-5h-3.08l-1.08,5.01c-.04.18-.3.18-.33,0l-1.08-5.01h-1.54L.01,46.15c-.08.3.15.6.47.6h25.75c.32,0,.54-.29.47-.6l-2.2-8.89Z"/>
      <path class="cls-1" d="M25.01,34.57c0-1.92-1.56-3.47-3.48-3.47h-6.33V14.02h-3.68v17.07s0,0,0,0h-6.34c-1.85,0-3.35,1.45-3.46,3.28,0,.06-.02.12-.02.18h0s0,.01,0,.02h23.3Z"/>
      <path class="cls-1" d="M15.2,10.75V1.84C15.2.82,14.37,0,13.36,0c-1.01,0-1.84.82-1.84,1.84v8.91h3.68Z"/>
    </g>
  </g>
</svg>