<?xml version="1.0" encoding="UTF-8"?>
<svg id="_レイヤー_2" data-name="レイヤー 2" xmlns="http://www.w3.org/2000/svg" viewBox="0 0 37.71 47.51">
  <defs>
    <style>
      .cls-1 {
        fill: #66391f;
      }
    </style>
  </defs>
  <g id="_文字" data-name="文字">
    <g>
      <g>
        <g>
          <path class="cls-1" d="M28.9,2.67c.22.86.21,16.83.05,17.7-.25,1.34-.84,1.84-2.15,2.06-.82.14-15.76.18-16.54-.11.34-3.24-.16-17.15.09-18.45.11-.59.81-1.11,1.39-1.21,1.44-.24,14.02.18,17.16,0Z"/>
          <path class="cls-1" d="M28.9,2.67c-3.13.18-15.72-.24-17.16,0-.57.1-1.27.62-1.39,1.21-.25,1.29.25,15.21-.09,18.45-1.07-.39-1.43-.96-1.61-2.04-.24-1.45.22-13.97,0-17.17.15-1.51.94-2.16,2.41-2.32,3.03.24,14.16-.19,15.65.04,1.2.19,1.86.58,2.18,1.84Z"/>
        </g>
        <g>
          <path class="cls-1" d="M31.45,28.27c.05.15.1.31.15.46l.03.09c-.58.59-.64,1.46-1.6,1.56-3.24-.17-21.17.23-22.26,0,.04-.89-.28-1.94.85-2.15,1.5-.27,19.08.25,22.81-.06,0,.03.02.06.03.09Z"/>
          <path class="cls-1" d="M31.45,28.27s-.02-.06-.03-.09c-3.73.32-21.31-.21-22.81.06-1.13.21-.81,1.26-.85,2.15-1.25-.26-.96-.74-1.69-1.4.15-.2.15-.37.21-.59.29-1,.04-1.75,1.48-2.03,3.22.17,21-.23,22.08,0,1.21.25,1.25.79,1.57,1.82,0,.03.02.06.03.09Z"/>
          <path class="cls-1" d="M18.82,43.24l.07-.07.07.07c4.82,4.78-5.37,4.33-.14,0Z"/>
          <path class="cls-1" d="M30.5,43.34s.05.04.08.05c.88.62,1.94,1.43,1.22,2.63-1.26,2.08-4.8-.77-1.27-2.54l.05-.09s-.05-.04-.08-.05Z"/>
          <path class="cls-1" d="M6.89,43.43s.05-.04.08-.06l.03.09c3.56,1.74.07,4.63-1.23,2.58-.74-1.17.27-1.99,1.12-2.62Z"/>
          <g>
            <path class="cls-1" d="M32.44,18.66c.19-.08,3.17-.13,3.4-.07,1.15.3,1.29,1.4.97,1.97-.44.79-1.16.56-1.59.63-.03,0-.06,0-.09,0-.7.09-2.61.19-3.13-.29-.57-.53-.5-1.81.45-2.24Z"/>
            <path class="cls-1" d="M33.83,22.02c-.85,0-1.85-.11-2.35-.57-.47-.44-.69-1.15-.58-1.86.12-.74.57-1.33,1.23-1.63h0c.45-.21,3.65-.18,3.91-.11.71.19,1.25.64,1.51,1.26.25.59.22,1.29-.08,1.82-.56,1-1.49,1-1.93,1-.08,0-.17,0-.21,0-.06,0-.12.01-.16,0-.24.03-.75.08-1.34.08ZM35.22,21.93s0,0,0,0c0,0,0,0,0,0ZM32.5,20.33c.28.18,1.52.22,2.53.1.06,0,.11,0,.14,0,.13-.01.25-.01.37-.01h0c.42,0,.49-.03.6-.22.06-.1.08-.31,0-.48-.07-.17-.23-.3-.46-.37-.42-.04-2.51,0-2.99.05-.21.12-.27.33-.29.45-.03.22.03.41.1.49ZM32.51,20.34h0,0ZM32.62,19.39h0,0ZM32.44,18.66h0,0Z"/>
          </g>
          <g>
            <path class="cls-1" d="M1.59,18.64c.22-.09,3.54-.21,4.02.23.38.35.5,1.33.25,1.77-.38.67-1.06.48-1.41.54-.03,0-.06,0-.09,0-.68.1-2.81.18-3.29-.29-.46-.44-.51-1.85.52-2.25Z"/>
            <path class="cls-1" d="M3.02,22.02c-.91,0-1.99-.11-2.47-.57-.45-.43-.65-1.21-.5-1.95.14-.73.61-1.3,1.27-1.56.34-.13,3.99-.38,4.82.38.63.58.83,1.95.39,2.71-.52.9-1.37.9-1.78.9-.06,0-.14,0-.16,0-.07.01-.13.01-.18.01-.2.02-.74.08-1.38.08ZM4.48,21.93s-.01,0-.03,0c.01,0,.02,0,.03,0ZM1.59,20.33c.37.18,1.87.21,2.66.1.06,0,.11-.01.16,0,.11-.01.22-.01.32-.01.38,0,.41-.03.48-.14.07-.16.02-.62-.09-.8-.55-.19-2.76-.17-3.3-.1-.08.04-.21.13-.27.37-.07.27,0,.51.04.6ZM1.61,20.35h0,0ZM1.87,19.35s0,0,0,0c0,0,0,0,0,0ZM1.59,18.64h0,0Z"/>
          </g>
        </g>
      </g>
      <g>
        <path class="cls-1" d="M19.38,23.3c-.3,0-.59,0-.86,0-7.86-.02-8.34-.19-8.52-.26-1.47-.54-1.9-1.44-2.1-2.63-.12-.75-.09-3.55-.02-8.04.06-3.75.12-7.63.01-9.2,0-.04,0-.08,0-.13.18-1.8,1.18-2.79,3.08-3.01.05,0,.1,0,.15,0,1.53.12,5.33.07,8.68.02,3.87-.06,6.28-.09,7.03.03,1.19.18,2.35.6,2.8,2.41.28,1.13.2,17.28.06,18.03-.3,1.62-1.1,2.39-2.77,2.67-.52.09-4.6.12-7.56.12ZM10.5,21.6c1.15.22,15.21.21,16.19.08,1.03-.17,1.34-.47,1.52-1.44.17-1.14.13-16.36-.05-17.39-.22-.85-.54-1.11-1.56-1.26-.66-.1-3.76-.05-6.77,0-3.49.05-7.1.11-8.74-.01-1.11.14-1.55.56-1.67,1.58.1,1.67.05,5.53-.01,9.26-.05,3.33-.11,7.11,0,7.77.15.88.36,1.16,1.09,1.44ZM10.52,21.61s0,0,0,0c0,0,0,0,0,0Z"/>
        <path class="cls-1" d="M18.83,47.42s-.09,0-.13,0c-1.01-.04-1.83-.58-2.09-1.36-.24-.7-.13-1.86,1.71-3.4l.06-.06c.31-.27.78-.26,1.06.04l.06.07c1.7,1.69,1.7,2.85,1.4,3.53-.32.72-1.12,1.18-2.07,1.18ZM18.84,44.23c-.73.71-.85,1.17-.79,1.34.06.17.37.31.72.33.35.01.67-.1.74-.27.07-.17,0-.64-.67-1.4ZM18.82,43.24h0,0Z"/>
        <path class="cls-1" d="M30.58,47.51c-.15,0-.31-.02-.46-.05-.97-.2-1.73-.99-1.85-1.91-.05-.39-.03-1.24.89-2.06-1.57-.68-4.36-1.51-6.7-2.2-1.4-.42-2.73-.81-3.64-1.13-.89.31-2.22.71-3.74,1.16-2.22.66-5.08,1.51-6.67,2.17.53.47,1,1.15.9,2.03-.11.92-.85,1.72-1.82,1.94-.93.21-1.83-.17-2.35-1-1.14-1.81.58-3.09,1.31-3.63l.09-.06c1.07-.77,4.03-1.68,8.11-2.89,1.59-.47,3.09-.92,3.91-1.22.17-.06.36-.06.52,0,.86.31,2.3.74,3.82,1.19,3.18.95,6.79,2.02,8.05,2.88l.08.06c.76.54,2.54,1.8,1.43,3.64-.42.7-1.11,1.1-1.87,1.1ZM30.57,44.33c-.54.33-.84.71-.79,1.03.04.28.33.55.66.62.3.06.54-.05.72-.35.23-.39.2-.68-.58-1.3ZM6.98,44.32c-.79.64-.81.94-.57,1.32.18.29.43.4.73.33.33-.08.61-.35.65-.63.04-.32-.26-.69-.81-1.02Z"/>
        <path class="cls-1" d="M18.89,43.93c-.42,0-.76-.34-.76-.76l-.04-12.16c0-.42.34-.76.76-.76h0c.42,0,.76.34.76.76l.04,12.16c0,.42-.34.76-.76.76h0Z"/>
        <path class="cls-1" d="M10.85,31.22c-1.9,0-2.94-.03-3.24-.09-1.05-.22-1.37-.62-1.68-1.12-.1-.16-.19-.3-.36-.46-.18-.17-.38-.23-.7-.31-1.78-.47-2.47-1.6-2.15-7.38.02-.42.38-.74.8-.72.42.02.74.38.72.8-.15,2.65-.07,4.35.23,5.19.17.48.33.52.79.64.37.1.87.23,1.34.66.33.3.5.58.63.78.17.27.21.33.7.43.59.1,6.2.04,10.71,0,4.77-.05,9.71-.1,11.37-.02.18-.03.27-.12.51-.54.15-.25.31-.53.57-.79.29-.3.78-.3,1.07,0,.3.29.3.78,0,1.07-.13.13-.24.31-.35.5-.28.47-.7,1.17-1.71,1.28-.04,0-.08,0-.12,0-1.54-.08-6.52-.03-11.34.02-3.43.03-6,.06-7.8.06Z"/>
        <path class="cls-1" d="M31.62,29.59c-.32,0-.62-.21-.73-.53l-.2-.65c-.03-.09-.06-.19-.08-.28-.24-.8-.26-.88-.92-1.02-.59-.1-6.15-.04-10.63,0-4.71.05-9.57.1-11.24.02-.53.11-.55.21-.65.79-.04.2-.08.43-.15.69-.12.4-.54.64-.94.52-.4-.12-.64-.54-.52-.94.05-.18.09-.36.12-.54.13-.72.31-1.71,1.95-2.03.06-.01.12-.02.19-.01,1.53.08,6.47.03,11.25-.02,7.01-.07,10.38-.09,10.95.03,1.54.32,1.79,1.17,2.06,2.07.03.08.05.17.08.26l.2.65c.12.4-.1.83-.5.95-.08.02-.15.03-.23.03Z"/>
        <path class="cls-1" d="M31.62,29.59c-.37,0-.7-.27-.75-.65-.06-.42.23-.8.65-.86,1.95-.28,2.09-1.36,1.96-3.95-.04-.76-.08-1.55,0-2.31.04-.42.42-.72.84-.68.42.04.72.42.68.84-.07.64-.03,1.37,0,2.07.11,2.13.26,5.04-3.26,5.54-.04,0-.07,0-.11,0Z"/>
      </g>
    </g>
  </g>
</svg>