<?xml version="1.0" encoding="UTF-8"?>
<svg id="_レイヤー_2" data-name="レイヤー 2" xmlns="http://www.w3.org/2000/svg" viewBox="0 0 241.94 41.16">
  <defs>
    <style>
      .cls-1 {
        stroke-width: .1px;
      }

      .cls-1, .cls-2 {
        fill: none;
        stroke: #fff;
      }

      .cls-3 {
        fill: #231815;
      }

      .cls-4 {
        fill: #6eba38;
      }

      .cls-5 {
        fill: #fff;
      }

      .cls-2 {
        stroke-width: .2px;
      }

      .cls-6 {
        fill: #fabe00;
      }

      .cls-7 {
        fill: #1f8f51;
      }

      .cls-8 {
        fill: #ea5504;
      }

      .cls-9 {
        fill: #00a3e2;
      }
    </style>
  </defs>
  <g id="_ヘッダー" data-name="ヘッダー">
    <g>
      <g>
        <path class="cls-4" d="M38.78,27.64h2.87c.97,0,2.1.04,3.11.08,1.01.04.74.04,1.75.04h2.99c1.2,0,1.79-.08,3.03,0,1.24.08,1.13-.04,2.14,0,1.01.04.97-.08,1.71,0,.74.08,1.55.23.66.27-.89.04-1.4,0-1.94.04-.54.04-.78.23-1.17.23s-.66.04-.93-.08c-.27-.12-.31-.27-.66-.19-.35.08-.43.08-.89.19-.47.12-.7.12-1.09.04-.39-.08-.58-.23-.93-.12-.35.12-.19.35-.82.35s-1.01-.04-1.36-.08c-.35-.04-.66-.16-1.44-.16s-1.24-.04-2.1-.04-.93-.04-1.83,0c-.89.04-1.16.08-2.72.04-1.55-.04-2.14-.04-3.34-.04h-3.11c-.97,0-.7-.04-2.72-.04-1.71,0-2.84-.04-4.55-.04s-2.68-.12-4.12-.08c-1.44.04-2.45-.04-4.35,0-1.9.04-3.03-.12-5.09-.08-2.06.04-2.56-.04-4.16-.04-1.71,0-3.96-.04-4.82-.04s-1.51,0-2.29-.08c-.78-.08-.86-.31-.12-.31s.62-.04,1.4,0c.78.04,2.25.12,4.62.12s2.72,0,3.38-.04c.66-.04,1.05-.12,1.59-.12s.5,0,1.36.04c.86.04,1.28.16,2.72.19,1.44.04,2.84.04,3.46,0,.62-.04,1.01-.04,1.83-.08.82-.04.04-.13,1.59-.08,1.05.04,7.23.19,8.08.12.85-.08,1.94-.08,3.11-.08h3.34c1.2,0,1.28.04,1.79.04"/>
        <path class="cls-3" d="M34.57,21.87c.36.08-.58.41-.82.61-.23.2-.35.32-.58.61-.23.29-.41.5-.52.67-.12.18-.2.23-.23.38-.03.15-.03,1.14-.03,1.54s-.03,1.43-.03,1.63.17.44.32.55c.15.12.12.04.54.12.43.08,1.05,0,1.55,0h3.42c.66,0,1.2.08,1.94.08s3.19.04,3.89.04.97-.04,1.71-.04,2.52.27,1.17.31c-1.36.04-1.94-.12-2.91-.08-.97.04-1.13,0-2.14.04-1.01.04-1.55,0-2.64.04-1.09.04-1.48.04-2.72.04s-1.09,0-2.76-.08c-1.34-.06-1.4,0-2.51,0h-5.89c-1.75,0-2.27-.18-2.85-.12-.58.06-.87.06-1.75.06s-7.11-.06-8.1-.06h-2.27c-1.17,0-6.93-.12-7.81-.12s-1.22.12-1.51.06c-.29-.06-.58-.41,0-.41s.76-.18,1.34-.18,7.28,0,7.69.06c.41.06.06-.06.47.06.41.12,1.57.06,2.21.06s7.34-.06,7.81,0c.47.06,1.11.06,1.92.12.82.06,7.58.06,8.1.06s.47,0,.67-.17c.2-.18.2-.26.2-.47s.02-1.2,0-1.75c-.02-.47-.06-.97-.1-1.51-.04-.54-.27-.89-.31-1.48-.04-.58-.19-.82-.15-1.09.04-.27.15-1.13,1.2-1.05,1.05.08,2.39,1.44,2.48,1.46"/>
        <path class="cls-4" d="M24.14,21.87c-.27,0-.26.09-.55.09s-.2-.09-.58-.06c-.38.03-.2.06-.47.06s-.23-.09-.76-.09-5.94-.09-6.32-.06c-.38.03-.32-.06-.53.09-.2.14-.55.23-.64.06-.09-.18-.2-.23-.35-.15-.15.09-.32.09-.58.09s-.29-.09-.5-.12c-.58-.09-6.76-.03-7.14,0-.38.03-.47.12-.79.18-.32.06-.47.12-.79.09-.32-.03-.58-.2-.7-.23-.12-.03-.2-.06-.41-.06s-.26-.14-.12-.32c.15-.17.17-.41.29-.61.12-.2.23-.29.38-.44.15-.15.32-.12.38-.35.06-.23.09-.47.2-.61.12-.15.41-.47.61-.55.2-.09.55-.26.7-.35.15-.09.53-.26.64-.47.12-.2.32-.55.41-.7.09-.15.47-.41.61-.55.15-.15.55-.44.67-.55.12-.12.38-.47.55-.52.17-.06.29-.15.41-.23.12-.09.38-.23.52-.35.15-.12.43-.21.55-.26.2-.09,3.12-.99,3.88-1.52.76-.52,5.73-3.39,6.12-3.55.2-.09,1.4-.23,1.6-.26.2-.03.61-.09.85-.06.23.03.35,0,.73,0s1.84.12,1.98.09c.15-.03,3-.23,3.35-.35.35-.12.84-.14.96-.14s.53-.03.76,0c.23.03.11.03.67.17.47.12,2.42.32,2.83.29.41-.03,1.6,0,1.86-.03.26-.03.55,0,.93-.12.38-.12,1.22-.26.7.35-.52.61-.9,1.11-1.28,1.46-.38.35-.64.9.12.29.76-.61.96-.73,1.46-1.05.5-.32.7-.35.87-.29.18.06.35.41.23.58-.12.17-.35.41-.67.61-.32.2-.52.55-.06.35.47-.2,1.02-.44,1.31-.58.29-.15.49-.15.73-.12.23.03.2.2.32.2s.47.15.44.35c-.03.2-.15.55-.06.7.09.15.44.2.5.29.06.09.09.32.03.5-.06.18-.09.44,0,.44s.52-.23.76-.35c.23-.12.55-.15,1.05-.17.49-.03.86-.05.93.03.09.09.17.26.06.38-.12.12-.2.23-.09.29.12.06.35.26.35.35s0,.5.12.52c.12.03.55-.18.7-.23.15-.06.82-.18,1.11-.23.29-.06.73-.03.88.03.14.06.61.23.7.38.09.15.23.35.17.55-.06.2-.13.36-.06.52.07.16.32.18.55.18s.73.23.9.38c.17.15.55.41.55.55s-.23.44-.09.52c.15.09.29.17.79.15.5-.03.84.03,1.14.09.29.06.55.18.58.29.03.12.03.32-.03.47-.06.15-.03.2.29.2h.93c.2,0,.38,0,.58.09.2.09.55.35.73.79.17.44.44,1.31.17,1.52-.26.2-.32.44-.67.41-.35-.03-.41-.06-.47.09-.06.14-.12.32-.35.41-.23.09-.32,0-.53.2-.2.21-.35.29-.5.18-.15-.12-.32-.26-.55-.12-.23.15-.35.29-.52.32-.17.03-.38,0-.44-.12-.06-.12-.06-.29-.23-.29s-.38-.03-.64.12c-.26.15-.55.23-.67.12-.12-.12-.12-.29-.38-.29s-.17.23-.35.26c-.17.03-.32-.06-.47,0-.15.06-.32.15-.52.12-.2-.03-.32.03-.41-.18-.09-.2-.15-.35-.38-.2-.23.15-.58.06-.76.15-.17.09-.44.17-.64.23-.2.06-.32.23-.61.26-.29.03-.67-.06-.79-.17-.12-.12-.26-.23-.29-.32-.03-.09-.23-.14-.38-.03-.23.17-.41.29-.55.29s-.26.09-.35.06c-.09-.03-.06-.15-.23-.06-.17.09-.41.15-.49.06-.09-.09-.35-.09-.5-.12-.15-.03-.09-.09-.26-.03-.18.06-.23.06-.35-.03-.12-.09-.18-.26-.38-.09-.2.18-.55.29-.7.18-.15-.12-.23-.18-.26-.29-.03-.12-.2-.29-.47-.17-.26.12-.73.29-.99.38-.26.09-.44.17-.52.06-.09-.12-.15-.29-.29-.26-.15.03-.52.09-.7.21-.18.12-.35.26-.58.26s-.47-.03-.58-.12c-.12-.09-.32-.18-.49-.12-.17.06-.53.17-.53.17l.2-.26s-.06-.06-.18-.03c-.12.03-.23,0-.32,0s-.12-.14-.23-.12c-.12.03-.09.12-.32.29-.23.18-.38.26-.47.44-.09.17-.26.35-.29.17-.03-.17-.08-.38-.03-.55.06-.2.17-.35.12-.47-.06-.12-.17-.38-.64-.52-.47-.15-3.76.64-4.46.61-.7-.03-3.12.03-3.26.03"/>
        <path class="cls-7" d="M46.25,21.47c.11.02.17.09.49.1.32.01.77.03,1.17,0,.39-.03.69-.13.87-.19.19-.06.73-.02.96-.13.23-.12.42-.07.63.03.21.1.32.2.55.18.19-.02.54-.1.93-.15.31-.04.37-.08.68-.16.31-.08.6-.12,1.05-.27.45-.16.52-.17.5,0-.02.17-.02.37.21.33.23-.04.37-.19.54-.35.17-.16.37-.16.64-.23.27-.08.41-.25.89-.43.49-.18.5-.39.35-.51-.16-.12-.43-.27-.74-.33-.31-.06-.64.02-.86.06-.21.04-.21-.06-.17-.29.04-.23-.27-.43-.47-.58-.19-.16-.37-.14-.82-.12-.45.02-.64.08-1.3.27-.66.19-.95.27-1.44.39-.69.16-.84.19-1.07.21-.23.02.14-.35.21-.6.08-.25-1.01-.04-1.69.14-.68.17-.49-.12-.08-.49.41-.37.29-.23,1.19-.58.89-.35-.14-.64-.78-.56-.64.08-.91.23-1.46.35-.54.12-.85.19-1.2.31-.35.12-.5.18-.6.08-.1-.1.33-.39.6-.56.27-.17.39-.33.82-.58.26-.15.74-.45,1.32-.62.58-.17-.08-.43-.45-.47-.37-.04-.48-.08-.91-.06-.43.02-.78.12-1.03.19-.25.08-.8.23-1.28.47-.49.23-1.28.7-1.59.84-.31.14-.41-.06-.31-.23.1-.17.16-.21.46-.38.24-.13.15-.35-.12-.41-.26-.06-.35-.06-.81.03-.47.09-.82.35-1.46.64-.64.29-.55-.03-.29-.26.26-.23.2-.15.5-.5.29-.35.12-.38-.41-.23-.52.15-.58.12-1.17.38-.58.26-.71.44-1.14.69-.26.15-.6.17-.44-.15.16-.32.23-.45.61-.96.38-.51.39-.41.64-.9.25-.49.23-.71-.55-.48-.79.23-.92.63-1.24.93-.32.31-1.11.84-.63.13.48-.71.75-.92,1.04-1.31.27-.36.42-.38.48-.71.06-.33-.08-.82-.97-.17-.89.64-1.2,1.01-1.65,1.59-.45.58-1.3,1.55-.82.35.48-1.2.63-1.45.76-1.85.2-.62-.03-.76-.55-.33-.82.68-2.73.6-3.66.68-.93.08-2.06.39-2.8.47-.74.08-.27-.31-.54-.35-.27-.04-.47-.16-.86.19-.39.35-.04.31-.93.47-.89.16-1.67.31-2.6.47-.93.16-3.46,1.05-3.96,1.28-.51.23-.93.35-1.44.27-.51-.08-.78-.31-1.01.15-.23.47-.36.58-.7.51-.5-.12-.82.08-1.52.19-.7.12-2.6.39-3.65,1.05-1.05.66-1.36,1.43,0,1.59,1.98.23,4.9.5,6.6.47,1.71-.04,2.56-.16,5.63-.19,3.07-.04,6.37,0,7.26.43.89.43,1.05.15,1.32.66.27.51.74.78,1.2.43.47-.35.5-.16.86-.35.35-.19.66-.62.89-.58.23.04.35.47.66.51.31.04.7.15,1.05-.16.35-.31.62-.43.78-.35.16.08.11.44.27.51.19.08.58.15.82.23.23.08.5.16.85.04.35-.12.58-.19.93-.27.35-.08.51-.19.66-.27.15-.08.47-.35.54-.12.08.23.16.43.51.43s.66-.04.85-.23.43-.27.66-.35c.23-.08.54-.16.54.04s0,.51.16.51.47-.04.74-.12c.27-.08.36-.32.56-.29.2.02.32.07.44.26.12.19.07.22.26.26"/>
        <path class="cls-3" d="M46.27,21.42c.12.07.2-.09.17-.17-.03-.09-.12-.16-.23-.13,0,0-.05.23.06.31M47.32,20.86c-.09.04-.18.12-.33.15-.16.03-.2.07-.28.2-.07.13.07.16.29.1.22-.06.22-.03.36.03.15.06.25.06.39-.01.15-.07.03-.22-.01-.29-.04-.07-.13-.19-.28-.19-.07,0-.06-.03-.15.01M32.06,16.26c.97-.19,1.36-.27,1.63-.31.27-.04.5,0,.62.15.12.16.08.31.19.35.12.04.23-.15.39-.31.16-.16.62-.54.74-.54s.43-.04.47.19c.04.23.02.41-.27.7-.29.29-.41.29-.56.54-.15.25-.25.54.16.37.41-.18.68-.35.99-.31.31.04.51.29.52.39q.02.1.27.1c.25,0,.49.02.56.15.08.14.06.43.16.49.1.06.35.06.54.02.19-.04.89-.39,1.11-.49.21-.1.51-.29.68-.33.17-.04.82-.19.87-.06.06.14.1.27-.06.45-.16.17-.31.37-.23.47.08.1.58-.04,1.67-.58,1.09-.54,1.84-.74,2.14-.78.29-.04.87-.08.95.49.08.56-.35.47-.64.6-.29.14-.37.25-.35.45.02.19.04.45.29.21.25-.23.62-.5,1.05-.64.52-.17,1.2-.33,1.57-.35.37-.02.62.12.5.33-.12.21-.17.27-.35.54-.18.27-.27.62.1.58.37-.04.78-.1,1.13-.16.35-.06.45-.16.66-.16s.47.19.1.41c-.37.21-.27.31-.12.31s.31.06.31.17.28.14.82.06c.51-.08.74-.17,1.17-.29.43-.12.49-.08.76-.21.27-.14.52-.23.74-.12.21.12.43.15.68.08.25-.08.6-.06.7.17.1.23.12.19.27.23.15.04.1.19-.08.29-.18.1-.23.14-.39.23-.16.1-.45.17-.64.21-.19.04-.31.04-.5.15-.19.12-.16.16-.37.25-.21.1-.45.37-.49.15-.04-.21,0-.78-.27-.84-.27-.06-.33,0-.72.14-.39.14-.89.29-1.32.45-.43.15-.93.27-1.13.37-.19.1-.46.17-.7.25-.37.14-.58.23-1.11.25-.53.02-.91.08-1.09-.06-.17-.14-.25-.47-.43-.47s-.47.1-.45-.1c.02-.19.12-.68-.12-.78-.23-.1-.29-.17-.45-.06-.16.12-.74.43-1.09.47-.35.04-.54.12-.66.15-.12.04-.35.18-.6.18s-.7.06-1.09,0c-.39-.06-.39-.15-.25-.31.14-.15.21-.43.1-.49-.12-.06-.19.21-.35.21s-.1-.04-.25-.14c-.16-.1-.22-.03-.35.06-.29.21-.31.21-.76.21s-.91,0-.97-.18c-.06-.17-.04-.8-.33-.54-.29.25-.7.72-1.09.87-.39.16-.56.33-.91.43-.35.1-.85.41-.89.14-.02-.11-.1-.14-.12-.23-.02-.12.01-.3-.02-.47-.06-.29-.08-.74-.35-.43-.23.27-.95.78-1.42.97-.47.19-1.05.35-1.5.37l-7.52-.12s-.29,0-.7.04c-.41.04-.62.02-.85.04-.23.02-7.28.1-7.28.1-.16,0-.45-.02-.51-.06-.06-.04-.25-.08-.37-.04-.12.04-.39.04-.58-.06-.19-.1-.17-.33-.39-.33h-.21l-7.67.25s-.51.12-.95.06c-.45-.06-.39-.41-.21-.64.18-.23.54-.56.74-.72.19-.16.29.12.45-.02.16-.14.25-.47.47-.74.21-.27.23-.35.64-.78.41-.43.5-.77.76-.89.39-.19.72.41,2.04.06,1.32-.35,5.73-.35,5.73-.35,0,0,.58-.29.51-.02-.08.27-.08.35-.31.7-.23.35-.12.39.33.19.45-.19.88-.23,1.24-.27.39-.04,2.27.16,3.36.06,1.09-.1,3.52-.54,3.71-.64.19-.1.31-.12.49-.14.17-.02.33-.06.45-.08.12-.02.31.11.41.1.21-.02.25.02.47-.08.21-.1,6-.76,6-.76"/>
        <path class="cls-5" d="M45.13,16.85c.37.06.43.06.68-.06.25-.12.41-.19.58-.31.17-.12.31-.37-.13-.37s-.54.14-.74.25c-.19.12-.64.45-.39.49"/>
        <path class="cls-5" d="M40,14.57c.23-.19.25-.27.53-.37.27-.1.56-.08.33.14-.23.21-.23.27-.48.41-.25.14-.54.17-.47-.04.08-.21-.02-.04.1-.14"/>
        <path class="cls-5" d="M38.14,12.75c.38-.11.97.02.45.27-.53.25-.53.19-.89.41-.37.21-.47.21-.68.29-.21.08-.33-.08-.02-.29.31-.21.47-.27.66-.41.19-.14.35-.23.49-.27"/>
        <path class="cls-8" d="M44.97,22.55c-.17,1.49-.35,2.19-.58,3.26-.23,1.08-.52,2.07-.2-.03.28-1.85.29-1.55.5-3.09l.29-.15Z"/>
        <path class="cls-8" d="M45.5,13.95c-.06-1.6-.88-9.44-4.05-11.33l-1.17-.29s.14.12.93.7c2.88,2.13,3.55,8.86,3.67,11.07l.61-.15Z"/>
        <path class="cls-1" d="M45.5,13.95c-.06-1.6-.88-9.44-4.05-11.33l-1.17-.29s.14.12.93.7c2.88,2.13,3.55,8.86,3.67,11.07l.61-.15Z"/>
        <path class="cls-8" d="M9.89,29.07c-.2.51-.03.5-.17.58-.15.09-.18.03-.26-.09-.09-.12-.03-.2-.17-.17-.15.03-.12-.09-.15-.17-.03-.09-.03-.2-.15-.2s-.18-.12-.35.12c-.18.23-.35.41-.35.15s-.15-.35-.15-.35c0,0-.06-.12-.15-.06-.09.06-.23.12-.32.17-.09.06-.15,0-.12-.09.03-.09.03-.18-.32.06-.35.23-.41.23-.53.23s-.12-.09-.12-.2,0-.41-.09-.41-.26.03-.32.17c-.06.15-.03.26-.12.32-.09.06-.17.09-.26.03-.09-.06-.26-.15-.38-.03-.12.12-.2.15-.35.06-.15-.09-.12-.2-.23,0-.12.2-.09.23-.23.32-.15.09-.23.03-.23-.06s-.09-.12-.23-.03c-.15.09-.26.15-.35.03-.09-.12-.23-.32-.29-.41-.06-.09-.12-.23-.23-.12-.12.12-.09.26-.26.41-.17.15-.32.17-.44.09-.12-.09-.18-.16-.12-.32C13.22,1.6,30.32.24,33.06.23c5.04-.03,7.49,1.81,7.75,2.01.26.2.58.58-.09.2-.67-.38-2.97-1.37-7.11-1.08-2.37.17-15.09,5.36-23.72,27.71"/>
        <path class="cls-2" d="M9.89,29.07c-.2.51-.03.5-.17.58-.15.09-.18.03-.26-.09-.09-.12-.03-.2-.17-.17-.15.03-.12-.09-.15-.17-.03-.09-.03-.2-.15-.2s-.18-.12-.35.12c-.18.23-.35.41-.35.15s-.15-.35-.15-.35c0,0-.06-.12-.15-.06-.09.06-.23.12-.32.17-.09.06-.15,0-.12-.09.03-.09.03-.18-.32.06-.35.23-.41.23-.53.23s-.12-.09-.12-.2,0-.41-.09-.41-.26.03-.32.17c-.06.15-.03.26-.12.32-.09.06-.17.09-.26.03-.09-.06-.26-.15-.38-.03-.12.12-.2.15-.35.06-.15-.09-.12-.2-.23,0-.12.2-.09.23-.23.32-.15.09-.23.03-.23-.06s-.09-.12-.23-.03c-.15.09-.26.15-.35.03-.09-.12-.23-.32-.29-.41-.06-.09-.12-.23-.23-.12-.12.12-.09.26-.26.41-.17.15-.32.17-.44.09-.12-.09-.18-.16-.12-.32C13.22,1.6,30.32.24,33.06.23c5.04-.03,7.49,1.81,7.75,2.01.26.2.58.58-.09.2-.67-.38-2.97-1.37-7.11-1.08-2.37.17-15.09,5.36-23.72,27.71Z"/>
        <path class="cls-9" d="M48.72,22.21c-.13,1.36-.16,1.91-.43,3.11-.26,1.19-.58,2.42-.35.38.23-2.04.32-2.33.37-3.34l.41-.15Z"/>
        <path class="cls-9" d="M48.5,15.52c.09-9.44-3.38-13.46-4.2-14.04-.82-.58-.84-.61-.84-.61l.41-.06c.58.41.44.18.93.55,1.63,1.22,4.66,7.34,4.4,14.45l-.7-.29Z"/>
        <path class="cls-1" d="M48.5,15.52c.09-9.44-3.38-13.46-4.2-14.04-.82-.58-.84-.61-.84-.61l.41-.06c.58.41.44.18.93.55,1.63,1.22,4.66,7.34,4.4,14.45l-.7-.29Z"/>
        <path class="cls-9" d="M20.32,28.96s-.06.32-.12.44c-.06.12-.12-.03-.17-.15-.06-.12,0-.17-.17-.06q-.17.12-.26.12c-.09,0-.12,0-.15-.15-.03-.15-.15-.32-.26-.2-.12.12-.03.17-.12.23-.09.06-.06.2-.29.12-.23-.09-.26-.2-.32-.12-.06.09-.17.15-.23.26-.06.12-.15.09-.2,0-.06-.09-.09-.12-.23-.06-.15.06-.32.03-.32-.09s-.09-.26-.2-.18c-.12.09-.17.03-.26.15-.09.12-.2.17-.32.12-.12-.06-.09-.17-.18-.23-.09-.06-.29-.06-.41-.03-.12.03-.32.09-.38-.03-.06-.12-.15-.38-.29-.35-.15.03-.18.15-.29.2-.12.06-.12.09-.26.12-.15.03-.35,0-.35,0,0,0-.06.09-.23.12-.17.03-.17.15-.29.15s-.23,0-.26-.12c-.03-.12-.12-.26-.23-.18-.12.09-.15.09-.23.23-.09.14-.23.14-.29.03-.06-.12-.12-.2-.26-.12-.15.09-.32.17-.26-.03.06-.2.53-1.37.82-2.16C23.24-.56,40.2.05,41.16.11c.96.06,2.01.12-.03.29-2.04.17-2.45.47-3.61,1.02,1.6-.76-12.9,6.1-17.19,27.53"/>
        <path class="cls-2" d="M20.32,28.96s-.06.32-.12.44c-.06.12-.12-.03-.17-.15-.06-.12,0-.17-.17-.06q-.17.12-.26.12c-.09,0-.12,0-.15-.15-.03-.15-.15-.32-.26-.2-.12.12-.03.17-.12.23-.09.06-.06.2-.29.12-.23-.09-.26-.2-.32-.12-.06.09-.17.15-.23.26-.06.12-.15.09-.2,0-.06-.09-.09-.12-.23-.06-.15.06-.32.03-.32-.09s-.09-.26-.2-.18c-.12.09-.17.03-.26.15-.09.12-.2.17-.32.12-.12-.06-.09-.17-.18-.23-.09-.06-.29-.06-.41-.03-.12.03-.32.09-.38-.03-.06-.12-.15-.38-.29-.35-.15.03-.18.15-.29.2-.12.06-.12.09-.26.12-.15.03-.35,0-.35,0,0,0-.06.09-.23.12-.17.03-.17.15-.29.15s-.23,0-.26-.12c-.03-.12-.12-.26-.23-.18-.12.09-.15.09-.23.23-.09.14-.23.14-.29.03-.06-.12-.12-.2-.26-.12-.15.09-.32.17-.26-.03.06-.2.53-1.37.82-2.16C23.24-.56,40.2.05,41.16.11c.96.06,2.01.12-.03.29-2.04.17-2.45.47-3.61,1.02,1.6-.76-12.9,6.1-17.19,27.53Z"/>
        <path class="cls-6" d="M52.61,18.18c0-2.62-.17-13.9-4.46-16.96-1.48-1.06-5.13-1.37-8.74.32-.91.43-13.14,7.93-16.19,24.18-.42,2.26-.72,3.28-.72,3.28,0,0,.02.27.08.39.06.12.25.02.45-.16.19-.18.21-.04.43.12.21.16.37.08.47-.06.1-.14.21-.23.33-.04.12.19.35.04.52-.1.17-.14.17-.02.33.12.16.14.25-.02.43-.14.17-.12.08-.04.19.1.12.14.41-.04.49-.14.08-.1.1-.1.15,0,.06.1.19.14.33.14s.19-.14.31-.25c.12-.12.23-.1.29.04.06.14.45.04.54-.08.1-.12.04-.12.14-.14.1-.02.17.19.27.45.1.25.29.06.37-.12.08-.17.14-.14.23.14.1.27.33.02.39-.16.06-.18.17-.08.23.04.06.12.1.16.16.12.06-.04.14-.04.25-.04s.1.04.19.16c.1.12.1.08.14-.04.04-.12.08-.14.12-.19,0,0-.06,0,0-.35C33.9,4.45,44.56.69,45.91.76c5.82.29,6.03,16.28,6.03,16.43,0,0,.26-.38.67.99"/>
        <path class="cls-2" d="M52.61,18.18c0-2.62-.17-13.9-4.46-16.96-1.48-1.06-5.13-1.37-8.74.32-.91.43-13.14,7.93-16.19,24.18-.42,2.26-.72,3.28-.72,3.28,0,0,.02.27.08.39.06.12.25.02.45-.16.19-.18.21-.04.43.12.21.16.37.08.47-.06.1-.14.21-.23.33-.04.12.19.35.04.52-.1.17-.14.17-.02.33.12.16.14.25-.02.43-.14.17-.12.08-.04.19.1.12.14.41-.04.49-.14.08-.1.1-.1.15,0,.06.1.19.14.33.14s.19-.14.31-.25c.12-.12.23-.1.29.04.06.14.45.04.54-.08.1-.12.04-.12.14-.14.1-.02.17.19.27.45.1.25.29.06.37-.12.08-.17.14-.14.23.14.1.27.33.02.39-.16.06-.18.17-.08.23.04.06.12.1.16.16.12.06-.04.14-.04.25-.04s.1.04.19.16c.1.12.1.08.14-.04.04-.12.08-.14.12-.19,0,0-.06,0,0-.35C33.9,4.45,44.56.69,45.91.76c5.82.29,6.03,16.28,6.03,16.43,0,0,.26-.38.67.99Z"/>
        <path class="cls-6" d="M52.31,22.34c-.17,1.66-.52,2.74-.67,3.61-.15.87-.33,1.87-.12-.23.09-.84.32-2.71.35-3.64l.44.26Z"/>
        <path class="cls-3" d="M17,37.2h0c1.43,0,2-1.32,2-1.96v-3.44h-.88v3.94c0,.93-.58,1.26-1.11,1.26s-1.11-.33-1.11-1.26v-3.94h-.88v3.44c0,.63.57,1.96,2,1.96"/>
        <path class="cls-3" d="M21.88,31.63h0c-1.43,0-2,1.32-2,1.96v3.44h.88v-3.94c0-.93.58-1.26,1.11-1.26s1.11.33,1.11,1.26v3.94h.88v-3.44c0-.63-.57-1.96-2-1.96"/>
        <path class="cls-3" d="M31.8,31.66c-.56,0-1.09.27-1.44.71-.35-.44-.87-.71-1.44-.71-1,0-1.88.86-1.88,1.99v3.37h.88v-4.06c0-.78.49-1.1,1-1.1s1,.33,1,1.1v4.06h.88v-4.06c0-.78.49-1.1,1-1.1s1,.33,1,1.1v4.06h.88v-3.37c0-1.13-.87-1.99-1.88-1.99"/>
        <rect class="cls-3" x="25.05" y="31.8" width=".85" height="5.23"/>
        <path class="cls-3" d="M36.62,31.63c-1.43,0-2,1.32-2,1.96v3.44h.88v-1.96h2.23v1.96h.88v-3.44c0-.63-.57-1.96-2-1.96M35.51,34.84v-1.75c0-.93.58-1.26,1.11-1.26s1.12.33,1.12,1.26v1.75h-2.23Z"/>
        <polygon class="cls-3" points="42.43 31.81 38.84 31.81 38.84 32.03 40.21 32.03 40.21 37.03 41.06 37.03 41.06 32.03 42.43 32.03 42.43 31.81"/>
        <rect class="cls-7" x="14.31" y="38.03" width="28.79" height=".16"/>
        <path class="cls-7" d="M41.23,41.12c.28,0,.55-.11.74-.3.2-.2.31-.49.31-.84s-.11-.63-.31-.84c-.19-.19-.46-.3-.74-.3-.51,0-1.05.35-1.05,1.13,0,.34.11.63.31.84.19.19.46.3.74.3M40.48,39.99c0-.27.07-.48.22-.63.13-.13.32-.21.53-.21s.39.08.53.21c.15.15.22.36.22.63,0,.62-.41.83-.75.83-.2,0-.39-.08-.53-.21-.15-.15-.22-.36-.22-.62"/>
        <polygon class="cls-7" points="18.86 39.19 18.86 38.89 18.04 38.89 17.74 38.89 17.74 41.09 18.04 41.09 18.86 41.09 18.86 40.79 18.04 40.79 18.04 40.17 18.83 40.17 18.83 40.11 18.83 39.87 18.83 39.81 18.04 39.81 18.04 39.19 18.86 39.19"/>
        <polygon class="cls-7" points="17.01 39.19 17.01 38.89 15.88 38.89 15.88 41.09 16.18 41.09 16.18 40.11 16.97 40.11 16.97 39.81 16.18 39.81 16.18 39.19 17.01 39.19"/>
        <polygon class="cls-7" points="13.03 40.8 13.85 40.8 13.85 41.09 12.73 41.09 12.73 38.89 13.03 38.89 13.03 40.8"/>
        <rect class="cls-7" x="14.62" y="38.89" width=".3" height="2.21"/>
        <rect class="cls-7" x="39.14" y="38.89" width=".3" height="2.21"/>
        <polygon class="cls-7" points="38.52 38.89 36.86 38.89 36.86 39.19 37.54 39.19 37.54 41.09 37.84 41.09 37.84 39.19 38.52 39.19 38.52 38.89"/>
        <path class="cls-7" d="M28.98,39.1c-.14-.14-.34-.22-.57-.22h-.61v2.21h.3v-.88h.29c.26,0,.45-.07.59-.2.12-.12.18-.28.18-.46,0-.16-.07-.32-.18-.44M28.4,39.94h-.29v-.79h.31c.16,0,.29.05.38.14.07.07.11.16.11.25,0,.18-.09.4-.5.4"/>
        <path class="cls-7" d="M23.78,41.12c.28,0,.55-.11.74-.3.2-.2.31-.49.31-.84s-.11-.63-.31-.84c-.19-.19-.46-.3-.74-.3-.51,0-1.05.35-1.05,1.13,0,.34.11.63.31.84.19.19.46.3.74.3M23.03,39.99c0-.27.08-.48.22-.63.13-.13.33-.21.53-.21s.39.08.53.21c.15.15.22.36.22.63,0,.62-.4.83-.75.83-.2,0-.39-.08-.53-.21-.15-.15-.22-.36-.22-.62"/>
        <path class="cls-7" d="M21.72,40.86c-.23,0-.45-.09-.61-.25-.16-.16-.26-.38-.26-.61s.09-.45.26-.61c.16-.16.38-.25.61-.25.17,0,.34.05.48.14v-.34c-.15-.07-.31-.1-.48-.1-.64,0-1.17.52-1.17,1.17,0,.31.12.61.34.83.22.22.51.34.82.34.17,0,.34-.04.49-.11v-.34c-.14.1-.31.15-.49.15"/>
        <path class="cls-7" d="M26.73,40.29c-.05-.09-.1-.17-.17-.23.09-.04.15-.09.19-.13.11-.11.17-.26.17-.43,0-.14-.05-.28-.16-.38-.14-.14-.37-.22-.64-.22h-.56v2.21h.3v-.95h.14c.21,0,.36.09.45.28.04.09.18.41.3.67h.33c-.09-.22-.29-.69-.36-.81M26.11,39.84h-.24v-.66h.26c.19,0,.35.05.43.14.05.05.07.1.07.17,0,.31-.33.35-.52.35"/>
        <path class="cls-7" d="M30.82,41.12c.28,0,.55-.11.74-.3.2-.2.31-.49.31-.84s-.11-.63-.31-.84c-.19-.19-.46-.3-.74-.3-.51,0-1.05.35-1.05,1.13,0,.34.11.63.31.84.19.19.46.3.74.3M30.07,39.99c0-.27.07-.48.22-.63.13-.13.32-.21.53-.21s.39.08.53.21c.15.15.22.36.22.63,0,.62-.41.83-.75.83-.2,0-.39-.08-.53-.21-.15-.15-.22-.36-.22-.62"/>
        <path class="cls-7" d="M33.77,40.29c-.05-.09-.1-.17-.17-.23.09-.04.15-.09.19-.13.11-.11.17-.26.17-.43,0-.14-.06-.28-.16-.38-.14-.14-.37-.22-.64-.22h-.56v2.21h.3v-.95h.14c.21,0,.36.09.45.28.05.09.18.41.3.67h.33c-.09-.22-.29-.69-.35-.81M33.15,39.84h-.24v-.66h.26c.19,0,.35.05.43.14.05.05.07.1.07.17,0,.31-.32.35-.52.35"/>
        <path class="cls-7" d="M35.8,38.89h-.32l-.92,2.21h.32l.21-.51h1.08l.21.51h.32l-.92-2.21ZM35.21,40.31l.43-1.03.43,1.03h-.86Z"/>
        <polygon class="cls-7" points="44.68 38.89 44.39 38.89 44.39 40.64 43.37 38.89 42.98 38.89 42.98 41.09 43.28 41.09 43.28 39.34 44.31 41.09 44.68 41.09 44.68 38.89"/>
      </g>
      <g>
        <path class="cls-3" d="M83.39,12.63v15.68c0,2.24-1.84,4.21-4.1,4.21s-4.1-1.97-4.1-4.21v-15.68h-3.31v13.06c0,3.45,3.08,7.59,7.41,7.59s7.41-3.3,7.41-7.59v-13.06h-3.31Z"/>
        <path class="cls-3" d="M102.18,32.85v-15.68c0-2.24-1.84-4.21-4.1-4.21s-4.1,1.97-4.1,4.21v15.68h-3.31v-13.06c0-3.45,3.08-7.59,7.41-7.59s7.41,3.3,7.41,7.59v13.06h-3.31Z"/>
        <path class="cls-3" d="M136.32,12.2c-2.22,0-4.09,1.21-5.34,2.86-1.25-1.76-3.22-2.86-5.6-2.86-4.12,0-7.04,4.14-7.04,7.59v13.06h3.14v-15.68c0-2.24,1.75-4.21,3.9-4.21s3.9,1.97,3.9,4.21v15.68h3.15v-15.68c0-2.24,1.74-4.21,3.9-4.21s3.9,1.97,3.9,4.21v15.68h3.14v-13.06c0-4.29-2.92-7.59-7.04-7.59"/>
        <rect class="cls-3" x="110.3" y="12.63" width="3.52" height="20.21"/>
        <path class="cls-3" d="M154.88,12.2c-4.33,0-7.41,4.14-7.41,7.59v13.06h3.31v-7.69h8.21v7.69h3.31v-13.06c0-4.29-3.08-7.59-7.41-7.59M150.77,24.22v-7.05c0-2.24,1.84-4.21,4.1-4.21s4.1,1.97,4.1,4.21v7.05h-8.21Z"/>
        <polygon class="cls-3" points="177.62 12.64 163.8 12.64 163.8 13.58 168.98 13.58 168.98 32.69 172.49 32.83 172.49 13.58 177.62 13.58 177.62 12.64"/>
        <path class="cls-3" d="M202.72,32.25h-5.91c-2.27,0-4.1-1.97-4.1-4.21v-15.68h-3.31v13.06c0,3.45,3.08,7.59,7.41,7.59h5.91v-.76Z"/>
        <rect class="cls-3" x="206.97" y="12.41" width="3.52" height="20.08"/>
        <path class="cls-3" d="M222.54,13.7h5.23v-.69h-5.23c-4.64,0-7.41,3.08-7.41,6.12v13.45h3.31v-9.43h7.81v-.94h-7.81v-3.77c0-2.24,1.32-4.74,4.1-4.74"/>
        <path class="cls-3" d="M236.71,13.7h5.23v-.69h-5.23c-4.64,0-7.41,3.08-7.41,6.12v7.49c0,3.04,2.77,6.12,7.41,6.12h5.23v-.69h-5.23c-2.78,0-4.1-2.49-4.1-4.74v-4.16h7.83v-.94h-7.83v-3.77c0-2.24,1.32-4.74,4.1-4.74"/>
      </g>
    </g>
  </g>
</svg>