<svg xmlns="http://www.w3.org/2000/svg" width="1600" height="900" viewBox="0 0 1600 900" role="img" aria-label="Achievement 03">
  <defs>
    <linearGradient id="bg" x1="0" y1="1" x2="1" y2="0">
      <stop offset="0" stop-color="#ffffff"/>
      <stop offset="0.45" stop-color="#FFF9E6"/>
      <stop offset="1" stop-color="#FFD700"/>
    </linearGradient>
    <linearGradient id="panel" x1="0" y1="0" x2="1" y2="1">
      <stop offset="0" stop-color="#1A1A1A"/>
      <stop offset="1" stop-color="#2C2C2C"/>
    </linearGradient>
  </defs>
  <rect width="1600" height="900" fill="url(#bg)"/>
  <g opacity="0.9">
    <rect x="220" y="170" width="1160" height="560" rx="40" fill="url(#panel)"/>
    <rect x="290" y="240" width="520" height="340" rx="28" fill="#ffffff"/>
    <rect x="860" y="240" width="450" height="26" rx="13" fill="#FFD700"/>
    <rect x="860" y="292" width="380" height="18" rx="9" fill="#ffffff" opacity="0.25"/>
    <rect x="860" y="330" width="420" height="18" rx="9" fill="#ffffff" opacity="0.25"/>
    <rect x="860" y="368" width="360" height="18" rx="9" fill="#ffffff" opacity="0.25"/>
    <g transform="translate(330 300)">
      <rect x="0" y="0" width="420" height="26" rx="13" fill="#1A1A1A" opacity="0.75"/>
      <rect x="0" y="50" width="360" height="18" rx="9" fill="#1A1A1A" opacity="0.25"/>
      <rect x="0" y="86" width="390" height="18" rx="9" fill="#1A1A1A" opacity="0.25"/>
      <rect x="0" y="122" width="320" height="18" rx="9" fill="#1A1A1A" opacity="0.25"/>
      <rect x="0" y="190" width="220" height="56" rx="28" fill="#FFD700"/>
      <path d="M165 218h24l10 10-10 10h-24l10-10-10-10z" fill="#1A1A1A"/>
    </g>
  </g>
</svg>

