<svg xmlns="http://www.w3.org/2000/svg" width="1600" height="900" viewBox="0 0 1600 900" role="img" aria-label="Achievement 01">
  <defs>
    <linearGradient id="bg" x1="0" y1="0" x2="1" y2="1">
      <stop offset="0" stop-color="#0B0B0B"/>
      <stop offset="0.55" stop-color="#1A1A1A"/>
      <stop offset="1" stop-color="#FFD700"/>
    </linearGradient>
    <filter id="soft" x="-20%" y="-20%" width="140%" height="140%">
      <feGaussianBlur stdDeviation="12" />
    </filter>
  </defs>
  <rect width="1600" height="900" fill="url(#bg)"/>
  <g opacity="0.25" filter="url(#soft)">
    <circle cx="420" cy="320" r="180" fill="#ffffff"/>
    <circle cx="1180" cy="580" r="240" fill="#ffffff"/>
  </g>
  <g opacity="0.85">
    <rect x="230" y="250" width="520" height="360" rx="24" fill="#ffffff"/>
    <rect x="280" y="300" width="420" height="28" rx="14" fill="#1A1A1A" opacity="0.85"/>
    <rect x="280" y="352" width="360" height="18" rx="9" fill="#1A1A1A" opacity="0.35"/>
    <rect x="280" y="392" width="380" height="18" rx="9" fill="#1A1A1A" opacity="0.35"/>
    <rect x="280" y="432" width="300" height="18" rx="9" fill="#1A1A1A" opacity="0.35"/>
    <rect x="280" y="500" width="220" height="56" rx="28" fill="#1A1A1A"/>
    <path d="M465 528h24l10 10-10 10h-24l10-10-10-10z" fill="#FFD700"/>
  </g>
</svg>

